<?xml version="1.0" standalone="no"?>
<!DOCTYPE svg PUBLIC "-//W3C//DTD SVG 20010904//EN"
 "http://www.w3.org/TR/2001/REC-SVG-20010904/DTD/svg10.dtd">
<svg version="1.0" xmlns="http://www.w3.org/2000/svg"
 width="700.000000pt" height="700.000000pt" viewBox="0 0 700.000000 700.000000"
 preserveAspectRatio="xMidYMid meet">
<metadata>
Created by potrace 1.14, written by Peter Selinger 2001-2017
</metadata>
<g transform="translate(0.000000,700.000000) scale(0.100000,-0.100000)"
fill="#000000" stroke="none">
<path d="M1725 6340 c-4 -6 -81 -10 -199 -10 -183 0 -246 -8 -246 -32 0 -5
-13 -8 -29 -8 -16 0 -31 -4 -33 -8 -1 -4 -38 -25 -81 -46 -43 -21 -81 -45 -84
-52 -3 -8 -11 -14 -19 -14 -16 0 -96 -83 -106 -111 -4 -11 -13 -19 -20 -19
-14 0 -127 -120 -128 -136 0 -6 -7 -17 -15 -24 -17 -14 -45 -67 -45 -87 0 -7
-4 -13 -10 -13 -5 0 -10 -7 -10 -15 0 -8 -9 -30 -19 -49 -12 -21 -16 -37 -10
-43 6 -6 2 -16 -11 -28 -11 -10 -20 -28 -20 -41 0 -13 -5 -26 -10 -29 -5 -3
-10 -28 -10 -56 0 -27 -4 -49 -10 -49 -14 0 -14 -377 0 -385 6 -3 10 -28 10
-56 0 -27 5 -49 10 -49 6 0 10 -11 10 -25 0 -13 9 -40 20 -60 11 -20 20 -42
20 -49 0 -8 14 -40 30 -71 17 -31 30 -63 30 -71 0 -8 4 -14 9 -14 5 0 16 -15
24 -32 9 -18 34 -51 56 -73 23 -21 41 -44 41 -50 0 -13 45 -65 57 -65 5 0 27
-18 48 -40 21 -22 44 -40 49 -40 5 0 21 -11 35 -24 31 -30 176 -106 202 -106
10 0 21 -4 24 -10 3 -5 17 -10 31 -10 13 0 24 -4 24 -10 0 -5 15 -10 34 -10
19 0 38 -4 41 -10 4 -6 83 -10 206 -10 126 0 199 4 199 10 0 6 15 10 34 10 19
0 38 5 41 10 3 6 17 10 30 10 13 0 27 5 30 10 3 6 15 10 26 10 17 0 56 17 69
30 7 7 49 30 55 30 15 0 1 -31 -25 -59 -31 -32 -62 -78 -79 -118 -5 -11 -14
-24 -20 -27 -6 -4 -18 -22 -27 -41 -9 -19 -20 -35 -25 -35 -5 0 -9 -6 -9 -13
0 -8 -22 -58 -50 -112 -27 -54 -50 -104 -50 -112 0 -7 -4 -13 -10 -13 -5 0
-10 -13 -10 -29 0 -17 -5 -33 -10 -36 -6 -3 -10 -17 -10 -30 0 -13 -5 -27 -10
-30 -5 -3 -10 -17 -10 -30 0 -13 -4 -27 -10 -30 -5 -3 -10 -21 -10 -39 0 -17
-4 -36 -9 -42 -6 -5 -13 -51 -17 -102 -4 -51 -11 -95 -15 -98 -12 -7 -12 -491
0 -498 4 -3 11 -47 15 -98 4 -51 11 -97 17 -103 5 -5 9 -24 9 -41 0 -18 5 -36
10 -39 6 -3 10 -17 10 -30 0 -13 5 -27 10 -30 6 -3 10 -17 10 -30 0 -13 5 -27
10 -30 6 -3 10 -19 10 -36 0 -16 5 -29 10 -29 6 0 10 -6 10 -13 0 -8 22 -58
50 -112 27 -54 50 -104 50 -112 0 -7 4 -13 9 -13 5 0 16 -16 25 -35 9 -19 21
-37 27 -41 6 -3 15 -16 20 -27 18 -41 35 -65 79 -117 25 -29 47 -57 49 -64 6
-19 54 -66 68 -66 7 0 13 -6 13 -13 0 -16 62 -87 75 -87 6 0 29 -18 50 -40 21
-22 44 -40 50 -40 6 0 17 -9 25 -20 8 -11 21 -20 30 -20 8 0 21 -9 28 -20 7
-11 18 -20 26 -20 7 0 19 -7 26 -15 7 -8 37 -27 69 -42 31 -15 58 -30 61 -33
3 -3 31 -18 63 -34 53 -25 57 -30 57 -61 0 -19 5 -37 10 -40 6 -3 10 -15 10
-26 0 -12 7 -19 20 -19 13 0 20 -7 20 -20 0 -11 6 -20 13 -20 8 0 22 -9 32
-20 10 -11 26 -20 36 -20 10 0 34 -9 54 -20 20 -11 44 -20 55 -20 11 0 20 -4
20 -10 0 -5 11 -10 24 -10 14 0 28 -5 31 -10 3 -6 35 -10 70 -10 35 0 67 -4
70 -10 4 -6 83 -10 205 -10 122 0 201 4 205 10 3 6 22 10 41 10 19 0 34 5 34
10 0 6 15 10 34 10 19 0 38 4 41 10 3 5 21 10 40 10 19 0 37 5 40 10 3 6 16
10 28 10 13 0 29 9 37 20 8 11 19 20 25 20 21 0 125 115 125 138 0 13 6 22 15
22 8 0 15 4 15 9 0 5 44 31 98 57 53 27 104 55 112 64 8 9 31 24 51 33 20 9
42 23 49 32 7 8 18 15 25 15 7 0 25 14 38 30 14 17 30 30 36 30 5 0 34 25 63
56 29 31 63 60 76 65 12 5 22 15 22 24 0 8 7 15 15 15 8 0 15 8 15 18 0 10 27
44 60 77 33 33 60 66 60 73 0 8 14 27 30 42 17 15 30 32 30 37 0 16 29 70 45
83 8 7 15 18 15 25 0 6 9 20 20 30 11 10 22 33 26 51 3 18 15 40 25 50 10 9
19 27 19 40 0 13 4 26 10 29 5 3 10 17 10 30 0 13 5 27 10 30 6 3 10 17 10 30
0 13 5 27 10 30 6 3 10 15 10 26 0 10 5 19 10 19 6 0 10 18 10 39 0 22 5 43
10 46 6 3 10 17 10 30 0 13 5 27 10 30 6 3 10 26 10 50 0 24 5 47 10 50 6 3
10 37 10 75 0 38 4 72 10 75 6 4 10 82 10 200 0 118 -4 196 -10 200 -5 3 -10
37 -10 75 0 38 -4 72 -10 75 -5 3 -10 21 -10 40 0 19 -4 37 -10 40 -5 3 -10
26 -10 50 0 24 -4 47 -10 50 -5 3 -10 15 -10 26 0 10 -4 19 -10 19 -5 0 -10
13 -10 29 0 17 -4 33 -10 36 -5 3 -10 15 -10 25 0 11 -9 35 -20 55 -11 20 -20
42 -20 50 0 8 -8 29 -19 48 -10 18 -22 47 -25 64 -4 18 -14 37 -22 44 -8 7
-24 31 -34 54 -10 23 -26 48 -35 55 -8 7 -15 21 -15 30 0 10 -6 20 -12 23 -7
2 -9 8 -5 13 4 5 11 4 15 -1 11 -16 50 -35 71 -35 11 0 23 -4 26 -10 3 -5 17
-10 30 -10 13 0 27 -4 30 -10 3 -5 22 -10 41 -10 19 0 34 -4 34 -10 0 -6 75
-10 205 -10 130 0 205 4 205 10 0 6 15 10 34 10 19 0 38 4 41 10 3 6 17 10 30
10 13 0 27 4 30 10 3 6 17 10 31 10 13 0 24 5 24 10 0 6 9 10 19 10 11 0 21 4
23 8 2 4 28 20 59 35 32 15 62 34 69 42 7 8 17 15 22 15 6 0 26 18 45 40 20
22 41 40 47 40 15 0 86 72 86 88 0 7 16 29 36 49 20 21 40 47 45 58 5 11 23
43 38 70 16 28 30 58 30 68 1 9 6 17 11 17 6 0 10 9 10 19 0 11 5 23 10 26 6
3 10 17 10 30 0 13 5 27 10 30 6 3 10 17 10 30 0 13 5 27 10 30 6 3 10 28 10
56 0 27 5 49 10 49 6 0 10 75 10 205 0 130 -4 205 -10 205 -5 0 -10 18 -10 39
0 22 -4 43 -10 46 -5 3 -10 17 -10 30 0 13 -4 27 -10 30 -5 3 -10 17 -10 29 0
16 -7 26 -22 30 -17 4 -20 8 -11 17 8 8 6 20 -7 47 -10 21 -26 53 -35 72 -9
19 -22 45 -29 56 -19 34 -150 174 -162 174 -6 0 -18 7 -25 16 -7 9 -25 21 -39
26 -14 6 -20 12 -12 15 21 8 13 23 -12 23 -16 0 -46 20 -86 56 -44 41 -69 57
-91 58 -17 1 -37 9 -44 19 -7 9 -20 17 -29 17 -9 0 -16 5 -16 10 0 6 -11 10
-24 10 -14 0 -28 5 -31 10 -3 6 -21 10 -40 10 -19 0 -37 5 -40 10 -4 6 -82 10
-200 10 -118 0 -196 -4 -200 -10 -3 -5 -21 -10 -40 -10 -19 0 -37 -4 -40 -10
-3 -5 -21 -10 -40 -10 -19 0 -37 -4 -40 -10 -3 -5 -17 -10 -30 -10 -13 0 -25
-4 -27 -8 -1 -4 -37 -24 -78 -45 -75 -36 -230 -165 -230 -190 0 -7 -25 -39
-56 -72 -30 -33 -64 -79 -74 -102 -11 -23 -24 -45 -30 -48 -16 -10 -43 -76
-43 -106 0 -18 -6 -29 -14 -29 -9 0 -12 -7 -8 -19 3 -10 -1 -24 -10 -31 -8 -7
-15 -23 -15 -36 0 -12 -4 -26 -10 -29 -5 -3 -10 -28 -10 -56 0 -27 -4 -49 -10
-49 -6 0 -10 -71 -10 -194 0 -119 4 -197 10 -201 6 -3 10 -26 10 -50 0 -24 5
-47 10 -50 6 -3 10 -15 10 -26 0 -10 5 -28 10 -39 6 -11 14 -28 19 -38 5 -10
12 -37 16 -60 4 -23 11 -42 16 -42 5 0 9 -5 9 -12 0 -6 -10 -2 -23 10 -13 12
-29 22 -35 22 -7 0 -12 5 -12 10 0 6 -9 10 -19 10 -11 0 -21 4 -23 8 -1 4 -37
25 -78 45 -41 21 -82 42 -90 46 -51 29 -104 51 -120 51 -11 0 -22 5 -25 10 -3
6 -17 10 -30 10 -13 0 -27 5 -30 10 -3 6 -22 10 -41 10 -19 0 -34 5 -34 10 0
6 -15 10 -34 10 -19 0 -38 5 -41 10 -3 6 -35 10 -71 10 -36 0 -64 4 -64 10 0
6 -80 10 -219 10 -136 0 -222 -4 -226 -10 -3 -5 -31 -10 -61 -10 -30 0 -54 -4
-54 -10 0 -5 -20 -10 -44 -10 -25 0 -48 -4 -51 -10 -3 -5 -17 -10 -30 -10 -13
0 -27 -4 -30 -10 -3 -5 -15 -10 -26 -10 -10 0 -28 -4 -39 -10 -11 -5 -29 -14
-40 -20 -11 -5 -28 -10 -37 -11 -10 0 -31 -9 -48 -19 -16 -11 -46 -27 -65 -37
-19 -9 -37 -20 -40 -23 -3 -3 -31 -18 -62 -34 -32 -15 -60 -31 -63 -36 -3 -5
-19 -15 -35 -24 -28 -13 -30 -13 -30 4 0 9 7 23 15 30 8 6 30 46 50 88 20 43
41 85 46 94 5 10 9 27 9 37 0 11 4 22 10 26 5 3 12 33 16 66 4 32 11 62 15 65
13 8 11 408 -2 421 -5 5 -12 41 -15 79 -2 37 -9 73 -14 78 -6 6 -10 17 -10 26
0 27 -30 80 -46 80 -8 0 -14 5 -14 10 0 6 4 10 10 10 5 0 1 16 -10 35 -11 20
-20 41 -20 48 0 7 -9 19 -20 27 -11 8 -20 22 -20 30 0 18 -60 80 -77 80 -6 0
-17 7 -24 16 -7 9 -23 20 -36 25 -16 6 -23 17 -23 37 0 31 -62 97 -115 122
-16 8 -37 23 -46 32 -9 10 -22 18 -28 18 -7 0 -24 14 -38 30 -19 23 -33 30
-62 30 -38 0 -91 19 -91 33 0 4 -18 7 -40 7 -22 0 -40 5 -40 10 0 6 -24 10
-54 10 -30 0 -58 -4 -61 -10z m1220 -1580 c3 -5 33 -10 65 -10 41 0 71 -6 95
-20 20 -11 44 -20 55 -20 11 0 20 -4 20 -10 0 -5 6 -10 13 -10 7 0 31 -18 52
-40 21 -22 44 -40 50 -40 16 0 55 -47 55 -65 0 -8 4 -15 8 -15 11 0 52 -77 53
-98 1 -22 32 -75 47 -80 7 -2 12 5 12 17 0 12 5 21 10 21 6 0 10 13 10 29 0
17 5 33 10 36 6 3 19 26 30 51 11 24 27 44 35 44 8 0 15 6 15 13 0 18 45 67
63 67 8 0 17 6 20 14 8 19 106 66 139 66 15 0 28 5 28 10 0 6 11 10 24 10 14
0 28 5 31 10 3 6 46 10 96 10 53 0 89 -4 89 -10 0 -5 11 -10 24 -10 14 0 28
-4 31 -10 3 -5 17 -10 30 -10 13 0 27 -4 30 -10 3 -5 16 -10 29 -10 13 0 31
-9 41 -20 10 -11 24 -20 32 -20 7 0 13 -4 13 -10 0 -5 8 -10 18 -10 9 0 23 -9
30 -20 7 -11 18 -20 25 -20 18 0 137 -125 137 -144 0 -7 7 -19 15 -26 16 -13
85 -149 85 -168 0 -6 5 -12 10 -12 6 0 10 -16 10 -35 0 -19 9 -50 20 -70 11
-20 20 -49 20 -65 0 -16 5 -32 10 -35 6 -3 10 -42 10 -85 0 -43 5 -82 10 -85
6 -3 10 -28 10 -55 0 -27 -4 -52 -10 -55 -5 -3 -10 -39 -10 -80 0 -41 -4 -77
-10 -80 -5 -3 -10 -28 -10 -55 0 -27 -4 -52 -10 -55 -5 -3 -10 -17 -10 -30 0
-13 -4 -27 -10 -30 -5 -3 -10 -17 -10 -30 0 -13 -4 -27 -10 -30 -5 -3 -10 -17
-10 -30 0 -13 -4 -27 -10 -30 -5 -3 -10 -15 -10 -26 0 -10 -4 -19 -10 -19 -5
0 -10 -13 -10 -30 0 -27 3 -30 30 -30 17 0 30 3 30 8 0 4 12 13 27 20 32 14
183 17 183 2 0 -5 24 -10 53 -10 49 0 56 -3 95 -43 23 -23 42 -48 42 -55 0 -6
9 -27 20 -47 11 -20 20 -44 20 -55 0 -10 5 -22 10 -25 13 -8 13 -202 0 -210
-5 -3 -10 -26 -10 -50 0 -24 -5 -47 -10 -50 -6 -3 -10 -24 -10 -46 0 -21 -4
-39 -10 -39 -5 0 -10 -22 -10 -49 0 -28 -4 -53 -10 -56 -5 -3 -10 -16 -10 -28
0 -12 -11 -44 -25 -71 -14 -27 -25 -60 -25 -73 0 -13 -4 -23 -10 -23 -5 0 -10
-11 -10 -23 0 -32 -24 -78 -55 -107 -14 -13 -25 -33 -25 -45 0 -12 -16 -38
-35 -59 -19 -21 -47 -63 -61 -94 -28 -59 -61 -102 -76 -102 -15 0 -35 -24 -40
-46 -2 -10 -15 -24 -29 -31 -14 -7 -56 -44 -92 -83 -36 -39 -74 -70 -85 -70
-10 0 -29 -11 -42 -25 -27 -29 -75 -55 -99 -55 -9 0 -23 -9 -31 -20 -8 -11
-20 -20 -26 -20 -6 0 -17 -7 -24 -15 -7 -8 -41 -29 -75 -45 -34 -16 -70 -41
-81 -55 -10 -14 -24 -25 -30 -25 -6 0 -21 -11 -34 -25 -13 -14 -29 -25 -37
-25 -7 0 -13 -7 -13 -15 0 -8 -17 -22 -37 -32 -21 -9 -45 -25 -54 -35 -9 -10
-21 -18 -26 -18 -6 0 -18 -9 -28 -20 -15 -17 -31 -20 -102 -20 -49 0 -83 -4
-83 -10 0 -5 -11 -10 -24 -10 -14 0 -28 -4 -31 -10 -3 -5 -44 -10 -91 -10 -49
0 -84 -4 -84 -10 0 -13 -167 -13 -175 0 -3 6 -35 10 -71 10 -36 0 -64 4 -64
10 0 6 -11 10 -24 10 -14 0 -28 5 -31 10 -3 5 -21 10 -39 10 -20 0 -40 8 -51
20 -10 11 -24 20 -31 20 -8 0 -19 9 -26 20 -7 11 -21 20 -30 20 -11 0 -18 8
-18 19 0 11 -4 23 -10 26 -5 3 -10 43 -10 88 l0 81 33 -32 c33 -32 57 -41 57
-22 0 5 -16 26 -36 45 -20 20 -34 38 -32 40 2 3 22 -13 43 -35 22 -22 45 -40
52 -40 7 0 13 -4 13 -10 0 -5 5 -10 10 -10 6 0 10 24 10 54 0 51 2 56 32 70
17 9 48 16 70 16 35 0 38 -2 38 -29 0 -20 6 -30 20 -34 12 -3 20 -14 20 -26 0
-12 -9 -31 -20 -43 -39 -42 -16 -118 37 -118 12 0 23 -4 23 -10 0 -6 28 -10
64 -10 36 0 68 -4 71 -10 3 -5 24 -10 45 -10 21 0 42 5 45 10 3 6 17 10 30 10
13 0 27 5 30 10 3 5 23 10 44 10 43 0 55 8 40 26 -5 7 -9 41 -7 76 l3 63 75 0
75 0 3 -57 c3 -61 11 -69 52 -48 11 5 29 15 40 20 11 6 26 10 33 10 23 0 71
28 97 55 13 14 28 25 33 25 5 0 22 14 37 30 15 17 31 30 36 30 16 0 44 34 44
55 0 12 11 32 25 45 14 13 25 28 25 34 0 13 44 66 55 66 17 0 45 34 45 55 0
13 7 28 15 35 9 7 23 28 31 46 10 21 24 34 35 34 12 0 19 7 19 18 0 10 18 36
40 57 28 28 42 51 47 77 3 21 10 41 14 44 5 3 9 12 9 20 0 8 13 29 30 47 16
18 30 37 30 43 0 6 9 19 20 29 12 11 20 31 20 51 0 18 5 36 10 39 6 3 10 26
10 51 0 44 29 94 55 94 6 0 22 12 36 28 25 27 36 48 63 114 11 28 25 42 55 55
23 10 41 23 41 29 0 6 9 19 20 29 11 10 20 31 20 47 0 24 4 28 26 28 17 0 28
-6 31 -20 7 -25 70 -29 79 -5 8 21 -23 85 -41 85 -8 0 -15 9 -15 20 0 13 -7
20 -20 20 -13 0 -20 7 -20 20 0 19 -5 21 -67 18 -65 -3 -68 -4 -68 -28 0 -20
6 -26 28 -28 27 -3 35 -16 17 -27 -5 -3 -10 -16 -10 -29 0 -13 -9 -31 -20 -41
-11 -10 -20 -23 -20 -29 0 -6 -15 -18 -32 -25 -36 -16 -58 -35 -58 -49 0 -39
-98 -172 -127 -172 -7 0 -13 -4 -13 -10 0 -5 -8 -10 -18 -10 -27 0 -115 -47
-142 -75 -13 -14 -29 -25 -37 -25 -7 0 -13 -9 -13 -20 0 -11 -7 -20 -15 -20
-18 0 -64 -49 -65 -67 0 -7 -7 -13 -15 -13 -9 0 -19 -10 -24 -23 -5 -13 -16
-29 -25 -36 -9 -7 -16 -22 -16 -32 0 -11 -7 -19 -15 -19 -9 0 -15 -9 -15 -24
0 -14 -4 -28 -10 -31 -5 -3 -10 -19 -10 -34 0 -15 -7 -42 -16 -59 -13 -27 -21
-32 -50 -32 -19 0 -34 -4 -34 -10 0 -5 -16 -10 -36 -10 -27 0 -37 -5 -41 -20
-5 -20 -43 -29 -43 -10 0 14 -67 13 -76 -1 -4 -7 -15 5 -26 30 -14 32 -24 41
-43 41 -18 0 -25 -5 -25 -20 0 -22 -16 -27 -23 -7 -5 14 -57 -41 -57 -60 0 -7
-9 -13 -20 -13 -16 0 -20 7 -20 31 0 17 -4 28 -10 24 -5 -3 -10 -17 -10 -31 0
-19 -5 -24 -26 -24 -20 0 -24 4 -20 18 4 12 -2 21 -21 30 -39 18 -63 15 -63
-7 0 -11 -6 -21 -12 -24 -10 -3 -10 -7 1 -20 9 -11 10 -17 2 -17 -20 0 -11
-36 15 -61 14 -13 32 -39 41 -57 14 -30 14 -34 -2 -52 -10 -11 -24 -20 -30
-20 -7 0 -15 -9 -18 -20 -4 -17 -14 -20 -61 -20 -33 0 -56 -4 -56 -11 0 -5 -4
-7 -10 -4 -15 9 -12 98 5 131 16 32 51 68 75 77 11 4 9 7 -7 12 -13 4 -23 14
-23 21 0 8 -8 18 -17 21 -10 4 -26 16 -36 27 -14 16 -22 18 -35 9 -9 -5 -17
-19 -17 -29 0 -11 -4 -25 -8 -31 -17 -26 -27 -12 -27 37 l0 50 -34 0 c-19 0
-38 -4 -41 -10 -3 -5 -15 -10 -26 -10 -11 0 -27 -6 -35 -14 -16 -17 -19 -102
-4 -111 6 -3 10 -17 10 -30 0 -25 -33 -46 -91 -59 -36 -8 -58 17 -41 45 7 10
12 25 12 32 0 23 28 71 55 97 34 32 35 80 2 80 -13 0 -29 -6 -35 -12 -10 -10
-14 -8 -18 10 -7 23 -47 32 -59 12 -9 -14 -61 -12 -87 3 -37 20 -78 67 -98
112 -10 23 -26 48 -35 55 -8 7 -15 24 -15 37 0 16 -7 27 -20 30 -11 3 -20 13
-20 22 0 19 -79 101 -98 101 -7 0 -12 6 -12 13 0 19 -45 67 -64 67 -9 0 -16 5
-16 10 0 6 -16 10 -34 10 -28 0 -37 -5 -48 -27 -17 -35 -47 -43 -55 -14 -3 12
-12 21 -19 21 -9 0 -14 12 -14 33 0 21 -10 44 -30 67 -16 19 -30 40 -30 46 0
5 -16 26 -35 44 -37 35 -65 82 -65 107 0 7 -4 13 -10 13 -5 0 -10 13 -10 29 0
17 -4 33 -10 36 -5 3 -10 17 -10 30 0 13 -4 27 -10 30 -18 11 -11 47 10 52 11
3 20 9 20 14 0 5 9 9 20 9 17 0 20 7 20 40 l0 40 -50 0 c-43 0 -50 -3 -50 -20
0 -14 -7 -20 -23 -20 -13 0 -32 -9 -42 -20 -10 -11 -24 -20 -32 -20 -7 0 -13
-6 -13 -13 0 -8 -9 -22 -20 -32 -13 -12 -20 -31 -20 -57 0 -32 3 -38 22 -38
24 0 78 46 78 67 0 8 5 11 10 8 6 -3 10 -21 10 -38 0 -18 7 -45 15 -61 8 -15
15 -44 15 -62 0 -19 4 -34 9 -34 5 0 25 -33 45 -74 20 -41 43 -80 51 -86 8 -7
15 -21 15 -31 0 -11 5 -19 10 -19 6 0 10 -9 10 -20 0 -11 4 -20 9 -20 5 0 11
-10 13 -22 2 -12 17 -29 33 -38 17 -9 35 -26 41 -38 6 -12 18 -30 26 -39 9
-10 19 -29 23 -43 11 -41 95 -207 111 -220 8 -7 14 -19 14 -26 0 -8 14 -28 30
-46 17 -17 30 -36 30 -43 0 -7 7 -18 15 -25 9 -7 25 -32 35 -55 10 -23 26 -48
35 -55 8 -7 15 -21 15 -31 0 -10 5 -21 11 -24 5 -4 14 -18 19 -31 5 -13 16
-24 25 -24 8 0 15 -6 15 -12 0 -7 32 -47 70 -88 60 -64 67 -75 49 -78 -17 -3
-19 -8 -14 -33 5 -23 3 -29 -10 -29 -8 0 -18 6 -21 14 -3 9 -12 12 -22 9 -11
-5 -14 -2 -9 9 4 12 1 14 -14 11 -24 -7 -78 19 -108 51 -14 14 -33 26 -43 26
-22 0 -57 19 -79 43 -9 9 -21 17 -26 17 -6 0 -18 9 -28 20 -10 11 -24 20 -31
20 -7 0 -43 34 -80 75 -37 41 -73 75 -81 75 -7 0 -13 6 -13 13 0 6 -22 35 -50
62 -27 28 -49 56 -50 63 0 7 -13 27 -30 45 -16 18 -30 37 -30 43 0 6 -9 19
-20 29 -11 10 -20 24 -20 30 0 7 -7 18 -15 25 -8 7 -15 21 -15 31 0 11 -4 19
-8 19 -10 0 -72 117 -72 136 0 7 -9 29 -20 49 -11 20 -20 47 -20 60 0 14 -4
25 -10 25 -5 0 -10 9 -10 19 0 11 -4 23 -10 26 -5 3 -10 17 -10 30 0 13 -4 27
-10 30 -5 3 -10 17 -10 30 0 13 -4 27 -10 30 -5 3 -10 21 -10 40 0 19 -4 37
-10 40 -5 3 -10 33 -10 65 0 32 -4 62 -10 65 -6 3 -10 52 -10 110 0 58 4 107
10 110 6 3 10 15 10 26 0 20 15 52 39 82 8 9 19 27 25 39 6 11 20 26 31 32 11
6 27 18 35 26 34 34 61 40 170 40 67 0 110 -4 110 -10 0 -5 6 -10 13 -10 8 0
22 -9 32 -20 10 -11 23 -20 30 -20 7 0 20 -9 30 -20 19 -21 45 -27 45 -11 0 6
-4 13 -10 16 -5 3 -10 16 -10 28 0 12 -7 35 -15 51 -8 15 -15 37 -15 47 0 10
-4 21 -10 24 -5 3 -10 19 -10 36 0 16 -4 29 -10 29 -5 0 -10 22 -10 49 0 28
-4 53 -10 56 -5 3 -10 26 -10 50 0 24 -4 47 -10 50 -6 4 -10 88 -10 221 0 136
4 214 10 214 6 0 10 18 10 39 0 22 5 43 10 46 6 3 10 17 10 30 0 13 5 27 10
30 6 3 10 14 10 24 0 10 11 40 25 67 14 27 25 54 25 60 0 25 30 67 99 139 39
41 77 75 85 75 8 0 16 6 19 14 3 8 36 29 72 46 36 17 69 38 72 46 3 8 14 14
24 14 10 0 19 3 19 8 0 10 50 32 71 32 10 0 21 5 24 10 3 6 21 10 40 10 19 0
37 5 40 10 3 6 21 10 40 10 19 0 37 -4 40 -10z m-115 -2779 c0 -5 9 -11 20
-14 13 -3 20 -14 20 -30 0 -14 5 -29 10 -32 18 -11 11 -47 -10 -52 -11 -3 -20
-9 -20 -14 0 -5 -27 -9 -60 -9 l-60 0 0 33 c0 19 8 42 20 55 11 12 20 28 20
37 0 8 9 15 20 15 11 0 20 5 20 10 0 6 5 10 10 10 6 0 10 -4 10 -9z m1298 -63
c7 -7 12 -38 12 -70 l0 -58 -33 0 c-36 0 -95 48 -69 57 6 3 12 10 12 17 0 49
49 83 78 54z m-141 -40 c13 -12 23 -26 23 -33 0 -6 9 -17 20 -25 26 -19 25
-30 -3 -30 -13 0 -34 -11 -47 -25 -35 -37 -84 -32 -88 9 -4 32 11 68 42 104
24 27 24 27 53 0z m-759 -33 c30 -34 31 -100 2 -108 -11 -3 -20 -12 -20 -21 0
-12 -10 -16 -45 -16 l-45 0 0 48 c1 38 6 54 33 84 38 44 47 46 75 13z m490
-59 c2 -39 -2 -70 -13 -93 l-16 -34 -92 3 -92 3 -3 29 c-2 16 1 33 7 39 6 6
11 22 11 36 0 14 12 38 27 53 26 27 32 29 98 26 l70 -3 3 -59z"/>
<path d="M3040 3925 c-7 -8 -19 -15 -26 -15 -8 0 -14 -6 -14 -13 0 -7 -9 -23
-20 -35 -11 -12 -20 -30 -20 -41 0 -11 -9 -37 -21 -57 -19 -35 -20 -53 -20
-292 0 -168 3 -258 10 -265 6 -6 11 -29 11 -52 0 -53 45 -145 70 -145 10 0 22
5 25 10 4 6 83 10 205 10 122 0 201 4 205 10 3 6 50 10 105 10 81 0 106 -4
135 -20 20 -11 49 -20 65 -20 16 0 44 -8 62 -19 28 -15 36 -16 46 -5 6 7 12
20 12 28 0 8 5 18 10 21 6 3 10 21 10 40 0 19 5 37 10 40 6 3 10 21 10 40 0
19 5 37 10 40 6 3 10 24 10 46 0 21 5 39 10 39 6 0 10 72 10 195 0 123 -4 195
-10 195 -5 0 -10 18 -10 39 0 22 -4 43 -10 46 -5 3 -10 15 -10 26 0 38 -70
129 -100 129 -9 0 -20 4 -26 10 -12 12 -103 -29 -104 -46 0 -6 -9 -19 -20 -29
-11 -10 -20 -26 -20 -37 0 -10 -4 -18 -10 -18 -5 0 -10 -22 -10 -49 0 -28 -4
-53 -10 -56 -5 -3 -10 -22 -10 -41 0 -19 5 -34 10 -34 6 0 10 6 10 13 0 20 46
67 67 67 10 0 24 5 30 11 8 8 13 8 17 0 4 -6 17 -11 30 -11 12 0 33 -11 46
-25 19 -20 21 -27 10 -40 -7 -8 -23 -15 -36 -15 -13 0 -24 -4 -24 -10 0 -5 -9
-10 -20 -10 -11 0 -20 -4 -20 -8 0 -13 64 -72 78 -72 17 0 15 -25 -3 -40 -8
-7 -38 -12 -66 -12 -54 0 -88 21 -112 71 -7 13 -18 26 -24 29 -10 3 -13 -35
-13 -167 0 -107 4 -171 10 -171 6 0 10 -22 10 -50 l0 -50 -185 0 c-154 0 -185
2 -185 14 0 8 5 18 10 21 6 3 10 26 10 50 0 24 5 47 10 50 6 4 10 88 10 220 0
132 -4 216 -10 220 -5 3 -10 23 -10 44 0 41 -30 108 -74 165 -24 33 -32 36
-75 36 -31 0 -53 -5 -61 -15z m123 -307 c39 -23 67 -51 67 -69 0 -10 5 -21 10
-24 6 -3 10 -17 10 -30 0 -13 -4 -27 -10 -30 -5 -3 -10 -14 -10 -24 0 -29 -71
-81 -110 -81 -11 0 -20 5 -20 10 0 6 -6 10 -13 10 -7 0 -26 13 -41 28 -30 32
-28 36 37 66 20 9 37 22 37 28 0 15 -30 48 -45 48 -6 0 -16 5 -23 12 -9 9 -8
16 5 30 9 10 22 18 30 18 7 0 13 5 13 10 0 14 36 12 63 -2z"/>
<path d="M3180 2864 c-25 -13 -50 -30 -56 -39 -6 -8 -19 -15 -28 -15 -9 0 -16
-8 -16 -18 0 -11 -9 -27 -20 -37 -17 -15 -20 -31 -20 -99 l0 -81 49 -53 c27
-30 61 -60 76 -68 31 -16 125 -19 125 -4 0 6 7 10 16 10 18 0 83 68 84 88 0
14 20 17 20 2 0 -5 9 -10 19 -10 11 0 21 -6 24 -12 3 -8 9 -3 15 12 9 24 10
24 17 5 4 -11 26 -39 48 -62 36 -38 47 -43 84 -43 24 0 43 5 43 10 0 6 6 10
14 10 7 0 20 7 27 16 7 9 23 20 36 25 13 5 23 17 23 28 0 11 9 36 20 56 23 41
26 111 7 148 -20 39 -95 117 -112 117 -8 0 -15 5 -15 10 0 6 -11 10 -24 10
-14 0 -28 5 -31 10 -3 6 -40 10 -81 10 -72 0 -74 -1 -74 -24 0 -14 -4 -28 -10
-31 -5 -3 -10 -15 -10 -26 0 -12 -7 -19 -20 -19 -13 0 -20 7 -20 20 0 11 -4
20 -10 20 -5 0 -10 14 -10 30 l0 30 -72 -1 c-56 -1 -84 -7 -118 -25z"/>
<path d="M2750 1530 c0 -5 5 -10 10 -10 6 0 10 5 10 10 0 6 -4 10 -10 10 -5 0
-10 -4 -10 -10z"/>
<path d="M3625 1350 c-8 -13 20 -24 41 -16 20 8 9 26 -16 26 -10 0 -22 -5 -25
-10z"/>
<path d="M5870 6069 c0 -5 5 -7 10 -4 6 3 10 8 10 11 0 2 -4 4 -10 4 -5 0 -10
-5 -10 -11z"/>
</g>
</svg>
