<?xml version="1.0" standalone="no"?>
<!DOCTYPE svg PUBLIC "-//W3C//DTD SVG 20010904//EN"
 "http://www.w3.org/TR/2001/REC-SVG-20010904/DTD/svg10.dtd">
<svg version="1.0" xmlns="http://www.w3.org/2000/svg"
 width="640.000000pt" height="480.000000pt" viewBox="0 0 640.000000 480.000000"
 preserveAspectRatio="xMidYMid meet">
<metadata>
Created by potrace 1.14, written by Peter Selinger 2001-2017
</metadata>
<g transform="translate(0.000000,480.000000) scale(0.100000,-0.100000)"
fill="#000000" stroke="none">
<path d="M3660 4490 c0 -5 -7 -10 -16 -10 -9 0 -29 -13 -44 -30 -15 -16 -33
-30 -40 -30 -7 0 -25 -13 -40 -30 -25 -26 -35 -30 -84 -30 -31 0 -56 -4 -56
-10 0 -5 -7 -10 -15 -10 -19 0 -65 -44 -65 -62 0 -8 -9 -20 -20 -28 -11 -8
-20 -22 -20 -32 0 -10 -4 -18 -10 -18 -6 0 -10 -38 -10 -95 l0 -96 70 -69 c47
-46 70 -77 70 -92 0 -13 9 -30 20 -38 11 -8 20 -21 20 -30 0 -9 9 -22 20 -30
11 -8 20 -22 20 -32 0 -10 5 -18 10 -18 6 0 10 -18 10 -40 0 -22 5 -40 10 -40
6 0 10 -18 10 -40 0 -22 -4 -40 -10 -40 -5 0 -10 -9 -10 -20 0 -11 -4 -20 -10
-20 -5 0 -10 -7 -10 -15 0 -20 -85 -105 -105 -105 -8 0 -15 -4 -15 -10 0 -5
-9 -10 -20 -10 -11 0 -20 -4 -20 -10 0 -5 -13 -10 -30 -10 -16 0 -30 -4 -30
-10 0 -6 -63 -10 -170 -10 -107 0 -170 -4 -170 -10 0 -5 -13 -10 -30 -10 -16
0 -30 -4 -30 -10 0 -5 -9 -10 -20 -10 -11 0 -20 -4 -20 -10 0 -5 -13 -10 -30
-10 -16 0 -30 -4 -30 -10 0 -5 -9 -10 -20 -10 -11 0 -20 -4 -20 -10 0 -5 -13
-10 -28 -10 -16 0 -34 -8 -42 -20 -8 -11 -22 -20 -32 -20 -10 0 -18 -4 -18
-10 0 -5 -8 -10 -18 -10 -10 0 -24 -9 -32 -20 -10 -14 -26 -20 -52 -20 -21 0
-38 -4 -38 -10 0 -6 -83 -10 -230 -10 -147 0 -230 4 -230 10 0 6 -13 10 -30
10 -16 0 -30 5 -30 10 0 6 -9 10 -20 10 -11 0 -20 5 -20 10 0 6 -13 10 -30 10
-16 0 -30 5 -30 10 0 6 -9 10 -20 10 -11 0 -20 5 -20 10 0 6 -9 10 -20 10 -11
0 -20 5 -20 10 0 6 -9 10 -20 10 -11 0 -20 5 -20 10 0 6 -12 10 -26 10 -16 0
-37 12 -54 30 -15 17 -33 30 -39 30 -17 0 -121 107 -121 125 0 8 -4 15 -10 15
-6 0 -10 37 -10 90 0 53 -4 90 -10 90 -5 0 -10 18 -10 40 0 22 -4 40 -10 40
-6 0 -10 27 -10 60 0 33 -4 60 -10 60 -6 0 -10 32 -10 76 0 95 -16 119 -55 80
-14 -14 -25 -34 -25 -46 0 -24 -102 -130 -125 -130 -8 0 -15 5 -15 10 0 6 -9
10 -20 10 -11 0 -20 5 -20 10 0 6 -9 10 -20 10 -11 0 -20 7 -20 15 0 29 -47
65 -85 65 -28 0 -35 -4 -35 -20 0 -11 -4 -20 -10 -20 -5 0 -10 -9 -10 -20 0
-11 -4 -20 -10 -20 -5 0 -10 -13 -10 -30 0 -16 5 -30 10 -30 6 0 10 -18 10
-40 0 -22 -4 -40 -10 -40 -5 0 -10 -22 -10 -50 0 -27 5 -50 10 -50 6 0 10 -7
10 -16 0 -9 14 -29 30 -44 17 -15 30 -33 30 -39 0 -14 226 -241 240 -241 14 0
100 -87 100 -101 0 -6 14 -24 30 -39 17 -15 30 -35 30 -44 0 -9 5 -16 10 -16
6 0 10 -8 10 -18 0 -10 9 -24 20 -32 11 -8 20 -22 20 -32 0 -10 5 -18 10 -18
6 0 10 -9 10 -20 0 -11 5 -20 10 -20 6 0 10 -7 10 -15 0 -25 46 -65 75 -65 14
0 25 -4 25 -10 0 -5 9 -10 20 -10 11 0 20 -4 20 -10 0 -5 9 -10 20 -10 11 0
20 -4 20 -10 0 -5 14 -10 30 -10 17 0 30 -4 30 -10 0 -5 18 -10 40 -10 22 0
40 -4 40 -10 0 -5 18 -10 40 -10 22 0 40 -4 40 -10 0 -6 30 -10 70 -10 40 0
70 -4 70 -10 0 -5 23 -10 50 -10 28 0 50 -4 50 -10 0 -6 103 -10 290 -10 187
0 290 -4 290 -10 0 -5 11 -10 25 -10 16 0 39 -13 60 -35 33 -32 35 -38 35
-100 0 -37 -4 -65 -10 -65 -6 0 -10 -50 -10 -130 0 -80 -4 -130 -10 -130 -5 0
-10 -22 -10 -50 0 -27 -4 -50 -10 -50 -5 0 -10 -18 -10 -40 0 -22 -4 -40 -10
-40 -5 0 -10 -22 -10 -50 0 -27 -4 -50 -10 -50 -5 0 -10 -22 -10 -50 0 -27 -4
-50 -10 -50 -5 0 -10 -18 -10 -40 0 -22 -4 -40 -10 -40 -15 0 -12 -70 4 -86
12 -11 57 -14 230 -14 137 0 216 4 216 10 0 6 18 10 40 10 22 0 40 5 40 10 0
6 40 10 100 10 60 0 100 4 100 10 0 6 53 10 140 10 87 0 140 4 140 10 0 6 57
10 150 10 93 0 150 4 150 10 0 6 25 10 55 10 46 0 60 4 80 25 14 13 25 36 25
50 0 14 5 25 10 25 6 0 10 23 10 50 0 28 5 50 10 50 6 0 10 30 10 70 0 40 4
70 10 70 6 0 10 18 10 40 0 22 5 40 10 40 6 0 10 47 10 120 0 73 4 120 10 120
6 0 10 9 10 20 0 13 7 20 20 20 11 0 20 5 20 10 0 6 23 10 50 10 28 0 50 -4
50 -10 0 -5 14 -10 30 -10 17 0 30 -4 30 -10 0 -5 14 -10 30 -10 17 0 30 -4
30 -10 0 -5 14 -10 30 -10 17 0 30 -4 30 -10 0 -5 14 -10 30 -10 17 0 30 -4
30 -10 0 -5 8 -10 18 -10 10 0 24 -9 32 -20 8 -11 22 -20 32 -20 10 0 18 -4
18 -10 0 -5 9 -10 20 -10 11 0 20 -4 20 -10 0 -5 9 -10 20 -10 11 0 20 -4 20
-10 0 -5 9 -10 20 -10 11 0 20 -4 20 -10 0 -5 9 -10 20 -10 11 0 20 -4 20 -10
0 -5 14 -10 30 -10 17 0 30 -4 30 -10 0 -5 9 -10 20 -10 11 0 20 -4 20 -10 0
-5 9 -10 20 -10 11 0 20 -4 20 -10 0 -5 14 -10 30 -10 17 0 30 -4 30 -10 0 -5
14 -10 30 -10 17 0 30 -4 30 -10 0 -5 9 -10 20 -10 11 0 20 -4 20 -10 0 -5 9
-10 20 -10 11 0 20 -4 20 -10 0 -5 9 -10 20 -10 11 0 20 -4 20 -10 0 -5 9 -10
20 -10 11 0 20 -4 20 -10 0 -5 9 -10 20 -10 11 0 20 -4 20 -10 0 -5 9 -10 20
-10 11 0 20 -4 20 -10 0 -5 9 -10 20 -10 11 0 20 -4 20 -10 0 -5 14 -10 30
-10 17 0 30 -4 30 -10 0 -5 9 -10 20 -10 11 0 20 -4 20 -10 0 -5 9 -10 20 -10
11 0 20 -4 20 -10 0 -5 23 -10 50 -10 28 0 50 5 50 10 0 6 9 10 20 10 11 0 20
5 20 10 0 6 23 10 50 10 28 0 50 -4 50 -10 0 -5 9 -10 20 -10 11 0 20 -4 20
-10 0 -6 30 -10 70 -10 40 0 70 -4 70 -10 0 -5 18 -10 40 -10 22 0 40 -4 40
-10 0 -15 29 -12 46 4 22 23 16 56 -16 86 -17 15 -30 33 -30 40 0 16 -25 40
-42 40 -8 0 -20 9 -28 20 -8 11 -26 20 -40 20 -14 0 -32 9 -40 20 -8 11 -20
20 -28 20 -7 0 -35 23 -62 50 -27 28 -56 50 -64 50 -9 0 -16 5 -16 10 0 6 -13
10 -30 10 -16 0 -30 5 -30 10 0 6 -13 10 -30 10 -16 0 -30 5 -30 10 0 6 -9 10
-20 10 -11 0 -20 5 -20 10 0 6 -7 10 -16 10 -8 0 -33 18 -54 40 -21 22 -45 40
-52 40 -7 0 -20 9 -28 20 -8 11 -21 20 -30 20 -9 0 -22 9 -30 20 -8 11 -22 20
-32 20 -10 0 -18 5 -18 10 0 6 -9 10 -20 10 -11 0 -20 5 -20 10 0 6 -9 10 -20
10 -11 0 -20 5 -20 10 0 6 -13 10 -30 10 -16 0 -30 5 -30 10 0 6 -13 10 -30
10 -16 0 -30 5 -30 10 0 6 -7 10 -16 10 -8 0 -33 18 -54 40 -21 22 -46 40 -54
40 -9 0 -16 5 -16 10 0 6 -22 10 -50 10 -27 0 -50 5 -50 10 0 6 -9 10 -20 10
-11 0 -20 5 -20 10 0 6 -8 10 -18 10 -10 0 -24 9 -32 20 -8 11 -20 20 -28 20
-7 0 -57 45 -112 100 -55 55 -105 100 -112 100 -8 0 -20 9 -28 20 -8 11 -22
20 -32 20 -10 0 -18 5 -18 10 0 6 -7 10 -16 10 -8 0 -42 27 -74 60 -42 42 -66
60 -84 60 -15 0 -26 5 -26 10 0 6 -33 10 -80 10 -47 0 -80 4 -80 10 0 6 -9 10
-20 10 -11 0 -20 5 -20 10 0 6 -8 10 -18 10 -10 0 -24 9 -32 20 -8 11 -21 20
-30 20 -9 0 -22 9 -30 20 -8 11 -20 20 -28 20 -18 0 -82 66 -82 85 0 8 -4 15
-10 15 -5 0 -10 14 -10 30 0 17 -4 30 -10 30 -5 0 -10 9 -10 20 0 11 5 20 10
20 6 0 10 14 10 30 0 17 5 30 10 30 6 0 10 14 10 30 0 17 5 30 10 30 6 0 10 7
10 16 0 9 14 29 30 44 17 15 30 34 30 42 0 7 9 20 20 28 18 13 20 26 20 112 0
59 4 98 10 98 6 0 10 14 10 30 0 17 5 30 10 30 6 0 10 47 10 120 0 73 -4 120
-10 120 -5 0 -10 7 -10 15 0 9 -31 47 -70 85 -38 38 -70 74 -70 80 0 17 -26
40 -44 40 -9 0 -16 5 -16 10 0 6 -9 10 -20 10 -11 0 -20 5 -20 10 0 6 -27 10
-60 10 -33 0 -60 -4 -60 -10z"/>
</g>
</svg>
