<?xml version="1.0" standalone="no"?>
<!DOCTYPE svg PUBLIC "-//W3C//DTD SVG 20010904//EN"
 "http://www.w3.org/TR/2001/REC-SVG-20010904/DTD/svg10.dtd">
<svg version="1.0" xmlns="http://www.w3.org/2000/svg"
 width="640.000000pt" height="480.000000pt" viewBox="0 0 640.000000 480.000000"
 preserveAspectRatio="xMidYMid meet">
<metadata>
Created by potrace 1.14, written by Peter Selinger 2001-2017
</metadata>
<g transform="translate(0.000000,480.000000) scale(0.100000,-0.100000)"
fill="#000000" stroke="none">
<path d="M2570 4788 c-19 -5 -52 -14 -72 -19 -31 -8 -41 -18 -59 -57 -12 -26
-26 -74 -30 -107 -4 -33 -14 -87 -23 -120 -24 -90 -22 -356 3 -410 10 -22 26
-47 36 -55 10 -8 35 -51 57 -94 33 -70 38 -89 38 -152 0 -99 -16 -118 -113
-134 -183 -30 -354 -71 -418 -101 -55 -26 -83 -47 -141 -112 -40 -44 -98 -119
-128 -168 -30 -48 -76 -118 -101 -156 -67 -99 -151 -265 -184 -363 -55 -162
-44 -382 22 -448 14 -14 29 -39 34 -56 13 -47 56 -89 86 -83 13 2 26 0 29 -4
10 -16 61 -9 85 11 17 14 19 18 6 14 -14 -5 -16 -3 -9 16 7 19 96 65 142 73 8
1 18 6 21 11 4 5 12 7 19 4 8 -2 0 -12 -18 -24 l-31 -20 99 4 c80 4 105 1 125
-12 32 -21 63 -82 75 -149 5 -28 39 -111 76 -184 56 -113 70 -133 96 -142 47
-16 62 -14 130 22 l62 32 311 -3 310 -3 110 -36 c78 -25 130 -36 180 -37 39 0
73 -5 78 -11 4 -7 10 -6 15 1 8 12 83 11 103 -1 8 -6 10 -4 4 5 -6 10 0 12 23
8 22 -3 29 -1 25 9 -6 16 27 6 39 -11 5 -7 8 -7 8 2 0 6 9 12 20 12 25 0 26
-18 3 -37 -16 -13 -15 -14 12 -9 17 2 43 10 59 16 27 10 28 12 11 24 -16 12
-15 14 16 20 19 5 28 10 22 13 -19 7 10 33 36 33 12 0 21 4 21 9 0 18 104 123
141 141 24 13 41 30 48 51 14 40 14 39 -4 39 -8 0 -15 5 -15 10 0 6 -9 10 -20
10 -11 0 -20 3 -20 8 0 10 -74 32 -109 32 -17 0 -33 5 -36 10 -3 6 -17 10 -31
10 -13 0 -24 5 -24 10 0 6 -7 10 -16 10 -23 0 -44 25 -44 54 0 14 -4 26 -10
26 -6 0 -10 32 -10 76 0 41 4 73 8 70 5 -3 16 8 26 25 9 16 21 27 27 24 5 -4
6 8 2 27 -7 38 -14 48 -20 31 -3 -7 -13 -23 -24 -35 l-19 -23 6 30 c4 17 14
44 22 60 14 28 14 29 -1 16 -10 -7 -17 -19 -17 -25 0 -6 -9 -17 -20 -24 -11
-7 -20 -11 -20 -10 0 2 9 33 19 70 l19 67 -24 93 c-15 58 -24 123 -24 173 -1
84 -6 117 -38 229 -15 50 -30 79 -59 108 -42 44 -120 88 -142 80 -8 -3 -11 0
-7 6 3 6 2 13 -3 17 -6 3 -15 -3 -20 -14 -7 -13 -18 -17 -31 -14 -11 3 -18 9
-15 13 2 4 -9 7 -25 8 -22 0 -45 17 -95 66 -36 36 -65 70 -65 76 0 6 -4 9 -8
6 -4 -2 -14 -1 -21 4 -11 6 -9 18 13 61 15 31 25 68 25 88 l-2 36 -6 -33 c-3
-18 -10 -33 -16 -32 -12 0 -12 5 -1 48 4 17 11 32 14 32 4 0 8 24 10 53 2 28
12 89 22 133 11 45 20 112 20 148 0 96 39 171 120 229 54 38 59 45 60 78 0 20
-7 56 -15 79 -24 69 -39 253 -28 340 6 41 9 78 6 83 -6 11 -782 7 -823 -5z
m603 -1267 c-4 -17 -8 -19 -14 -9 -12 18 -11 31 1 23 6 -3 10 -1 10 6 0 7 2
10 5 8 2 -3 2 -15 -2 -28z m298 -268 c-8 -15 -10 -15 -11 -2 0 17 10 32 18 25
2 -3 -1 -13 -7 -23z m-1806 -1091 c-4 -4 -10 -1 -12 5 -3 8 -15 11 -31 8 -20
-4 -17 -1 8 8 30 12 35 12 38 0 2 -8 1 -18 -3 -21z m1912 -418 c-3 -3 -12 -4
-19 -1 -8 3 -5 6 6 6 11 1 17 -2 13 -5z m50 0 c-3 -3 -12 -4 -19 -1 -8 3 -5 6
6 6 11 1 17 -2 13 -5z"/>
<path d="M2420 4735 c0 -8 2 -15 4 -15 2 0 6 7 10 15 3 8 1 15 -4 15 -6 0 -10
-7 -10 -15z"/>
<path d="M3210 3541 c0 -5 -3 -18 -6 -28 -5 -16 -4 -16 11 2 17 20 17 20 10
-5 -6 -19 -5 -22 5 -14 13 13 5 54 -11 54 -5 0 -9 -4 -9 -9z"/>
<path d="M3246 3484 c-4 -14 -5 -29 -2 -31 3 -3 8 7 12 21 3 15 4 29 1 32 -2
3 -8 -7 -11 -22z"/>
<path d="M3395 3321 c-3 -5 -1 -12 5 -16 5 -3 10 1 10 9 0 18 -6 21 -15 7z"/>
<path d="M3750 2568 c0 -9 5 -20 10 -23 13 -8 13 5 0 25 -8 13 -10 13 -10 -2z"/>
</g>
</svg>
