<?xml version="1.0" standalone="no"?>
<!DOCTYPE svg PUBLIC "-//W3C//DTD SVG 20010904//EN"
 "http://www.w3.org/TR/2001/REC-SVG-20010904/DTD/svg10.dtd">
<svg version="1.0" xmlns="http://www.w3.org/2000/svg"
 width="640.000000pt" height="480.000000pt" viewBox="0 0 640.000000 480.000000"
 preserveAspectRatio="xMidYMid meet">
<metadata>
Created by potrace 1.14, written by Peter Selinger 2001-2017
</metadata>
<g transform="translate(0.000000,480.000000) scale(1.000000,-1.000000)"
fill="#000000" stroke="none">
<path d="M268 435 c-1 -1 -2 -2 -2 -3 0 -1 -2 -3 -4 -5 -2 -2 -4 -5 -4 -5 0
-1 0 -2 -1 -2 -1 0 -1 -4 -1 -9 0 -5 0 -9 1 -9 1 0 1 -3 1 -6 0 -3 0 -6 1 -6
1 0 1 -3 1 -7 0 -4 0 -7 1 -7 1 0 1 -3 1 -6 0 -3 0 -6 1 -6 1 0 1 -2 1 -5 0
-3 0 -5 1 -5 1 0 1 -2 1 -4 0 -2 0 -4 1 -4 1 0 1 -1 1 -3 0 -2 0 -3 1 -3 1 0
1 -1 1 -2 0 -1 18 -20 20 -20 1 0 2 -1 4 -3 2 -2 3 -3 4 -3 1 0 2 -1 3 -2 1
-1 2 -2 3 -2 2 0 4 -3 4 -4 0 -1 0 -2 1 -2 2 0 1 -5 -2 -8 -2 -2 -3 -3 -3 -4
0 -1 -4 -6 -10 -11 -5 -5 -10 -10 -10 -11 0 -1 -2 -3 -4 -5 -2 -2 -4 -4 -4 -5
0 -1 -3 -4 -7 -8 -4 -4 -7 -8 -7 -8 0 -1 -1 -2 -2 -3 -1 -1 -2 -2 -2 -3 0 -1
0 -2 -1 -2 -1 0 -1 -1 -1 -2 0 -1 0 -2 -1 -2 -1 0 -1 -1 -1 -3 0 -2 0 -3 -1
-3 -1 0 -1 -2 -1 -4 0 -2 0 -4 -1 -4 -1 0 -1 -1 -1 -3 0 -2 0 -3 -1 -3 -1 0
-1 -1 -1 -2 0 -1 -8 -10 -10 -10 -1 0 -2 -1 -3 -2 -1 -1 -2 -2 -3 -2 -1 0 -2
-1 -3 -2 -1 -1 -2 -2 -3 -2 -1 0 -2 -1 -4 -3 -2 -2 -3 -3 -4 -3 -1 0 -2 -1 -4
-3 -2 -2 -3 -3 -4 -3 -1 0 -2 -1 -3 -2 -1 -1 -2 -2 -3 -2 -1 0 -2 -1 -3 -2 -1
-1 -2 -2 -3 -2 -1 0 -2 -1 -3 -2 -1 -1 -2 -2 -3 -2 -1 0 -2 0 -2 -1 0 -1 -1
-1 -2 -1 -1 0 -2 -1 -3 -2 -1 -1 -2 -2 -3 -2 -1 0 -2 -1 -3 -2 -1 -1 -2 -2 -3
-2 -1 0 -2 -1 -3 -2 -1 -1 -2 -2 -3 -2 -1 0 -2 0 -2 -1 0 -1 -1 -1 -2 -1 -1 0
-2 0 -2 -1 0 -1 -1 -1 -2 -1 -1 0 -2 -1 -3 -2 -1 -1 -2 -2 -3 -2 -1 0 -2 0 -2
-1 0 -1 -1 -1 -2 -1 -1 0 -2 -1 -3 -2 -1 -1 -2 -2 -3 -2 -1 0 -2 0 -2 -1 0 -1
-1 -1 -2 -1 -1 0 -2 0 -2 -1 0 -1 -1 -1 -2 -1 -1 0 -2 -1 -3 -2 -1 -1 -2 -2
-3 -2 -1 0 -2 0 -2 -1 0 -1 -1 -1 -2 -1 -1 0 -2 0 -2 -1 0 -1 -1 -1 -2 -1 -1
0 -2 0 -2 -1 0 -1 -1 -1 -2 -1 -1 0 -2 0 -2 -1 0 -1 -1 -1 -2 -1 -1 0 -2 0 -2
-1 0 -1 -1 -1 -3 -1 -2 0 -3 0 -3 -1 0 -1 -1 -1 -3 -1 -2 0 -3 0 -3 -1 0 -1
-1 -1 -2 -1 -1 0 -2 0 -2 -1 0 -1 -2 -1 -4 -1 -2 0 -4 0 -4 -1 0 -1 -1 -1 -2
-1 -1 0 -2 0 -2 -1 0 -1 -1 -1 -3 -1 -2 0 -3 0 -3 -1 0 -1 -1 -1 -2 -1 -1 0
-2 0 -2 -1 0 -1 -1 -1 -2 -1 -1 0 -2 0 -2 -1 0 -1 -1 -1 -3 -1 -2 0 -3 0 -3
-1 0 -1 -1 -1 -2 -1 -1 0 -2 0 -2 -1 0 -1 -1 -1 -2 -1 -1 0 -2 0 -2 -1 0 -1
-1 -1 -2 -1 -1 0 -2 -1 -3 -2 -1 -1 -2 -2 -3 -2 -2 0 -4 -2 -4 -4 0 -1 -1 -2
-2 -3 -1 -1 -2 -3 -2 -4 0 -2 0 -3 -1 -3 -1 0 -1 -2 -1 -4 0 -2 0 -4 1 -4 1 0
1 -4 1 -10 0 -7 0 -10 1 -11 2 -1 11 -2 11 0 0 1 1 1 2 1 1 0 2 0 2 1 0 1 1 1
2 1 1 0 2 0 2 1 0 1 1 1 2 1 1 0 2 0 2 1 0 1 1 1 2 1 1 0 2 0 2 1 0 1 1 1 2 1
1 0 2 0 2 1 0 1 1 1 2 1 1 0 2 0 2 1 0 1 1 1 2 1 1 0 2 0 2 1 0 1 1 1 2 1 1 0
2 0 2 1 0 1 1 1 3 1 2 0 3 0 3 1 0 1 1 1 3 1 2 0 3 0 3 1 0 1 1 1 3 1 2 0 3 0
3 1 0 1 2 1 5 1 3 0 5 0 5 1 0 1 2 1 4 1 2 0 4 0 4 1 0 1 1 1 3 1 2 0 3 0 3 1
0 1 2 1 5 1 3 0 5 0 5 1 0 1 2 1 5 1 3 0 5 0 5 1 0 1 3 1 6 1 3 0 6 0 6 1 0 1
3 1 6 1 3 0 6 0 6 1 0 1 4 1 9 1 6 0 9 0 9 1 1 1 1 1 2 0 0 -1 5 -1 17 -1 11
0 17 0 17 -1 0 -1 1 -1 3 -1 1 0 3 -1 4 -2 1 -1 2 -2 3 -2 2 0 6 -5 6 -6 0 -1
0 -2 1 -2 1 0 1 -1 1 -2 0 -1 0 -2 1 -2 1 0 1 -1 1 -3 0 -2 0 -3 1 -3 1 0 1
-2 1 -4 0 -2 0 -4 1 -4 1 0 1 -1 1 -3 0 -2 0 -3 1 -3 1 0 1 -1 1 -2 0 -1 0 -2
1 -2 1 0 1 -2 1 -4 0 -2 1 -4 1 -4 1 -1 1 -1 0 -2 -1 -1 -1 -1 0 -2 0 0 1 -2
1 -4 0 -2 0 -4 1 -4 1 0 1 -3 1 -6 0 -3 0 -6 1 -6 1 0 1 -3 1 -7 l0 -7 31 0
31 0 0 3 c0 2 0 3 -1 3 -1 0 -1 1 -1 3 0 2 0 3 1 3 1 0 1 3 1 6 0 6 1 8 6 8 3
0 8 -4 8 -6 0 -1 0 -2 1 -2 1 0 1 -1 1 -3 0 -2 0 -3 1 -3 1 0 1 -2 1 -4 0 -2
0 -4 1 -4 1 0 1 -1 1 -2 0 -2 1 -2 6 -2 5 0 6 0 6 2 0 1 0 2 1 2 1 0 1 1 1 3
0 2 0 3 1 3 1 0 1 1 1 2 0 1 0 2 1 2 1 0 1 1 1 2 0 1 0 2 1 2 1 0 1 1 1 2 0 1
0 2 1 2 1 0 1 1 1 2 0 2 4 6 6 6 1 0 2 0 2 1 0 1 3 1 8 1 5 0 8 0 8 -1 0 -1 2
-1 5 -1 3 0 5 0 5 -1 0 -1 3 -1 6 -1 3 0 6 0 6 -1 0 -1 6 -1 17 -1 11 0 17 0
17 1 0 1 16 1 46 1 30 0 46 0 46 -1 0 -1 1 -1 2 -1 1 0 2 0 2 1 0 1 2 1 4 1 2
0 4 0 4 1 0 1 10 1 29 1 19 0 29 0 29 1 0 1 1 1 2 1 2 0 4 2 4 5 0 2 -4 7 -6
7 -1 0 -2 0 -2 1 0 1 -1 1 -3 1 -1 0 -3 1 -6 3 -2 3 -3 5 -3 8 0 3 1 5 1 5 1
1 1 1 0 2 0 0 -1 1 -1 2 0 2 -2 4 -4 4 -1 0 -2 0 -2 1 0 1 -4 1 -9 1 -8 0 -8
0 -12 3 -1 2 -3 5 -3 5 0 1 0 2 -1 2 -1 0 -1 1 -1 2 0 1 -14 16 -16 16 -2 0
-14 13 -14 14 0 1 -1 2 -2 3 -1 1 -2 2 -2 3 0 1 -15 16 -16 16 -1 0 -8 7 -8 8
0 1 -1 2 -3 4 -2 2 -3 4 -3 4 0 1 0 2 -1 2 -1 0 -1 1 -1 2 0 1 -1 2 -2 3 -1 1
-2 2 -2 3 0 1 0 2 -1 2 -1 0 -1 1 -1 2 0 1 0 2 -1 2 -1 0 -1 1 -1 2 0 1 0 2
-1 2 -1 0 -1 1 -1 2 0 1 0 2 -1 2 -1 0 -1 1 -1 3 0 2 0 3 -1 3 -1 0 -1 2 -1 4
0 2 0 4 -1 4 -1 0 -1 1 -1 3 0 2 0 3 1 3 1 0 1 2 1 4 0 2 0 4 1 4 1 0 1 2 1 5
0 3 0 5 1 5 1 0 1 1 1 3 0 2 0 3 1 3 1 0 1 2 1 4 0 2 0 4 -1 4 -1 0 -1 1 -1 2
0 1 0 2 -1 2 -1 0 -1 1 -1 2 0 0 -3 4 -6 7 -3 3 -6 6 -6 7 0 1 -5 6 -6 6 -1 0
-4 3 -7 6 -3 3 -6 6 -7 6 -2 0 -4 3 -4 5 0 2 6 9 8 9 1 0 2 0 2 1 0 1 1 1 2 1
1 0 2 0 2 1 0 1 1 1 2 1 1 0 2 0 2 1 0 1 1 1 3 1 1 0 3 1 4 2 1 1 2 2 3 2 1 0
2 0 2 1 0 1 1 1 2 1 1 0 10 8 10 10 0 2 5 6 6 6 1 0 2 0 2 1 0 1 2 1 5 1 3 0
5 1 8 3 1 2 3 5 3 5 0 1 0 2 1 2 1 0 1 5 1 13 0 8 0 13 -1 13 -1 0 -1 1 -1 3
0 2 0 3 -1 3 -1 0 -1 1 -1 2 0 1 0 2 -1 2 -1 0 -1 1 -1 2 0 0 -2 3 -3 5 -4 3
-4 3 -9 3 -4 0 -6 0 -6 1 0 1 -1 1 -2 1 -1 0 -2 0 -2 1 0 1 -1 1 -2 1 -1 0 -2
0 -2 1 0 1 -1 1 -2 1 -1 0 -2 0 -2 1 0 1 -2 1 -5 1 -3 0 -5 0 -5 -1 0 -1 -1
-1 -2 -1 -1 0 -2 0 -2 -1 0 -1 -1 -1 -2 -1 -1 0 -2 0 -2 -1 0 -1 -1 -1 -2 -1
0 0 -2 -1 -4 -3 -2 -2 -3 -3 -4 -3 -2 0 -14 -13 -14 -14 0 -1 0 -2 -1 -2 -1 0
-1 -1 -1 -2 0 -1 0 -2 -1 -2 -1 0 -1 -1 -1 -2 0 -1 0 -2 -1 -2 -1 0 -1 -2 -1
-5 0 -3 0 -5 -1 -5 -1 0 -1 -1 -1 -2 0 -1 0 -2 -1 -2 -1 0 -1 -1 -1 -2 0 0 -2
-3 -3 -5 -2 -1 -5 -3 -5 -3 -1 0 -2 0 -2 -1 0 -1 -1 -1 -3 -1 -1 0 -3 1 -6 4
-2 2 -4 4 -5 4 -1 0 -2 1 -4 3 -2 2 -3 3 -4 3 -1 0 -2 1 -4 3 -2 2 -3 3 -4 3
-1 0 -2 1 -3 2 -1 1 -2 2 -3 2 -1 0 -2 0 -2 1 0 1 -1 1 -2 1 -1 0 -2 0 -2 1 0
1 -3 1 -6 1 -3 0 -6 0 -6 -1 0 -1 -1 -1 -3 -1 -2 0 -3 0 -3 -1 0 -1 -1 -1 -2
-1 -1 0 -2 0 -2 -1 0 -1 -1 -1 -2 -1 -1 0 -2 0 -2 -1 0 -1 -3 -1 -6 -1 -3 0
-6 0 -6 1 0 1 -2 1 -4 1 -2 0 -4 0 -4 1 0 1 -1 1 -3 1 -1 0 -3 1 -4 2 -1 1 -2
2 -3 2 -1 0 -2 1 -4 3 -2 2 -3 3 -4 3 -2 0 -4 3 -4 4 0 1 -1 2 -2 3 -1 1 -2 2
-2 3 0 1 -1 2 -2 3 -1 1 -2 2 -2 3 0 1 0 2 -1 2 -1 0 -1 4 -1 10 0 6 0 10 -1
10 -1 0 -1 1 -1 3 0 2 0 3 -1 3 -1 0 -1 3 -1 6 0 3 0 6 -1 6 -1 0 -1 2 -1 4 0
2 0 4 -1 4 -1 0 -1 2 -1 4 0 2 0 4 -1 4 -1 0 -1 1 -1 3 0 2 0 3 -1 3 -1 0 -1
1 -1 2 0 1 0 2 -1 2 -1 0 -1 1 -1 2 0 1 -1 2 -2 3 -1 1 -2 2 -2 3 0 3 -7 3
-10 -1z m181 -280 c1 -2 3 -5 3 -5 0 -1 0 -2 1 -2 1 0 1 -1 1 -2 0 -1 1 -2 2
-3 1 -1 2 -2 2 -3 0 -1 0 -2 1 -2 1 0 1 -1 1 -2 0 -1 1 -2 2 -3 1 -1 2 -2 2
-3 0 -1 17 -18 18 -18 2 0 6 -5 6 -6 0 -1 0 -2 1 -2 1 0 1 -1 1 -2 0 -1 0 -2
1 -2 1 0 1 -1 1 -2 0 0 2 -3 3 -5 3 -2 5 -3 7 -3 2 0 4 0 4 -1 0 -1 1 -1 3 -1
2 0 3 0 3 -1 0 -1 1 -1 2 -1 1 0 2 -1 2 -2 0 0 1 -2 3 -4 2 -2 3 -4 3 -4 0 -1
0 -2 1 -2 1 0 1 -1 1 -2 0 -2 4 -6 6 -6 1 0 2 0 2 -1 0 -1 1 -1 2 -1 1 0 2 0
2 -1 0 -1 1 -1 2 -1 1 0 2 0 2 -1 0 -1 1 -1 2 -1 1 0 2 -1 3 -2 1 -1 2 -2 3
-2 3 0 2 -5 0 -8 -3 -2 -3 -2 -21 -2 -12 0 -19 0 -19 1 0 1 -6 1 -16 1 -12 0
-15 0 -17 1 -1 2 -2 7 0 7 1 0 1 1 1 3 0 2 1 3 1 3 1 1 1 1 0 2 0 0 -1 1 -1 3
0 2 0 3 -1 3 -1 0 -1 1 -1 2 0 1 0 2 -1 2 -1 0 -1 1 -1 2 0 1 0 2 -1 2 -1 0
-1 1 -1 2 0 1 0 2 -1 2 -1 0 -1 1 -1 2 0 0 -2 3 -3 5 l-4 3 -5 -5 c-4 -3 -6
-7 -6 -7 0 -1 -1 -2 -2 -2 -1 0 -8 -6 -8 -8 0 -1 -1 -2 -1 -2 -1 -1 -1 -1 0
-2 0 0 1 -1 1 -2 0 -2 7 -8 9 -8 4 0 4 -2 1 -6 -3 -2 -3 -2 -22 -2 -13 0 -20
0 -20 1 0 1 -4 1 -10 1 -8 0 -9 0 -12 2 -2 3 -3 6 -1 6 1 0 1 1 1 2 0 0 2 3 5
6 3 3 5 6 5 7 0 2 0 3 1 3 1 0 1 2 1 4 0 2 0 4 1 4 1 0 1 1 1 3 0 2 0 3 1 3 1
0 1 1 1 2 0 1 0 2 1 2 1 0 1 1 1 2 0 1 0 2 1 2 1 0 1 1 1 3 0 2 0 3 1 3 1 0 1
1 1 2 0 1 0 2 1 2 1 0 1 1 1 2 0 1 0 2 1 2 1 0 1 1 1 2 0 1 0 2 1 2 1 0 1 1 1
2 0 1 0 2 1 2 1 0 1 1 1 2 0 1 0 2 1 2 1 0 1 1 1 2 0 1 0 2 1 2 1 0 1 1 1 2 0
1 1 2 2 3 1 1 2 2 2 3 0 1 1 2 2 3 1 1 2 2 2 3 0 1 1 2 3 4 2 2 3 3 3 4 0 2 6
8 9 8 1 0 4 -1 6 -3z"/>
</g>
</svg>
