<?xml version="1.0" standalone="no"?>
<!DOCTYPE svg PUBLIC "-//W3C//DTD SVG 20010904//EN"
 "http://www.w3.org/TR/2001/REC-SVG-20010904/DTD/svg10.dtd">
<svg version="1.0" xmlns="http://www.w3.org/2000/svg"
 width="640.000000pt" height="480.000000pt" viewBox="0 0 640.000000 480.000000"
 preserveAspectRatio="xMidYMid meet">
<metadata>
Created by potrace 1.14, written by Peter Selinger 2001-2017
</metadata>
<g transform="translate(0.000000,480.000000) scale(1.000000,-1.000000)"
fill="#000000" stroke="none">
<path d="M298 391 c0 -1 -1 -1 -2 -1 -1 0 -2 0 -2 -1 0 -1 -1 -1 -3 -1 -2 0
-3 0 -3 -1 0 -1 -1 -1 -3 -1 -2 0 -3 0 -3 -1 0 -1 -1 -1 -2 -1 -1 0 -4 -2 -4
-4 0 -1 -1 -2 -2 -3 -1 -1 -2 -3 -2 -5 0 -2 0 -4 -1 -4 -1 0 -1 -2 -1 -4 0 -2
0 -4 -1 -4 -1 0 -1 -4 -1 -9 0 -5 0 -9 1 -9 1 0 1 -1 1 -3 0 -2 0 -3 1 -3 1 0
1 -1 1 -2 0 -1 0 -2 1 -2 1 0 1 -1 1 -3 0 -2 0 -3 1 -3 1 0 1 -3 1 -6 0 -3 0
-6 1 -6 1 0 1 -1 1 -2 0 -1 0 -2 1 -2 1 0 1 -1 1 -3 0 -2 0 -3 -1 -3 -1 0 -1
-1 -1 -2 0 -2 -2 -4 -4 -4 -1 0 -2 0 -2 -1 0 -1 -1 -1 -2 -1 -1 0 -2 0 -2 -1
0 -1 -1 -1 -3 -1 -2 0 -3 0 -3 -1 0 -1 -1 -1 -3 -1 -2 0 -3 0 -3 -1 0 -1 -1
-1 -3 -1 -2 0 -3 0 -3 -1 0 -1 -1 -1 -3 -1 -2 0 -3 0 -3 -1 0 -1 -1 -1 -2 -1
-1 0 -2 0 -2 -1 0 -1 -1 -1 -3 -1 -2 0 -5 -2 -5 -4 0 -1 0 -2 -1 -2 -1 0 -1
-1 -1 -2 0 -1 0 -2 -1 -2 -1 0 -1 -2 -1 -4 0 -2 0 -4 -1 -4 -1 0 -1 -2 -1 -4
0 -2 0 -4 -1 -4 -1 0 -1 -2 -1 -4 0 -2 0 -4 -1 -4 -1 0 -1 -2 -1 -4 0 -2 0 -4
-1 -4 -1 0 -1 -2 -1 -5 0 -3 0 -5 -1 -5 -1 0 -1 -3 -1 -7 0 -4 0 -7 -1 -7 -1
0 -1 -3 -1 -7 0 -4 0 -7 -1 -7 -1 0 -1 -3 -1 -6 0 -3 0 -6 -1 -6 -1 0 -1 -4
-1 -11 0 -7 0 -11 -1 -11 -1 0 -1 -3 -1 -6 0 -3 0 -6 -1 -6 -1 0 -1 -3 -1 -6
0 -3 0 -6 -1 -6 -1 0 -1 -1 -1 -3 0 -2 0 -3 -1 -3 -1 0 -1 -2 -1 -5 0 -3 0 -5
-1 -5 -1 0 -1 -1 -1 -2 0 -1 0 -2 1 -2 1 0 1 -3 1 -7 0 -4 0 -7 1 -7 1 0 1 -5
1 -13 0 -8 0 -13 1 -13 1 0 1 -1 1 -3 0 -2 0 -3 1 -3 1 0 1 -3 1 -7 0 -4 0 -7
-1 -7 -1 0 -1 -2 -1 -5 0 -3 -1 -5 -3 -8 l-4 -3 -13 0 c-9 0 -14 0 -14 -1 0
-1 -1 -1 -2 -1 -1 0 -2 -1 -2 -2 0 -1 0 -2 -1 -2 -1 0 -1 -6 -1 -17 0 -11 0
-17 -1 -17 -1 0 -1 -2 -1 -5 l0 -5 7 0 7 0 0 9 c0 5 0 9 1 9 1 0 1 1 1 3 0 2
0 3 1 3 1 0 1 1 1 2 0 1 1 2 2 2 1 0 2 0 2 1 0 1 1 1 2 1 1 0 2 0 2 1 0 1 2 1
4 1 2 0 4 0 4 1 0 1 2 1 5 1 3 0 5 0 5 -1 0 -1 3 -1 8 -1 6 0 7 0 10 -2 1 -2
2 -4 2 -6 0 -2 0 -4 1 -4 1 0 1 -4 1 -10 l0 -10 28 0 c27 0 28 0 28 2 0 1 1 2
1 2 1 1 1 1 0 2 -1 0 -1 4 0 4 1 0 1 2 1 5 0 3 0 5 1 5 1 0 1 1 1 2 0 2 1 2 4
2 3 0 4 0 4 -2 0 -1 0 -2 1 -2 1 0 1 -4 1 -10 l0 -10 29 0 29 0 0 6 c0 3 0 6
1 6 1 0 1 2 1 5 0 3 1 5 3 8 l4 3 34 0 c23 0 35 0 35 1 0 2 52 1 52 0 1 -1 1
-1 2 0 0 1 6 1 25 1 16 0 25 0 25 1 0 1 9 1 26 1 17 0 26 0 26 1 0 1 3 1 7 1
4 0 7 0 7 1 0 1 1 1 2 1 2 0 2 1 2 3 0 1 -1 3 -2 4 -1 1 -2 3 -2 5 0 2 0 4 -1
4 -1 0 -1 3 -1 6 0 3 0 6 -1 6 -1 0 -1 1 -1 2 0 1 0 2 -1 2 -1 0 -1 1 -1 2 0
1 -6 8 -8 8 -1 0 -2 1 -3 2 -1 1 -2 2 -3 2 -1 0 -2 0 -2 1 0 1 -1 1 -3 1 -2 0
-3 1 -3 1 -1 1 -1 1 -2 0 0 0 -1 -1 -2 -1 -1 0 -8 -6 -8 -8 0 -1 -1 -2 -2 -3
-1 -1 -2 -2 -2 -3 0 -1 0 -2 -1 -2 -1 0 -1 -3 -1 -8 0 -6 0 -7 -2 -10 l-3 -2
-65 0 c-43 0 -66 0 -66 1 0 1 -5 1 -12 1 -10 0 -11 0 -14 2 -1 2 -2 4 -2 6 0
3 0 4 -2 4 -1 0 -2 0 -2 1 0 1 -2 1 -4 1 -2 0 -4 0 -4 1 0 1 -1 1 -3 1 -2 0
-3 0 -3 1 0 1 -1 1 -2 1 0 0 -2 1 -4 2 -2 3 -2 4 -2 13 0 7 0 11 -1 11 -1 0
-1 5 -1 13 0 8 0 13 1 13 1 0 1 1 1 2 0 1 0 2 1 2 1 0 1 1 1 2 0 1 0 2 1 2 1
0 1 1 1 2 0 1 1 2 2 3 1 1 2 2 2 3 0 1 1 2 2 3 1 1 2 2 2 3 0 1 0 2 1 2 1 0 1
1 1 2 0 1 0 2 1 2 1 0 1 1 1 2 0 1 0 2 1 2 1 0 1 1 1 2 0 1 0 2 1 2 1 0 1 3 1
8 0 5 0 8 -1 8 -1 0 -1 1 -1 3 0 2 0 3 1 3 1 0 1 2 1 5 0 3 0 5 -1 5 -1 0 -1
3 -1 6 0 3 0 6 -1 6 -1 0 -1 2 -1 4 0 2 0 4 -1 4 -1 0 -1 2 -1 4 0 2 0 4 -1 4
-1 0 -1 2 -1 4 0 2 0 4 -1 4 -1 0 -1 4 -1 9 0 5 0 9 -1 9 -1 0 -1 2 -1 4 0 2
0 4 -1 4 -1 0 -1 1 -1 3 0 2 0 3 -1 3 -1 0 -1 1 -1 3 0 2 0 3 -1 3 -1 0 -1 1
-1 3 0 2 0 3 -1 3 -1 0 -1 1 -1 2 0 1 0 2 -1 2 -1 0 -1 1 -1 3 0 2 -6 9 -8 9
-1 0 -2 0 -2 1 0 1 -1 1 -3 1 -2 0 -3 0 -3 1 0 1 -2 1 -4 1 -2 0 -4 0 -4 1 0
1 -1 1 -3 1 -2 0 -3 0 -3 1 0 1 -1 1 -2 1 -1 0 -2 0 -2 1 0 1 -1 1 -3 1 -2 0
-3 0 -3 1 0 1 -1 1 -2 1 -1 0 -2 0 -2 1 0 1 -1 1 -2 1 -2 0 -4 2 -4 4 0 1 0 2
-1 2 -1 0 -1 2 -1 5 0 3 0 5 1 5 1 0 1 2 1 4 0 2 0 4 1 4 1 0 1 2 1 4 0 2 0 4
1 4 1 0 1 3 1 6 0 3 0 6 1 6 1 0 1 2 1 5 0 3 0 5 1 5 1 0 1 1 1 3 0 2 0 3 -1
3 -1 0 -1 1 -1 2 0 1 0 2 -1 2 -1 0 -1 1 -1 2 0 1 0 2 -1 2 -1 0 -1 1 -1 2 0
1 0 2 -1 2 -1 0 -1 3 -1 7 0 6 0 6 -3 10 -2 1 -5 3 -5 3 -1 0 -2 0 -2 1 0 1
-3 1 -6 1 -3 0 -6 0 -6 -1z"/>
</g>
</svg>
