<?xml version="1.0" standalone="no"?>
<!DOCTYPE svg PUBLIC "-//W3C//DTD SVG 20010904//EN"
 "http://www.w3.org/TR/2001/REC-SVG-20010904/DTD/svg10.dtd">
<svg version="1.0" xmlns="http://www.w3.org/2000/svg"
 width="640.000000pt" height="480.000000pt" viewBox="0 0 640.000000 480.000000"
 preserveAspectRatio="xMidYMid meet">
<metadata>
Created by potrace 1.14, written by Peter Selinger 2001-2017
</metadata>
<g transform="translate(0.000000,480.000000) scale(1.000000,-1.000000)"
fill="#000000" stroke="none">
<path d="M322 315 c0 -1 -1 -1 -3 -1 -2 0 -3 0 -3 -1 0 -1 -1 -1 -3 -1 -1 0
-4 -2 -8 -5 l-5 -6 0 -6 c0 -4 0 -7 -1 -7 -1 0 -1 -3 -1 -6 0 -3 0 -6 1 -6 1
0 1 -3 1 -6 0 -3 0 -6 -1 -6 -1 0 -1 -1 -1 -2 0 -2 -2 -4 -4 -4 -1 0 -2 0 -2
-1 0 -1 -1 -1 -2 -1 -1 0 -2 0 -2 -1 0 -1 -2 -1 -5 -1 -3 0 -5 0 -5 -1 0 -1
-1 -1 -2 -1 0 0 -5 -4 -10 -9 -5 -5 -10 -9 -10 -9 -1 0 -2 0 -2 -1 0 -1 -1 -1
-2 -1 -1 0 -2 0 -2 -1 0 -1 -1 -1 -2 -1 -1 0 -2 0 -2 -1 0 -1 -1 -1 -2 -1 -1
0 -2 -1 -3 -2 -1 -1 -2 -2 -3 -2 -1 0 -2 0 -2 -1 0 -1 -1 -1 -2 -1 -1 0 -2 -1
-3 -2 -1 -1 -2 -2 -3 -2 -1 0 -2 -1 -4 -3 -2 -2 -3 -3 -4 -3 -1 0 -2 -1 -4 -3
-2 -2 -3 -3 -4 -3 -2 0 -8 -7 -8 -8 0 -1 0 -2 -1 -2 -1 0 -1 -1 -1 -2 0 -1 0
-2 -1 -2 -1 0 -1 -2 -1 -4 0 -2 0 -4 -1 -4 -1 0 -1 -3 -1 -8 0 -5 0 -8 -1 -8
-1 0 -1 -2 -1 -4 0 -2 0 -4 1 -4 1 0 1 -3 1 -6 0 -3 0 -6 1 -6 1 0 1 -3 1 -6
0 -3 0 -6 1 -6 1 0 1 -4 1 -9 0 -5 0 -9 -1 -9 -1 0 -1 -2 -1 -5 0 -3 0 -5 -1
-5 -1 0 -1 -1 -1 -3 0 -1 -1 -3 -3 -5 -4 -3 -4 -4 -1 -8 2 -1 4 -2 7 -2 3 0 5
0 5 1 0 1 2 1 4 1 2 0 4 0 4 1 0 1 2 1 4 1 2 0 4 0 4 1 0 1 1 1 2 1 2 0 8 7 8
9 0 2 0 3 1 3 1 0 1 1 1 3 0 2 0 3 1 3 1 0 1 6 1 15 0 9 0 15 1 15 1 0 1 3 1
7 0 7 1 9 6 9 3 0 6 -2 6 -4 0 -1 0 -2 1 -2 1 0 1 -5 1 -12 0 -7 0 -12 -1 -12
-1 0 -1 -1 -1 -3 0 -2 0 -3 -1 -3 -1 0 -1 -2 -1 -4 0 -2 0 -4 -1 -4 -1 0 -1
-1 -1 -3 0 -2 0 -3 -1 -3 -1 0 -1 -1 -1 -3 0 -2 0 -3 -1 -3 -1 0 -1 -1 -1 -3
0 -2 0 -3 -1 -3 -1 0 -1 -2 -1 -4 0 -2 0 -4 -1 -4 -1 0 -1 -1 -1 -3 0 -2 0 -3
-1 -3 -1 0 -1 -1 -1 -2 0 -1 0 -2 -1 -2 -1 0 -1 -1 -1 -3 0 -2 0 -3 -1 -3 -1
0 -1 -1 -1 -2 0 -1 0 -2 -1 -2 -1 0 -1 -1 -1 -2 0 -1 0 -2 -1 -2 -1 0 -1 -3
-1 -7 0 -4 0 -7 1 -7 1 0 1 -1 1 -3 0 -2 0 -3 1 -3 1 0 1 -3 1 -8 0 -5 0 -8 1
-8 1 0 1 -2 1 -4 0 -2 0 -4 1 -4 1 0 1 -4 1 -11 l0 -11 56 0 c37 0 56 0 56 1
0 1 0 1 -1 1 -1 0 -1 1 -1 2 0 1 0 2 -1 2 -1 0 -1 1 -1 3 0 2 0 3 -1 3 -1 0
-1 1 -1 2 0 1 0 2 -1 2 -1 0 -1 1 -1 2 0 1 -1 2 -2 3 -1 1 -2 2 -2 3 0 1 0 2
-1 2 -1 0 -1 1 -1 2 0 1 0 2 -1 2 -1 0 -1 1 -1 3 0 2 0 3 -1 3 -1 0 -1 1 -1 2
0 1 0 2 -1 2 -1 0 -1 1 -1 2 0 1 0 2 -1 2 -1 0 -1 1 -1 2 0 1 0 2 -1 2 -1 0
-1 3 -1 7 0 5 0 6 2 9 3 2 8 3 8 1 0 -1 2 -1 4 -1 2 0 4 0 4 -1 0 -1 2 -1 4
-1 2 0 4 0 4 -1 0 -2 3 -1 6 1 1 2 2 4 2 4 0 1 0 2 1 2 1 0 1 2 1 4 0 2 0 4
-1 4 -1 0 -1 3 -1 6 0 3 0 6 -1 6 -1 0 -1 1 -1 3 0 2 0 3 -1 3 -1 0 -1 2 -1 5
0 3 0 5 -1 5 -1 0 -1 3 -1 8 0 5 0 8 -1 8 -1 0 -1 3 -1 8 0 5 0 8 -1 8 -1 0
-1 3 -1 7 0 4 0 7 -1 7 -1 0 -1 4 -1 10 0 8 0 9 2 12 2 1 4 2 4 2 1 0 2 0 2 1
0 1 1 1 2 1 2 0 6 4 6 6 0 1 0 2 1 2 1 0 1 1 1 2 0 1 0 2 1 2 1 0 1 1 1 2 0 1
0 2 1 2 1 0 1 1 1 3 0 2 0 3 1 3 1 0 1 1 1 3 0 2 0 3 1 3 1 0 1 1 1 3 0 2 0 3
1 3 1 0 1 1 1 3 0 2 0 3 1 3 1 0 1 1 1 2 0 1 0 2 1 2 1 0 1 1 1 3 0 2 0 3 1 3
1 0 1 1 1 2 0 1 0 2 1 2 1 0 1 1 1 2 0 1 6 8 8 8 2 0 9 7 7 8 0 0 -1 1 -1 2 0
1 -1 2 -2 2 -1 0 -2 0 -2 1 0 1 -3 1 -8 1 -6 0 -8 0 -9 -2 -1 -1 -2 -2 -3 -2
-1 0 -2 -1 -3 -2 -1 -1 -2 -2 -3 -2 -1 0 -6 -5 -6 -6 0 -1 -1 -2 -2 -3 -1 -1
-2 -3 -2 -4 0 -2 0 -3 -1 -3 -1 0 -1 -1 -1 -3 0 -2 0 -3 -1 -3 -1 0 -1 -1 -1
-2 0 -1 0 -2 -1 -2 -1 0 -1 -1 -1 -3 0 -3 -8 -11 -11 -11 -3 0 -7 4 -7 7 0 2
0 3 -1 3 -1 0 -1 2 -1 4 0 2 0 4 1 4 1 0 1 1 1 2 0 1 0 2 1 2 1 0 1 3 1 7 0 6
0 6 3 9 2 2 3 3 3 4 0 1 1 2 2 3 1 1 2 3 2 4 0 2 0 3 1 3 1 0 1 1 1 3 0 2 0 3
1 3 1 0 1 1 1 3 0 2 0 3 1 3 1 0 1 1 1 2 0 1 0 2 1 2 1 0 1 1 1 2 0 1 0 2 1 2
1 0 1 1 1 2 0 1 1 2 2 3 1 1 2 3 2 4 0 2 0 3 1 3 1 0 1 1 1 3 0 2 0 3 -1 3 -1
0 -1 1 -1 2 0 0 -2 4 -5 7 -3 3 -7 5 -7 5 -1 0 -2 0 -2 1 0 1 -1 1 -2 1 -1 0
-2 0 -2 1 0 1 -3 1 -6 1 -3 0 -6 0 -6 1 0 1 -1 1 -3 1 -2 0 -3 0 -3 -1z"/>
</g>
</svg>
