<?xml version="1.0" standalone="no"?>
<!DOCTYPE svg PUBLIC "-//W3C//DTD SVG 20010904//EN"
 "http://www.w3.org/TR/2001/REC-SVG-20010904/DTD/svg10.dtd">
<svg version="1.0" xmlns="http://www.w3.org/2000/svg"
 width="640.000000pt" height="480.000000pt" viewBox="0 0 640.000000 480.000000"
 preserveAspectRatio="xMidYMid meet">
<metadata>
Created by potrace 1.14, written by Peter Selinger 2001-2017
</metadata>
<g transform="translate(0.000000,480.000000) scale(1.000000,-1.000000)"
fill="#000000" stroke="none">
<path d="M280 397 c0 -1 -1 -1 -2 -1 0 0 -2 -1 -3 -1 0 -1 -1 -3 -1 -3 0 -1 0
-2 -1 -2 -1 0 -1 -1 -1 -2 0 -1 0 -2 1 -2 1 0 1 -4 1 -9 0 -5 0 -9 -1 -9 -1 0
-1 -1 -1 -2 0 -1 0 -2 -1 -2 -1 0 -1 -1 -1 -2 0 -2 -7 -8 -9 -8 -3 0 -13 -10
-13 -13 0 -2 0 -3 -1 -3 -1 0 -1 -1 -1 -2 0 -1 0 -2 -1 -2 -1 0 -1 -1 -1 -2 0
-1 0 -2 -1 -2 -1 0 -1 -1 -1 -2 0 -1 0 -2 -1 -2 -1 0 -1 -1 -1 -2 0 -1 0 -2
-1 -2 -1 0 -1 -1 -1 -2 0 -1 0 -2 -1 -2 -1 0 -1 -1 -1 -2 0 -1 0 -2 -1 -2 -1
0 -1 -1 -1 -2 0 -1 0 -2 -1 -2 -1 0 -1 -1 -1 -2 0 -1 0 -2 -1 -2 -1 0 -1 -1
-1 -2 0 -1 0 -2 -1 -2 -1 0 -1 -1 -1 -3 0 -2 0 -3 -1 -3 -1 0 -1 -3 -1 -8 0
-5 0 -8 1 -8 1 0 1 -1 1 -2 0 -1 18 -20 20 -20 1 0 2 -1 4 -3 2 -2 3 -3 4 -3
1 0 2 -1 3 -2 1 -1 2 -2 3 -2 1 0 2 0 2 -1 0 -1 1 -1 2 -1 1 0 2 0 2 -1 0 -1
1 -1 2 -1 1 0 2 0 2 -1 0 -1 1 -1 2 -1 1 0 2 0 2 -1 0 -1 1 -1 2 -1 1 0 2 0 2
-1 0 -1 1 -1 2 -1 2 0 6 -4 6 -6 0 -1 0 -2 1 -2 1 0 1 -6 1 -15 0 -9 0 -15 -1
-15 -1 0 -1 -3 -1 -7 0 -4 0 -7 -1 -7 -1 0 -1 -3 -1 -6 0 -3 0 -6 -1 -6 -1 0
-1 -2 -1 -5 0 -3 0 -5 -1 -5 -1 0 -1 -5 -1 -14 0 -9 0 -14 -1 -14 -1 0 -1 -2
-1 -5 0 -3 0 -5 -1 -5 -1 0 -1 -3 -1 -6 0 -5 0 -6 2 -6 1 0 2 -1 2 -1 1 -1 1
-1 2 0 0 0 1 1 2 1 1 0 2 0 2 1 0 1 5 1 12 1 11 0 12 0 12 -2 0 -1 0 -2 -1 -2
-1 0 -1 -1 -1 -2 0 0 -1 -2 -3 -4 -2 -2 -3 -4 -3 -6 0 -2 0 -4 -1 -4 -1 0 -1
-1 -1 -3 0 -2 0 -3 -1 -3 -1 0 -1 -2 -1 -4 0 -2 0 -4 -1 -4 -1 0 -1 -1 -1 -3
0 -2 0 -3 -1 -3 -1 0 -1 -2 -1 -4 0 -2 0 -4 -1 -4 -1 0 -1 -3 -1 -7 0 -4 0 -7
-1 -7 -1 0 -1 -3 -1 -7 0 -4 0 -7 -1 -7 -1 0 -1 -4 -1 -9 0 -5 0 -9 -1 -9 -1
0 -1 -3 -1 -8 0 -5 0 -8 -1 -8 -1 0 -1 -1 -1 -3 l0 -3 32 0 c34 0 34 0 34 5 0
2 0 3 1 3 1 0 1 1 1 2 0 1 0 2 1 2 1 0 1 1 1 3 0 2 0 3 1 3 1 0 1 1 1 2 0 2 3
4 6 4 l4 0 0 -11 c0 -7 0 -11 1 -12 2 -1 7 -1 31 -1 l30 0 0 8 c0 5 0 8 1 8 1
0 1 3 1 8 0 5 0 8 1 8 1 0 1 6 1 17 0 11 0 17 1 17 1 0 1 3 1 8 0 5 0 8 -1 8
-1 0 -1 2 -1 5 0 3 0 5 -1 5 -1 0 -1 1 -1 2 0 1 0 2 -1 2 -1 0 -1 1 -1 2 0 1
0 2 -1 2 -1 0 -1 1 -1 2 0 1 0 2 -1 2 -1 0 -1 1 -1 2 0 1 -1 2 -2 3 -4 3 -2
11 2 11 1 0 2 0 2 1 0 1 1 1 2 1 1 0 2 0 2 1 0 1 1 1 2 1 1 0 2 0 2 1 0 1 1 1
2 1 1 0 2 0 2 1 0 1 1 1 2 1 1 0 2 1 3 2 1 1 2 2 3 2 1 0 2 0 2 1 0 1 1 1 2 1
0 0 2 1 4 3 2 2 4 3 4 3 1 0 2 1 2 2 0 1 0 2 1 2 1 0 1 2 1 4 0 2 0 4 -1 4 -1
0 -1 1 -1 2 0 1 -1 2 -2 3 -1 1 -2 2 -2 3 0 1 0 2 -1 2 -1 0 -1 1 -1 2 0 1 -1
2 -2 3 -1 1 -2 2 -2 3 0 1 -1 2 -2 3 -1 1 -2 2 -2 3 0 1 -1 2 -2 3 -1 1 -2 2
-2 3 0 1 -1 2 -2 3 -1 1 -2 2 -2 3 0 1 -1 2 -2 3 -1 1 -2 2 -2 3 0 1 -1 2 -3
4 -2 2 -3 3 -3 4 0 1 -1 2 -2 3 -1 1 -2 2 -2 3 0 1 -1 2 -2 3 -1 1 -2 2 -2 3
0 1 -1 2 -2 3 -1 1 -2 2 -2 3 0 1 0 2 -1 2 -1 0 -1 8 -1 22 0 14 0 22 1 22 1
0 1 2 1 4 0 2 0 4 1 4 1 0 1 2 1 5 0 3 0 5 1 5 1 0 1 7 1 18 0 11 0 18 -1 18
-1 0 -1 3 -1 6 0 3 0 6 -1 6 -1 0 -1 2 -1 4 0 2 0 4 -1 4 -1 0 -1 1 -1 3 0 2
0 3 -1 3 -1 0 -1 1 -1 3 0 2 0 3 -1 3 -1 0 -1 1 -1 3 0 2 0 3 -1 3 -1 0 -1 1
-1 2 0 2 -8 10 -10 10 -1 0 -2 0 -2 1 0 1 -1 1 -2 1 -1 0 -2 0 -2 1 0 1 -1 1
-2 1 -1 0 -2 0 -2 1 0 1 -1 1 -3 1 -2 0 -3 0 -3 1 0 1 -1 1 -3 1 -2 0 -3 0 -3
1 0 1 -2 1 -4 1 -2 0 -4 0 -4 1 0 1 -1 1 -3 1 -2 0 -3 0 -3 1 0 1 -2 1 -5 1
-3 0 -5 0 -5 1 0 1 -2 1 -5 1 -3 0 -5 0 -5 1 0 1 -2 1 -4 1 -2 0 -4 0 -4 1 0
1 -2 1 -5 1 -3 0 -5 0 -5 -1 0 -1 -1 -1 -2 -1 -1 0 -2 0 -2 -1 0 -1 -1 -1 -2
-1 -1 0 -2 0 -2 -1 0 -1 -3 -1 -7 -1 -4 0 -7 0 -7 1 0 1 -1 1 -2 1 -1 0 -2 1
-3 2 -1 1 -2 2 -3 2 -1 0 -2 1 -4 3 -2 2 -4 3 -4 3 -1 0 -2 0 -2 1 0 1 -1 1
-3 1 -2 0 -3 0 -3 -1z m32 -32 c0 -4 0 -5 -2 -5 0 0 -2 -1 -4 -2 -1 -2 -2 -4
-2 -4 0 -1 0 -2 -1 -2 -1 0 -1 -1 -1 -2 0 -1 0 -2 -1 -2 -1 0 -1 -2 -1 -4 0
-2 0 -4 -1 -4 -1 0 -1 -2 -1 -4 0 -2 0 -4 1 -4 1 0 1 -1 1 -3 0 -2 0 -3 1 -3
1 0 1 -1 1 -3 0 -2 0 -3 1 -3 1 0 1 -1 1 -2 0 -1 0 -2 1 -2 1 0 1 -1 1 -3 0
-1 1 -3 2 -4 1 -1 2 -2 2 -3 0 -1 2 -3 5 -6 3 -3 5 -5 5 -6 0 -1 1 -2 2 -3 1
-1 2 -2 2 -3 0 -1 1 -2 1 -2 1 -1 1 -1 0 -2 0 0 -1 -1 -1 -2 0 -2 -2 -4 -4 -4
-1 0 -2 -1 -2 -1 -1 -1 -1 -1 -2 0 0 0 -1 1 -3 1 -2 0 -3 0 -3 1 0 1 -1 1 -2
1 -1 0 -2 0 -2 1 0 1 -1 1 -2 1 -1 0 -2 0 -2 1 0 1 -1 1 -2 1 -1 0 -2 0 -2 -1
0 -1 -1 -1 -2 -1 -1 0 -2 -1 -3 -2 -1 -1 -2 -2 -3 -2 -1 0 -2 0 -2 -1 0 -1 -3
-1 -6 -1 -4 0 -6 0 -7 2 -1 1 -2 2 -3 2 -2 0 -6 5 -6 6 0 1 0 2 -1 2 -1 0 -1
4 -1 9 0 5 0 9 1 9 1 0 1 1 1 3 0 2 0 3 1 3 1 0 1 1 1 2 0 1 0 2 1 2 1 0 1 1
1 2 0 1 0 2 1 2 1 0 1 1 1 3 0 2 0 3 1 3 1 0 1 1 1 2 0 1 0 2 1 2 1 0 1 1 1 3
0 2 0 3 1 3 1 0 1 1 1 2 0 1 0 2 1 2 1 0 1 1 1 3 0 2 0 3 1 3 1 0 1 1 1 3 0 1
1 3 2 4 1 1 2 2 2 3 0 1 1 2 2 2 0 0 3 2 5 4 2 2 5 4 5 4 1 0 2 0 2 1 0 1 1 1
2 1 1 0 2 0 2 1 0 1 2 1 4 1 l4 0 0 -5z m64 -37 c0 -1 0 -2 1 -2 1 0 1 -3 1
-6 0 -5 0 -6 -2 -6 -1 0 -6 -4 -6 -6 0 -1 -1 -2 -1 -3 -2 -1 -2 -1 -3 0 -2 2
-3 17 -1 17 1 0 1 1 1 3 0 3 0 3 3 3 2 0 3 0 3 1 0 1 1 1 2 1 1 0 2 -1 2 -2z
m-44 -207 c2 -2 2 -2 1 -4 -1 0 -4 -1 -7 -1 -3 0 -6 0 -6 -1 0 -2 -3 -1 -5 0
-1 2 -1 2 1 4 2 2 4 3 4 3 1 0 2 0 2 1 0 1 2 1 4 1 2 0 4 -1 6 -3z"/>
</g>
</svg>
