<?xml version="1.0" standalone="no"?>
<!DOCTYPE svg PUBLIC "-//W3C//DTD SVG 20010904//EN"
 "http://www.w3.org/TR/2001/REC-SVG-20010904/DTD/svg10.dtd">
<svg version="1.0" xmlns="http://www.w3.org/2000/svg"
 width="640.000000pt" height="480.000000pt" viewBox="0 0 640.000000 480.000000"
 preserveAspectRatio="xMidYMid meet">
<metadata>
Created by potrace 1.14, written by Peter Selinger 2001-2017
</metadata>
<g transform="translate(0.000000,480.000000) scale(1.000000,-1.000000)"
fill="#000000" stroke="none">
<path d="M392 449 c0 -1 -1 -1 -2 -1 -1 0 -2 0 -2 -1 0 -1 -1 -1 -3 -1 -2 0
-3 0 -3 -1 0 -1 -2 -1 -4 -1 -2 0 -4 -1 -5 -2 -1 -1 -2 -2 -3 -2 -1 0 -2 -1
-2 -2 0 -1 -1 -2 -2 -3 -1 -1 -2 -3 -2 -4 0 -2 0 -3 -1 -3 -1 0 -1 -1 -1 -2 0
-1 0 -2 -1 -2 -1 0 -1 -2 -1 -4 0 -2 0 -4 -1 -4 -1 0 -1 -6 -1 -15 0 -9 0 -15
1 -15 1 0 1 -3 1 -6 0 -3 0 -6 1 -6 1 0 1 -3 1 -6 0 -5 -1 -8 -4 -8 -1 0 -2
-1 -2 -1 -1 -1 -1 -1 -2 0 0 0 -2 1 -4 1 -2 0 -4 1 -5 2 -1 1 -3 2 -4 2 -2 0
-3 0 -3 1 0 1 -3 1 -6 1 -3 0 -6 0 -6 -1 0 -1 -3 -1 -8 -1 -5 0 -8 0 -8 -1 0
-1 -3 -1 -6 -1 -3 0 -6 0 -6 -1 0 -1 -4 -1 -11 -1 -7 0 -11 0 -11 1 0 1 -2 1
-4 1 -2 0 -4 0 -4 1 0 1 -1 1 -3 1 -1 0 -3 1 -6 3 -2 3 -3 5 -3 6 0 2 0 3 -1
3 -1 0 -1 1 -1 2 0 1 0 2 -1 2 -1 0 -1 2 -1 4 0 2 0 4 -1 4 -1 0 -1 2 -1 4 0
2 0 4 -1 4 -1 0 -1 1 -1 3 0 2 0 3 -1 3 -1 0 -1 2 -1 5 0 3 0 5 -1 5 -1 0 -1
2 -1 5 0 3 0 5 -1 5 -1 0 -1 2 -1 5 0 3 0 5 -1 5 -1 0 -1 1 -1 3 0 2 -2 5 -4
5 -1 0 -2 0 -2 1 0 1 -1 1 -2 1 -1 0 -2 0 -2 -1 0 -1 -1 -1 -2 -1 0 0 -2 -1
-3 -1 -1 -2 -2 -9 0 -9 1 0 1 -3 1 -7 0 -4 0 -7 1 -7 1 0 1 -6 1 -15 0 -9 0
-15 1 -15 1 0 1 -3 1 -7 0 -4 0 -7 1 -7 1 0 1 -2 1 -4 0 -2 0 -4 1 -4 1 0 1
-1 1 -3 0 -2 0 -3 1 -3 1 0 1 -1 1 -2 0 -1 0 -2 1 -2 1 0 1 -1 1 -3 0 -2 8
-11 10 -11 1 0 2 0 2 -1 0 -1 2 -1 4 -1 2 0 4 0 4 -1 0 -1 4 -1 11 -1 7 0 11
0 11 -1 0 -1 2 -1 5 -1 3 0 5 0 5 -1 0 -1 1 -1 2 -1 1 0 2 0 2 -1 0 -1 1 -1 2
-1 1 0 2 0 2 -1 0 -1 1 -1 3 -1 2 0 3 0 3 -1 0 -1 1 -1 3 -1 1 0 3 -1 5 -2 2
-3 2 -3 2 -22 0 -13 0 -20 -1 -20 -1 0 -1 -9 -1 -24 0 -15 0 -24 -1 -24 -1 0
-1 -1 -1 -3 0 -2 0 -3 -1 -3 -1 0 -1 -1 -1 -3 0 -2 0 -3 -1 -3 -1 0 -1 -1 -1
-2 0 -1 0 -2 -1 -2 -1 0 -1 -6 -1 -17 0 -11 0 -17 -1 -17 -1 0 -1 -2 -1 -4 0
-2 0 -4 -1 -4 -1 0 -1 -3 -1 -6 0 -3 0 -6 -1 -6 -1 0 -1 -5 -1 -12 0 -7 0 -12
-1 -12 -1 0 -1 -5 -1 -14 0 -9 0 -14 1 -14 1 0 1 -1 1 -2 0 -1 0 -2 1 -2 1 0
1 -7 1 -20 0 -13 0 -20 -1 -20 -1 0 -1 -3 -1 -7 0 -4 0 -7 -1 -7 -1 0 -1 -3
-1 -8 0 -5 0 -8 -1 -8 -1 0 -1 -3 -1 -6 0 -3 0 -6 -1 -6 -1 0 -1 -4 -1 -9 0
-6 0 -9 -1 -9 -1 -1 -1 -1 0 -2 0 0 1 -1 1 -3 l0 -3 19 0 19 0 0 3 c0 2 0 3
-1 3 -1 0 -1 1 -1 3 0 2 0 3 1 3 1 0 1 1 1 3 0 2 0 3 1 3 1 0 1 1 1 3 0 2 0 3
1 3 1 0 1 2 1 5 0 3 0 5 1 5 1 0 1 2 1 5 0 3 0 5 1 5 1 0 1 3 1 6 0 3 0 6 1 6
1 0 1 3 1 7 0 4 0 7 1 7 1 0 1 3 1 8 0 5 0 8 1 8 1 0 1 3 1 6 0 3 0 6 1 6 1 0
1 1 1 2 0 1 6 8 8 8 1 0 3 -2 5 -3 l3 -4 0 -9 c0 -6 0 -10 1 -10 1 0 1 -5 1
-12 0 -7 0 -12 1 -12 1 0 1 -5 1 -12 0 -7 0 -12 1 -12 1 0 1 -3 1 -6 0 -3 0
-6 1 -6 1 0 1 -3 1 -6 0 -3 0 -6 1 -6 1 0 1 -1 1 -2 0 -1 0 -2 -1 -2 -1 0 -1
-1 -1 -3 l0 -3 19 0 19 0 0 6 c0 3 0 6 -1 6 -1 0 -1 4 -1 9 0 5 0 9 -1 9 -1 0
-1 2 -1 5 0 3 0 5 1 5 1 0 1 3 1 6 0 3 0 6 1 6 1 0 1 3 1 6 0 3 0 6 1 6 1 0 1
3 1 8 0 5 0 8 1 8 1 0 1 3 1 7 0 4 0 7 1 7 1 0 1 1 1 3 0 2 0 3 1 3 1 0 1 1 1
2 0 1 1 2 2 2 1 0 2 0 2 1 0 1 4 1 10 1 6 0 10 0 10 1 0 1 3 1 7 1 4 0 7 0 7
-1 0 -1 6 -1 16 -1 10 0 16 0 16 1 0 1 4 1 10 1 6 0 10 0 10 -1 0 -1 4 -1 9
-1 5 0 9 0 9 1 0 1 2 1 4 1 2 0 4 0 4 1 0 1 5 1 13 1 8 0 13 0 13 1 0 1 2 1 5
1 3 0 5 0 5 1 0 1 3 1 7 1 4 0 7 0 7 -1 0 -1 4 -1 11 -1 7 0 11 0 11 -1 0 -1
2 -1 4 -1 2 0 4 1 7 4 2 2 3 4 2 4 0 0 -1 1 -1 2 0 1 -1 2 -2 2 -1 0 -2 0 -2
1 0 1 -1 1 -3 1 -2 0 -3 0 -3 1 0 1 -12 1 -35 1 -23 0 -35 0 -35 1 0 1 -1 1
-2 1 0 0 -4 3 -7 6 -4 4 -7 6 -8 6 -2 0 -3 0 -3 1 0 1 -3 1 -8 1 -5 0 -8 0 -8
-1 0 -1 -1 -1 -3 -1 -2 0 -3 0 -3 -1 0 -1 -3 -1 -7 -1 -5 0 -6 0 -9 2 -2 3 -3
6 -1 6 1 1 1 1 0 2 0 0 -1 1 -1 2 0 1 0 2 -1 2 -1 0 -1 1 -1 2 0 1 -4 6 -6 6
-1 0 -2 1 -3 2 -2 3 -4 3 -6 0 -1 -1 -2 -2 -3 -2 -1 0 -2 -1 -2 -2 0 -1 0 -2
-1 -2 -1 0 -1 -1 -1 -2 0 -2 -10 -12 -12 -12 -1 0 -2 0 -2 -1 0 -1 -2 -1 -5
-1 -4 0 -5 0 -5 2 0 1 -1 2 -2 2 0 0 -2 1 -4 2 -3 4 -3 11 0 13 1 1 2 2 2 3 0
1 0 2 1 2 1 0 1 1 1 3 0 2 0 3 -1 3 -1 0 -1 1 -1 2 0 1 0 2 -1 2 -1 0 -1 1 -1
2 0 1 0 2 -1 2 -1 0 -1 1 -1 3 0 2 0 3 -1 3 -1 0 -1 2 -1 4 0 2 0 4 -1 4 -1 0
-1 3 -1 8 0 5 0 8 -1 8 -1 0 -1 1 -1 3 0 2 0 3 -1 3 -1 0 -1 5 -1 12 0 7 0 12
-1 12 -1 0 -1 2 -1 4 0 2 0 4 -1 4 -1 0 -1 2 -1 4 0 2 0 4 1 4 1 0 1 3 1 8 0
5 0 8 1 8 1 0 1 3 1 7 0 4 0 7 1 7 1 0 1 1 1 3 0 2 0 3 1 3 1 0 1 1 1 2 0 4 8
6 11 2 1 -1 2 -2 3 -2 1 0 4 -3 7 -6 3 -3 6 -6 7 -6 1 0 5 -4 10 -9 l9 -9 13
0 c9 0 14 0 14 1 0 1 2 1 5 1 3 0 5 0 5 1 0 1 2 1 4 1 2 0 4 0 4 1 0 1 2 1 4
1 2 0 4 0 4 1 0 1 2 1 5 1 3 0 5 0 5 1 0 1 2 1 4 1 2 0 4 0 4 1 0 1 5 1 13 1
8 0 13 0 13 1 0 1 1 1 2 1 2 0 8 6 8 8 0 1 0 2 1 2 2 0 1 5 -1 8 -2 1 -4 2 -7
2 -3 0 -5 0 -5 -1 0 -1 -1 -1 -2 -1 -1 0 -2 0 -2 -1 0 -1 -1 -1 -2 -1 -1 0 -2
0 -2 -1 0 -1 -1 -1 -3 -1 -2 0 -3 0 -3 -1 0 -1 -3 -1 -6 -1 -3 0 -6 0 -6 -1 0
-1 -3 -1 -7 -1 -4 0 -7 0 -7 -1 0 -1 -5 -1 -13 -1 -8 0 -13 0 -13 -1 0 -1 -4
-1 -10 -1 -8 0 -10 0 -11 2 -1 1 -2 2 -3 2 -1 0 -2 1 -2 2 0 0 -2 3 -4 5 -2 2
-4 5 -4 5 0 1 0 2 -1 2 -1 0 -1 1 -1 2 0 1 0 2 -1 2 -1 0 -1 1 -1 2 0 1 0 2
-1 2 -1 0 -1 1 -1 2 0 1 0 2 -1 2 -1 0 -1 1 -1 2 0 1 -1 2 -2 3 -1 1 -2 2 -2
3 0 1 -1 2 -2 3 -1 1 -2 2 -2 3 0 1 0 2 -1 2 -1 0 -1 1 -1 2 0 1 -1 2 -2 3 -1
1 -2 2 -2 3 0 2 -9 10 -10 10 -1 0 -2 0 -2 1 0 1 -3 1 -6 1 -3 0 -6 0 -6 1 0
1 -2 1 -4 1 -2 0 -4 1 -7 3 -2 3 -3 5 -3 8 0 3 0 5 1 5 1 0 1 1 1 2 0 1 0 2 1
2 1 0 1 1 1 2 0 1 1 2 2 3 1 1 2 2 2 3 0 1 1 2 2 3 1 1 2 2 2 3 0 1 0 2 1 2 1
0 1 1 1 3 0 2 0 3 1 3 1 0 1 1 1 2 0 1 0 2 1 2 1 0 1 1 1 2 0 1 0 2 1 2 1 0 1
1 1 2 0 1 0 2 1 2 1 0 1 1 1 2 0 1 0 2 1 2 1 0 1 2 1 4 0 2 0 4 1 4 1 0 1 1 1
3 0 2 0 3 -1 3 -1 0 -1 2 -1 5 0 3 0 5 -1 5 -1 0 -1 1 -1 3 0 2 0 3 -1 3 -1 0
-1 1 -1 2 0 0 -2 3 -3 5 -2 1 -5 3 -5 3 -1 0 -2 0 -2 1 0 1 -3 1 -8 1 -5 0 -8
0 -8 -1z"/>
</g>
</svg>
