<?xml version="1.0" standalone="no"?>
<!DOCTYPE svg PUBLIC "-//W3C//DTD SVG 20010904//EN"
 "http://www.w3.org/TR/2001/REC-SVG-20010904/DTD/svg10.dtd">
<svg version="1.0" xmlns="http://www.w3.org/2000/svg"
 width="640.000000pt" height="480.000000pt" viewBox="0 0 640.000000 480.000000"
 preserveAspectRatio="xMidYMid meet">
<metadata>
Created by potrace 1.14, written by Peter Selinger 2001-2017
</metadata>
<g transform="translate(0.000000,480.000000) scale(1.000000,-1.000000)"
fill="#000000" stroke="none">
<path d="M84 441 c0 -1 -1 -1 -3 -1 -2 0 -3 0 -3 -1 0 -1 -1 -1 -2 -1 -1 0
-14 -12 -14 -14 0 -1 -1 -2 -2 -3 -1 -1 -2 -3 -2 -5 0 -2 0 -4 -1 -4 -1 0 -1
-7 -1 -18 0 -11 0 -18 -1 -18 -1 0 -1 -1 -1 -2 0 -1 0 -2 -1 -2 -1 0 -1 -1 -1
-2 0 -1 -1 -2 -2 -3 -1 -1 -2 -2 -2 -3 0 -1 0 -2 -1 -2 -1 0 -1 -2 -1 -4 0 -2
0 -4 -1 -4 -1 0 -1 -2 -1 -5 0 -3 0 -5 -1 -5 -1 0 -1 -1 -1 -3 0 -2 0 -3 -1
-3 -1 0 -1 -1 -1 -3 0 -2 0 -3 -1 -3 -1 0 -1 -3 -1 -8 0 -5 0 -8 1 -8 1 0 1
-5 1 -14 0 -9 0 -14 1 -14 1 0 1 -3 1 -6 0 -3 0 -6 -1 -6 -1 0 -1 -2 -1 -5 0
-3 0 -5 -1 -5 -1 -1 -1 -1 0 -2 0 0 1 -1 1 -2 0 -2 5 -6 7 -6 2 0 3 0 3 -1 0
-1 1 -1 3 -1 2 0 3 0 3 -1 0 -1 2 -1 4 -1 2 0 4 0 4 -1 0 -1 1 -1 3 -1 2 0 3
0 3 -1 0 -1 2 -1 4 -1 2 0 4 0 4 -1 0 -1 1 -1 3 -1 2 0 3 0 3 -1 0 -1 2 -1 4
-1 2 0 4 0 4 -1 0 -1 2 -1 5 -1 3 0 5 0 5 -1 0 -1 1 -1 3 -1 2 0 3 0 3 -1 0
-1 1 -1 2 -1 2 0 10 -8 10 -10 0 -1 0 -2 1 -2 1 0 1 -1 1 -3 0 -2 0 -3 1 -3 1
0 1 -1 1 -2 0 -1 0 -2 1 -2 1 0 1 -1 1 -3 0 -2 0 -3 1 -3 1 0 1 -1 1 -3 0 -2
0 -3 1 -3 1 0 1 -2 1 -4 0 -2 0 -4 1 -4 1 0 1 -4 1 -11 0 -7 0 -11 1 -11 1 0
1 -5 1 -13 0 -8 0 -13 -1 -13 -1 0 -1 -4 -1 -10 0 -6 0 -10 -1 -10 -1 0 -1 -2
-1 -5 0 -3 0 -5 -1 -5 -1 0 -1 -3 -1 -8 0 -5 0 -8 -1 -8 -1 0 -1 -3 -1 -6 0
-3 0 -6 -1 -6 -1 0 -1 -2 -1 -5 0 -3 1 -5 2 -7 3 -2 7 -3 8 -1 1 1 1 1 2 0 0
0 1 -1 2 -1 0 0 2 -1 4 -2 1 -2 2 -4 2 -7 0 -3 0 -5 1 -5 1 0 1 -2 1 -6 0 -5
0 -5 3 -9 3 -2 5 -3 7 -3 2 0 4 0 4 -1 0 -1 4 -1 11 -1 7 0 11 0 11 -1 0 -1 5
-1 13 -1 12 0 12 0 15 2 1 2 2 4 2 4 0 1 0 2 1 2 1 0 1 2 1 5 0 3 0 5 1 5 1 0
1 2 1 4 0 2 1 4 4 8 3 2 6 4 6 4 1 0 2 0 2 1 0 1 1 1 3 1 2 0 3 0 3 1 0 1 1 1
3 1 2 0 3 0 3 1 0 1 1 1 2 1 1 0 2 0 2 1 0 1 1 1 2 1 1 0 2 0 2 1 0 1 1 1 2 1
1 0 2 0 2 1 0 1 1 1 2 1 0 0 2 1 4 3 2 2 3 3 4 3 1 0 3 2 5 4 2 2 4 4 5 4 1 0
2 1 3 2 1 1 2 2 3 2 1 0 3 2 5 4 2 2 4 4 5 4 1 0 3 2 5 4 2 2 4 4 5 4 1 0 5 4
10 9 5 5 10 9 10 9 1 0 2 0 2 1 0 1 2 1 4 1 2 0 4 -1 7 -3 1 -2 3 -5 3 -5 0
-1 0 -2 1 -2 1 0 1 -1 1 -2 0 -1 1 -2 2 -3 1 -1 2 -2 2 -3 0 -1 0 -2 1 -2 1 0
1 -1 1 -2 0 -1 1 -2 2 -3 1 -1 2 -2 2 -3 0 -1 0 -2 1 -2 1 0 1 -1 1 -2 0 -1 0
-2 1 -2 1 0 1 -1 1 -2 0 -1 0 -2 1 -2 1 0 1 -1 1 -2 0 -1 0 -2 1 -2 1 0 1 -1
1 -2 0 -1 1 -2 2 -3 1 -1 2 -2 2 -3 0 -1 1 -2 2 -3 1 -1 2 -2 2 -3 0 -1 0 -2
1 -2 1 0 1 -1 1 -2 0 -1 0 -2 1 -2 1 0 1 -1 1 -2 0 -1 0 -2 1 -2 1 0 1 -1 1
-3 0 -2 0 -3 1 -3 1 0 1 -1 1 -2 0 -1 0 -2 1 -2 1 0 1 -1 1 -3 0 -1 1 -3 2 -4
1 -1 2 -2 2 -3 0 -1 1 -2 2 -3 1 -1 2 -2 2 -3 0 -1 0 -2 1 -2 1 0 1 -1 1 -2 0
-1 0 -2 1 -2 1 0 1 -2 1 -4 0 -2 0 -4 1 -4 1 0 1 -1 1 -2 0 -2 9 -10 11 -10 2
0 3 0 3 -1 0 -1 4 -1 9 -1 5 0 9 0 9 -1 0 -1 5 -1 12 -1 7 0 12 0 12 -1 0 -1
2 -1 5 -1 3 0 5 0 5 1 0 1 1 1 3 1 1 0 4 2 7 5 3 3 6 5 6 5 1 0 2 0 2 1 0 1 1
1 2 1 1 0 2 0 2 1 0 1 1 1 2 1 1 0 2 1 3 2 1 1 2 2 3 2 1 0 6 5 6 6 0 1 1 2 2
3 1 1 2 2 2 3 0 1 0 2 1 2 1 0 1 4 1 10 0 6 0 10 1 10 1 0 1 1 1 2 0 1 0 2 1
2 1 0 1 1 1 2 0 1 0 2 1 2 1 0 1 3 1 7 0 5 0 6 -2 9 -4 3 -8 3 -13 -1 -1 -2
-3 -5 -3 -5 0 -1 -1 -2 -2 -3 -1 -1 -2 -2 -2 -3 0 -1 -9 -10 -10 -10 -1 0 -2
-1 -3 -2 -1 -1 -3 -2 -4 -2 -2 0 -3 0 -3 -1 0 -1 -2 -1 -5 -1 -3 0 -5 0 -5 -1
0 -1 -1 -1 -3 -1 -2 0 -3 0 -3 -1 0 -1 -3 -1 -7 -1 -6 0 -9 1 -9 4 0 1 0 2 -1
2 -1 0 -1 1 -1 2 0 1 0 2 -1 2 -1 0 -1 1 -1 3 0 2 0 3 -1 3 -1 0 -1 1 -1 2 0
1 -1 2 -2 3 -1 1 -2 2 -2 3 0 1 0 2 -1 2 -1 0 -1 1 -1 2 0 1 0 2 -1 2 -1 0 -1
1 -1 2 0 1 0 2 -1 2 -1 0 -1 1 -1 2 0 1 0 2 -1 2 -1 0 -1 1 -1 2 0 1 0 2 -1 2
-1 0 -1 1 -1 2 0 0 -1 2 -3 4 -2 2 -3 3 -3 4 0 1 -1 2 -3 4 -2 2 -3 3 -3 4 0
1 -1 2 -2 3 -1 1 -2 2 -2 3 0 1 0 2 -1 2 -1 0 -1 1 -1 2 0 1 -1 2 -2 3 -1 1
-2 2 -2 3 0 1 0 2 -1 2 -1 0 -1 1 -1 3 0 2 0 3 -1 3 -1 0 -1 1 -1 2 0 1 0 2
-1 2 -1 0 -1 1 -1 2 0 1 0 2 -1 2 -1 0 -1 1 -1 2 0 1 0 2 -1 2 -1 0 -1 1 -1 3
0 2 0 3 -1 3 -1 0 -1 1 -1 2 0 1 0 2 -1 2 -1 0 -1 1 -1 2 0 1 -1 2 -2 3 -1 1
-2 2 -2 3 0 1 0 2 -1 2 -1 0 -1 1 -1 2 0 1 0 2 -1 2 -1 0 -1 1 -1 2 0 1 0 2
-1 2 -1 0 -1 1 -1 2 0 0 -2 4 -5 7 -5 4 -7 5 -9 5 -2 0 -4 0 -4 1 0 1 -3 1 -6
1 -3 0 -6 0 -6 -1 0 -1 -3 -1 -6 -1 -4 0 -6 0 -7 -2 -1 -1 -2 -2 -3 -2 -1 0
-2 -1 -4 -3 -2 -2 -3 -3 -4 -3 -1 0 -2 -1 -4 -3 -2 -2 -3 -3 -4 -3 -1 0 -2 -1
-3 -2 -1 -1 -2 -2 -3 -2 -1 0 -2 -1 -3 -2 -1 -1 -2 -2 -3 -2 -1 0 -2 -1 -4 -3
-2 -2 -3 -3 -4 -3 -1 0 -2 -1 -4 -3 -2 -2 -3 -3 -4 -3 -1 0 -2 -1 -4 -3 -2 -2
-3 -3 -4 -3 -1 0 -2 -1 -3 -2 -2 -2 -2 -2 -3 -1 0 0 -1 1 -2 1 0 0 -2 1 -4 2
-2 3 -2 4 -2 13 0 7 0 11 1 11 1 0 1 1 1 2 0 1 0 2 1 2 1 0 1 1 1 3 0 2 0 3 1
3 1 0 1 1 1 3 0 2 0 3 1 3 1 0 1 1 1 2 0 1 0 2 1 2 1 0 1 1 1 3 0 1 1 3 2 4 1
1 2 2 2 3 0 2 3 4 4 4 1 0 2 0 2 1 0 1 2 1 4 1 2 0 4 0 4 -1 0 -1 1 -1 3 -1 2
0 3 0 3 -1 0 -1 1 -1 2 -1 1 0 2 0 2 -1 0 -1 1 -1 3 -1 2 0 3 0 3 -1 0 -1 2
-1 4 -1 2 0 4 0 4 -1 0 -1 1 -1 3 -1 2 0 3 0 3 -1 0 -1 3 -1 6 -1 3 0 6 0 6 1
0 1 1 1 2 1 1 0 2 1 3 2 1 1 2 2 3 2 1 0 2 0 2 1 0 1 1 1 2 1 1 0 2 0 2 1 0 1
1 1 2 1 1 0 2 1 3 2 1 1 2 2 3 2 1 0 2 0 2 1 0 1 1 1 2 1 1 0 2 0 2 1 0 1 1 1
2 1 1 0 2 0 2 1 0 1 1 1 2 1 1 0 2 1 3 2 1 1 2 2 3 2 1 0 2 0 2 1 0 1 1 1 2 1
1 0 2 1 3 2 1 1 2 2 3 2 1 0 2 0 2 1 0 1 1 1 2 1 1 0 2 0 2 1 0 1 1 1 2 1 1 0
2 0 2 1 0 1 1 1 3 1 2 0 3 0 3 1 0 1 2 1 4 1 2 0 4 0 4 1 0 1 2 1 4 1 2 0 4 0
4 1 0 1 1 1 3 1 2 0 3 0 3 1 0 1 1 1 2 1 2 0 10 9 10 11 0 2 1 3 1 3 1 1 1 1
0 2 0 0 -1 1 -1 2 0 3 -3 4 -13 4 -9 0 -11 0 -12 -2 -1 -1 -2 -2 -3 -2 -1 0
-3 -2 -6 -5 -3 -3 -6 -5 -6 -5 -1 0 -2 0 -2 -1 0 -1 -1 -1 -2 -1 -1 0 -2 0 -2
-1 0 -1 -1 -1 -2 -1 -1 0 -2 0 -2 -1 0 -1 -1 -1 -2 -1 -1 0 -2 0 -2 -1 0 -1
-1 -1 -2 -1 -1 0 -2 0 -2 -1 0 -1 -1 -1 -2 -1 -1 0 -2 0 -2 -1 0 -1 -1 -1 -3
-1 -2 0 -3 0 -3 -1 0 -1 -1 -1 -3 -1 -2 0 -3 0 -3 -1 0 -1 -2 -1 -4 -1 -2 0
-4 0 -4 -1 0 -1 -2 -1 -5 -1 -3 0 -5 0 -5 -1 0 -1 -4 -1 -9 -1 -5 0 -9 0 -9 1
0 1 -1 1 -3 1 -1 0 -3 1 -4 2 -1 1 -2 2 -3 2 -1 0 -2 0 -2 1 0 1 -1 1 -2 1 -1
0 -24 22 -24 24 0 2 -11 12 -12 12 -1 0 -2 0 -2 1 0 1 -1 1 -2 1 -1 0 -2 0 -2
1 0 1 -2 1 -4 1 -2 0 -4 0 -4 1 0 1 -1 1 -3 1 -2 0 -3 0 -3 1 0 1 -1 1 -3 1
-1 0 -4 2 -7 4 -4 5 -4 5 -4 10 0 4 0 6 1 6 1 0 1 1 1 3 0 2 0 3 1 3 1 0 1 1
1 3 0 2 0 3 1 3 1 0 1 1 1 2 0 1 0 2 1 2 1 0 1 1 1 2 0 1 0 2 1 2 1 0 1 1 1 2
0 1 0 2 1 2 1 0 1 1 1 3 0 1 2 4 5 7 l5 5 0 10 c0 7 0 11 -1 11 -1 0 -1 2 -1
4 0 2 0 4 -1 4 -1 0 -1 1 -1 2 0 2 -8 10 -10 10 -1 0 -2 0 -2 1 0 1 -1 1 -2 1
-1 0 -2 0 -2 1 0 1 -1 1 -3 1 -2 0 -3 0 -3 1 0 1 -3 1 -6 1 -3 0 -6 0 -6 -1 0
-1 -1 -1 -3 -1 -2 0 -3 0 -3 -1 0 -1 -1 -1 -2 -1 -1 0 -2 0 -2 -1 0 -1 -1 -1
-2 -1 -1 0 -2 0 -2 -1 0 -1 -1 -1 -3 -1 -2 0 -3 0 -3 -1 0 -1 -1 -1 -3 -1 -2
0 -3 0 -3 -1 0 -1 -1 -1 -2 -1 -1 0 -4 -2 -4 -4 0 -1 -1 -2 -3 -4 -2 -2 -3 -3
-3 -4 0 -1 -1 -2 -2 -3 -2 -1 -3 -7 -1 -7 1 0 1 -1 1 -2 0 -1 1 -2 2 -3 1 -1
2 -2 2 -3 0 -1 1 -2 2 -3 1 -1 2 -3 2 -4 0 -2 0 -3 1 -3 1 0 1 -1 1 -3 0 -2 0
-3 1 -3 1 0 1 -1 1 -2 0 -1 0 -2 1 -2 1 0 1 -2 1 -4 0 -2 0 -4 1 -4 1 0 1 -2
1 -6 0 -4 0 -6 -2 -8 -3 -2 -4 -2 -9 -2 -4 0 -7 0 -7 1 0 1 -1 1 -3 1 -2 0 -3
0 -3 1 0 1 -1 1 -2 1 -1 0 -2 0 -2 1 0 1 -4 1 -10 1 -6 0 -10 0 -10 -1 0 -1
-1 -1 -3 -1 -2 0 -3 0 -3 -1 0 -1 -1 -1 -2 -1 -1 0 -2 0 -2 -1 0 -1 -1 -1 -2
-1 -1 0 -2 0 -2 -1 0 -1 -1 -1 -2 -1 -1 0 -2 0 -2 -1 0 -1 -1 -1 -2 -1 -1 0
-2 0 -2 -1 0 -1 -1 -1 -2 -1 -1 0 -2 0 -2 -1 0 -1 -1 -1 -3 -1 -2 0 -3 0 -3
-1 0 -1 -2 -1 -5 -1 -3 0 -5 0 -5 -1 0 -1 -2 -1 -5 -1 -3 0 -5 0 -5 -1 0 -1
-2 -1 -5 -1 -5 0 -9 3 -9 8 0 2 0 4 -1 4 -1 0 -1 4 -1 11 0 7 0 11 1 11 1 0 1
2 1 4 0 2 0 4 1 4 1 0 1 1 1 3 0 2 0 3 1 3 1 0 1 2 1 4 0 2 0 4 1 4 1 0 1 2 1
4 0 2 0 4 1 4 1 0 1 1 1 2 0 1 0 2 1 2 1 0 1 1 1 2 0 1 8 10 10 10 2 0 10 9
10 10 0 1 1 2 2 3 1 1 2 2 2 3 0 1 0 2 1 2 1 0 1 1 1 2 0 1 0 2 1 2 2 0 1 5 0
7 -2 2 -4 1 -6 -1 -1 -1 -2 -2 -3 -2 -1 0 -2 0 -2 -1 0 -2 -5 -1 -7 0 -1 1 -1
4 -1 11 0 8 0 10 2 11 1 1 2 2 2 3 0 1 1 2 2 3 4 3 2 11 -2 11 -1 0 -2 0 -2 1
0 1 -1 1 -3 1 -2 0 -3 0 -3 -1z"/>
</g>
</svg>
