<?xml version="1.0" standalone="no"?>
<!DOCTYPE svg PUBLIC "-//W3C//DTD SVG 20010904//EN"
 "http://www.w3.org/TR/2001/REC-SVG-20010904/DTD/svg10.dtd">
<svg version="1.0" xmlns="http://www.w3.org/2000/svg"
 width="640.000000pt" height="480.000000pt" viewBox="0 0 640.000000 480.000000"
 preserveAspectRatio="xMidYMid meet">
<metadata>
Created by potrace 1.14, written by Peter Selinger 2001-2017
</metadata>
<g transform="translate(0.000000,480.000000) scale(1.000000,-1.000000)"
fill="#000000" stroke="none">
<path d="M80 225 c-1 -1 -2 -3 -2 -4 0 -2 0 -3 -1 -3 -1 0 -1 -1 -1 -3 0 -2 0
-3 1 -3 1 0 1 -2 1 -4 0 -2 0 -4 -1 -4 -1 0 -1 -1 -1 -2 0 0 -2 -3 -3 -5 -2
-1 -5 -3 -5 -3 -1 0 -2 0 -2 -1 0 -1 -1 -1 -3 -1 -2 0 -3 0 -3 -1 0 -1 -1 -1
-3 -1 -2 0 -3 0 -3 -1 0 -1 -1 -1 -2 -1 -2 0 -8 -6 -8 -8 0 -1 0 -2 -1 -2 -1
0 -1 -1 -1 -2 0 -1 0 -2 -1 -2 -1 0 -1 -1 -1 -3 0 -2 0 -3 -1 -3 -1 0 -1 -2
-1 -4 0 -2 0 -4 -1 -4 -1 0 -1 -2 -1 -5 0 -3 0 -5 1 -5 1 0 1 -4 1 -9 l0 -8 5
-5 c3 -3 5 -6 5 -7 0 -2 0 -3 -1 -3 -1 0 -1 -1 -1 -3 0 -2 0 -3 -1 -3 -1 0 -1
-3 -1 -8 0 -5 0 -8 1 -8 1 0 1 -2 1 -5 0 -3 0 -5 1 -5 1 0 1 -1 1 -3 0 -2 0
-3 1 -3 1 0 1 -1 1 -3 0 -2 0 -3 1 -3 1 0 1 -2 1 -4 0 -2 0 -4 1 -4 1 0 1 -1
1 -2 0 -1 0 -2 -1 -2 -1 0 -1 -3 -1 -6 0 -3 0 -6 1 -6 1 0 1 -2 1 -5 0 -3 0
-5 1 -5 1 0 1 -1 1 -2 0 -1 0 -2 1 -2 1 0 1 -1 1 -2 0 -1 0 -2 -1 -2 -1 0 -1
-1 -1 -2 0 0 -1 -2 -3 -4 -3 -3 -3 -3 -3 -11 0 -6 0 -9 1 -9 1 -1 1 -1 0 -2 0
0 -1 -1 -1 -2 0 -2 1 -2 9 -2 8 0 11 1 11 4 0 1 1 2 2 3 1 1 2 3 2 6 0 4 -1 5
-5 9 -5 4 -5 5 -5 9 0 3 0 5 1 5 1 0 1 2 1 4 0 2 0 4 1 4 1 0 1 2 1 4 0 2 0 4
-1 4 -1 0 -1 2 -1 5 0 3 0 5 1 5 1 0 1 1 1 2 0 1 0 2 1 2 1 0 1 2 1 4 0 3 0 4
2 4 2 0 2 -1 2 -4 0 -2 1 -4 2 -5 2 -1 2 -3 2 -11 0 -8 0 -10 2 -11 1 -1 2 -2
2 -3 0 -1 1 -2 2 -2 1 0 2 0 2 -1 0 -2 5 -1 7 0 0 1 1 2 1 3 0 1 1 2 2 3 1 1
2 2 2 3 0 1 0 2 1 2 1 0 1 1 1 2 0 1 0 2 1 2 1 0 1 2 1 4 0 2 0 4 1 4 1 0 1 6
1 16 0 10 0 16 -1 16 -1 0 -1 3 -1 8 0 5 0 8 1 8 1 0 1 3 1 7 0 4 0 7 1 7 1 0
1 1 1 3 0 2 0 3 1 3 1 0 1 1 1 3 0 2 0 3 1 3 1 0 1 1 1 2 0 1 0 2 -1 2 -1 0
-1 2 -1 4 0 2 0 4 -1 4 -1 0 -1 2 -1 5 0 3 0 5 1 5 1 0 1 2 1 4 0 2 0 4 1 4 1
0 1 2 1 6 0 5 0 5 -4 10 -3 2 -5 4 -6 4 -2 0 -6 5 -6 6 0 1 0 2 -1 2 -1 0 -1
2 -1 5 0 3 0 5 1 5 1 0 1 1 1 2 0 1 0 2 1 2 1 0 1 1 1 2 0 1 0 2 1 2 1 0 1 1
1 2 0 1 0 2 -1 2 -1 0 -1 1 -1 3 0 3 -8 11 -11 11 -1 0 -4 -1 -5 -3z m-27 -76
c2 -2 1 -4 -1 -7 -3 -2 -6 -3 -6 0 0 1 -1 2 -1 2 -1 1 -1 1 0 2 0 0 1 1 1 2 0
2 4 3 7 1z"/>
<path d="M74 4 c0 -1 0 -2 1 -2 1 0 1 1 1 2 0 1 0 2 -1 2 -1 0 -1 -1 -1 -2z"/>
</g>
</svg>
