<?xml version="1.0" standalone="no"?>
<!DOCTYPE svg PUBLIC "-//W3C//DTD SVG 20010904//EN"
 "http://www.w3.org/TR/2001/REC-SVG-20010904/DTD/svg10.dtd">
<svg version="1.0" xmlns="http://www.w3.org/2000/svg"
 width="640.000000pt" height="480.000000pt" viewBox="0 0 640.000000 480.000000"
 preserveAspectRatio="xMidYMid meet">
<metadata>
Created by potrace 1.14, written by Peter Selinger 2001-2017
</metadata>
<g transform="translate(0.000000,480.000000) scale(1.000000,-1.000000)"
fill="#000000" stroke="none">
<path d="M220 333 c0 -1 -2 -1 -5 -1 -3 0 -5 0 -5 -1 0 -1 -1 -1 -3 -1 -2 0
-3 0 -3 -1 0 -1 -1 -1 -2 -1 -1 0 -2 0 -2 -1 0 -1 -1 -1 -2 -1 -1 0 -4 -2 -4
-4 0 -1 -1 -2 -2 -3 -2 -1 -2 -3 -2 -12 0 -7 0 -11 1 -11 1 0 1 -1 1 -2 0 0 2
-3 5 -6 3 -3 5 -6 5 -6 0 -1 0 -2 1 -2 1 0 1 -3 1 -6 0 -3 0 -6 -1 -6 -1 0 -1
-1 -1 -2 0 -1 -2 -4 -4 -4 -1 0 -2 -1 -3 -2 -1 -1 -3 -2 -4 -2 -2 0 -3 0 -3
-1 0 -1 -1 -1 -2 -1 -1 0 -2 0 -2 -1 0 -1 -1 -1 -3 -1 -2 0 -3 0 -3 -1 0 -1
-1 -1 -2 -1 -1 0 -2 0 -2 -1 0 -1 -1 -1 -2 -1 -2 0 -10 -9 -10 -11 0 -2 0 -3
-1 -3 -1 0 -1 -2 -1 -5 0 -3 0 -5 -1 -5 -1 0 -1 -1 -1 -3 0 -2 0 -3 -1 -3 -1
0 -1 -1 -1 -2 0 -1 0 -2 -1 -2 -1 0 -1 -1 -1 -3 0 -2 0 -3 -1 -3 -1 0 -1 -1
-1 -3 0 -2 0 -3 -1 -3 -1 0 -1 -1 -1 -2 0 -1 0 -2 -1 -2 -1 0 -1 -1 -1 -2 0
-1 0 -2 -1 -2 -1 0 -1 -1 -1 -2 0 -1 0 -2 -1 -2 -1 0 -1 -1 -1 -2 0 -1 0 -2
-1 -2 -1 0 -1 -1 -1 -2 0 -1 -8 -10 -10 -10 -1 0 -2 -1 -4 -3 -2 -2 -3 -3 -4
-3 -1 0 -2 -1 -3 -2 -1 -1 -2 -2 -3 -2 -1 0 -2 0 -2 -1 0 -1 -1 -1 -2 -1 -1 0
-2 0 -2 -1 0 -1 -1 -1 -3 -1 -2 0 -3 0 -3 -1 0 -1 -1 -1 -3 -1 -2 0 -3 0 -3
-1 0 -1 -1 -1 -2 -1 -1 0 -2 0 -2 -1 0 -1 -1 -1 -2 -1 -1 0 -2 0 -2 -1 0 -1
-1 -1 -2 -1 -1 0 -2 0 -2 1 0 1 -2 1 -4 1 -2 0 -4 1 -5 2 -1 1 -2 2 -3 2 -1 0
-2 0 -2 1 0 1 -1 1 -3 1 -2 0 -3 0 -3 1 0 1 -1 1 -3 1 -2 0 -3 0 -3 -1 0 -1
-1 -1 -2 -1 -1 0 -2 0 -2 -1 0 -1 -1 -1 -2 -1 -1 0 -2 -1 -3 -2 -1 -1 -2 -2
-3 -2 -2 0 -6 -5 -6 -6 0 -1 0 -2 -1 -2 -1 0 -1 -3 -1 -7 0 -4 0 -7 1 -7 1 0
1 -1 1 -2 0 0 1 -2 2 -4 3 -2 4 -2 9 -2 4 0 7 0 7 1 0 1 2 1 5 1 3 0 5 0 5 1
0 1 1 1 3 1 2 0 3 0 3 1 0 1 1 1 3 1 2 0 3 0 3 1 0 1 2 1 4 1 2 0 4 0 4 -1 0
-1 5 -1 12 -1 7 0 12 0 12 1 0 1 1 1 3 1 2 0 3 0 3 1 0 1 2 1 4 1 2 0 4 0 4 1
0 1 1 1 2 1 1 0 2 0 2 1 0 1 1 1 2 1 1 0 2 0 2 1 0 1 1 1 2 1 1 0 2 1 3 2 1 1
2 2 3 2 1 0 2 0 2 1 0 1 1 1 2 1 0 0 4 3 8 7 4 4 8 7 9 7 3 0 7 -4 7 -7 0 -2
0 -3 1 -3 1 0 1 -2 1 -4 0 -2 0 -4 1 -4 1 0 1 -6 1 -17 0 -11 0 -17 -1 -17 -1
0 -1 -3 -1 -6 0 -3 0 -6 -1 -6 -1 0 -1 -1 -1 -3 0 -2 0 -3 1 -3 1 0 1 -2 1 -4
0 -2 0 -4 1 -4 1 0 1 -1 1 -3 0 -2 0 -3 1 -3 1 0 1 -2 1 -5 0 -3 0 -5 1 -5 1
0 1 -2 1 -4 0 -2 0 -4 1 -4 1 0 1 -1 1 -3 0 -2 0 -3 1 -3 1 0 1 -3 1 -6 0 -3
0 -6 1 -6 1 0 1 -4 1 -9 0 -5 0 -9 1 -9 1 0 1 -3 1 -7 0 -4 0 -7 1 -7 1 0 1
-2 1 -5 l0 -5 21 0 21 0 0 5 c0 3 0 5 1 5 1 0 1 2 1 4 0 6 7 10 11 7 0 -1 1
-3 1 -3 0 -1 0 -2 1 -2 1 0 1 -1 1 -3 0 -2 0 -3 1 -3 1 0 1 -2 1 -4 0 -6 1 -6
23 -6 l21 0 0 14 c0 9 0 14 -1 14 -1 0 -1 5 -1 12 0 7 0 12 -1 12 -1 0 -1 3
-1 6 0 3 0 6 -1 6 -1 0 -1 4 -1 9 0 5 0 9 -1 9 -1 0 -1 3 -1 7 0 4 0 7 -1 7
-1 0 -1 2 -1 4 0 2 0 4 -1 4 -1 0 -1 2 -1 5 0 3 0 5 -1 5 -1 0 -1 1 -1 3 0 2
0 3 -1 3 -1 0 -1 2 -1 4 0 2 0 4 -1 4 -1 0 -1 3 -1 7 0 4 0 7 -1 7 -1 0 -1 8
-1 21 0 20 0 20 2 23 2 1 4 2 7 2 3 0 5 0 5 -1 0 -1 1 -1 2 -1 1 0 2 0 2 -1 0
-1 1 -1 2 -1 0 0 2 -1 4 -3 2 -2 4 -3 4 -3 1 0 2 0 2 -1 0 -1 1 -1 2 -1 1 0 2
-1 3 -2 1 -1 2 -2 3 -2 1 0 2 0 2 -1 0 -1 3 -1 6 -1 3 0 6 0 6 1 0 1 4 1 11 1
7 0 11 0 11 1 0 1 2 1 4 1 2 0 4 0 4 1 0 1 1 1 2 1 1 0 2 0 2 1 0 1 1 1 2 1 1
0 2 0 2 1 0 1 1 1 2 1 1 0 2 0 2 1 0 1 1 1 2 1 1 0 2 0 2 1 0 1 1 1 2 1 1 0 2
0 2 1 0 1 1 1 3 1 2 0 3 0 3 1 0 1 1 1 3 1 2 0 3 0 3 1 0 1 1 1 2 1 1 0 2 0 2
1 0 1 1 1 2 1 1 0 2 0 2 1 0 1 1 1 2 1 2 0 6 4 6 6 0 1 0 2 1 2 2 0 1 3 -1 6
-2 1 -4 2 -4 2 -1 0 -2 0 -2 1 0 1 -2 1 -5 1 -3 0 -5 0 -5 -1 0 -1 -2 -1 -4
-1 -2 0 -4 0 -4 -1 0 -1 -2 -1 -4 -1 -2 0 -4 0 -4 -1 0 -1 -1 -1 -3 -1 -2 0
-3 0 -3 -1 0 -1 -2 -1 -4 -1 -2 0 -4 0 -4 -1 0 -1 -2 -1 -5 -1 -3 0 -5 0 -5
-1 0 -1 -5 -1 -13 -1 -8 0 -13 0 -13 1 0 1 -1 1 -2 1 -1 0 -2 0 -2 1 0 1 -1 1
-2 1 0 0 -4 3 -7 6 -3 3 -6 6 -7 6 -1 0 -6 5 -6 6 0 1 -1 2 -3 4 -2 2 -3 3 -3
4 0 2 -19 20 -20 20 -1 0 -2 0 -2 1 0 1 -2 1 -5 1 -3 0 -5 0 -5 1 0 1 -2 1 -4
1 -2 0 -4 1 -5 2 -1 1 -2 2 -3 2 -4 0 -6 9 -2 14 2 1 3 2 4 2 1 0 2 1 4 2 2 3
2 4 2 12 0 6 0 10 -1 10 -1 0 -1 1 -1 2 0 1 0 2 -1 2 -1 0 -1 1 -1 2 0 1 0 2
-1 2 -1 0 -1 1 -1 3 0 2 0 3 1 3 1 0 1 2 1 4 0 2 -1 4 -5 9 -3 3 -7 5 -7 5 -1
0 -2 0 -2 1 0 1 -3 1 -7 1 -4 0 -7 0 -7 1 0 1 -1 1 -2 1 -1 0 -2 0 -2 -1z"/>
</g>
</svg>
