<?xml version="1.0" standalone="no"?>
<!DOCTYPE svg PUBLIC "-//W3C//DTD SVG 20010904//EN"
 "http://www.w3.org/TR/2001/REC-SVG-20010904/DTD/svg10.dtd">
<svg version="1.0" xmlns="http://www.w3.org/2000/svg"
 width="640.000000pt" height="480.000000pt" viewBox="0 0 640.000000 480.000000"
 preserveAspectRatio="xMidYMid meet">
<metadata>
Created by potrace 1.14, written by Peter Selinger 2001-2017
</metadata>
<g transform="translate(0.000000,480.000000) scale(1.000000,-1.000000)"
fill="#000000" stroke="none">
<path d="M364 407 c0 -1 -1 -1 -2 -1 -1 0 -2 0 -2 -1 0 -1 -1 -1 -2 -1 -1 0
-2 0 -2 -1 0 -1 -1 -1 -2 -1 -1 0 -2 0 -2 -1 0 -1 -1 -1 -3 -1 -2 0 -3 0 -3
-1 0 -1 -1 -1 -2 -1 -1 0 -2 0 -2 -1 0 -1 -1 -1 -2 -1 -1 0 -10 -8 -10 -10 0
-1 -1 -2 -3 -4 -2 -2 -3 -4 -3 -4 0 -1 0 -2 -1 -2 -1 0 -1 -1 -1 -2 0 -1 0 -2
-1 -2 -1 0 -1 -4 -1 -9 0 -5 0 -9 -1 -9 -1 0 -1 -3 -1 -6 0 -3 0 -6 1 -6 1 0
1 -3 1 -6 0 -3 0 -6 1 -6 1 0 1 -1 1 -2 0 -1 0 -2 1 -2 1 0 1 -2 1 -4 0 -2 -1
-4 -4 -8 -3 -2 -6 -4 -6 -4 -1 0 -2 0 -2 -1 0 -1 -1 -1 -2 -1 -1 0 -2 0 -2 -1
0 -1 -1 -1 -2 -1 -1 0 -2 0 -2 -1 0 -1 -1 -1 -3 -1 -2 0 -3 0 -3 -1 0 -1 -1
-1 -3 -1 -2 0 -3 0 -3 -1 0 -1 -2 -1 -6 -1 -4 0 -6 0 -8 2 -2 3 -2 3 -2 15 0
12 0 12 -2 15 -2 1 -3 2 -4 2 -1 0 -2 1 -4 3 -2 2 -4 3 -5 3 -2 0 -7 -4 -7 -6
0 -1 0 -2 -1 -2 -1 0 -1 -3 -1 -7 0 -4 0 -7 1 -7 1 0 1 -2 1 -4 0 -2 0 -4 1
-4 1 0 1 -1 1 -3 0 -2 0 -3 -1 -3 -1 0 -1 -1 -1 -2 0 -1 -1 -2 -2 -3 -1 -1 -2
-2 -2 -3 0 -1 0 -2 -1 -2 -1 0 -1 -1 -1 -2 0 -1 0 -2 -1 -2 -1 0 -1 -1 -1 -2
0 -1 0 -2 -1 -2 -1 0 -1 -1 -1 -2 0 -1 0 -2 -1 -2 -1 0 -1 -1 -1 -3 0 -2 0 -3
-1 -3 -1 0 -1 -1 -1 -3 0 -2 0 -3 -1 -3 -1 0 -1 -1 -1 -2 0 -1 0 -2 -1 -2 -1
0 -1 -2 -1 -4 0 -2 0 -4 -1 -4 -1 0 -1 -3 -1 -6 0 -3 0 -6 -1 -6 -1 0 -1 -3
-1 -7 0 -4 0 -7 1 -7 1 0 1 -4 1 -9 0 -5 0 -9 1 -9 1 0 1 -1 1 -2 0 -2 4 -6 6
-6 1 0 2 0 2 -1 0 -1 2 -1 5 -1 3 0 5 0 5 1 0 1 1 1 2 1 1 0 2 0 2 1 0 1 1 1
2 1 1 0 2 0 2 1 0 1 1 1 2 1 1 0 2 0 2 1 0 1 1 1 2 1 1 0 2 1 2 1 1 1 1 1 2 0
0 0 1 -1 2 -1 3 0 4 -3 4 -10 0 -5 0 -8 -1 -8 -1 0 -1 -2 -1 -5 0 -3 0 -5 -1
-5 -1 0 -1 -2 -1 -4 0 -2 0 -4 -1 -4 -1 0 -1 -2 -1 -4 0 -2 0 -4 -1 -4 -1 0
-1 -2 -1 -4 0 -2 0 -4 -1 -4 -1 0 -1 -1 -1 -3 0 -2 0 -3 -1 -3 -1 0 -1 -2 -1
-4 0 -2 0 -4 -1 -4 -1 0 -1 -2 -1 -5 0 -3 0 -5 -1 -5 -1 0 -1 -3 -1 -6 0 -3 0
-6 -1 -6 -1 0 -1 -2 -1 -5 0 -3 0 -5 -1 -5 -1 0 -1 -2 -1 -5 0 -3 0 -5 -1 -5
-1 0 -1 -3 -1 -6 0 -3 0 -6 1 -6 1 0 1 -1 1 -2 0 -1 0 -2 1 -2 1 0 1 -1 1 -2
0 -1 0 -2 1 -2 1 0 1 -1 1 -3 0 -2 0 -3 -1 -3 -1 0 -1 -2 -1 -5 0 -3 0 -5 -1
-5 -1 0 -1 -2 -1 -4 0 -2 0 -4 -1 -4 -1 0 -1 -1 -1 -3 0 -2 0 -3 -1 -3 -1 0
-1 -2 -1 -4 0 -2 0 -4 -1 -4 -1 0 -1 -4 -1 -10 0 -6 0 -10 -1 -10 -1 0 -1 -2
-1 -5 0 -3 0 -5 -1 -5 -1 0 -1 -2 -1 -5 0 -3 0 -5 -1 -5 -1 0 -1 -1 -1 -3 l0
-3 29 0 c28 0 29 0 29 2 0 1 0 2 1 2 1 0 1 2 1 4 0 2 0 4 1 4 1 0 1 1 1 3 0 2
0 3 1 3 1 0 1 1 1 3 0 2 0 3 1 3 1 0 1 1 1 3 0 2 0 3 1 3 1 0 1 1 1 2 0 1 0 2
1 2 1 0 1 1 1 3 0 2 0 3 1 3 1 0 1 1 1 2 0 1 0 2 1 2 1 0 1 1 1 2 0 2 3 4 6 4
4 0 6 -2 6 -5 0 -2 0 -3 1 -3 1 0 1 -2 1 -4 0 -2 0 -4 1 -4 1 0 1 -1 1 -3 0
-2 0 -3 -1 -3 -1 0 -1 -3 -1 -6 0 -4 0 -6 -1 -6 -1 -1 -1 -1 0 -2 1 0 1 -3 1
-7 l0 -7 24 0 24 0 0 6 c0 3 0 6 1 6 1 0 1 2 1 5 0 3 0 5 1 5 1 0 1 1 1 3 0 2
0 3 1 3 1 0 1 1 1 2 0 0 2 3 3 5 3 2 5 3 8 3 3 0 5 0 5 1 0 1 1 1 2 1 2 0 10
8 10 10 0 1 0 2 1 2 1 0 1 2 1 5 0 3 0 5 1 5 1 0 1 3 1 7 0 4 0 7 1 7 1 0 1 1
1 2 0 1 0 2 1 2 1 0 1 12 1 34 0 22 0 34 -1 34 -1 0 -1 4 -1 11 0 7 0 11 -1
11 -1 0 -1 3 -1 7 0 4 0 7 -1 7 -1 0 -1 4 -1 9 0 5 0 9 -1 9 -1 0 -1 4 -1 9 0
5 0 9 -1 9 -1 0 -1 4 -1 9 0 5 0 9 -1 9 -1 0 -1 4 -1 10 0 6 0 10 -1 10 -1 0
-1 3 -1 6 0 3 0 6 -1 6 -1 0 -1 1 -1 3 0 2 -6 9 -8 9 -1 0 -2 0 -2 1 0 1 -1 1
-2 1 -1 0 -2 1 -3 2 -1 1 -2 2 -3 2 -1 0 -2 0 -2 1 0 1 -1 1 -2 1 -1 0 -2 1
-3 2 -1 1 -2 2 -3 2 -2 0 -14 13 -14 14 0 1 0 2 -1 2 -1 0 -1 2 -1 4 0 2 1 4
4 7 2 2 4 5 4 5 0 1 0 2 1 2 1 0 1 1 1 2 0 1 0 2 1 2 1 0 1 1 1 3 0 1 1 3 2 4
1 1 2 2 2 3 0 0 4 5 9 10 l9 9 0 5 c0 4 0 6 -1 6 -1 0 -1 1 -1 3 0 2 0 3 -1 3
-1 0 -1 1 -1 3 0 1 -1 3 -2 4 -1 1 -2 2 -2 3 0 1 -4 6 -6 6 -1 0 -4 3 -7 6 -3
3 -7 6 -7 6 -1 0 -2 0 -2 1 0 1 -1 1 -2 1 -1 0 -2 0 -2 -1z"/>
</g>
</svg>
