<?xml version="1.0" standalone="no"?>
<!DOCTYPE svg PUBLIC "-//W3C//DTD SVG 20010904//EN"
 "http://www.w3.org/TR/2001/REC-SVG-20010904/DTD/svg10.dtd">
<svg version="1.0" xmlns="http://www.w3.org/2000/svg"
 width="640.000000pt" height="480.000000pt" viewBox="0 0 640.000000 480.000000"
 preserveAspectRatio="xMidYMid meet">
<metadata>
Created by potrace 1.14, written by Peter Selinger 2001-2017
</metadata>
<g transform="translate(0.000000,480.000000) scale(1.000000,-1.000000)"
fill="#000000" stroke="none">
<path d="M182 363 c0 -1 -1 -1 -3 -1 -2 0 -3 0 -3 -1 0 -1 -1 -1 -2 -1 -1 0
-2 0 -2 -1 0 -1 -1 -1 -2 -1 0 0 -2 -1 -4 -3 -2 -2 -3 -3 -4 -3 -2 0 -4 -3 -4
-4 0 -1 -1 -2 -2 -3 -1 -1 -2 -2 -2 -3 0 -1 0 -2 -1 -2 -1 0 -1 -1 -1 -3 0 -2
0 -3 -1 -3 -1 0 -1 -2 -1 -4 0 -2 0 -4 1 -4 1 0 1 -3 1 -6 0 -3 0 -6 1 -6 1 0
1 -2 1 -4 0 -2 0 -4 1 -4 1 0 1 -1 1 -2 0 -1 0 -2 1 -2 1 0 1 -1 1 -2 0 -1 0
-2 1 -2 1 0 1 -1 1 -2 0 -1 1 -2 2 -3 1 -1 2 -2 2 -3 0 -1 0 -2 1 -2 1 0 1 -3
1 -7 0 -4 0 -7 1 -7 1 0 1 -1 1 -3 0 -2 0 -3 -1 -3 -1 0 -1 -1 -1 -2 0 -1 0
-2 -1 -2 -1 0 -1 -1 -1 -2 0 0 -2 -3 -4 -5 -2 -2 -4 -4 -4 -5 0 -2 -9 -10 -10
-10 -1 0 -2 -1 -3 -2 -1 -1 -2 -2 -3 -2 -1 0 -2 0 -2 -1 0 -1 -1 -1 -2 -1 -1
0 -2 -1 -3 -2 -1 -1 -2 -2 -3 -2 -1 0 -2 -1 -3 -2 -1 -1 -2 -2 -3 -2 -1 0 -12
-11 -12 -12 0 -1 -1 -2 -2 -3 -1 -1 -2 -2 -2 -3 0 -1 0 -2 -1 -2 -1 0 -1 -1
-1 -2 0 -1 0 -2 -1 -2 -1 0 -1 -1 -1 -2 0 -1 0 -2 -1 -2 -1 0 -1 -1 -1 -2 0
-1 0 -2 -1 -2 -1 0 -1 -1 -1 -3 0 -2 0 -3 -1 -3 -1 0 -1 -1 -1 -3 0 -2 0 -3
-1 -3 -1 0 -1 -1 -1 -3 0 -2 0 -3 -1 -3 -1 0 -1 -1 -1 -2 0 -1 0 -2 -1 -2 -1
0 -1 -1 -1 -3 0 -2 0 -3 -1 -3 -1 0 -1 -1 -1 -2 0 -1 0 -2 -1 -2 -1 0 -1 -2
-1 -4 0 -2 -1 -4 -1 -4 -1 -1 -1 -1 0 -2 1 0 1 -2 1 -6 0 -3 0 -6 1 -6 1 0 1
-1 1 -2 0 -1 0 -2 -1 -2 -1 0 -1 -4 -1 -9 0 -5 0 -9 -1 -9 -1 0 -1 -1 -1 -2 0
-1 0 -2 -1 -2 -1 0 -1 -1 -1 -3 0 -2 0 -3 1 -3 1 0 1 -1 1 -2 0 -2 2 -4 4 -4
1 0 2 0 2 -1 0 -1 1 -1 2 -1 1 0 2 0 2 -1 0 -1 1 -1 2 -1 1 0 2 0 2 -1 0 -1 1
-1 3 -1 2 0 3 0 3 -1 0 -1 2 -1 5 -1 3 0 5 0 5 -1 0 -1 5 -1 14 -1 l13 0 4 -3
c2 -3 3 -5 3 -6 0 -2 0 -3 1 -3 1 0 1 -1 1 -3 0 -2 0 -3 1 -3 1 0 1 -2 1 -4 0
-2 0 -4 1 -4 1 0 1 -2 1 -5 0 -3 0 -5 1 -5 1 0 1 -2 1 -5 0 -3 0 -5 1 -5 1 0
1 -9 1 -24 l0 -24 95 0 c94 0 95 0 95 2 0 1 0 2 -1 2 -1 0 -1 3 -1 8 0 5 0 8
-1 8 -1 0 -1 2 -1 4 0 2 0 4 -1 4 -1 0 -1 1 -1 2 0 1 0 2 -1 2 -1 0 -1 1 -1 2
0 1 -1 2 -2 3 -1 1 -2 2 -2 3 0 1 0 2 -1 2 -1 0 -1 1 -1 2 0 1 -1 2 -2 3 -1 1
-2 2 -2 3 0 1 -1 2 -2 3 -1 1 -2 2 -2 3 0 0 -4 5 -8 9 -4 4 -8 8 -8 9 0 1 -1
2 -3 4 -2 2 -3 3 -3 4 0 1 -1 2 -3 4 -2 2 -3 3 -3 4 0 1 -1 2 -2 3 -1 1 -2 2
-2 3 0 1 -1 2 -2 3 -1 1 -2 2 -2 3 0 1 -2 3 -4 5 -2 2 -4 4 -4 5 0 1 -1 2 -2
3 -1 1 -2 2 -2 3 0 1 0 2 -1 2 -1 0 -1 1 -1 3 0 2 0 3 -1 3 -1 0 -1 1 -1 2 0
1 0 2 -1 2 -1 0 -1 2 -1 5 0 3 0 5 -1 5 -1 0 -1 6 -1 16 0 10 0 16 1 16 1 0 1
1 1 2 0 2 11 12 13 12 2 0 3 0 3 1 0 1 6 1 17 1 11 0 17 0 17 -1 0 -1 4 -1 11
-1 l10 0 5 5 c3 3 5 5 6 5 1 0 20 19 20 20 0 1 2 3 4 5 2 2 4 4 4 5 0 1 1 2 2
3 1 1 2 2 2 3 0 1 1 2 3 4 2 2 3 3 3 4 0 1 1 2 2 3 1 1 2 2 2 3 0 1 11 12 12
12 1 0 3 2 5 4 2 2 5 4 5 4 1 0 2 1 2 2 0 0 3 4 7 8 4 4 7 8 7 8 0 1 0 2 1 2
1 0 1 1 1 2 0 1 -2 4 -4 4 -2 0 -4 3 -4 4 0 1 0 2 -1 2 -2 0 -1 4 1 5 1 1 2 3
2 4 0 3 0 3 -5 3 -4 0 -5 0 -9 -4 -2 -3 -4 -6 -4 -6 0 -1 -1 -2 -2 -3 -1 -1
-2 -2 -2 -3 0 -1 -2 -3 -5 -6 -3 -3 -5 -6 -5 -7 0 -2 0 -3 -1 -3 -1 0 -1 -1
-1 -3 0 -2 0 -3 -1 -3 -1 0 -1 -1 -1 -2 0 -1 -8 -10 -10 -10 -1 0 -2 -1 -3 -2
-1 -1 -2 -2 -3 -2 -2 0 -4 -2 -4 -4 0 -1 -1 -2 -2 -3 -1 -1 -2 -2 -2 -3 0 -1
-17 -18 -18 -18 -1 0 -2 -1 -4 -3 -2 -2 -3 -3 -4 -3 -1 0 -3 -2 -5 -4 -2 -2
-5 -4 -5 -4 -1 0 -2 0 -2 -1 0 -1 -3 -1 -6 -1 -3 0 -6 0 -6 1 0 1 -1 1 -2 1
-1 0 -2 0 -2 1 0 1 -1 1 -2 1 -1 0 -2 1 -3 2 -1 1 -2 2 -3 2 -1 0 -2 0 -2 1 0
1 -2 1 -4 1 -2 0 -4 0 -4 1 0 1 -1 1 -3 1 -2 0 -3 0 -3 1 0 1 -1 1 -2 1 0 0
-3 2 -5 4 -2 2 -4 4 -5 4 -1 0 -2 1 -3 2 -1 1 -3 2 -4 2 -2 0 -3 0 -3 1 0 1
-1 1 -2 1 -1 0 -2 0 -2 1 0 1 -1 1 -2 1 -1 0 -2 0 -2 1 0 1 -1 1 -3 1 -2 0 -3
0 -3 1 0 1 -2 1 -5 1 -3 0 -5 0 -5 1 0 1 -4 1 -9 1 -5 0 -9 0 -9 1 0 1 -1 1
-2 1 -1 0 -2 0 -2 1 0 1 -1 1 -2 1 -1 0 -14 12 -14 14 0 1 -1 2 -2 3 -1 1 -2
3 -2 5 0 2 0 4 1 4 1 0 1 1 1 2 0 1 0 2 1 2 1 0 1 1 1 2 0 1 0 2 1 2 1 0 1 1
1 2 0 1 0 2 1 2 1 0 1 1 1 3 0 2 0 3 1 3 1 0 1 1 1 2 0 1 0 2 1 2 1 0 1 1 1 2
0 1 0 2 1 2 1 0 1 1 1 3 0 2 0 3 1 3 1 0 1 1 1 2 0 1 0 2 1 2 1 0 1 3 1 8 0 5
0 8 -1 8 -1 0 -1 1 -1 2 0 1 0 2 -1 2 -1 0 -1 1 -1 2 0 1 0 2 -1 2 -1 0 -1 1
-1 2 0 1 -1 2 -2 3 -1 1 -2 2 -2 3 0 1 -2 4 -4 4 -1 0 -2 1 -4 3 -2 2 -3 3 -4
3 -1 0 -2 1 -3 2 -1 1 -2 2 -3 2 -1 0 -2 0 -2 1 0 1 -1 1 -3 1 -2 0 -3 0 -3 1
0 1 -1 1 -3 1 -2 0 -3 0 -3 -1z m-52 -220 c0 -1 1 -1 2 -1 1 0 2 -1 2 -2 0 -1
0 -2 1 -2 1 0 1 -1 1 -3 0 -2 0 -3 1 -3 1 0 1 -1 1 -2 0 -1 0 -2 -1 -2 -1 0
-1 -1 -1 -2 0 -1 -1 -2 -2 -2 -1 0 -2 0 -2 -1 0 -1 -2 -1 -6 -1 -6 0 -10 3
-10 8 0 2 0 4 1 4 1 0 1 1 1 2 0 2 6 8 9 8 2 0 3 0 3 -1z"/>
</g>
</svg>
