<?xml version="1.0" standalone="no"?>
<!DOCTYPE svg PUBLIC "-//W3C//DTD SVG 20010904//EN"
 "http://www.w3.org/TR/2001/REC-SVG-20010904/DTD/svg10.dtd">
<svg version="1.0" xmlns="http://www.w3.org/2000/svg"
 width="640.000000pt" height="480.000000pt" viewBox="0 0 640.000000 480.000000"
 preserveAspectRatio="xMidYMid meet">
<metadata>
Created by potrace 1.14, written by Peter Selinger 2001-2017
</metadata>
<g transform="translate(0.000000,480.000000) scale(1.000000,-1.000000)"
fill="#000000" stroke="none">
<path d="M184 315 c0 -1 -1 -1 -2 -1 -1 0 -2 -1 -2 -2 0 -1 0 -2 -1 -2 -1 0
-1 -4 -1 -9 0 -5 0 -9 1 -9 1 0 1 -1 1 -2 0 -1 0 -2 1 -2 1 0 1 -1 1 -2 0 -1
1 -2 2 -3 1 -1 2 -2 2 -3 0 -1 0 -2 1 -2 1 0 1 -1 1 -2 0 -1 0 -2 1 -2 1 0 1
-2 1 -5 0 -3 0 -5 -1 -5 -1 0 -1 -1 -1 -2 0 -1 0 -2 -1 -2 -1 0 -1 -2 -1 -4 0
-2 0 -4 1 -4 1 0 1 -1 1 -2 0 -1 0 -2 1 -2 1 0 1 -1 1 -2 0 -1 0 -2 1 -2 1 0
1 -1 1 -2 0 -1 0 -2 1 -2 1 0 1 -1 1 -3 0 -2 0 -3 1 -3 1 0 1 -1 1 -2 0 -1 0
-2 1 -2 1 0 1 -1 1 -2 0 -1 0 -2 1 -2 1 0 1 -1 1 -3 0 -2 0 -3 1 -3 1 0 1 -1
1 -2 0 -1 0 -2 1 -2 1 0 1 -1 1 -2 0 -1 1 -2 2 -3 1 -1 2 -2 2 -3 0 -1 5 -6 6
-6 1 0 2 -1 3 -2 1 -1 3 -2 4 -2 2 0 3 0 3 -1 0 -1 3 -1 6 -1 3 0 6 0 6 -1 0
-1 5 -1 12 -1 7 0 12 0 12 -1 0 -1 1 -1 2 -1 1 0 2 -1 2 -2 0 -1 0 -2 1 -2 1
0 1 -4 1 -9 0 -5 0 -9 -1 -9 -1 0 -1 -3 -1 -7 0 -4 0 -7 -1 -7 -1 0 -1 -2 -1
-5 0 -3 0 -5 -1 -5 -1 0 -1 -3 -1 -6 0 -3 0 -6 -1 -6 -1 0 -1 -1 -1 -3 0 -2 0
-3 -1 -3 -1 0 -1 -1 -1 -3 0 -2 0 -3 -1 -3 -1 0 -1 -1 -1 -2 0 -1 0 -2 -1 -2
-1 0 -1 -2 -1 -5 0 -3 0 -5 -1 -5 -1 0 -1 -2 -1 -5 0 -3 0 -5 -1 -5 -1 0 -1
-1 -1 -3 0 -2 0 -3 -1 -3 -1 0 -1 -2 -1 -4 0 -2 0 -4 -1 -4 -1 0 -1 -2 -1 -4
0 -2 0 -4 -1 -4 -1 0 -1 -1 -1 -3 0 -2 0 -3 -1 -3 -1 0 -1 -2 -1 -4 0 -2 0 -4
-1 -4 -1 0 -1 -2 -1 -4 0 -2 1 -4 2 -5 1 -1 2 -2 2 -3 0 0 2 -3 4 -6 4 -3 6
-4 9 -4 4 0 5 1 8 4 4 5 7 5 11 2 2 -3 3 -6 1 -6 -1 0 -1 -7 -1 -20 l0 -20 23
0 23 0 0 3 c0 2 0 3 1 3 1 0 1 1 1 2 0 1 0 2 1 2 1 0 1 1 1 2 0 2 1 2 5 2 l5
0 0 -7 0 -7 24 0 c23 0 24 0 24 2 0 1 0 2 1 2 1 0 1 1 1 3 0 2 0 3 1 3 1 0 1
4 1 9 0 5 0 9 -1 9 -1 0 -1 13 -1 36 0 23 0 36 -1 36 -1 0 -1 5 -1 13 0 8 0
13 1 13 1 0 1 2 1 4 0 2 0 4 1 4 1 0 1 1 1 2 0 1 1 2 2 2 1 0 2 1 2 1 1 1 1 1
2 0 0 0 1 -1 2 -1 1 0 2 -1 4 -3 2 -2 3 -3 4 -3 1 0 2 -1 3 -2 1 -1 3 -2 4 -2
2 0 3 0 3 -1 0 -1 1 -1 2 -1 1 0 2 0 2 -1 0 -1 1 -1 2 -1 1 0 2 -1 3 -2 1 -1
2 -2 3 -2 1 0 2 0 2 -1 0 -1 1 -1 2 -1 1 0 2 0 2 -1 0 -1 1 -1 2 -1 1 0 2 0 2
-1 0 -1 1 -1 2 -1 1 0 2 0 2 -1 0 -1 1 -1 2 -1 1 0 2 0 2 -1 0 -1 1 -1 2 -1 1
0 2 0 2 -1 0 -1 2 -1 4 -1 2 0 4 0 4 -1 0 -1 1 -1 2 -1 1 0 2 0 2 -1 0 -1 1
-1 2 -1 0 0 2 -1 4 -3 2 -3 4 -3 8 -3 6 0 10 3 10 8 0 3 -4 8 -6 8 -1 0 -2 0
-2 1 0 1 -2 1 -5 1 -4 0 -5 0 -10 6 -3 3 -6 6 -7 6 -1 0 -2 1 -3 2 -1 1 -2 2
-3 2 -1 0 -2 1 -3 2 -1 1 -2 2 -3 2 -1 0 -3 2 -5 4 -2 2 -4 4 -5 4 -1 0 -3 2
-5 4 -2 2 -4 4 -5 4 -2 0 -6 5 -6 6 0 1 -1 2 -2 3 -1 1 -2 2 -2 3 0 1 0 2 -1
2 -1 0 -1 1 -1 2 0 1 -1 2 -2 3 -1 1 -2 2 -2 3 0 1 0 2 -1 2 -1 0 -1 1 -1 2 0
1 -1 2 -2 3 -1 1 -2 3 -2 4 0 2 0 3 -1 3 -1 0 -1 2 -1 5 0 3 0 5 -1 5 -1 0 -1
2 -1 4 0 2 -1 4 -4 8 -3 2 -6 4 -6 4 -1 0 -2 0 -2 1 0 1 -1 1 -2 1 -1 0 -2 0
-2 1 0 1 -1 1 -2 1 -1 0 -2 0 -2 1 0 1 -1 1 -2 1 -1 0 -2 0 -2 1 0 1 -1 1 -2
1 0 0 -2 1 -4 2 -1 2 -2 4 -2 7 0 3 0 5 1 5 1 0 1 1 1 2 0 1 0 2 1 2 1 0 1 1
1 2 0 1 0 2 1 2 1 0 1 1 1 2 0 1 0 2 1 2 1 0 1 1 1 2 0 1 0 2 1 2 1 0 1 1 1 2
0 1 0 2 1 2 1 0 1 1 1 2 0 1 0 2 1 2 1 0 1 1 1 3 0 2 0 3 1 3 1 0 1 4 1 9 0 5
0 9 -1 9 -1 0 -1 1 -1 2 0 2 -6 8 -8 8 -1 0 -2 0 -2 1 0 1 -1 1 -3 1 -2 0 -3
0 -3 1 0 1 -4 1 -9 1 -7 0 -9 0 -10 -2 -1 -1 -2 -2 -3 -2 -1 0 -6 -5 -6 -6 0
-1 -1 -2 -2 -3 -1 -1 -2 -2 -2 -3 0 -1 0 -2 -1 -2 -1 0 -1 -2 -1 -4 0 -2 0 -4
-1 -4 -1 0 -1 -1 -1 -2 0 -1 0 -2 1 -2 1 0 1 -2 1 -5 0 -3 0 -5 1 -5 1 0 1 -3
1 -8 0 -6 0 -7 -2 -10 -3 -2 -4 -2 -9 -2 -4 0 -7 0 -7 1 0 1 -3 1 -6 1 -3 0
-6 0 -6 1 0 1 -3 1 -7 1 -4 0 -7 0 -7 -1 0 -1 -1 -1 -2 -1 -1 0 -4 -2 -4 -4 0
-2 -5 -6 -6 -6 -1 0 -2 -1 -3 -2 -1 -1 -2 -2 -3 -2 -1 0 -2 0 -2 -1 0 -1 -6
-1 -15 -1 -9 0 -15 0 -15 1 0 1 -1 1 -2 1 -2 0 -8 6 -8 8 0 1 0 2 -1 2 -1 0
-1 1 -1 2 0 1 0 2 -1 2 -1 0 -1 1 -1 2 0 1 0 2 -1 2 -1 0 -1 1 -1 3 0 2 0 3
-1 3 -1 0 -1 1 -1 3 0 2 0 3 -1 3 -1 0 -1 1 -1 2 0 1 0 2 -1 2 -1 0 -1 1 -1 2
0 1 0 2 -1 2 -1 0 -1 1 -1 2 0 1 0 2 -1 2 -1 0 -1 1 -1 3 0 2 0 3 -1 3 -1 0
-1 3 -1 7 0 4 0 7 1 7 1 0 1 2 1 4 0 2 0 4 -1 4 -1 0 -1 1 -1 2 0 1 -1 2 -2 3
-1 1 -2 2 -2 3 0 1 -1 2 -2 3 -1 1 -2 2 -2 3 0 1 -1 2 -2 2 -1 0 -2 1 -3 2 -1
1 -3 2 -5 2 -2 0 -4 0 -4 -1z"/>
</g>
</svg>
