<?xml version="1.0" standalone="no"?>
<!DOCTYPE svg PUBLIC "-//W3C//DTD SVG 20010904//EN"
 "http://www.w3.org/TR/2001/REC-SVG-20010904/DTD/svg10.dtd">
<svg version="1.0" xmlns="http://www.w3.org/2000/svg"
 width="640.000000pt" height="480.000000pt" viewBox="0 0 640.000000 480.000000"
 preserveAspectRatio="xMidYMid meet">
<metadata>
Created by potrace 1.14, written by Peter Selinger 2001-2017
</metadata>
<g transform="translate(0.000000,480.000000) scale(1.000000,-1.000000)"
fill="#000000" stroke="none">
<path d="M232 433 c0 -1 -4 -1 -10 -1 -8 0 -10 0 -11 -2 -1 -1 -2 -2 -3 -2 -1
0 -6 -5 -6 -6 0 -1 -1 -2 -2 -3 -2 -1 -2 -3 -2 -18 0 -15 0 -17 2 -18 1 -1 2
-2 2 -3 0 -1 2 -3 4 -5 3 -3 4 -5 4 -6 0 -2 0 -3 1 -3 1 0 1 -2 1 -5 0 -4 0
-5 -4 -9 -3 -2 -6 -4 -7 -4 -2 0 -3 0 -3 -1 0 -1 -3 -1 -6 -1 -3 0 -6 0 -6 -1
0 -1 -3 -1 -6 -1 -3 0 -6 0 -6 -1 0 -1 -1 -1 -2 -1 -2 0 -8 -6 -8 -8 0 -1 0
-2 -1 -2 -1 0 -1 -1 -1 -2 0 -1 0 -2 -1 -2 -1 0 -1 -1 -1 -3 0 -2 0 -3 -1 -3
-1 0 -1 -1 -1 -3 0 -2 0 -3 -1 -3 -1 0 -1 -2 -1 -4 0 -2 0 -4 -1 -4 -1 0 -1
-1 -1 -2 0 -1 0 -2 -1 -2 -1 0 -1 -2 -1 -4 0 -2 0 -4 -1 -4 -1 0 -1 -1 -1 -3
0 -2 0 -3 -1 -3 -1 0 -1 -1 -1 -3 0 -2 0 -3 -1 -3 -1 0 -1 -1 -1 -2 0 -1 0 -2
-1 -2 -1 0 -1 -1 -1 -2 0 -1 0 -2 -1 -2 -1 0 -1 -1 -1 -3 0 -2 0 -3 -1 -3 -1
0 -1 -1 -1 -2 0 -1 0 -2 -1 -2 -1 0 -1 -1 -1 -2 0 -1 0 -2 -1 -2 -1 0 -1 -1
-1 -2 0 -1 0 -2 -1 -2 -1 0 -1 -1 -1 -2 0 -1 0 -2 -1 -2 -1 0 -1 -1 -1 -2 0
-1 -1 -2 -2 -3 -1 -1 -2 -2 -2 -3 0 -1 -1 -2 -2 -3 -2 -1 -2 -3 -2 -8 0 -4 0
-7 -1 -7 -1 0 -1 -2 -1 -4 0 -2 0 -4 -1 -4 -1 0 -1 -1 -1 -2 0 -1 0 -2 -1 -2
-1 0 -1 -1 -1 -2 0 -1 0 -2 -1 -2 -1 0 -1 -1 -1 -2 0 -1 0 -2 -1 -2 -1 0 -1
-1 -1 -2 0 -1 0 -2 -1 -2 -1 0 -1 -1 -1 -2 0 -1 0 -2 -1 -2 -1 0 -1 -1 -1 -2
0 -1 -1 -2 -2 -3 -1 -1 -2 -2 -2 -3 0 -1 -4 -6 -6 -6 -2 0 -10 -9 -10 -10 0
-1 0 -2 -1 -2 -1 0 -1 -1 -1 -3 0 -2 0 -3 1 -3 1 0 1 -1 1 -2 0 -1 1 -2 2 -2
1 0 2 0 2 -1 0 -1 2 -1 5 -1 3 0 5 1 7 2 1 2 2 3 2 4 0 1 3 4 6 7 3 3 6 6 6 7
0 1 1 2 2 3 1 1 2 2 2 3 0 1 0 2 1 2 1 0 1 1 1 2 0 1 0 2 1 2 1 0 1 1 1 2 0 1
0 2 1 2 1 0 1 1 1 2 0 1 1 2 2 3 1 1 2 2 2 3 0 0 4 5 9 10 5 5 9 10 9 10 0 1
1 2 2 3 1 1 2 2 2 3 0 1 0 2 1 2 1 0 1 1 1 2 0 1 0 2 1 2 1 0 1 1 1 2 0 1 0 2
1 2 1 0 1 1 1 2 0 1 0 2 1 2 1 0 1 1 1 2 0 1 0 2 1 2 1 0 1 1 1 2 0 2 2 4 5 4
4 0 5 -2 5 -10 0 -5 0 -8 -1 -8 -1 0 -1 -2 -1 -4 0 -2 0 -4 -1 -4 -1 0 -1 -1
-1 -3 0 -2 0 -3 -1 -3 -1 0 -1 -2 -1 -4 0 -2 0 -4 -1 -4 -1 0 -1 -3 -1 -6 0
-3 0 -6 -1 -6 -1 0 -1 -3 -1 -6 0 -3 0 -6 -1 -6 -1 0 -1 -1 -1 -2 0 -1 0 -2
-1 -2 -1 0 -1 -1 -1 -3 0 -2 0 -3 -1 -3 -1 0 -1 -4 -1 -10 0 -6 0 -10 1 -10 1
0 1 -1 1 -3 0 -2 0 -3 -1 -3 -1 0 -1 -1 -1 -3 0 -2 0 -3 1 -3 1 0 1 -3 1 -6 0
-3 0 -6 -1 -6 -1 0 -1 -7 -1 -20 0 -13 0 -20 1 -20 1 0 1 -5 1 -13 0 -8 0 -13
1 -13 1 0 1 -1 1 -3 0 -1 1 -3 3 -6 l4 -3 10 0 c8 0 11 0 11 -1 1 -1 1 -1 2 0
0 0 1 1 2 1 2 0 4 2 4 4 0 1 0 2 1 2 1 0 1 3 1 8 0 5 0 8 1 8 1 0 1 1 1 2 0 1
0 2 1 2 1 0 1 1 1 3 0 2 0 3 1 3 1 0 1 1 1 2 0 1 0 2 1 2 1 0 1 1 1 3 0 2 0 3
1 3 1 0 1 1 1 3 0 2 0 3 1 3 1 0 1 1 1 2 0 3 4 3 8 0 1 -2 2 -4 2 -6 0 -2 0
-4 1 -4 1 0 1 -2 1 -5 0 -3 0 -5 1 -5 1 0 1 -4 1 -11 0 -7 0 -11 1 -11 1 0 1
-1 1 -3 0 -1 1 -3 3 -6 4 -3 4 -3 9 -3 4 0 6 0 6 -1 0 -1 3 -1 6 -1 3 0 6 0 6
1 0 1 1 1 2 1 1 0 2 1 2 2 0 1 0 2 1 2 1 0 1 1 1 3 0 2 0 3 -1 3 -1 0 -1 3 -1
7 0 4 0 7 1 7 1 0 1 1 1 3 0 2 0 3 1 3 1 0 1 1 1 3 0 2 0 3 1 3 1 0 1 2 1 4 0
2 0 4 1 4 1 0 1 8 1 21 0 13 0 21 1 21 1 0 1 5 1 14 0 9 0 14 1 14 1 0 1 2 1
4 0 2 0 4 1 4 1 0 1 1 1 2 0 1 0 2 -1 2 -1 0 -1 2 -1 5 0 3 0 5 -1 5 -1 0 -1
2 -1 4 0 2 0 4 -1 4 -1 0 -1 1 -1 3 0 2 0 3 -1 3 -1 0 -1 2 -1 4 0 2 0 4 -1 4
-1 0 -1 5 -1 14 0 9 0 14 -1 14 -2 0 -1 5 0 7 1 0 3 1 5 1 3 0 4 0 4 -2 0 -1
1 -2 2 -3 1 -1 2 -2 2 -3 0 -1 11 -12 12 -12 1 0 2 -1 4 -3 2 -2 4 -3 7 -3 3
0 5 0 5 1 0 1 1 1 3 1 2 0 3 0 3 1 0 1 1 1 3 1 2 0 3 0 3 1 0 1 3 1 7 1 4 0 7
0 7 -1 0 -1 1 -1 2 -1 1 0 2 0 2 -1 0 -1 1 -1 2 -1 1 0 2 0 2 -1 0 -1 1 -1 2
-1 1 0 2 0 2 -1 0 -1 1 -1 3 -1 2 0 3 0 3 1 0 1 1 1 2 1 0 0 2 1 4 2 2 3 2 4
2 9 0 6 0 6 -3 10 l-4 3 -17 0 c-11 0 -18 0 -18 1 0 1 -1 1 -2 1 -1 0 -2 0 -2
1 0 1 -1 1 -2 1 -1 0 -2 0 -2 1 0 1 -1 1 -2 1 -2 0 -10 9 -10 11 0 2 0 3 -1 3
-1 0 -1 3 -1 7 0 4 0 7 -1 7 -1 0 -1 2 -1 5 0 3 0 5 -1 5 -1 0 -1 2 -1 5 0 3
0 5 -1 5 -1 0 -1 1 -1 3 0 2 0 3 -1 3 -1 0 -1 2 -1 4 0 2 0 4 -1 4 -1 0 -1 1
-1 3 0 2 0 3 -1 3 -1 0 -1 1 -1 2 0 2 -6 8 -8 8 -1 0 -2 0 -2 1 0 1 -1 1 -3 1
-2 0 -3 0 -3 1 0 1 -1 1 -3 1 -2 0 -3 0 -3 1 0 1 -1 1 -2 1 -1 0 -2 0 -2 1 0
1 -1 1 -2 1 -1 0 -2 0 -2 1 0 1 -1 1 -2 1 0 0 -3 2 -5 3 -2 3 -3 5 -3 7 0 2
-1 4 -1 4 -1 1 -1 1 0 2 1 0 2 16 0 16 -1 0 -1 2 -1 6 0 5 0 5 6 11 7 7 7 9 4
13 -2 1 -4 2 -7 2 -2 0 -5 1 -6 1 -2 3 -1 8 1 10 2 1 2 3 2 7 0 5 0 6 -2 6 -1
0 -2 0 -2 1 0 1 -1 1 -2 1 -1 0 -2 0 -2 1 0 1 0 1 -1 1 -1 0 -1 0 -1 -1z"/>
</g>
</svg>
