<?xml version="1.0" standalone="no"?>
<!DOCTYPE svg PUBLIC "-//W3C//DTD SVG 20010904//EN"
 "http://www.w3.org/TR/2001/REC-SVG-20010904/DTD/svg10.dtd">
<svg version="1.0" xmlns="http://www.w3.org/2000/svg"
 width="640.000000pt" height="480.000000pt" viewBox="0 0 640.000000 480.000000"
 preserveAspectRatio="xMidYMid meet">
<metadata>
Created by potrace 1.14, written by Peter Selinger 2001-2017
</metadata>
<g transform="translate(0.000000,480.000000) scale(1.000000,-1.000000)"
fill="#000000" stroke="none">
<path d="M250 397 c0 -1 -1 -1 -3 -1 -2 0 -3 0 -3 -1 0 -1 -1 -1 -2 -1 -1 0
-2 0 -2 -1 0 -1 -2 -1 -5 -1 -3 0 -5 0 -5 -1 0 -1 -1 -1 -2 -1 -1 0 -2 0 -2
-1 0 -1 -1 -1 -2 -1 -2 0 -6 -4 -6 -6 0 -1 0 -2 -1 -2 -1 0 -1 -1 -1 -2 0 -1
0 -2 -1 -2 -1 0 -1 -1 -1 -2 0 -1 0 -2 -1 -2 -1 0 -1 -1 -1 -3 0 -2 0 -3 -1
-3 -1 0 -1 -3 -1 -8 0 -5 0 -8 1 -8 1 0 1 -2 1 -4 0 -2 0 -4 1 -4 1 0 1 -1 1
-3 0 -2 0 -3 1 -3 1 0 1 -1 1 -2 0 -1 0 -2 1 -2 1 0 1 -1 1 -3 0 -2 0 -3 1 -3
1 0 1 -2 1 -5 0 -3 0 -5 1 -5 1 0 1 -1 1 -3 0 -2 0 -3 1 -3 1 0 1 -1 1 -3 0
-2 0 -3 -1 -3 -1 0 -1 -1 -1 -2 0 -2 -2 -4 -4 -4 -1 0 -2 0 -2 -1 0 -1 -1 -1
-3 -1 -2 0 -3 0 -3 -1 0 -1 -1 -1 -3 -1 -2 0 -3 0 -3 -1 0 -1 -1 -1 -3 -1 -2
0 -3 0 -3 -1 0 -1 -1 -1 -3 -1 -2 0 -3 0 -3 -1 0 -1 -1 -1 -3 -1 -2 0 -3 0 -3
-1 0 -1 -1 -1 -3 -1 -2 0 -3 0 -3 -1 0 -1 -1 -1 -2 -1 -2 0 -6 -4 -6 -6 0 -1
0 -2 -1 -2 -1 0 -1 -2 -1 -4 0 -2 0 -4 -1 -4 -1 0 -1 -3 -1 -6 0 -3 0 -6 -1
-6 -1 0 -1 -1 -1 -3 0 -2 0 -3 -1 -3 -1 0 -1 -1 -1 -3 0 -2 0 -3 -1 -3 -1 0
-1 -3 -1 -6 0 -3 0 -6 -1 -6 -1 0 -1 -3 -1 -6 0 -3 0 -6 -1 -6 -1 0 -1 -2 -1
-4 0 -2 0 -4 -1 -4 -1 0 -1 -2 -1 -4 0 -2 0 -4 -1 -4 -1 0 -1 -3 -1 -6 0 -3 0
-6 -1 -6 -1 0 -1 -3 -1 -8 0 -5 0 -8 -1 -8 -1 0 -1 -2 -1 -5 0 -3 0 -5 -1 -5
-1 0 -1 -2 -1 -5 0 -3 0 -5 -1 -5 -1 0 -1 -2 -1 -5 0 -3 0 -5 -1 -5 -1 0 -1
-1 -1 -3 0 -2 0 -3 -1 -3 -1 0 -1 -2 -1 -4 0 -2 0 -4 -1 -4 -1 0 -1 -2 -1 -5
0 -3 0 -5 -1 -5 -1 0 -1 -7 -1 -19 0 -12 0 -19 -1 -19 -1 0 -1 -2 -1 -5 0 -3
0 -5 1 -5 1 0 1 -2 1 -4 0 -2 0 -4 1 -4 1 0 1 -1 1 -2 0 -1 0 -2 -1 -2 -1 0
-1 -2 -1 -5 0 -3 0 -5 -1 -5 -1 0 -1 -3 -1 -8 0 -5 0 -8 1 -8 1 0 1 -1 1 -3 0
-1 2 -4 4 -7 4 -4 5 -4 9 -4 3 0 5 0 5 1 0 1 2 1 5 1 4 0 5 0 5 -2 0 -1 0 -2
1 -2 1 0 1 -2 1 -5 0 -3 0 -5 -1 -5 -1 0 -1 -2 -1 -5 l0 -5 37 0 37 0 0 10 c0
6 0 10 1 10 1 0 1 1 1 2 0 2 1 2 4 2 4 0 6 -2 6 -6 0 -2 0 -4 1 -4 1 0 1 -3 1
-6 0 -3 1 -6 1 -7 2 -1 8 -1 34 -1 l33 0 0 7 c0 4 0 7 -1 7 -1 0 -1 2 -1 5 0
3 1 5 2 7 l3 2 54 0 c36 0 55 0 55 1 0 1 5 1 14 1 9 0 14 0 14 -1 0 -1 7 -1
19 -1 12 0 19 0 19 1 0 1 4 1 11 1 7 0 11 0 11 -1 0 -1 2 -1 4 -1 2 0 4 0 4 1
0 1 1 1 3 1 2 0 3 0 3 1 0 1 1 1 3 1 2 0 3 0 3 1 0 1 2 1 5 1 3 0 5 0 5 -1 0
-1 3 -1 6 -1 4 0 6 0 6 -1 1 -1 1 -1 2 0 0 1 4 1 16 1 10 0 16 0 16 1 0 1 3 1
7 1 7 0 9 1 9 5 0 1 -1 3 -3 5 -2 2 -3 4 -3 6 0 2 -1 4 -1 4 -1 1 -1 1 0 2 1
0 1 4 0 4 -1 0 -1 1 -1 2 0 1 0 2 -1 2 -1 0 -1 1 -1 2 0 1 -15 16 -16 16 -1 0
-2 0 -2 1 0 1 -1 1 -2 1 -1 0 -2 0 -2 1 0 1 -1 1 -3 1 -2 0 -11 -8 -11 -10 0
-1 -1 -2 -2 -3 -1 -1 -2 -2 -2 -3 0 -1 0 -2 -1 -2 -1 0 -1 -3 -1 -8 0 -6 0 -7
-2 -10 l-3 -2 -57 0 c-38 0 -58 0 -58 1 0 1 -7 1 -18 1 -11 0 -18 0 -18 1 0 1
-1 1 -2 1 -1 0 -2 0 -2 1 0 1 -1 1 -2 1 -1 0 -2 0 -2 1 0 1 -3 1 -8 1 -5 0 -8
0 -8 -1 0 -1 -1 -1 -3 -1 -2 0 -3 0 -3 -1 0 -1 -2 -1 -5 -1 -3 0 -5 0 -5 -1 0
-1 -7 -1 -20 -1 -20 0 -22 0 -22 4 0 1 -1 2 -1 2 -1 1 -1 1 1 3 1 1 2 2 2 3 0
2 5 6 6 6 1 0 2 0 2 1 0 1 1 1 2 1 1 0 2 0 2 1 0 1 3 1 6 1 5 0 8 1 8 4 0 2
-5 6 -6 6 -1 0 -2 0 -2 1 0 1 -1 1 -2 1 -2 0 -4 2 -4 4 0 1 0 2 -1 2 -1 0 -1
6 -1 15 0 9 0 15 -1 15 -1 0 -1 4 -1 9 0 5 0 9 1 9 1 0 1 1 1 2 0 2 2 4 4 4 1
0 2 0 2 1 0 1 1 1 2 1 0 0 3 2 5 3 2 3 3 5 3 8 0 3 0 5 1 5 1 0 1 3 1 6 0 3 0
6 1 6 1 0 1 1 1 3 0 2 0 3 1 3 1 0 1 2 1 5 0 3 0 5 1 5 1 0 1 3 1 7 0 4 0 7
-1 7 -1 0 -1 1 -1 3 0 2 0 3 -1 3 -1 0 -1 2 -1 4 0 2 0 4 -1 4 -1 0 -1 1 -1 2
0 1 0 2 -1 2 -1 0 -1 1 -1 2 0 1 0 2 -1 2 -1 0 -1 1 -1 2 0 1 -1 2 -2 3 -1 1
-2 2 -2 3 0 1 0 2 -1 2 -1 0 -1 1 -1 2 0 1 -1 2 -2 3 -1 1 -2 2 -2 3 0 1 0 2
-1 2 -1 0 -1 1 -1 2 0 1 0 2 -1 2 -1 0 -1 1 -1 2 0 1 0 2 -1 2 -1 0 -1 1 -1 2
0 1 0 2 -1 2 -1 0 -1 1 -1 2 0 1 -1 2 -2 3 -1 1 -2 2 -2 3 0 1 0 2 -1 2 -1 0
-1 1 -1 2 0 1 0 2 -1 2 -1 0 -1 1 -1 2 0 1 0 2 -1 2 -1 0 -1 1 -1 3 0 2 0 3
-1 3 -1 0 -1 1 -1 2 0 2 -9 10 -11 10 -2 0 -3 0 -3 1 0 1 -2 1 -5 1 -3 0 -5 0
-5 1 0 1 -3 1 -6 1 -3 0 -6 0 -6 1 0 1 -3 1 -7 1 -5 0 -6 0 -9 2 -1 2 -2 4 -2
4 0 1 0 2 -1 2 -1 0 -1 1 -1 2 0 1 0 2 1 2 1 0 1 1 1 2 0 1 0 2 1 2 1 0 1 1 1
2 0 1 1 2 2 3 1 1 2 2 2 3 0 1 0 2 1 2 1 0 1 2 1 4 0 2 0 4 1 4 1 0 1 5 1 12
0 7 0 12 1 12 1 0 1 1 1 3 0 2 0 3 -1 3 -1 0 -1 2 -1 4 0 2 0 4 -1 4 -1 0 -1
2 -1 4 0 2 0 4 -1 4 -1 0 -1 2 -1 4 0 2 -1 4 -3 7 -2 1 -5 3 -5 3 -1 0 -2 0
-2 1 0 1 -1 1 -3 1 -2 0 -3 0 -3 1 0 1 -1 1 -3 1 -2 0 -3 0 -3 -1z m52 -266
c0 -1 1 -1 2 -1 2 0 2 -1 2 -7 0 -4 0 -7 1 -7 1 0 1 -1 1 -2 0 -1 0 -2 -1 -2
-1 0 -1 -1 -1 -2 0 -3 -4 -3 -8 0 -1 2 -2 4 -2 7 0 3 0 5 1 5 1 0 1 2 1 4 0 1
1 4 1 5 2 1 3 1 3 0z"/>
</g>
</svg>
