<?xml version="1.0" standalone="no"?>
<!DOCTYPE svg PUBLIC "-//W3C//DTD SVG 20010904//EN"
 "http://www.w3.org/TR/2001/REC-SVG-20010904/DTD/svg10.dtd">
<svg version="1.0" xmlns="http://www.w3.org/2000/svg"
 width="640.000000pt" height="480.000000pt" viewBox="0 0 640.000000 480.000000"
 preserveAspectRatio="xMidYMid meet">
<metadata>
Created by potrace 1.14, written by Peter Selinger 2001-2017
</metadata>
<g transform="translate(0.000000,480.000000) scale(1.000000,-1.000000)"
fill="#000000" stroke="none">
<path d="M302 397 c0 -1 -1 -1 -3 -1 -2 0 -3 0 -3 -1 0 -1 -1 -1 -3 -1 -2 0
-3 0 -3 -1 0 -1 -1 -1 -2 -1 -1 0 -6 -4 -6 -6 0 -1 -1 -2 -2 -3 -1 -1 -2 -2
-2 -3 0 -1 0 -2 -1 -2 -1 0 -1 -1 -1 -2 0 -1 0 -2 -1 -2 -1 0 -1 -6 -1 -16 0
-10 0 -16 1 -16 1 0 1 -1 1 -2 0 -1 0 -2 1 -2 1 0 1 -1 1 -2 0 -1 0 -2 1 -2 1
0 1 -1 1 -2 0 -1 0 -2 1 -2 1 0 1 -1 1 -2 0 -1 0 -2 1 -2 1 0 1 -1 1 -3 0 -2
0 -3 1 -3 1 0 1 -1 1 -2 0 -1 0 -2 1 -2 1 0 1 -1 1 -3 0 -2 0 -3 1 -3 1 0 1
-1 1 -3 0 -2 0 -3 -1 -3 -1 0 -1 -1 -1 -3 0 -2 -8 -11 -10 -11 -1 0 -2 -1 -4
-3 -2 -2 -4 -3 -4 -3 -1 0 -2 0 -2 -1 0 -1 -2 -1 -4 -1 -2 0 -4 0 -4 -1 0 -1
-2 -1 -4 -1 -2 0 -4 0 -4 -1 0 -1 -1 -1 -3 -1 -2 0 -3 0 -3 -1 0 -1 -1 -1 -3
-1 -2 0 -3 0 -3 -1 0 -1 -1 -1 -3 -1 -2 0 -3 0 -3 -1 0 -1 -1 -1 -2 -1 -1 0
-2 0 -2 -1 0 -1 -1 -1 -2 -1 -1 0 -2 0 -2 -1 0 -1 -1 -1 -2 -1 0 0 -3 -2 -5
-3 -2 -3 -3 -5 -3 -7 0 -2 0 -4 -1 -4 -1 0 -1 -2 -1 -4 0 -2 0 -4 -1 -4 -1 0
-1 -1 -1 -3 0 -2 0 -3 -1 -3 -1 0 -1 -3 -1 -8 0 -5 0 -8 -1 -8 -1 0 -1 -1 -1
-2 0 -1 -1 -2 -2 -3 -1 -1 -2 -2 -2 -3 0 -1 -3 -4 -6 -7 -3 -3 -6 -6 -6 -7 0
-2 -9 -10 -10 -10 -1 0 -2 0 -2 -1 0 -1 -2 -1 -5 -1 -3 0 -5 1 -8 3 -1 2 -3 5
-3 5 0 1 0 2 -1 2 -1 0 -1 1 -1 2 0 1 0 2 -1 2 -1 0 -1 1 -1 2 0 1 0 2 -1 2
-1 0 -1 1 -1 2 0 1 -1 2 -2 3 -1 1 -2 2 -2 3 0 2 -11 12 -12 12 -1 0 -2 0 -2
1 0 1 -2 1 -5 1 -3 0 -5 0 -5 -1 0 -1 -1 -1 -2 -1 -1 0 -2 -1 -2 -2 0 -1 0 -2
-1 -2 -1 0 -1 -1 -1 -3 0 -2 0 -3 1 -3 1 0 1 -1 1 -2 0 -1 0 -2 1 -2 1 0 1 -1
1 -2 0 -1 0 -2 1 -2 1 0 1 -1 1 -3 0 -2 -4 -7 -6 -7 -1 0 -2 -1 -4 -2 -2 -3
-2 -4 -2 -9 0 -4 0 -7 -1 -7 -1 0 -1 -3 -1 -7 0 -4 0 -7 1 -7 1 0 1 -1 1 -3 0
-2 0 -3 1 -3 1 0 1 -1 1 -2 0 -2 4 -6 6 -6 1 0 2 0 2 -1 0 -1 3 -1 7 -1 4 0 7
0 7 1 0 1 1 1 2 1 1 0 2 0 2 -1 0 -1 2 -1 4 -1 2 0 4 -1 8 -4 2 -3 4 -5 4 -6
0 -2 5 -6 6 -6 1 0 2 0 2 -1 0 -1 1 -1 2 -1 1 0 2 0 2 1 0 1 1 1 3 1 2 0 3 0
3 1 0 1 1 1 2 1 0 0 2 1 4 3 2 2 3 3 4 3 1 0 2 1 4 3 2 2 4 3 4 3 1 0 2 0 2 1
0 1 1 1 2 1 1 0 2 1 3 2 1 1 2 2 3 2 1 0 2 0 2 1 0 1 1 1 2 1 1 0 2 0 2 1 0 1
1 1 3 1 1 0 3 1 6 4 4 5 7 5 11 2 1 -2 2 -4 2 -7 0 -3 0 -5 1 -5 1 0 1 -5 1
-13 0 -8 0 -13 -1 -13 -1 0 -1 -7 -1 -19 0 -12 0 -19 1 -19 1 0 1 -12 1 -33 0
-21 0 -33 1 -33 1 0 1 -5 1 -12 l0 -12 82 0 82 0 0 23 0 22 3 4 c2 1 5 3 5 3
1 0 2 0 2 1 0 1 1 1 2 1 1 0 2 0 2 1 0 1 1 1 2 1 1 0 2 1 2 1 1 1 1 1 2 0 0 0
1 -1 2 -1 0 0 5 -4 9 -8 4 -4 8 -8 9 -8 1 0 2 -1 3 -2 l2 -2 2 2 c3 3 4 8 2 8
-1 0 -1 2 -1 4 0 2 0 4 -1 4 -1 0 -1 1 -1 3 0 2 0 3 -1 3 -1 0 -1 2 -1 5 0 3
0 5 -1 5 -1 0 -1 2 -1 5 0 3 0 5 -1 5 -1 0 -1 2 -1 5 0 3 0 5 -1 5 -1 0 -1 2
-1 5 0 3 0 5 -1 5 -1 0 -1 2 -1 4 0 2 0 4 -1 4 -1 0 -1 3 -1 6 0 3 0 6 -1 6
-1 0 -1 2 -1 4 0 2 0 4 -1 4 -1 0 -1 1 -1 3 0 2 0 3 -1 3 -1 0 -1 1 -1 3 0 2
0 3 -1 3 -1 0 -1 1 -1 3 0 2 0 3 -1 3 -1 0 -1 2 -1 4 0 2 0 4 -1 4 -1 0 -1 2
-1 4 0 2 0 4 -1 4 -1 0 -1 2 -1 4 0 2 0 4 -1 4 -1 0 -1 2 -1 4 0 2 0 4 -1 4
-1 0 -1 2 -1 4 0 2 0 4 -1 4 -1 0 -1 1 -1 3 0 2 0 3 -1 3 -1 0 -1 2 -1 4 0 2
0 4 -1 4 -1 0 -1 2 -1 4 0 2 0 4 -1 4 -1 0 -1 2 -1 4 0 2 -1 4 -1 4 -1 0 0 2
2 4 l4 4 24 0 c16 0 25 0 25 1 0 1 1 1 3 1 1 0 4 2 9 6 3 4 6 7 6 8 0 1 2 3 4
5 2 2 4 4 4 5 0 1 1 2 2 3 1 1 2 2 2 3 0 1 0 2 1 2 1 0 1 1 1 2 0 1 0 2 1 2 1
0 1 1 1 2 0 1 0 2 1 2 1 0 1 1 1 2 0 1 0 2 1 2 1 0 1 1 1 2 0 1 0 2 1 2 1 0 1
1 1 2 0 1 1 2 2 3 1 1 2 2 2 3 0 1 1 2 2 3 1 1 2 2 2 3 0 1 0 2 1 2 1 0 1 1 1
2 0 1 0 2 1 2 1 0 1 2 1 5 0 4 0 5 -6 10 -4 4 -6 7 -6 8 0 2 0 3 1 3 1 0 1 1
1 2 0 1 0 2 1 2 1 0 1 1 1 2 0 1 1 2 2 3 2 1 2 3 2 10 0 5 0 9 -1 9 -1 0 -1 2
-1 5 0 3 0 5 -1 5 -1 1 -1 1 0 2 0 0 1 1 1 2 0 2 -4 6 -6 6 -1 0 -2 0 -2 1 0
1 -1 1 -3 1 -2 0 -3 1 -3 1 -1 1 -1 1 -2 0 0 0 -1 -1 -2 -1 -1 0 -2 -1 -2 -2
0 -1 0 -2 -1 -2 -1 0 -1 -1 -1 -3 0 -2 0 -3 -1 -3 -1 0 -1 -1 -1 -2 0 -2 -7
-8 -9 -8 -2 0 -3 0 -3 1 0 1 -1 1 -2 1 0 0 -2 1 -4 3 -2 2 -4 3 -6 3 -4 0 -4
0 -4 -4 0 -2 0 -4 1 -4 1 0 1 -1 1 -2 0 -1 0 -2 1 -2 1 0 1 -1 1 -2 0 -1 1 -2
2 -3 1 -1 2 -2 2 -3 0 -1 0 -2 1 -2 1 0 1 -1 1 -2 0 -1 1 -2 2 -3 1 -1 2 -2 2
-3 0 -1 0 -2 1 -2 1 0 1 -2 1 -5 0 -3 0 -5 -1 -5 -1 0 -1 -1 -1 -3 0 -2 0 -3
-1 -3 -1 0 -1 -1 -1 -2 0 -1 0 -2 -1 -2 -1 0 -1 -1 -1 -3 0 -2 0 -3 -1 -3 -1
0 -1 -1 -1 -2 0 -1 0 -2 -1 -2 -1 0 -1 -1 -1 -3 0 -2 0 -3 -1 -3 -1 0 -1 -1
-1 -2 0 -1 0 -2 -1 -2 -1 0 -1 -1 -1 -2 0 -1 0 -2 -1 -2 -1 0 -1 -1 -1 -2 0
-2 -10 -12 -12 -12 -1 0 -2 0 -2 -1 0 -1 -4 -1 -11 -1 -7 0 -11 0 -11 1 0 1
-2 1 -5 1 -3 0 -5 0 -5 1 0 1 -1 1 -3 1 -2 0 -3 0 -3 1 0 1 -1 1 -2 1 -1 0 -2
0 -2 1 0 1 -1 1 -3 1 -2 0 -11 8 -11 10 0 1 -3 4 -6 7 -3 3 -6 7 -6 7 0 1 -1
2 -1 2 -1 1 -1 1 0 2 1 0 1 9 0 11 -2 1 -13 2 -13 0 0 -1 -1 -1 -2 -1 -2 0 -4
-2 -4 -4 0 -1 0 -2 -1 -2 -1 0 -1 -1 -1 -2 0 -2 -3 -4 -5 -4 -2 0 -3 0 -3 -1
0 -2 -9 -1 -11 0 -1 2 -2 11 0 11 1 0 1 1 1 2 0 0 3 4 7 8 4 4 7 7 7 8 0 1 2
3 4 5 3 3 4 5 4 6 0 2 0 3 1 3 1 0 1 5 1 12 0 7 0 12 -1 12 -1 0 -1 1 -1 2 0
2 -6 8 -8 8 -1 0 -2 0 -2 1 0 1 -2 1 -5 1 -3 0 -5 0 -5 1 0 1 -1 1 -2 1 0 0
-4 3 -7 6 -5 5 -6 6 -9 6 -2 0 -4 0 -4 1 0 1 -1 1 -3 1 -2 0 -3 0 -3 1 0 1 -1
1 -3 1 -2 0 -3 0 -3 1 0 1 -1 1 -2 1 -1 0 -2 0 -2 -1z"/>
<path d="M485 179 c-3 -4 -1 -8 4 -13 3 -3 5 -6 5 -6 0 -1 0 -2 1 -2 1 0 1 -1
1 -2 0 -1 0 -2 -1 -2 -1 0 -1 -1 -1 -3 0 -2 0 -3 -1 -3 -1 0 -1 -1 -1 -2 0 0
-2 -3 -4 -5 -4 -4 -4 -4 -4 -9 0 -3 0 -6 1 -6 1 0 1 -1 1 -2 0 -1 0 -2 1 -2 1
0 1 -1 1 -2 0 -1 0 -2 1 -2 1 0 1 -1 1 -2 0 0 1 -2 3 -4 2 -2 3 -3 3 -4 0 -2
9 -10 10 -10 1 0 2 -1 2 -1 1 -1 1 -1 2 0 0 1 16 2 16 0 0 -1 2 -1 5 -1 3 0 5
0 5 -1 0 -1 4 -1 9 -1 5 0 9 0 9 -1 0 -1 12 -1 34 -1 22 0 34 0 34 1 0 1 1 1
2 1 2 0 7 5 5 6 -1 0 -1 6 0 6 1 0 1 1 1 3 0 2 0 3 -1 3 -1 0 -1 6 -1 16 0 10
0 16 -1 16 -1 0 -1 1 -1 3 0 1 -1 3 -2 5 -2 2 -4 2 -8 2 -4 0 -6 0 -6 -1 0 -1
-1 -1 -3 -1 -2 0 -3 0 -3 -1 0 -1 -3 -1 -7 -1 -4 0 -7 0 -7 1 0 1 -2 1 -4 1
-2 0 -4 0 -4 1 0 1 -2 1 -4 1 -2 0 -4 0 -4 1 0 1 -2 1 -5 1 -3 0 -5 0 -5 1 0
1 -3 1 -7 1 -4 0 -7 0 -7 -1 0 -1 -3 -1 -6 -1 -3 0 -6 0 -6 1 0 1 -3 1 -6 1
-3 0 -6 0 -6 1 0 1 -1 1 -3 1 -1 0 -3 1 -4 2 -1 1 -2 2 -3 2 -1 0 -2 0 -2 1 0
1 -1 1 -2 1 -1 0 -2 1 -3 2 -1 1 -2 2 -3 2 -1 0 -2 0 -2 1 0 1 -1 1 -2 1 0 0
-2 1 -4 3 -2 2 -4 3 -4 3 -1 0 -2 0 -2 1 0 2 -5 1 -7 0z"/>
</g>
</svg>
