<?xml version="1.0" standalone="no"?>
<!DOCTYPE svg PUBLIC "-//W3C//DTD SVG 20010904//EN"
 "http://www.w3.org/TR/2001/REC-SVG-20010904/DTD/svg10.dtd">
<svg version="1.0" xmlns="http://www.w3.org/2000/svg"
 width="640.000000pt" height="480.000000pt" viewBox="0 0 640.000000 480.000000"
 preserveAspectRatio="xMidYMid meet">
<metadata>
Created by potrace 1.14, written by Peter Selinger 2001-2017
</metadata>
<g transform="translate(0.000000,480.000000) scale(1.000000,-1.000000)"
fill="#000000" stroke="none">
<path d="M238 409 c0 -1 -1 -1 -2 -1 -1 0 -2 0 -2 -1 0 -1 -1 -1 -2 -1 -1 0
-2 -1 -3 -2 -1 -1 -2 -2 -3 -2 -1 0 -4 -2 -4 -4 0 -1 4 -5 8 -9 4 -4 8 -9 8
-9 0 -1 0 -2 1 -2 1 0 1 -1 1 -2 0 -1 0 -2 1 -2 1 0 1 -1 1 -2 0 -1 1 -2 2 -3
1 -1 2 -3 2 -4 0 -2 1 -3 1 -3 1 -1 1 -1 0 -2 -1 0 -2 -14 0 -14 1 0 1 -1 1
-2 0 -1 0 -2 1 -2 1 0 1 -1 1 -2 0 0 2 -3 5 -6 3 -3 5 -5 5 -6 0 -1 2 -3 5 -6
3 -3 5 -5 5 -6 0 -1 29 -30 30 -30 1 0 2 -1 3 -2 1 -1 2 -2 3 -2 1 0 2 -1 3
-2 1 -1 2 -2 3 -2 1 0 2 0 2 -1 0 -1 1 -1 2 -1 1 0 2 0 2 -1 0 -1 1 -1 3 -1 2
0 3 0 3 -1 0 -1 1 -1 2 -1 1 0 2 0 2 -1 0 -1 1 -1 3 -1 2 0 3 0 3 -1 0 -1 2
-1 4 -1 2 0 4 0 4 -1 0 -1 2 -1 4 -1 5 0 8 -4 8 -9 0 -3 0 -5 -1 -5 -1 0 -1
-1 -1 -2 0 -1 0 -2 -1 -2 -1 0 -1 -1 -1 -2 0 -1 -1 -2 -2 -3 -1 -1 -2 -2 -2
-3 0 -1 -1 -2 -2 -3 -1 -1 -2 -2 -2 -3 0 -1 -1 -2 -3 -4 -2 -2 -3 -3 -3 -4 0
-1 -2 -3 -4 -5 -2 -2 -4 -4 -4 -5 0 -1 -19 -20 -20 -20 -1 0 -42 -41 -42 -42
0 -1 -2 -3 -4 -5 -2 -2 -4 -5 -4 -5 0 -1 0 -2 -1 -2 -1 0 -1 -1 -1 -2 0 -1 0
-2 -1 -2 -1 0 -1 -1 -1 -2 0 -1 -1 -2 -2 -3 -1 -1 -2 -2 -2 -3 0 -1 -2 -3 -4
-5 -2 -2 -4 -4 -4 -5 0 -1 -4 -5 -9 -10 -5 -5 -9 -9 -9 -10 0 -1 -25 -26 -26
-26 -1 0 -3 -2 -6 -5 -3 -3 -5 -5 -6 -5 -1 0 -2 -1 -4 -3 -2 -2 -3 -3 -4 -3
-1 0 -3 -2 -5 -4 -2 -2 -4 -4 -5 -4 -1 0 -3 -2 -5 -4 -2 -2 -4 -4 -5 -4 -1 0
-2 -1 -3 -2 -1 -1 -2 -2 -3 -2 -1 0 -2 0 -2 -1 0 -1 -1 -1 -2 -1 0 0 -4 -3 -8
-7 -4 -4 -7 -7 -8 -7 -1 0 -5 -4 -9 -8 -4 -4 -8 -8 -9 -8 -1 0 -6 -4 -6 -5 0
-1 17 -1 38 -1 l37 0 5 5 c3 3 5 5 6 5 1 0 2 1 3 2 1 1 2 2 3 2 1 0 2 1 3 2 1
1 2 2 3 2 1 0 2 0 2 1 0 1 1 1 2 1 1 0 2 1 3 2 1 1 2 2 3 2 1 0 2 0 2 1 0 1 1
1 2 1 1 0 2 1 3 2 1 1 2 2 3 2 1 0 2 0 2 1 0 1 2 1 4 1 2 0 4 0 4 -1 0 -1 2
-1 4 -1 2 0 4 0 4 -1 0 -1 13 -1 36 -1 l35 0 4 -3 c2 -3 3 -5 3 -6 0 -2 0 -3
1 -3 1 0 1 -3 1 -8 l0 -8 31 0 30 0 3 2 c1 2 2 4 2 5 0 2 0 3 1 3 1 0 1 1 1 2
0 1 0 2 1 2 1 0 1 1 1 3 0 1 1 3 3 6 l4 3 20 0 c13 0 21 0 21 1 0 1 6 1 15 1
l14 0 4 -3 c1 -2 3 -5 3 -5 0 -1 0 -2 1 -2 1 0 1 -1 1 -2 0 -1 0 -2 1 -2 1 0
1 -1 1 -2 0 -1 0 -2 1 -2 1 0 1 -2 1 -5 l0 -5 11 0 11 0 0 6 c0 3 0 6 -1 6 -1
0 -1 1 -1 2 0 1 0 2 -1 2 -1 0 -1 1 -1 3 0 2 0 3 1 3 1 0 1 1 1 2 0 1 1 2 2 2
1 0 2 0 2 1 0 1 5 1 14 1 9 0 14 0 14 -1 0 -1 1 -1 3 -1 2 0 3 0 3 1 0 1 1 1
3 1 2 0 3 0 3 1 0 1 10 1 29 1 19 0 29 0 29 1 0 1 1 1 3 1 3 0 7 4 7 7 0 2 -2
5 -4 5 -2 0 -4 3 -4 4 0 1 0 2 -1 2 -1 0 -1 1 -1 3 0 2 0 3 1 3 1 0 1 2 1 6 0
5 0 5 -5 11 -3 3 -7 5 -7 5 -1 0 -2 0 -2 1 0 1 -3 1 -8 1 -6 0 -7 0 -10 -2 -1
-2 -2 -4 -2 -4 0 -1 0 -2 -1 -2 -1 0 -1 -2 -1 -4 0 -2 0 -4 -1 -4 -1 0 -1 -1
-1 -3 0 -2 0 -3 1 -3 2 0 1 -3 -3 -8 -5 -4 -5 -4 -11 -4 -4 0 -7 0 -7 -1 0 -1
-1 -1 -3 -1 -2 0 -3 0 -3 -1 0 -1 -3 -1 -6 -1 -3 0 -6 0 -6 -1 0 -1 -6 -1 -16
-1 -17 0 -18 0 -18 6 0 4 2 6 8 6 4 0 6 0 8 2 4 5 2 10 -4 10 -2 0 -4 0 -4 1
0 1 -1 1 -3 1 -2 0 -3 0 -3 1 0 1 -1 1 -2 1 -1 0 -6 4 -6 6 0 1 -1 2 -2 3 -1
1 -2 2 -2 3 0 1 0 2 -1 2 -1 0 -1 1 -1 2 0 1 0 2 -1 2 -1 0 -1 1 -1 2 0 1 0 2
-1 2 -1 0 -1 2 -1 4 0 2 0 4 1 4 1 0 1 1 1 2 0 1 0 2 1 2 1 0 1 12 0 12 -1 1
-1 1 0 2 1 0 2 28 0 28 -1 0 -1 3 -1 8 0 5 0 8 1 8 1 0 1 2 1 4 0 2 0 4 1 4 1
0 1 2 1 5 0 3 0 5 1 5 1 0 1 2 1 4 0 2 0 4 1 4 1 0 1 2 1 4 0 2 0 4 1 4 1 0 1
3 1 8 0 5 0 8 -1 8 -1 0 -1 1 -1 2 0 1 -1 2 -2 3 -1 1 -2 2 -2 3 0 1 0 2 -1 2
-1 0 -1 1 -1 2 0 1 -1 2 -2 3 -1 1 -2 2 -2 3 0 1 -1 2 -2 3 -1 1 -2 2 -2 3 0
1 0 2 -1 2 -1 0 -1 1 -1 2 0 1 0 2 -1 2 -1 0 -1 1 -1 2 0 1 0 2 -1 2 -1 0 -1
2 -1 5 0 3 0 5 1 5 1 0 1 1 1 2 0 1 8 10 10 10 1 0 2 1 4 3 2 2 3 3 4 3 2 0 4
3 4 4 0 1 1 2 2 3 1 1 2 2 2 3 0 2 5 6 6 6 1 0 2 0 2 1 0 1 1 1 2 1 1 0 2 0 2
1 0 1 1 1 2 1 2 0 6 4 6 6 0 1 0 2 1 2 1 0 1 5 1 12 0 7 0 12 -1 12 -1 0 -1 1
-1 3 0 2 0 3 -1 3 -1 0 -1 1 -1 2 0 2 -7 8 -9 8 -2 0 -3 0 -3 1 0 1 -2 1 -5 1
-3 0 -5 0 -5 -1 0 -1 -4 -1 -11 -1 -7 0 -11 0 -11 -1 0 -1 -1 -1 -2 -1 0 0 -4
-3 -9 -7 -4 -5 -7 -9 -7 -9 0 -1 0 -2 -1 -2 -1 0 -1 -1 -1 -2 0 -1 0 -2 -1 -2
-1 0 -1 -1 -1 -3 0 -2 0 -3 -1 -3 -1 0 -1 -2 -1 -4 0 -2 0 -4 -1 -4 -1 0 -1
-1 -1 -2 0 -1 0 -2 -1 -2 -1 0 -1 -1 -1 -2 0 0 -1 -2 -2 -4 -4 -3 -10 -3 -14
1 -2 2 -4 3 -4 3 -1 0 -2 0 -2 1 0 1 -1 1 -2 1 -1 0 -2 1 -3 2 -1 1 -2 2 -3 2
-1 0 -2 0 -2 1 0 1 -1 1 -2 1 -1 0 -2 1 -3 2 -1 1 -2 2 -3 2 -1 0 -2 0 -2 1 0
1 -2 1 -4 1 -2 0 -4 0 -4 -1 0 -1 -1 -1 -3 -1 -2 0 -3 0 -3 -1 0 -1 -1 -1 -3
-1 -2 0 -3 0 -3 -1 0 -1 -2 -1 -4 -1 -2 0 -4 0 -4 -1 0 -1 -4 -1 -11 -1 -7 0
-11 0 -11 1 0 1 -3 1 -8 1 -5 0 -8 0 -8 1 0 1 -1 1 -3 1 -2 0 -3 0 -3 1 0 1
-1 1 -2 1 -1 0 -2 1 -3 2 -1 1 -2 2 -3 2 -1 0 -2 1 -3 2 -1 1 -2 2 -3 2 -1 0
-2 1 -4 3 -2 2 -3 3 -4 3 -1 0 -16 15 -16 16 0 1 -1 2 -3 4 -2 2 -3 3 -3 4 0
2 -17 18 -18 18 -1 0 -2 0 -2 1 0 1 -1 1 -2 1 0 0 -3 2 -5 3 -1 2 -3 5 -3 5 0
1 0 2 -1 2 -1 0 -1 1 -1 3 0 2 0 3 -1 3 -1 0 -1 1 -1 2 0 1 -1 2 -2 3 -1 1 -2
2 -2 3 0 1 0 2 -1 2 -1 0 -1 1 -1 3 0 2 0 3 -1 3 -1 0 -1 1 -1 3 0 2 0 3 -1 3
-1 0 -1 1 -1 2 0 1 -1 2 -2 2 -1 0 -2 0 -2 1 0 1 0 1 -1 1 -1 0 -1 0 -1 -1z
m207 -274 c0 -1 1 -3 1 -4 0 -2 0 -3 1 -3 1 0 1 -1 1 -3 0 -2 0 -3 -1 -3 -1 0
-1 -1 -1 -2 0 -1 -1 -2 -2 -2 -1 0 -2 0 -2 -1 0 -2 -3 -1 -6 1 -1 2 -2 4 -2 4
0 1 -1 2 -1 2 -1 1 -1 1 0 2 0 0 1 1 1 2 0 1 0 2 1 2 1 0 1 1 1 2 0 3 6 5 9 3z
m-7 -45 c1 -2 2 -4 2 -5 0 -2 1 -3 1 -3 1 -1 1 -1 0 -2 -1 0 -1 -2 -1 -6 0 -4
0 -6 -1 -6 -1 -1 0 -2 2 -4 2 -1 3 -4 3 -4 0 -2 1 -2 3 -2 2 0 3 0 3 -1 0 -1
2 -1 5 -1 l5 0 0 -4 0 -4 -24 0 c-15 0 -24 0 -24 1 0 1 -1 1 -2 1 -1 0 -2 1
-2 2 0 1 0 2 -1 2 -1 0 -1 2 -1 5 0 3 0 5 1 5 1 0 1 1 1 3 0 2 0 3 1 3 1 0 1
1 1 2 0 1 0 2 1 2 1 0 1 1 1 3 0 2 0 3 1 3 1 0 1 1 1 2 0 0 2 3 3 5 3 2 5 3 8
3 3 0 5 0 5 1 0 2 5 1 8 -1z m-133 -31 c3 -4 0 -9 -4 -9 -2 0 -3 0 -3 1 0 1
-1 1 -2 1 -2 0 -2 1 -2 4 l0 4 5 0 c2 0 5 -1 6 -1z"/>
</g>
</svg>
