<?xml version="1.0" standalone="no"?>
<!DOCTYPE svg PUBLIC "-//W3C//DTD SVG 20010904//EN"
 "http://www.w3.org/TR/2001/REC-SVG-20010904/DTD/svg10.dtd">
<svg version="1.0" xmlns="http://www.w3.org/2000/svg"
 width="640.000000pt" height="480.000000pt" viewBox="0 0 640.000000 480.000000"
 preserveAspectRatio="xMidYMid meet">
<metadata>
Created by potrace 1.14, written by Peter Selinger 2001-2017
</metadata>
<g transform="translate(0.000000,480.000000) scale(1.000000,-1.000000)"
fill="#000000" stroke="none">
<path d="M262 387 c0 -1 -1 -1 -2 -1 -1 0 -2 0 -2 -1 0 -1 -2 -1 -4 -1 -2 0
-4 0 -4 -1 0 -1 -1 -1 -3 -1 -2 0 -9 -6 -9 -8 0 -1 -1 -2 -2 -3 -1 -1 -2 -3
-2 -4 0 -2 0 -3 -1 -3 -1 0 -1 -2 -1 -5 0 -3 0 -5 -1 -5 -1 0 -1 -3 -1 -6 0
-3 0 -6 1 -6 1 0 1 -1 1 -3 0 -2 0 -3 1 -3 1 0 1 -1 1 -2 0 -1 0 -2 1 -2 1 0
1 -1 1 -2 0 -1 0 -2 1 -2 1 0 1 -2 1 -4 0 -2 0 -4 1 -4 1 0 1 -2 1 -4 0 -2 0
-4 1 -4 1 0 1 -1 1 -2 0 -1 0 -2 1 -2 1 0 1 -2 1 -5 0 -3 -1 -5 -2 -7 -2 -1
-4 -2 -4 -2 -1 0 -2 0 -2 -1 0 -1 -1 -1 -2 -1 -1 0 -2 0 -2 -1 0 -1 -1 -1 -3
-1 -2 0 -3 0 -3 -1 0 -1 -1 -1 -3 -1 -2 0 -3 0 -3 -1 0 -1 -1 -1 -3 -1 -2 0
-3 0 -3 -1 0 -1 -1 -1 -3 -1 -2 0 -3 0 -3 -1 0 -1 -1 -1 -2 -1 -1 0 -2 0 -2
-1 0 -1 -1 -1 -2 -1 -1 0 -2 0 -2 -1 0 -1 -1 -1 -2 -1 -1 0 -2 -1 -2 -2 0 -1
0 -2 -1 -2 -1 0 -1 -1 -1 -2 0 -1 0 -2 -1 -2 -1 0 -1 -3 -1 -8 0 -5 0 -8 -1
-8 -1 0 -1 -3 -1 -7 0 -4 0 -7 -1 -7 -1 0 -1 -3 -1 -8 0 -5 0 -8 -1 -8 -1 0
-1 -6 -1 -17 0 -11 0 -17 -1 -17 -1 0 -1 -3 -1 -8 0 -5 0 -8 -1 -8 -1 0 -1 -8
-1 -21 0 -13 0 -21 -1 -21 -1 0 -1 -2 -1 -4 0 -2 0 -4 -1 -4 -1 0 -1 -3 -1 -7
0 -4 0 -7 1 -7 1 0 1 -1 1 -3 0 -2 0 -3 1 -3 1 0 1 -2 1 -4 0 -2 0 -4 1 -4 1
0 1 -3 1 -7 0 -4 0 -7 1 -7 1 0 1 -2 1 -4 0 -2 0 -4 1 -4 1 0 1 -1 1 -3 0 -2
0 -3 1 -3 1 0 1 -1 1 -3 0 -2 0 -3 -1 -3 -1 0 -1 -2 -1 -5 0 -3 0 -5 1 -5 1 0
1 -1 1 -3 0 -2 0 -3 1 -3 1 0 1 -1 1 -3 0 -1 1 -3 2 -4 1 -1 2 -2 2 -3 0 -1 1
-2 2 -2 1 0 2 0 2 -1 0 -1 1 -1 2 -1 1 0 2 0 2 -1 0 -1 2 -1 4 -1 2 0 4 -1 7
-3 1 -2 3 -5 3 -5 0 -1 0 -2 1 -2 1 0 1 -2 1 -5 0 -3 0 -5 1 -5 1 0 1 -2 1 -5
l0 -5 27 0 27 0 0 3 c0 2 -1 3 -1 3 -1 1 -1 1 0 2 1 0 1 2 1 6 0 3 0 6 1 6 1
0 1 1 1 2 0 2 2 4 5 4 1 0 3 -1 5 -2 2 -2 2 -4 2 -8 0 -4 0 -6 1 -6 1 0 1 -2
1 -5 l0 -5 29 0 c19 0 29 0 29 1 0 1 0 1 -1 1 -1 0 -1 1 -1 3 0 2 0 3 -1 3 -1
0 -1 5 -1 13 0 8 0 13 1 13 1 0 1 1 1 3 0 1 1 3 2 4 1 1 2 2 2 3 0 1 1 2 2 3
1 1 2 2 2 3 0 1 0 2 1 2 1 0 1 1 1 2 0 1 0 2 1 2 1 0 1 1 1 2 0 1 0 2 1 2 1 0
1 3 1 6 0 3 0 6 1 6 1 0 1 3 1 6 0 3 0 6 1 6 1 0 1 1 1 2 0 1 0 2 1 2 1 0 1 1
1 3 0 2 0 3 1 3 1 0 1 3 1 6 0 3 0 6 -1 6 -1 0 -1 2 -1 5 0 3 0 5 -1 5 -1 0
-1 5 -1 12 0 7 0 12 -1 12 -1 0 -1 2 -1 4 0 2 0 4 -1 4 -1 0 -1 1 -1 2 0 1 0
2 -1 2 -1 0 -1 1 -1 3 0 2 0 3 -1 3 -1 0 -1 1 -1 3 0 2 0 3 -1 3 -1 0 -1 4 -1
9 0 5 0 9 -1 9 -1 0 -1 3 -1 6 0 3 0 6 -1 6 -1 0 -1 2 -1 5 0 3 0 5 -1 5 -1 0
-1 2 -1 4 0 2 0 4 -1 4 -1 0 -1 2 -1 4 0 2 0 4 -1 4 -1 0 -1 2 -1 5 0 3 0 5
-1 5 -1 0 -1 3 -1 6 0 3 0 6 -1 6 -1 0 -1 2 -1 5 0 3 0 5 -1 5 -1 0 -1 1 -1 3
0 2 0 3 -1 3 -1 0 -1 1 -1 3 0 2 0 3 -1 3 -1 0 -1 1 -1 3 0 2 0 3 -1 3 -1 0
-1 1 -1 3 0 2 -4 7 -6 7 -1 0 -2 0 -2 1 0 1 -1 1 -2 1 -1 0 -2 0 -2 1 0 1 -1
1 -3 1 -2 0 -3 0 -3 1 0 1 -1 1 -3 1 -2 0 -3 0 -3 1 0 1 -1 1 -3 1 -2 0 -3 0
-3 1 0 1 -1 1 -3 1 -2 0 -3 0 -3 1 0 1 -1 1 -2 1 -1 0 -2 0 -2 1 0 1 -2 1 -4
1 -2 0 -4 1 -5 2 -1 1 -2 2 -3 2 -2 0 -2 1 -2 5 0 3 0 5 1 5 1 0 1 1 1 2 0 1
1 2 2 3 1 1 2 2 2 3 0 1 0 2 1 2 1 0 1 1 1 3 0 2 0 3 1 3 1 0 1 3 1 8 0 5 0 8
1 8 1 0 1 1 1 2 0 1 0 2 1 2 1 0 1 1 1 2 0 1 0 2 1 2 1 0 1 2 1 5 0 3 0 5 -1
5 -1 0 -1 1 -1 2 0 1 0 2 -1 2 -1 0 -1 1 -1 3 0 2 0 3 -1 3 -1 0 -1 1 -1 3 0
2 0 3 -1 3 -1 0 -1 1 -1 2 0 2 -8 10 -10 10 -1 0 -2 0 -2 1 0 1 -3 1 -7 1 -4
0 -7 0 -7 -1z"/>
<path d="M456 87 c-1 -1 -2 -2 -2 -3 0 -1 -5 -6 -6 -6 -1 0 -3 -2 -5 -3 -2 -3
-3 -5 -3 -7 0 -2 0 -4 1 -4 1 0 1 -1 1 -2 0 -1 1 -2 2 -2 1 0 2 0 2 -1 0 -1 1
-1 3 -1 2 0 3 0 3 -1 0 -1 4 -1 10 -1 8 0 9 0 12 2 2 3 3 10 1 10 -1 0 -1 1
-1 2 0 1 0 2 -1 2 -1 0 -1 1 -1 2 0 1 0 2 -1 2 -1 0 -1 1 -1 3 0 2 0 3 -1 3
-1 0 -1 1 -1 2 0 2 -5 6 -7 6 -1 0 -4 -1 -5 -3z"/>
</g>
</svg>
