<?xml version="1.0" standalone="no"?>
<!DOCTYPE svg PUBLIC "-//W3C//DTD SVG 20010904//EN"
 "http://www.w3.org/TR/2001/REC-SVG-20010904/DTD/svg10.dtd">
<svg version="1.0" xmlns="http://www.w3.org/2000/svg"
 width="640.000000pt" height="480.000000pt" viewBox="0 0 640.000000 480.000000"
 preserveAspectRatio="xMidYMid meet">
<metadata>
Created by potrace 1.14, written by Peter Selinger 2001-2017
</metadata>
<g transform="translate(0.000000,480.000000) scale(1.000000,-1.000000)"
fill="#000000" stroke="none">
<path d="M208 291 c0 -1 -2 -1 -4 -1 -2 0 -4 0 -4 -1 0 -1 -1 -1 -2 -1 -1 0
-20 -19 -20 -20 0 -1 0 -2 -1 -2 -1 0 -1 -4 -1 -9 0 -5 0 -9 1 -9 1 0 1 -1 1
-3 0 -2 8 -11 10 -11 1 0 2 0 2 -1 0 -1 1 -1 3 -1 2 0 3 0 3 -1 0 -1 1 -1 2
-1 1 0 2 0 2 -1 0 -1 1 -1 3 -1 3 0 9 -6 9 -9 0 -2 -10 -13 -12 -13 -2 0 -12
-11 -12 -13 0 -2 -1 -3 -1 -3 -1 -1 -1 -1 0 -2 1 0 2 -28 0 -28 -1 0 -1 -1 -1
-3 0 -2 0 -3 -1 -3 -1 0 -1 -1 -1 -2 0 -1 -1 -2 -2 -3 -1 -1 -2 -2 -2 -3 0 -1
-1 -2 -2 -3 -1 -1 -2 -2 -2 -3 0 -1 0 -2 -1 -2 -1 0 -1 -1 -1 -2 0 -1 0 -2 -1
-2 -1 0 -1 -1 -1 -2 0 -1 0 -2 -1 -2 -1 0 -1 -1 -1 -2 0 -1 -2 -4 -4 -4 -1 0
-6 -4 -11 -10 -5 -5 -11 -10 -11 -10 -1 0 -2 -1 -3 -2 -1 -1 -2 -2 -3 -2 -1 0
-2 0 -2 -1 0 -1 -1 -1 -2 -1 0 0 -2 -1 -4 -3 -2 -2 -3 -3 -4 -3 -2 0 -10 -9
-10 -10 0 -1 0 -2 -1 -2 -1 0 -1 -3 -1 -6 l0 -6 9 0 c6 0 9 0 9 -1 1 -1 1 -1
2 0 0 0 1 1 2 1 0 0 3 2 5 4 2 2 4 4 5 4 1 0 2 1 4 3 2 2 4 3 4 3 1 0 2 0 2 1
0 1 1 1 2 1 1 0 2 0 2 1 0 1 1 1 2 1 0 0 2 1 4 3 2 2 3 3 4 3 1 0 2 1 3 2 1 1
2 2 3 2 1 0 2 1 3 2 1 1 2 2 3 2 1 0 10 9 10 10 0 1 1 2 2 3 1 1 2 2 2 3 0 1
0 2 1 2 1 0 1 1 1 2 0 1 1 2 2 3 1 1 2 2 2 3 0 1 0 2 1 2 1 0 1 1 1 2 0 1 1 2
2 3 1 1 2 2 2 3 0 1 0 2 1 2 1 0 1 1 1 2 0 0 1 2 2 4 2 1 4 2 7 2 3 0 5 0 5
-1 0 -1 1 -1 2 -1 2 0 10 -8 10 -10 0 -1 0 -2 1 -2 1 0 1 -2 1 -4 0 -2 0 -4 1
-4 1 0 1 -2 1 -4 0 -2 0 -4 -1 -4 -1 0 -1 -7 -1 -19 0 -12 0 -19 1 -19 1 0 1
-5 1 -13 0 -8 0 -13 1 -13 1 0 1 -3 1 -7 0 -4 0 -7 1 -7 1 0 1 -3 1 -6 0 -3 0
-6 1 -6 1 0 1 -5 1 -13 l0 -13 24 0 24 0 0 3 c0 2 0 3 1 3 1 0 1 1 1 2 0 1 0
2 1 2 1 0 1 1 1 2 0 1 0 2 1 2 1 0 1 1 1 3 0 1 1 3 2 4 1 1 1 1 3 0 0 -1 1 -3
1 -3 0 -1 0 -2 1 -2 1 0 1 -1 1 -2 0 -1 0 -2 1 -2 1 0 1 -1 1 -2 0 -2 3 -4 5
-4 2 0 3 -1 3 -2 0 -4 2 -4 25 -4 13 0 23 0 23 1 0 0 -1 1 -1 1 -1 1 -1 1 1 3
1 1 2 3 2 6 0 3 0 5 -1 5 -1 0 -1 1 -1 3 0 2 0 3 -1 3 -1 0 -1 2 -1 4 0 2 0 4
-1 4 -1 0 -1 3 -1 6 0 3 0 6 -1 6 -1 0 -1 2 -1 4 0 2 0 4 -1 4 -1 0 -1 1 -1 2
0 1 0 2 -1 2 -1 0 -1 1 -1 3 0 2 0 3 -1 3 -1 0 -1 1 -1 3 0 2 0 3 -1 3 -1 0
-1 2 -1 5 0 3 0 5 -1 5 -1 0 -1 1 -1 3 0 2 0 3 -1 3 -1 0 -1 1 -1 3 0 2 0 3
-1 3 -1 0 -1 1 -1 2 0 1 0 2 -1 2 -1 0 -1 1 -1 2 0 1 0 2 -1 2 -1 0 -1 1 -1 2
0 1 0 2 -1 2 -1 0 -1 1 -1 2 0 1 0 2 -1 2 -1 0 -1 1 -1 3 0 2 0 3 -1 3 -1 0
-1 1 -1 2 0 1 0 2 -1 2 -1 0 -1 1 -1 2 0 1 0 2 -1 2 -1 0 -1 1 -1 2 0 1 0 2
-1 2 -1 0 -1 1 -1 2 0 1 0 2 -1 2 -1 0 -1 1 -1 2 0 1 0 2 -1 2 -1 0 -1 1 -1 3
0 2 0 3 -1 3 -1 0 -1 1 -1 2 0 1 0 2 -1 2 -1 0 -1 1 -1 3 0 2 0 3 -1 3 -1 0
-1 1 -1 2 0 1 0 2 -1 2 -1 0 -1 1 -1 3 0 2 0 3 -1 3 -1 0 -1 1 -1 3 0 2 0 3
-1 3 -1 0 -1 1 -1 3 0 2 0 3 -1 3 -1 0 -1 3 -1 7 0 4 0 7 -1 7 -1 0 -1 4 -1 9
0 8 0 8 3 12 l4 3 21 0 c14 0 22 0 22 1 0 1 1 1 2 1 0 0 2 1 4 3 2 2 3 3 4 3
1 0 5 4 9 8 4 4 8 8 9 8 2 0 10 9 10 11 0 2 0 3 1 3 1 0 1 1 1 2 0 1 0 2 1 2
2 0 1 5 -1 7 -1 1 -1 1 -2 0 0 0 -2 -1 -4 -1 -2 0 -4 0 -4 -1 0 -1 -1 -1 -2
-1 -1 0 -2 -1 -3 -2 -1 -1 -2 -2 -3 -2 -1 0 -2 -1 -3 -2 -1 -1 -2 -2 -3 -2 -1
0 -2 -1 -3 -2 -1 -1 -2 -2 -3 -2 -1 0 -2 0 -2 -1 0 -1 -1 -1 -2 -1 -1 0 -2 -1
-3 -2 -1 -1 -2 -2 -3 -2 -1 0 -2 0 -2 -1 0 -1 -1 -1 -2 -1 -1 0 -2 0 -2 -1 0
-1 -1 -1 -2 -1 -1 0 -2 0 -2 -1 0 -1 -2 -1 -5 -1 -3 0 -5 0 -5 1 0 1 -2 1 -4
1 -2 0 -4 0 -4 1 0 1 -2 1 -5 1 -3 0 -5 0 -5 1 0 1 -1 1 -3 1 -1 0 -3 1 -4 2
-1 1 -2 2 -3 2 -1 0 -2 0 -2 1 0 1 -1 1 -3 1 -1 0 -3 1 -4 2 -1 1 -2 2 -3 2
-1 0 -2 0 -2 1 0 1 -1 1 -2 1 -1 0 -2 0 -2 1 0 1 -4 1 -10 1 -6 0 -10 0 -10
-1 0 -1 -1 -1 -3 -1 -2 0 -3 0 -3 -1 0 -1 -2 -1 -4 -1 -2 0 -4 -1 -4 -1 -1 -1
-1 -1 -2 0 0 0 -1 1 -3 1 -2 0 -5 2 -5 4 0 1 0 2 -1 2 -1 0 -1 1 -1 2 0 1 0 2
-1 2 -1 0 -1 1 -1 3 0 1 -1 3 -2 4 -1 1 -2 2 -2 3 0 1 -1 2 -3 4 -2 2 -3 3 -3
4 0 1 -1 2 -3 4 -2 2 -3 3 -3 4 0 2 -5 6 -6 6 -1 0 -2 0 -2 1 0 1 -1 1 -2 1
-1 0 -2 0 -2 1 0 1 -2 1 -4 1 -2 0 -4 0 -4 1 0 1 0 1 -1 1 -1 0 -1 0 -1 -1z"/>
<path d="M410 271 c-1 -1 -2 -3 -2 -4 0 -2 -1 -3 -1 -3 -1 -1 -1 -1 0 -2 2 -2
2 -2 6 2 5 5 6 6 4 9 -2 2 -4 1 -7 -2z"/>
</g>
</svg>
