<?xml version="1.0" standalone="no"?>
<!DOCTYPE svg PUBLIC "-//W3C//DTD SVG 20010904//EN"
 "http://www.w3.org/TR/2001/REC-SVG-20010904/DTD/svg10.dtd">
<svg version="1.0" xmlns="http://www.w3.org/2000/svg"
 width="640.000000pt" height="480.000000pt" viewBox="0 0 640.000000 480.000000"
 preserveAspectRatio="xMidYMid meet">
<metadata>
Created by potrace 1.14, written by Peter Selinger 2001-2017
</metadata>
<g transform="translate(0.000000,480.000000) scale(1.000000,-1.000000)"
fill="#000000" stroke="none">
<path d="M214 273 c-3 -3 -6 -7 -6 -7 0 -1 0 -2 -1 -2 -1 0 -1 -1 -1 -2 0 -1
0 -2 -1 -2 -1 0 -1 -1 -1 -3 0 -2 0 -3 1 -3 1 0 1 -1 1 -2 0 -1 0 -2 1 -2 1 0
1 -1 1 -3 0 -2 0 -3 1 -3 1 0 1 -1 1 -2 0 -1 0 -2 1 -2 1 0 1 -1 1 -3 0 -2 0
-3 1 -3 1 0 1 -1 1 -2 0 -1 0 -2 1 -2 1 0 1 -1 1 -2 0 -1 0 -2 1 -2 1 0 1 -3
1 -7 0 -6 0 -6 -3 -10 -3 -2 -5 -3 -6 -3 -2 0 -3 0 -3 -1 0 -1 -1 -1 -2 -1 -1
0 -2 0 -2 -1 0 -1 -2 -1 -5 -1 -3 0 -5 0 -5 -1 0 -1 -2 -1 -5 -1 -3 0 -5 0 -5
-1 0 -1 -1 -1 -2 -1 -1 0 -10 -8 -10 -10 0 -1 -1 -2 -2 -3 -1 -1 -2 -2 -2 -3
0 -1 -1 -2 -2 -3 -1 -1 -2 -2 -2 -3 0 -1 0 -2 -1 -2 -1 0 -1 -1 -1 -2 0 -1 -1
-2 -2 -3 -1 -1 -2 -2 -2 -3 0 -1 0 -2 -1 -2 -1 0 -1 -1 -1 -2 0 -1 0 -2 -1 -2
-1 0 -1 -1 -1 -2 0 -1 -1 -2 -2 -3 -1 -1 -2 -2 -2 -3 0 -2 -21 -22 -22 -22 -1
0 -2 0 -2 -1 0 -1 -1 -1 -2 -1 -1 0 -2 0 -2 -1 0 -1 -1 -1 -2 -1 -1 0 -2 -1
-3 -2 -1 -1 -2 -2 -3 -2 -1 0 -2 -1 -3 -2 -1 -1 -2 -2 -3 -2 -1 0 -2 -1 -3 -2
-1 -1 -2 -2 -3 -2 -1 0 -2 0 -2 -1 0 -1 -1 -1 -3 -1 -2 0 -3 0 -3 -1 0 -1 -1
-1 -2 -1 -1 0 -2 0 -2 -1 0 -1 -1 -1 -3 -1 -2 0 -3 0 -3 -1 0 -1 -1 -1 -2 -1
-1 0 -2 0 -2 -1 0 -1 -1 -1 -3 -1 -2 0 -3 0 -3 -1 0 -1 -5 -1 -13 -1 -8 0 -13
0 -13 -1 0 -1 -1 -1 -2 -1 -2 0 -4 -2 -4 -4 0 -1 0 -2 -1 -2 -1 0 -1 -3 -1 -7
0 -4 0 -7 1 -7 1 0 1 -1 1 -2 0 0 1 -2 2 -4 3 -2 6 -3 6 -1 0 1 1 1 2 1 1 0 2
0 2 1 0 1 1 1 2 1 1 0 2 0 2 1 0 1 1 1 2 1 1 0 2 0 2 1 0 1 1 1 2 1 1 0 2 0 2
1 0 1 1 1 2 1 1 0 2 0 2 1 0 1 1 1 3 1 2 0 3 0 3 1 0 1 2 1 4 1 2 0 4 0 4 1 0
1 2 1 4 1 2 0 4 0 4 1 0 1 2 1 4 1 2 0 4 0 4 1 0 1 2 1 4 1 2 0 4 0 4 1 0 1 1
1 3 1 2 0 3 0 3 1 0 1 3 1 6 1 3 0 6 0 6 1 0 1 2 1 6 1 l5 0 10 10 c5 6 10 10
11 10 1 0 5 4 9 8 9 9 11 9 15 6 2 -3 2 -3 2 -15 0 -8 0 -13 -1 -13 -1 0 -1
-1 -1 -3 0 -2 0 -3 -1 -3 -1 0 -1 -2 -1 -5 0 -3 0 -5 -1 -5 -1 0 -1 -3 -1 -7
0 -4 0 -7 -1 -7 -1 0 -1 -1 -1 -3 0 -2 0 -3 -1 -3 -1 0 -1 -1 -1 -3 0 -2 0 -3
-1 -3 -1 0 -1 -2 -1 -4 0 -2 0 -4 -1 -4 -1 0 -1 -3 -1 -7 0 -4 0 -7 -1 -7 -1
0 -1 -2 -1 -5 0 -3 0 -5 -1 -5 -1 0 -1 -3 -1 -8 0 -5 0 -8 -1 -8 -1 0 -1 -3
-1 -7 l0 -7 58 0 58 0 0 3 c0 2 0 3 1 3 1 0 1 8 1 21 0 13 0 21 1 21 1 0 1 7
1 18 0 11 0 18 1 18 1 0 1 6 1 17 0 11 0 17 1 17 1 0 1 3 1 7 0 4 0 7 1 7 1 0
1 2 1 4 0 2 0 4 1 4 1 0 1 1 1 2 0 1 0 2 1 2 1 0 1 1 1 2 0 0 2 4 5 7 l6 5 11
0 c7 0 12 0 12 -1 0 -1 5 -1 12 -1 7 0 12 0 12 1 0 1 1 1 2 1 1 0 2 0 2 1 0 1
1 1 2 1 1 0 2 1 3 2 1 1 2 2 3 2 1 0 2 0 2 1 0 1 1 1 2 1 1 0 2 0 2 1 0 1 1 1
3 1 2 0 3 0 3 1 0 1 1 1 2 1 1 0 2 0 2 1 0 1 1 1 3 1 2 0 3 0 3 1 0 1 1 1 2 1
1 0 2 0 2 1 0 1 1 1 2 1 1 0 2 0 2 1 0 1 1 1 2 1 1 0 2 0 2 1 0 1 1 1 2 1 1 0
2 0 2 1 0 1 1 1 2 1 1 0 2 0 2 1 0 1 1 1 2 1 1 0 2 0 2 1 0 1 1 1 2 1 1 0 2 0
2 1 0 1 2 1 4 1 2 0 4 0 4 1 0 1 2 1 5 1 3 0 5 0 5 1 0 1 1 1 3 1 2 0 3 0 3 1
0 1 1 1 2 1 1 0 2 0 2 1 0 1 1 1 2 1 2 0 8 6 8 8 0 1 0 2 1 2 1 0 1 2 1 5 0 4
0 5 -2 5 -1 0 -2 0 -2 1 0 1 -1 1 -3 1 -2 0 -3 0 -3 -1 0 -1 -3 -1 -7 -1 -4 0
-7 0 -7 1 0 1 -1 1 -3 1 -2 0 -11 -8 -11 -10 0 -2 -3 -4 -4 -4 -1 0 -2 -1 -3
-2 -1 -1 -3 -2 -4 -2 -2 0 -3 0 -3 -1 0 -1 -1 -1 -2 -1 -1 0 -2 0 -2 -1 0 -1
-1 -1 -3 -1 -2 0 -3 0 -3 -1 0 -1 -1 -1 -3 -1 -2 0 -3 0 -3 -1 0 -1 -1 -1 -3
-1 -2 0 -3 0 -3 -1 0 -1 -2 -1 -4 -1 -2 0 -4 0 -4 -1 0 -1 -3 -1 -6 -1 -3 0
-6 0 -6 -1 0 -1 -4 -1 -11 -1 -7 0 -11 0 -11 1 0 1 -2 1 -4 1 -2 0 -4 0 -4 1
0 1 -2 1 -4 1 -2 0 -4 0 -4 1 0 1 -2 1 -5 1 -3 0 -5 0 -5 1 0 1 -1 1 -3 1 -2
0 -3 0 -3 1 0 1 -1 1 -3 1 -2 0 -3 0 -3 1 0 1 -1 1 -2 1 -1 0 -2 0 -2 1 0 1
-1 1 -2 1 -1 0 -2 0 -2 1 0 1 -1 1 -2 1 -1 0 -2 0 -2 1 0 1 -3 1 -7 1 -4 0 -7
0 -7 -1 0 -1 -3 -1 -6 -1 -3 0 -6 0 -6 1 0 1 -1 1 -2 1 0 0 -3 2 -6 4 -4 5 -4
5 -4 10 0 4 0 6 1 6 1 0 1 1 1 2 0 1 0 2 1 2 1 0 1 1 1 2 0 1 0 2 1 2 1 0 1 1
1 2 0 1 0 2 1 2 1 0 1 3 1 8 0 5 0 8 1 8 1 0 1 2 1 5 0 3 0 5 -1 5 -1 0 -1 1
-1 3 0 2 0 3 -1 3 -1 0 -1 1 -1 2 0 2 -6 8 -8 8 -1 0 -2 0 -2 1 0 1 -5 1 -12
1 l-11 0 -7 -7z"/>
</g>
</svg>
