<?xml version="1.0" standalone="no"?>
<!DOCTYPE svg PUBLIC "-//W3C//DTD SVG 20010904//EN"
 "http://www.w3.org/TR/2001/REC-SVG-20010904/DTD/svg10.dtd">
<svg version="1.0" xmlns="http://www.w3.org/2000/svg"
 width="640.000000pt" height="480.000000pt" viewBox="0 0 640.000000 480.000000"
 preserveAspectRatio="xMidYMid meet">
<metadata>
Created by potrace 1.14, written by Peter Selinger 2001-2017
</metadata>
<g transform="translate(0.000000,480.000000) scale(1.000000,-1.000000)"
fill="#000000" stroke="none">
<path d="M145 403 c0 -1 -1 -3 -1 -3 0 -1 -1 -2 -2 -3 -2 -1 -2 -3 -2 -8 0 -6
0 -6 3 -10 2 -1 5 -3 5 -3 1 0 2 -1 2 -2 0 -1 0 -2 1 -2 2 0 1 -5 -2 -8 -2 -2
-3 -4 -3 -6 0 -2 0 -4 -1 -4 -1 0 -1 -2 -1 -4 0 -2 0 -4 -1 -4 -1 0 -1 -2 -1
-5 0 -3 0 -5 -1 -5 -1 0 -1 -2 -1 -4 0 -2 0 -4 -1 -4 -1 0 -1 -1 -1 -2 0 -1 0
-2 -1 -2 -1 0 -1 -1 -1 -3 0 -2 0 -3 -1 -3 -1 0 -1 -1 -1 -2 0 -1 0 -2 -1 -2
-1 0 -1 -2 -1 -4 0 -2 0 -4 -1 -4 -1 0 -1 -3 -1 -6 0 -3 0 -6 -1 -6 -1 0 -1
-7 -1 -19 l0 -18 5 -6 c3 -3 6 -5 7 -5 1 0 3 -2 5 -4 2 -2 4 -4 5 -4 1 0 2 -1
3 -2 1 -1 2 -2 3 -2 1 0 2 -1 3 -2 1 -1 2 -2 3 -2 1 0 2 -1 3 -2 1 -1 2 -2 3
-2 1 0 2 0 2 -1 0 -1 1 -1 2 -1 0 0 3 -2 5 -4 2 -2 4 -4 5 -4 1 0 2 -1 3 -2 1
-1 2 -2 3 -2 1 0 2 0 2 -1 0 -1 1 -1 2 -1 1 0 2 0 2 -1 0 -1 1 -1 2 -1 0 0 3
-2 5 -3 2 -3 3 -5 3 -7 0 -2 0 -4 1 -4 1 0 1 -2 1 -5 0 -3 0 -5 1 -5 1 0 1 -3
1 -7 0 -4 0 -7 1 -7 1 0 1 -4 1 -9 0 -5 0 -9 1 -9 1 0 1 -10 1 -28 0 -18 0
-28 -1 -28 -1 0 -1 -3 -1 -7 0 -4 0 -7 -1 -7 -1 0 -1 -2 -1 -5 0 -3 0 -5 -1
-5 -1 0 -1 -2 -1 -5 0 -3 0 -5 -1 -5 -1 0 -1 -4 -1 -10 0 -6 0 -10 -1 -10 -1
0 -1 -3 -1 -7 0 -4 0 -7 -1 -7 -1 0 -1 -2 -1 -4 0 -2 0 -4 1 -4 1 0 1 -1 1 -3
0 -2 0 -3 1 -3 1 0 1 -2 1 -4 0 -3 0 -4 -2 -4 -2 0 -2 -1 -2 -3 l0 -3 72 0
c65 0 72 0 72 2 0 2 2 4 4 4 2 0 2 1 2 3 0 2 0 3 1 3 1 0 1 1 1 3 0 2 0 3 1 3
1 0 1 1 1 3 0 2 0 3 1 3 1 0 1 3 1 8 0 5 0 8 -1 8 -1 0 -1 4 -1 9 0 5 0 9 -1
9 -1 0 -1 6 -1 16 0 12 0 15 1 17 2 1 9 2 9 0 0 -1 1 -1 2 -1 2 0 6 -4 6 -6 0
-1 0 -2 1 -2 1 0 1 -1 1 -2 0 -1 0 -2 1 -2 1 0 1 -1 1 -3 0 -2 0 -3 1 -3 1 0
1 -1 1 -2 0 -1 0 -2 1 -2 1 0 1 -1 1 -2 0 -1 1 -2 2 -2 1 0 2 0 2 -1 0 -1 2
-1 5 -1 4 0 7 2 7 4 0 1 1 2 1 2 1 1 1 1 0 2 -1 0 -1 2 -1 5 0 3 0 5 -1 5 -1
0 -1 2 -1 5 0 3 0 5 -1 5 -1 0 -1 3 -1 7 0 4 0 7 -1 7 -1 0 -1 3 -1 6 0 3 0 6
-1 6 -1 0 -1 2 -1 5 0 3 0 5 -1 5 -1 0 -1 1 -1 3 0 2 0 3 -1 3 -1 0 -1 1 -1 3
0 2 0 3 -1 3 -1 0 -1 1 -1 2 0 1 0 2 -1 2 -1 0 -1 1 -1 2 0 1 0 2 -1 2 -1 0
-1 1 -1 3 0 2 0 3 -1 3 -1 0 -1 1 -1 3 0 2 0 3 -1 3 -1 0 -1 2 -1 5 0 3 0 5
-1 5 -1 0 -1 3 -1 7 0 4 0 7 -1 7 -1 0 -1 3 -1 6 0 3 0 6 -1 6 -1 0 -1 3 -1 8
0 5 0 8 -1 8 -1 0 -1 1 -1 3 0 2 0 3 -1 3 -1 0 -1 1 -1 3 0 2 0 3 -1 3 -1 0
-1 1 -1 3 0 2 0 3 -1 3 -1 0 -1 1 -1 2 0 1 0 2 -1 2 -1 0 -1 1 -1 2 0 1 0 2
-1 2 -1 0 -1 1 -1 2 0 2 -6 8 -8 8 -1 0 -2 0 -2 1 0 1 -1 1 -2 1 -1 0 -2 0 -2
1 0 1 -1 1 -2 1 -1 0 -2 0 -2 1 0 1 -1 1 -2 1 -1 0 -2 0 -2 1 0 1 -1 1 -2 1
-1 0 -2 1 -2 2 0 0 -1 2 -3 4 -2 2 -3 3 -3 4 0 1 -1 2 -3 4 -2 2 -3 4 -3 4 0
1 0 2 -1 2 -1 0 -1 1 -1 3 0 2 0 3 1 3 1 0 1 2 1 4 0 2 0 4 1 4 1 0 1 3 1 6 0
3 0 6 1 6 1 0 1 2 1 4 0 2 0 4 1 4 1 0 1 3 1 7 0 4 0 7 -1 7 -1 0 -1 1 -1 3 0
2 0 3 -1 3 -1 0 -1 1 -1 2 0 2 -10 12 -12 12 -1 0 -2 0 -2 1 0 1 -1 1 -2 1 -1
0 -2 0 -2 1 0 1 -1 1 -3 1 -2 0 -3 0 -3 1 0 1 -3 1 -8 1 -5 0 -8 0 -8 -1 0 -1
-1 -1 -3 -1 -1 0 -3 -1 -4 -2 -1 -1 -2 -2 -3 -2 -2 0 -12 -11 -12 -13 0 -2 0
-3 -1 -3 -1 0 -1 -1 -1 -3 0 -2 0 -3 -1 -3 -1 0 -1 -1 -1 -3 0 -2 0 -3 -1 -3
-1 0 -1 -2 -1 -4 0 -2 0 -4 1 -4 1 0 1 -2 1 -4 0 -2 0 -4 1 -4 1 0 1 -2 1 -5
0 -3 0 -5 1 -5 1 0 1 -1 1 -2 0 -1 0 -2 1 -2 1 0 1 -2 1 -5 0 -4 -2 -7 -4 -7
-1 0 -3 -2 -5 -4 -2 -2 -5 -4 -5 -4 -1 0 -2 0 -2 -1 0 -1 -4 -1 -9 -1 -5 0 -9
0 -9 -1 0 -1 -3 -1 -7 -1 -4 0 -7 0 -7 1 0 1 -2 1 -5 1 -3 0 -5 0 -5 1 0 1 -3
1 -6 1 -3 0 -6 0 -6 1 0 1 -3 1 -6 1 -3 0 -6 0 -6 1 0 1 -1 1 -3 1 -1 0 -3 1
-6 3 -2 3 -3 5 -3 8 0 3 0 5 -1 5 -1 0 -1 3 -1 8 0 5 0 8 1 8 1 0 1 6 1 16 0
10 0 16 1 16 1 0 1 3 1 8 0 5 0 8 1 8 1 0 1 2 1 5 0 3 0 5 1 5 1 0 1 1 1 3 0
2 0 3 1 3 1 0 1 1 1 3 0 1 1 3 2 4 1 1 2 2 2 3 0 1 0 2 1 2 1 0 1 1 1 2 0 1 0
2 1 2 2 0 1 5 0 7 -2 1 -7 2 -7 0 0 -2 -5 -1 -7 0 0 1 -1 3 -1 3 0 1 0 2 -1 2
-1 0 -1 1 -1 2 0 2 -7 8 -9 8 -2 0 -3 0 -3 1 0 1 -3 1 -5 0z"/>
<path d="M384 49 c0 -1 -1 -1 -2 -1 -2 0 -2 -1 -2 -3 0 -2 0 -3 -1 -3 -1 0 -1
-1 -1 -3 0 -2 0 -3 -1 -3 -1 0 -1 -4 -1 -9 0 -8 1 -11 4 -11 2 0 6 -5 6 -6 0
-1 1 -2 1 -2 1 -1 1 -1 -1 -3 -1 -1 -2 -2 -2 -3 1 0 1 0 2 1 0 2 2 1 2 -1 0
-2 1 -2 3 -2 3 0 3 0 3 3 0 1 1 3 2 4 1 1 2 2 2 3 0 1 0 2 1 2 1 0 1 1 1 3 0
2 0 3 1 3 1 0 1 3 1 8 0 5 0 8 -1 8 -1 0 -1 2 -1 5 0 3 -1 5 -3 8 -3 2 -5 3
-8 3 -3 0 -5 0 -5 -1z"/>
</g>
</svg>
