<?xml version="1.0" standalone="no"?>
<!DOCTYPE svg PUBLIC "-//W3C//DTD SVG 20010904//EN"
 "http://www.w3.org/TR/2001/REC-SVG-20010904/DTD/svg10.dtd">
<svg version="1.0" xmlns="http://www.w3.org/2000/svg"
 width="640.000000pt" height="480.000000pt" viewBox="0 0 640.000000 480.000000"
 preserveAspectRatio="xMidYMid meet">
<metadata>
Created by potrace 1.14, written by Peter Selinger 2001-2017
</metadata>
<g transform="translate(0.000000,480.000000) scale(1.000000,-1.000000)"
fill="#000000" stroke="none">
<path d="M296 327 c0 -1 -1 -1 -3 -1 -2 0 -3 0 -3 -1 0 -1 -1 -1 -3 -1 -1 0
-3 -1 -4 -2 -1 -1 -2 -2 -3 -2 -1 0 -6 -5 -6 -6 0 -1 -1 -2 -2 -3 -1 -1 -2 -2
-2 -3 0 -1 0 -2 -1 -2 -1 0 -1 -1 -1 -3 0 -2 0 -3 -1 -3 -1 0 -1 -2 -1 -5 0
-3 0 -5 1 -5 1 0 1 -1 1 -2 0 -1 8 -10 10 -10 2 0 8 -7 8 -9 0 -2 0 -3 1 -3 1
0 1 -1 1 -2 0 -1 0 -2 1 -2 1 0 1 -1 1 -2 0 -1 0 -2 1 -2 1 0 1 -1 1 -2 0 0 1
-2 3 -4 2 -2 3 -4 3 -4 0 -1 0 -2 1 -2 1 0 1 -2 1 -5 0 -4 0 -4 -5 -10 -3 -3
-7 -5 -7 -5 -1 0 -2 0 -2 -1 0 -1 -1 -1 -2 -1 -1 0 -2 0 -2 -1 0 -1 -1 -1 -2
-1 -1 0 -2 0 -2 -1 0 -1 -1 -1 -2 -1 -1 0 -14 -13 -14 -14 0 -1 0 -2 -1 -2 -1
0 -1 -3 -1 -6 0 -3 0 -6 -1 -6 -1 0 -1 -2 -1 -4 0 -2 0 -4 -1 -4 -1 0 -1 -2
-1 -5 0 -3 0 -5 -1 -5 -1 0 -1 -2 -1 -4 0 -2 0 -4 -1 -4 -1 0 -1 -2 -1 -4 0
-2 0 -4 -1 -4 -1 0 -1 -1 -1 -3 0 -2 0 -3 -1 -3 -1 0 -1 -2 -1 -5 0 -3 0 -5
-1 -5 -1 0 -1 -2 -1 -4 0 -2 0 -4 -1 -4 -1 0 -1 -1 -1 -3 0 -2 0 -3 -1 -3 -1
0 -1 -1 -1 -3 0 -1 -1 -3 -2 -4 -1 -1 -2 -2 -2 -3 0 -1 -1 -2 -2 -3 -1 -1 -2
-2 -2 -3 0 -1 0 -2 -1 -2 -1 0 -1 -1 -1 -3 0 -2 0 -3 -1 -3 -1 0 -1 -1 -1 -2
0 -1 0 -2 -1 -2 -1 0 -1 -1 -1 -3 0 -2 0 -3 -1 -3 -1 0 -1 -1 -1 -2 0 -1 0 -2
-1 -2 -1 0 -1 -1 -1 -2 0 -1 -1 -2 -2 -3 -1 -1 -2 -2 -2 -3 0 -1 -1 -2 -3 -4
-2 -2 -3 -3 -3 -4 0 -1 -2 -3 -4 -5 -3 -3 -4 -5 -4 -6 0 -2 0 -3 -1 -3 -1 0
-1 -1 -1 -2 0 -2 -5 -6 -7 -6 -2 0 -3 0 -3 -1 0 -1 -1 -1 -3 -1 -2 0 -3 0 -3
-1 0 -1 -1 -1 -2 -1 0 0 -3 -2 -6 -5 -3 -3 -6 -5 -6 -5 -1 0 -2 0 -2 -1 0 -1
-1 -1 -2 -1 -1 0 -2 -1 -2 -2 0 -1 0 -2 -1 -2 -1 0 -1 -1 -1 -2 0 -1 -1 -2 -2
-3 -1 -1 -2 -2 -2 -3 0 -1 -1 -2 -3 -4 -3 -2 -3 -3 -3 -8 0 -4 0 -6 1 -6 1 -1
1 -1 0 -2 -1 -1 -1 -1 0 -2 1 -2 4 -2 9 -2 5 0 8 0 8 1 0 1 0 1 -1 1 -1 0 -1
0 -1 1 0 1 1 1 2 1 1 0 4 2 4 4 0 1 25 26 26 26 2 0 6 5 6 6 0 1 0 2 1 2 1 0
1 2 1 4 0 3 1 4 8 12 5 4 9 8 10 8 1 0 2 1 4 3 2 2 3 3 4 3 1 0 4 3 7 6 6 6 9
7 12 5 1 -2 2 -11 0 -11 -1 0 -1 -2 -1 -4 0 -2 0 -4 -1 -4 -1 0 -1 -2 -1 -4 0
-2 0 -4 -1 -4 -1 0 -1 -2 -1 -4 0 -2 0 -4 -1 -4 -1 0 -1 -2 -1 -5 0 -3 0 -5
-1 -5 -1 0 -1 -3 -1 -6 0 -3 0 -6 1 -6 1 0 1 -1 1 -3 0 -1 1 -3 2 -4 2 -1 2
-3 2 -10 l0 -9 57 0 57 0 0 3 c0 2 0 3 1 3 1 0 1 1 1 2 0 1 0 2 1 2 1 0 1 2 1
4 0 2 0 4 1 4 1 0 1 1 1 3 0 2 0 3 1 3 1 0 1 7 1 20 0 13 0 20 1 20 1 0 1 3 1
8 0 5 0 8 -1 8 -1 0 -1 7 -1 19 0 12 0 19 1 19 1 0 1 3 1 8 0 5 0 8 1 8 1 0 1
1 1 3 0 2 0 3 2 3 1 0 2 1 2 1 1 2 6 -3 6 -5 0 -1 0 -2 1 -2 1 0 1 -1 1 -2 0
-1 0 -2 1 -2 1 0 1 -3 1 -8 0 -5 0 -8 1 -8 1 0 1 -1 1 -2 0 -1 6 -8 8 -8 1 0
6 -5 6 -6 0 -1 1 -2 3 -4 2 -2 3 -3 3 -4 0 -1 3 -4 7 -8 4 -4 7 -8 7 -8 0 -1
1 -2 2 -3 1 -1 2 -2 2 -3 0 -1 1 -2 2 -3 1 -1 2 -2 2 -3 0 -1 0 -2 1 -2 1 0 1
-3 1 -6 0 -3 0 -6 1 -6 1 0 1 -1 1 -2 0 -1 1 -2 2 -3 1 -1 2 -2 2 -3 0 -2 5
-6 6 -6 1 0 2 0 2 -1 0 -1 1 -1 3 -1 3 0 3 0 3 3 0 2 0 3 -1 3 -1 0 -1 1 -1 2
0 1 -1 2 -2 3 -1 1 -2 2 -2 3 0 1 0 2 -1 2 -1 0 -1 1 -1 2 0 1 0 2 -1 2 -1 0
-1 1 -1 2 0 1 0 2 -1 2 -1 0 -1 1 -1 2 0 1 0 2 -1 2 -1 0 -1 1 -1 3 0 2 0 3
-1 3 -1 0 -1 2 -1 4 0 2 0 4 -1 4 -1 0 -1 3 -1 6 0 3 0 6 -1 6 -1 0 -1 2 -1 5
0 3 0 5 -1 5 -1 0 -1 3 -1 6 0 3 0 6 -1 6 -1 0 -1 3 -1 6 0 3 0 6 -1 6 -1 0
-1 3 -1 6 0 3 0 6 -1 6 -1 0 -1 1 -1 2 0 0 -1 2 -3 4 -2 2 -3 4 -3 4 0 1 0 2
-1 2 -1 0 -1 1 -1 2 0 1 0 2 -1 2 -1 0 -1 1 -1 2 0 1 -1 2 -2 3 -1 1 -2 2 -2
3 0 1 0 2 -1 2 -1 0 -1 1 -1 2 0 1 0 2 -1 2 -1 0 -1 1 -1 3 0 2 0 3 -1 3 -1 0
-1 1 -1 3 0 2 0 3 -1 3 -1 0 -1 1 -1 3 0 2 0 3 -1 3 -1 0 -1 1 -1 3 0 2 0 3
-1 3 -1 0 -1 1 -1 3 0 2 0 3 -1 3 -1 0 -1 1 -1 2 0 1 0 2 -1 2 -1 0 -1 1 -1 3
0 2 0 3 -1 3 -1 0 -1 1 -1 2 0 1 0 2 -1 2 -1 0 -1 1 -1 3 0 2 0 3 -1 3 -1 0
-1 1 -1 2 0 1 0 2 -1 2 -1 0 -1 1 -1 2 0 1 0 2 -1 2 -1 0 -1 1 -1 3 0 2 0 3
-1 3 -1 0 -1 1 -1 2 0 2 -8 10 -10 10 -1 0 -2 0 -2 1 0 1 -4 1 -9 1 -5 0 -9 0
-9 1 0 1 -3 1 -7 1 -4 0 -7 0 -7 1 0 1 -1 1 -2 1 -1 0 -2 0 -2 1 0 1 -1 1 -2
1 -2 0 -4 2 -4 4 0 1 0 2 -1 2 -1 0 -1 5 -1 12 0 7 0 12 1 12 1 0 1 1 1 3 0 2
0 3 1 3 1 0 1 5 1 13 0 8 0 13 -1 13 -1 0 -1 1 -1 2 0 1 0 2 -1 2 -1 0 -1 1
-1 2 0 1 -2 4 -4 4 -1 0 -2 1 -3 2 -1 1 -2 2 -3 2 -1 0 -2 0 -2 1 0 1 -1 1 -3
1 -2 0 -3 0 -3 1 0 1 -1 1 -3 1 -2 0 -3 0 -3 1 0 1 -3 1 -7 1 -4 0 -7 0 -7 -1z"/>
<path d="M465 17 c0 -1 -1 -3 -1 -4 0 -2 -1 -3 -1 -3 -1 -1 -1 -1 0 -2 3 -3 5
-2 5 1 0 2 0 3 1 3 1 0 1 3 0 5 -2 1 -2 1 -4 0z"/>
<path d="M458 3 c0 -2 0 -3 2 -3 2 0 2 1 2 3 0 2 0 3 -2 3 -2 0 -2 -1 -2 -3z"/>
</g>
</svg>
