<?xml version="1.0" standalone="no"?>
<!DOCTYPE svg PUBLIC "-//W3C//DTD SVG 20010904//EN"
 "http://www.w3.org/TR/2001/REC-SVG-20010904/DTD/svg10.dtd">
<svg version="1.0" xmlns="http://www.w3.org/2000/svg"
 width="640.000000pt" height="480.000000pt" viewBox="0 0 640.000000 480.000000"
 preserveAspectRatio="xMidYMid meet">
<metadata>
Created by potrace 1.14, written by Peter Selinger 2001-2017
</metadata>
<g transform="translate(0.000000,480.000000) scale(1.000000,-1.000000)"
fill="#000000" stroke="none">
<path d="M312 391 c0 -1 -1 -1 -2 -1 -1 0 -2 0 -2 -1 0 -1 -1 -1 -2 -1 -1 0
-2 -1 -3 -2 -1 -1 -2 -2 -3 -2 -1 0 -2 -1 -3 -2 -1 -1 -2 -2 -3 -2 -1 0 -2 -1
-2 -2 0 -1 -1 -2 -2 -3 -1 -1 -2 -3 -2 -4 0 -2 0 -3 -1 -3 -1 0 -1 -2 -1 -4 0
-2 0 -4 -1 -4 -1 0 -1 -4 -1 -10 0 -6 0 -10 1 -10 1 0 1 -2 1 -4 0 -2 0 -4 1
-4 1 0 1 -1 1 -2 0 -1 0 -2 1 -2 1 0 1 -2 1 -4 0 -2 0 -4 1 -4 1 0 1 -2 1 -5
0 -3 0 -5 1 -5 1 0 1 -2 1 -4 0 -2 -1 -4 -4 -8 -3 -2 -6 -4 -6 -4 -1 0 -2 0
-2 -1 0 -1 -1 -1 -3 -1 -2 0 -3 0 -3 -1 0 -1 -1 -1 -3 -1 -2 0 -3 0 -3 -1 0
-1 -1 -1 -3 -1 -2 0 -3 0 -3 -1 0 -1 -1 -1 -3 -1 -2 0 -3 0 -3 -1 0 -1 -1 -1
-3 -1 -1 0 -3 -1 -4 -2 -1 -1 -2 -2 -3 -2 -1 0 -2 -1 -2 -2 0 -1 0 -2 -1 -2
-1 0 -1 -1 -1 -3 0 -2 0 -3 -1 -3 -1 0 -1 -2 -1 -4 0 -2 0 -4 -1 -4 -1 0 -1
-2 -1 -4 0 -2 0 -4 -1 -4 -1 0 -1 -1 -1 -3 0 -2 0 -3 -1 -3 -1 0 -1 -2 -1 -4
0 -2 0 -4 -1 -4 -1 0 -1 -2 -1 -4 0 -2 0 -4 -1 -4 -1 0 -1 -2 -1 -5 0 -3 0 -5
-1 -5 -1 0 -1 -6 -1 -15 0 -9 0 -15 -1 -15 -1 0 -1 -6 -1 -17 0 -11 0 -17 -1
-17 -1 0 -1 -2 -1 -4 0 -2 0 -4 -1 -4 -1 0 -1 -2 -1 -4 0 -2 0 -4 -1 -4 -1 0
-1 -4 -1 -11 0 -7 0 -11 1 -11 1 0 1 -6 1 -15 0 -9 0 -15 1 -15 1 0 1 -2 1 -5
0 -3 0 -5 1 -5 1 0 1 -2 1 -4 0 -2 0 -4 -1 -4 -1 0 -1 -2 -1 -4 0 -2 0 -4 -1
-4 -1 0 -1 -2 -1 -4 0 -2 -1 -4 -3 -7 l-4 -3 -21 0 c-21 0 -21 0 -24 -2 -2 -3
-2 -3 -2 -15 0 -8 0 -13 -1 -13 -1 0 -1 -4 -1 -10 l0 -10 7 0 7 0 0 11 c0 7 0
11 1 11 1 0 1 1 1 2 0 2 4 6 6 6 1 0 2 0 2 1 0 1 8 1 23 1 15 0 23 0 23 -1 0
-1 1 -1 3 -1 1 0 3 -1 6 -3 l3 -4 0 -11 0 -12 28 0 28 0 0 6 c0 3 0 6 1 6 1 0
1 2 1 5 0 3 1 5 3 8 2 1 4 3 5 3 2 0 6 -5 6 -7 0 -2 0 -3 1 -3 1 0 1 -4 1 -9
l0 -9 29 0 29 0 0 7 c0 4 0 7 1 7 1 0 1 4 1 9 l0 8 4 5 c3 2 6 4 6 4 1 0 2 0
2 1 0 1 1 1 2 1 2 0 6 4 6 6 0 1 0 2 1 2 1 0 1 1 1 3 0 2 0 3 1 3 1 0 1 2 1 5
0 3 0 5 1 5 1 0 1 3 1 8 0 5 0 8 1 8 1 0 1 1 1 3 0 2 0 3 1 3 1 0 1 2 1 4 0 2
0 4 -1 4 -1 0 -1 6 -1 17 0 11 0 17 -1 17 -1 0 -1 2 -1 5 0 3 0 5 -1 5 -1 0
-1 2 -1 4 0 2 0 4 -1 4 -1 0 -1 1 -1 3 0 2 0 3 -1 3 -1 0 -1 4 -1 10 0 6 0 10
-1 10 -1 0 -1 3 -1 6 0 3 0 6 -1 6 -1 0 -1 2 -1 5 0 3 0 5 -1 5 -1 0 -1 2 -1
4 0 2 0 4 -1 4 -1 0 -1 1 -1 3 0 2 0 3 -1 3 -1 0 -1 2 -1 5 0 3 0 5 -1 5 -1 0
-1 5 -1 13 0 8 0 13 -1 13 -1 0 -1 2 -1 5 0 3 0 5 -1 5 -1 0 -1 1 -1 3 0 2 0
3 -1 3 -1 0 -1 1 -1 3 0 2 0 3 -1 3 -1 0 -1 2 -1 4 0 2 -1 4 -3 7 -2 1 -5 3
-5 3 -1 0 -2 0 -2 1 0 1 -1 1 -2 1 -1 0 -2 0 -2 1 0 1 -1 1 -3 1 -2 0 -3 0 -3
1 0 1 -1 1 -3 1 -2 0 -3 0 -3 1 0 1 -1 1 -3 1 -2 0 -3 0 -3 1 0 1 -1 1 -2 1
-1 0 -2 0 -2 1 0 1 -1 1 -3 1 -2 0 -3 0 -3 1 0 1 -1 1 -3 1 -2 0 -7 4 -7 6 0
1 0 2 -1 2 -1 0 -1 2 -1 4 0 2 0 4 1 4 1 0 1 1 1 2 0 1 0 2 1 2 1 0 1 1 1 2 0
1 0 2 1 2 1 0 1 1 1 2 0 1 0 2 1 2 1 0 1 2 1 5 0 3 0 5 1 5 1 0 1 3 1 6 0 3 0
6 1 6 1 0 1 1 1 2 0 1 0 2 1 2 1 0 1 1 1 2 0 1 0 2 1 2 1 0 1 3 1 7 0 4 0 7
-1 7 -1 0 -1 1 -1 2 0 1 0 2 -1 2 -1 0 -1 1 -1 2 0 1 0 2 -1 2 -1 0 -1 1 -1 2
0 1 0 2 -1 2 -1 0 -1 1 -1 2 0 2 -4 6 -6 6 -1 0 -2 0 -2 1 0 1 -1 1 -2 1 -1 0
-2 0 -2 1 0 1 -3 1 -7 1 -4 0 -7 0 -7 -1z"/>
</g>
</svg>
