<?xml version="1.0" standalone="no"?>
<!DOCTYPE svg PUBLIC "-//W3C//DTD SVG 20010904//EN"
 "http://www.w3.org/TR/2001/REC-SVG-20010904/DTD/svg10.dtd">
<svg version="1.0" xmlns="http://www.w3.org/2000/svg"
 width="640.000000pt" height="480.000000pt" viewBox="0 0 640.000000 480.000000"
 preserveAspectRatio="xMidYMid meet">
<metadata>
Created by potrace 1.14, written by Peter Selinger 2001-2017
</metadata>
<g transform="translate(0.000000,480.000000) scale(1.000000,-1.000000)"
fill="#000000" stroke="none">
<path d="M268 289 c0 -1 -2 -1 -4 -1 -2 0 -4 0 -4 -1 0 -1 -1 -1 -2 -1 0 0 -2
-1 -4 -2 -1 -2 -2 -4 -2 -4 0 -1 0 -2 -1 -2 -1 0 -1 -1 -1 -3 0 -2 0 -3 -1 -3
-1 0 -1 -2 -1 -5 0 -3 0 -5 -1 -5 -1 0 -1 -1 -1 -3 0 -2 0 -3 1 -3 1 0 1 -3 1
-7 0 -5 0 -6 -2 -9 -2 -1 -4 -2 -4 -2 -1 0 -2 0 -2 -1 0 -1 -1 -1 -2 -1 -1 0
-2 0 -2 -1 0 -1 -1 -1 -3 -1 -2 0 -3 0 -3 -1 0 -1 -2 -1 -4 -1 -2 0 -4 0 -4
-1 0 -1 -3 -1 -8 -1 -5 0 -8 0 -8 -1 0 -1 -1 -1 -2 -1 -2 0 -8 -6 -8 -8 0 -1
0 -2 -1 -2 -1 0 -1 -2 -1 -5 0 -3 0 -5 -1 -5 -1 0 -1 -2 -1 -4 0 -2 0 -4 -1
-4 -1 0 -1 -2 -1 -4 0 -2 0 -4 -1 -4 -1 0 -1 -2 -1 -5 0 -3 0 -5 -1 -5 -1 0
-1 -2 -1 -4 0 -2 0 -4 -1 -4 -1 0 -1 -3 -1 -6 0 -3 0 -6 -1 -6 -1 0 -1 -3 -1
-8 0 -5 0 -8 -1 -8 -1 0 -1 -10 -1 -27 0 -17 0 -27 1 -27 1 0 1 -3 1 -8 0 -5
0 -8 1 -8 1 0 1 -2 1 -5 0 -3 0 -5 1 -5 1 0 1 -2 1 -5 0 -3 0 -5 1 -5 1 0 1
-1 1 -2 0 -1 1 -2 2 -3 1 -1 2 -2 2 -3 0 -1 0 -2 1 -2 1 0 1 -1 1 -2 0 -1 0
-2 1 -2 1 0 1 -1 1 -3 0 -1 1 -3 3 -5 2 -2 3 -3 3 -4 0 -1 1 -2 2 -3 1 -1 2
-2 2 -3 0 -1 0 -2 1 -2 1 0 1 -4 1 -11 l0 -11 47 0 47 0 0 6 c0 4 0 6 2 8 4 3
4 3 8 0 2 -2 2 -4 2 -8 l0 -6 47 0 47 0 0 4 c0 2 0 4 1 4 1 0 1 7 1 19 0 12 0
19 1 19 1 0 1 1 1 2 0 1 0 2 1 2 1 0 1 1 1 2 0 1 0 2 1 2 1 0 1 3 1 8 0 5 0 8
1 8 1 0 1 2 1 4 0 2 0 4 1 4 1 0 1 1 1 3 0 2 0 3 1 3 1 0 1 2 1 5 0 3 0 5 1 5
1 0 1 3 1 8 0 5 0 8 -1 8 -1 0 -1 6 -1 16 0 10 0 16 -1 16 -1 0 -1 4 -1 9 0 5
0 9 -1 9 -1 0 -1 3 -1 6 0 3 0 6 -1 6 -1 0 -1 1 -1 3 0 2 0 3 -1 3 -1 0 -1 1
-1 3 0 2 0 3 -1 3 -1 0 -1 1 -1 3 0 2 0 3 -1 3 -1 0 -1 1 -1 2 0 1 0 2 -1 2
-1 0 -1 1 -1 2 0 2 -10 12 -12 12 -1 0 -2 0 -2 -1 0 -1 -3 -1 -6 -1 -6 0 -8 1
-8 5 0 2 0 3 -1 3 -1 0 -1 2 -1 5 0 3 0 5 -1 5 -1 0 -1 2 -1 5 0 3 0 5 -1 5
-1 0 -1 1 -1 3 0 2 0 3 -1 3 -1 0 -1 2 -1 4 0 2 0 4 -1 4 -1 0 -1 2 -1 5 0 3
0 5 -1 5 -1 0 -1 2 -1 4 0 2 -1 4 -3 7 -4 3 -4 3 -10 3 -4 0 -7 0 -7 -1 0 -1
-1 -1 -2 -1 -1 0 -2 0 -2 -1 0 -1 -1 -1 -2 -1 -1 0 -2 -1 -3 -2 -1 -1 -2 -2
-3 -2 -1 0 -2 -1 -3 -2 -1 -1 -2 -2 -3 -2 -1 0 -2 0 -2 -1 0 -1 -4 -1 -9 -1
-5 0 -9 0 -9 1 0 1 -3 1 -7 1 -5 0 -6 0 -9 2 -1 2 -2 4 -2 6 0 2 0 4 -1 4 -1
0 -1 1 -1 3 0 1 -2 4 -5 8 -4 3 -7 5 -8 5 -2 0 -3 0 -3 1 0 1 -1 1 -3 1 -2 0
-3 0 -3 -1z"/>
</g>
</svg>
