<?xml version="1.0" standalone="no"?>
<!DOCTYPE svg PUBLIC "-//W3C//DTD SVG 20010904//EN"
 "http://www.w3.org/TR/2001/REC-SVG-20010904/DTD/svg10.dtd">
<svg version="1.0" xmlns="http://www.w3.org/2000/svg"
 width="640.000000pt" height="480.000000pt" viewBox="0 0 640.000000 480.000000"
 preserveAspectRatio="xMidYMid meet">
<metadata>
Created by potrace 1.14, written by Peter Selinger 2001-2017
</metadata>
<g transform="translate(0.000000,480.000000) scale(1.000000,-1.000000)"
fill="#000000" stroke="none">
<path d="M270 319 c0 -1 -1 -1 -3 -1 -2 0 -3 0 -3 -1 0 -1 -1 -1 -2 -1 -1 0
-2 0 -2 -1 0 -1 -1 -1 -2 -1 -2 0 -6 -4 -6 -6 0 -1 0 -2 -1 -2 -1 0 -1 -1 -1
-2 0 -1 0 -2 -1 -2 -1 0 -1 -1 -1 -3 0 -2 0 -3 1 -3 1 0 1 -1 1 -2 0 -1 0 -2
1 -2 1 0 1 -1 1 -3 0 -2 0 -3 1 -3 1 0 1 -1 1 -2 0 -1 0 -2 1 -2 1 0 1 -6 1
-16 l0 -15 -4 -5 c-3 -2 -6 -4 -6 -4 -1 0 -2 0 -2 -1 0 -1 -1 -1 -2 -1 -1 0
-2 0 -2 -1 0 -1 -1 -1 -2 -1 -1 0 -2 0 -2 -1 0 -1 -2 -1 -4 -1 -2 0 -4 0 -4
-1 0 -1 -2 -1 -4 -1 -2 0 -4 0 -4 -1 0 -1 -1 -1 -3 -1 -2 0 -3 0 -3 -1 0 -1
-1 -1 -3 -1 -2 0 -3 0 -3 -1 0 -1 -1 -1 -2 -1 -2 0 -10 -9 -10 -11 0 -2 0 -3
-1 -3 -1 0 -1 -1 -1 -3 0 -2 0 -3 -1 -3 -1 0 -1 -1 -1 -3 0 -2 0 -3 -1 -3 -1
0 -1 -4 -1 -9 0 -5 0 -9 -1 -9 -1 0 -1 -17 -1 -48 0 -31 0 -48 -1 -48 -1 0 -1
-2 -1 -5 0 -3 0 -5 1 -5 1 0 1 -9 1 -25 0 -16 0 -25 1 -25 1 0 1 -4 1 -10 0
-7 0 -10 1 -10 1 -1 1 -1 0 -2 -2 -1 -1 -4 1 -4 1 0 2 0 2 -1 0 -1 24 -1 69
-1 72 0 71 0 71 4 0 1 0 2 1 2 1 0 1 1 1 2 0 1 0 2 1 2 1 0 1 1 1 2 0 0 1 2 3
4 2 2 3 4 3 4 0 1 0 2 1 2 1 0 1 1 1 2 0 1 0 2 1 2 1 0 1 9 1 24 0 15 0 24 -1
24 -1 0 -1 4 -1 11 0 7 0 11 -1 11 -1 0 -1 4 -1 11 0 7 0 11 -1 11 -1 0 -1 5
-1 13 0 8 0 13 -1 13 -1 0 -1 5 -1 13 0 8 0 13 -1 13 -1 0 -1 4 -1 9 0 5 0 9
-1 9 -1 0 -1 2 -1 5 0 3 0 5 -1 5 -1 0 -1 1 -1 3 0 2 0 3 -1 3 -1 0 -1 2 -1 4
0 2 0 4 -1 4 -1 0 -1 1 -1 2 0 1 -6 8 -8 8 -1 0 -2 1 -3 2 -1 1 -2 2 -3 2 -1
0 -2 0 -2 1 0 1 -1 1 -3 1 -2 0 -3 0 -3 1 0 1 -1 1 -2 1 -1 0 -2 0 -2 1 0 1
-1 1 -2 1 -1 0 -2 0 -2 1 0 1 -1 1 -2 1 -2 0 -8 6 -8 8 0 1 0 2 -1 2 -1 0 -1
2 -1 4 0 2 0 4 1 4 1 0 1 1 1 2 0 1 1 2 2 3 1 1 2 2 2 3 0 1 0 2 1 2 1 0 1 1
1 2 0 1 0 2 1 2 1 0 1 2 1 4 0 2 0 4 1 4 1 0 1 3 1 8 0 5 0 8 1 8 1 1 1 1 0 2
-1 0 -1 3 -1 9 0 8 0 8 -3 12 -2 1 -5 3 -5 3 -1 0 -2 0 -2 1 0 1 -1 1 -2 1 -1
0 -2 0 -2 1 0 1 -3 1 -8 1 -5 0 -8 0 -8 -1z"/>
</g>
</svg>
