<?xml version="1.0" standalone="no"?>
<!DOCTYPE svg PUBLIC "-//W3C//DTD SVG 20010904//EN"
 "http://www.w3.org/TR/2001/REC-SVG-20010904/DTD/svg10.dtd">
<svg version="1.0" xmlns="http://www.w3.org/2000/svg"
 width="640.000000pt" height="480.000000pt" viewBox="0 0 640.000000 480.000000"
 preserveAspectRatio="xMidYMid meet">
<metadata>
Created by potrace 1.14, written by Peter Selinger 2001-2017
</metadata>
<g transform="translate(0.000000,480.000000) scale(1.000000,-1.000000)"
fill="#000000" stroke="none">
<path d="M240 419 c0 -1 -1 -1 -3 -1 -2 0 -3 0 -3 -1 0 -1 -1 -1 -2 -1 -1 0
-2 -1 -3 -2 -1 -1 -2 -2 -3 -2 0 0 -4 -3 -8 -6 -5 -6 -6 -7 -6 -10 0 -2 0 -4
-1 -4 -1 0 -1 -3 -1 -7 0 -4 0 -7 1 -7 1 0 1 -1 1 -2 0 -1 0 -2 1 -2 1 0 1 -1
1 -3 0 -2 0 -3 1 -3 1 0 1 -4 0 -4 -1 -1 -1 -1 0 -2 0 0 1 -1 1 -3 0 -2 0 -3
1 -3 1 0 1 -1 1 -3 0 -2 0 -3 1 -3 1 0 1 -4 1 -10 l0 -9 -3 -4 c-3 -2 -5 -3
-7 -3 -2 0 -4 0 -4 -1 0 -1 -5 -1 -14 -1 -9 0 -14 0 -14 -1 0 -1 -1 -1 -2 -1
-1 0 -2 0 -2 -1 0 -1 -1 -1 -2 -1 -1 0 -6 -4 -6 -6 0 -1 -1 -2 -2 -3 -1 -1 -2
-2 -2 -3 0 -1 0 -2 -1 -2 -1 0 -1 -1 -1 -3 0 -2 0 -3 -1 -3 -1 0 -1 -1 -1 -2
0 -1 0 -2 -1 -2 -1 0 -1 -1 -1 -2 0 -1 -1 -2 -2 -3 -1 -1 -2 -2 -2 -3 0 -1 0
-2 -1 -2 -1 0 -1 -1 -1 -3 0 -2 0 -3 -1 -3 -1 0 -1 -2 -1 -4 0 -4 -4 -8 -8 -8
-3 0 -4 0 -4 2 0 1 0 2 -1 2 -1 0 -1 5 -1 12 0 7 0 12 1 12 1 0 1 2 1 4 0 2 0
4 1 4 1 0 1 2 1 5 0 3 0 5 -1 5 -1 0 -1 2 -1 4 0 2 0 4 -1 4 -1 0 -1 1 -1 3 0
2 0 3 -1 3 -1 0 -1 1 -1 3 0 2 0 3 -1 3 -1 0 -1 2 -1 4 0 4 -4 8 -8 8 -2 0 -4
0 -4 -1 0 -1 -1 -1 -3 -1 -2 0 -3 0 -3 -1 0 -1 -1 -1 -2 -1 -1 0 -2 0 -2 -1 0
-1 -1 -1 -2 -1 0 0 -3 -2 -6 -4 -3 -4 -4 -5 -4 -9 0 -3 -1 -5 -1 -5 -1 -1 -1
-1 0 -2 1 0 1 -3 1 -9 0 -5 0 -9 1 -9 1 0 1 -1 1 -3 0 -1 1 -3 2 -4 1 -1 2 -2
2 -3 0 -1 1 -2 2 -3 1 -1 2 -3 2 -5 0 -2 0 -4 1 -4 1 0 1 -2 1 -4 0 -2 0 -4
-1 -4 -1 0 -1 -1 -1 -3 0 -2 0 -3 1 -3 1 0 1 -8 1 -22 0 -14 0 -22 1 -22 1 0
1 -1 1 -2 0 -1 17 -18 18 -18 1 0 2 0 2 -1 0 -1 2 -1 4 -1 2 0 4 0 4 1 0 1 1
1 3 1 2 0 3 0 3 1 0 1 1 1 2 1 1 0 2 1 3 2 1 1 2 2 3 2 0 0 6 5 13 12 8 8 13
12 14 12 3 0 7 -4 7 -8 0 -2 0 -4 1 -4 1 0 1 -3 1 -8 0 -5 0 -8 1 -8 1 0 1 -4
1 -11 0 -7 0 -11 1 -11 1 0 1 -3 1 -8 0 -5 0 -8 1 -8 1 0 1 -7 1 -18 0 -11 0
-18 -1 -18 -1 0 -1 -5 -1 -12 0 -7 0 -12 -1 -12 -1 0 -1 -5 -1 -13 l0 -12 6
-6 c4 -4 6 -7 6 -8 0 -2 0 -3 1 -3 1 0 1 -2 1 -4 0 -2 0 -4 1 -4 1 0 1 -2 1
-4 0 -2 0 -4 1 -4 1 0 1 -2 1 -6 0 -5 0 -5 3 -9 3 -2 5 -3 6 -3 2 0 3 0 3 -1
0 -1 4 -1 10 -1 6 0 10 0 10 -1 0 -1 4 -1 11 -1 7 0 11 0 11 -1 0 -1 2 -1 6
-1 5 0 5 0 9 3 2 3 3 5 3 8 0 3 0 5 1 5 1 0 1 1 1 3 0 2 0 3 1 3 1 0 1 2 1 4
0 2 0 4 1 4 1 0 1 2 1 4 0 2 0 4 1 4 1 0 1 3 1 8 0 5 0 8 1 8 1 0 1 1 1 2 0 2
3 4 5 4 2 0 3 0 3 1 0 1 1 1 2 1 1 0 2 0 2 1 0 1 1 1 3 1 1 0 3 1 4 2 1 1 2 2
3 2 1 0 2 0 2 1 0 1 1 1 3 1 2 0 3 0 3 1 0 1 1 1 3 1 2 0 9 6 9 8 0 1 9 10 10
10 1 0 2 1 4 3 2 2 3 3 4 3 1 0 20 19 20 20 0 1 15 16 16 16 1 0 3 2 5 4 3 3
5 4 6 4 2 0 3 0 3 -1 0 -1 1 -1 2 -1 1 0 4 -2 4 -4 0 -1 1 -2 2 -3 1 -1 2 -2
2 -3 0 -1 1 -2 2 -3 1 -1 2 -2 2 -3 0 -1 1 -2 3 -4 2 -2 3 -3 3 -4 0 -1 2 -3
4 -5 2 -2 4 -4 4 -5 0 -1 1 -2 3 -4 2 -2 3 -3 3 -4 0 -1 2 -3 5 -6 3 -3 5 -5
5 -6 0 -1 1 -2 2 -3 1 -1 2 -2 2 -3 0 -1 0 -2 1 -2 1 0 1 -1 1 -2 0 -1 1 -2 2
-3 1 -1 2 -2 2 -3 0 -1 3 -4 6 -7 3 -3 6 -6 6 -7 0 -1 1 -2 2 -3 1 -1 2 -2 2
-3 0 -1 0 -2 1 -2 1 0 1 -1 1 -2 0 -1 0 -2 1 -2 1 0 1 -1 1 -3 0 -2 0 -3 1 -3
1 0 1 -1 1 -2 0 0 4 -5 8 -9 7 -7 8 -8 8 -11 0 -2 0 -4 1 -4 1 0 1 -1 1 -2 0
-1 0 -2 1 -2 1 0 1 -1 1 -2 0 0 6 -7 12 -14 l13 -12 27 0 27 0 4 3 c1 2 3 4 3
5 0 1 11 12 12 12 1 0 24 23 24 24 0 1 1 2 2 3 1 1 2 2 2 3 0 1 0 2 1 2 1 0 1
1 1 2 0 1 0 2 1 2 1 0 1 1 1 2 0 1 0 2 1 2 1 0 1 1 1 2 0 1 0 2 1 2 1 0 1 2 1
4 0 2 0 4 1 4 1 0 1 7 1 19 0 12 0 19 -1 19 -1 0 -1 1 -1 3 0 1 -1 3 -3 6 -3
2 -5 3 -8 3 -4 0 -9 -3 -9 -6 0 -1 0 -2 -1 -2 -1 0 -1 -1 -1 -2 0 -1 0 -2 -1
-2 -1 0 -1 -1 -1 -2 0 -1 0 -2 -1 -2 -1 0 -1 -1 -1 -2 0 -1 0 -2 -1 -2 -1 0
-1 -1 -1 -2 0 -1 0 -2 -1 -2 -1 0 -1 -1 -1 -3 0 -2 0 -3 -1 -3 -1 0 -1 -1 -1
-3 0 -3 -6 -9 -10 -9 -2 0 -4 0 -4 -1 0 -1 -1 -1 -3 -1 -2 0 -3 0 -3 -1 0 -1
-1 -1 -2 -1 -1 0 -2 0 -2 1 0 1 -2 1 -5 1 -3 0 -5 0 -5 -1 0 -1 -1 -1 -3 -1
-2 0 -3 0 -3 -1 0 -1 -1 -1 -2 -1 -1 0 -2 0 -2 -1 0 -2 -9 -1 -11 0 0 1 -1 3
-1 4 0 1 -1 3 -3 5 -2 2 -3 3 -3 4 0 1 -1 2 -2 3 -1 1 -2 2 -2 3 0 1 -2 3 -4
5 -2 2 -4 4 -4 5 0 1 -2 3 -5 6 -3 3 -5 5 -5 6 0 1 -5 6 -12 13 -7 7 -12 13
-12 13 0 1 0 2 -1 2 -1 0 -1 1 -1 2 0 1 -1 2 -2 3 -1 1 -2 2 -2 3 0 1 -1 2 -2
3 -1 1 -2 2 -2 3 0 1 0 2 -1 2 -1 0 -1 1 -1 2 0 1 -1 2 -2 3 -1 1 -2 2 -2 3 0
1 0 2 -1 2 -1 0 -1 1 -1 2 0 1 -1 2 -2 3 -1 1 -2 2 -2 3 0 1 -1 2 -3 4 -2 2
-3 3 -3 4 0 1 -1 2 -3 4 -2 2 -3 3 -3 4 0 1 -1 2 -3 4 -2 2 -3 3 -3 4 0 1 -2
3 -4 5 -2 2 -4 4 -4 5 0 1 -1 2 -3 4 -2 2 -3 3 -3 4 0 1 -2 3 -4 5 -2 2 -4 5
-4 6 0 2 4 7 6 7 1 0 2 0 2 1 0 1 1 1 2 1 1 0 2 0 2 1 0 1 1 1 2 1 1 0 2 0 2
1 0 1 1 1 2 1 1 0 2 1 3 2 1 1 2 2 3 2 1 0 2 0 2 1 0 1 1 1 2 1 1 0 2 0 2 1 0
1 3 1 8 1 5 0 8 0 8 1 0 1 1 1 3 1 1 0 4 2 7 5 3 3 5 5 6 5 2 0 4 3 4 4 0 1 1
2 2 3 1 1 2 2 2 3 0 1 1 2 1 2 1 1 1 1 0 2 0 0 -1 1 -1 2 0 0 -1 2 -2 4 -2 1
-4 2 -7 2 -3 0 -5 0 -5 -1 0 -1 -2 -1 -4 -1 -2 0 -4 0 -4 1 0 1 -2 1 -4 1 -2
0 -4 -1 -6 -3 -2 -2 -3 -3 -4 -3 -1 0 -2 -1 -4 -3 -2 -2 -3 -3 -4 -3 -1 0 -2
-1 -3 -2 -1 -1 -2 -2 -3 -2 -1 0 -2 -1 -3 -2 -1 -1 -2 -2 -3 -2 -1 0 -2 0 -2
-1 0 -1 -1 -1 -2 -1 -1 0 -2 0 -2 -1 0 -1 -1 -1 -2 -1 -1 0 -2 0 -2 -1 0 -1
-1 -1 -2 -1 -1 0 -2 0 -2 -1 0 -1 -1 -1 -2 -1 -1 0 -2 0 -2 -1 0 -1 -1 -1 -3
-1 -2 0 -3 0 -3 -1 0 -1 -1 -1 -2 -1 -1 0 -2 0 -2 -1 0 -1 -1 -1 -3 -1 -2 0
-3 0 -3 -1 0 -1 -2 -1 -4 -1 -2 0 -4 0 -4 -1 0 -2 -20 -1 -20 0 -1 1 -1 1 -2
0 0 -1 -10 -1 -10 0 0 1 -1 1 -2 1 -1 0 -2 0 -2 1 0 1 -1 1 -3 1 -1 0 -3 1 -4
2 -1 1 -2 2 -3 2 0 0 -6 5 -12 11 -6 6 -11 11 -12 11 -1 0 -10 9 -10 10 0 2
-9 10 -10 10 -1 0 -2 0 -2 1 0 1 -1 1 -2 1 -1 0 -2 0 -2 1 0 1 -1 1 -3 1 -2 0
-3 0 -3 1 0 1 -2 1 -4 1 -2 0 -4 0 -4 1 0 1 -2 1 -4 1 -2 0 -4 0 -4 1 0 1 -1
1 -2 1 -1 0 -2 0 -2 1 0 1 -2 1 -4 1 -2 0 -4 0 -4 1 0 1 -1 1 -2 1 0 0 -2 1
-4 2 -2 2 -2 4 -2 8 0 4 0 6 1 6 1 0 1 3 1 6 0 3 0 6 1 6 1 0 1 1 1 2 0 0 2 3
4 5 2 2 4 4 4 5 0 1 1 2 2 3 1 1 2 3 2 4 0 2 0 3 1 3 1 0 1 3 1 6 0 3 0 6 1 6
1 0 1 3 1 8 0 5 0 8 -1 8 -1 0 -1 1 -1 2 0 1 0 2 -1 2 -1 0 -1 1 -1 2 0 1 0 2
-1 2 -1 0 -1 2 -1 4 0 2 0 4 -1 4 -1 0 -1 2 -1 4 0 2 -1 4 -3 7 -4 3 -4 3 -11
3 -5 0 -8 0 -8 1 0 1 -3 1 -6 1 -3 0 -6 0 -6 -1z m92 -192 c0 -1 1 -1 2 -1 1
0 2 0 2 -1 0 -1 1 -1 2 -1 1 0 2 0 2 -1 0 -1 1 -1 2 -1 1 0 2 0 2 -1 0 -1 1
-1 2 -1 1 0 2 0 2 -1 0 -1 1 -1 2 -1 2 0 6 -5 6 -7 0 -1 -6 -8 -16 -19 -15
-14 -20 -18 -20 -15 0 1 -1 1 -2 1 -3 0 -4 3 -4 11 0 5 0 9 -1 9 -1 0 -1 1 -1
3 0 2 0 3 1 3 1 0 1 3 1 8 0 5 0 8 1 8 1 0 1 1 1 2 0 0 1 2 2 3 2 2 4 3 8 3 3
0 6 0 6 -1z"/>
</g>
</svg>
