<?xml version="1.0" standalone="no"?>
<!DOCTYPE svg PUBLIC "-//W3C//DTD SVG 20010904//EN"
 "http://www.w3.org/TR/2001/REC-SVG-20010904/DTD/svg10.dtd">
<svg version="1.0" xmlns="http://www.w3.org/2000/svg"
 width="640.000000pt" height="480.000000pt" viewBox="0 0 640.000000 480.000000"
 preserveAspectRatio="xMidYMid meet">
<metadata>
Created by potrace 1.14, written by Peter Selinger 2001-2017
</metadata>
<g transform="translate(0.000000,480.000000) scale(1.000000,-1.000000)"
fill="#000000" stroke="none">
<path d="M322 375 c0 -1 -1 -1 -2 -1 -1 0 -2 0 -2 -1 0 -1 -1 -1 -2 -1 -1 0
-2 0 -2 -1 0 -1 -1 -1 -2 -1 -1 0 -2 0 -2 -1 0 -1 -1 -1 -2 -1 -2 0 -8 -7 -8
-9 0 -2 0 -3 -1 -3 -1 0 -1 -2 -1 -4 0 -2 0 -4 -1 -4 -1 0 -1 -4 -1 -10 0 -6
0 -10 1 -10 1 0 1 -1 1 -3 0 -2 0 -3 1 -3 1 0 1 -1 1 -2 0 -1 0 -2 1 -2 1 0 1
-1 1 -3 0 -2 0 -3 1 -3 1 0 1 -2 1 -5 0 -3 0 -5 1 -5 1 0 1 -2 1 -5 0 -3 -1
-5 -3 -8 -2 -1 -5 -3 -5 -3 -1 0 -2 0 -2 -1 0 -1 -1 -1 -3 -1 -2 0 -3 0 -3 -1
0 -1 -1 -1 -3 -1 -2 0 -3 0 -3 -1 0 -1 -1 -1 -3 -1 -2 0 -3 0 -3 -1 0 -1 -1
-1 -3 -1 -2 0 -3 0 -3 -1 0 -1 -1 -1 -3 -1 -2 0 -3 0 -3 -1 0 -1 -1 -1 -2 -1
-2 0 -4 -2 -4 -4 0 -1 0 -2 -1 -2 -1 0 -1 -2 -1 -4 0 -2 0 -4 -1 -4 -1 0 -1
-2 -1 -4 0 -2 0 -4 -1 -4 -1 0 -1 -2 -1 -4 0 -2 0 -4 -1 -4 -1 0 -1 -2 -1 -5
0 -3 0 -5 -1 -5 -1 0 -1 -3 -1 -7 0 -4 0 -7 -1 -7 -1 0 -1 -3 -1 -6 0 -3 0 -6
-1 -6 -1 0 -1 -3 -1 -7 0 -4 0 -7 -1 -7 -1 0 -1 -3 -1 -8 0 -5 0 -8 -1 -8 -1
0 -1 -4 -1 -11 0 -7 0 -11 -1 -11 -1 0 -1 -2 -1 -5 0 -3 0 -5 -1 -5 -1 0 -1
-2 -1 -4 0 -2 0 -4 -1 -4 -1 0 -1 -6 -1 -15 0 -9 0 -15 1 -15 1 0 1 -2 1 -4 0
-2 0 -4 -1 -4 -1 0 -1 -4 -1 -9 0 -5 0 -9 1 -9 2 0 1 -16 0 -16 -1 -1 -1 -1 0
-2 1 0 1 -2 1 -6 0 -3 0 -6 1 -6 1 0 1 -1 1 -2 0 -2 6 -8 8 -8 1 0 2 0 2 -1 0
-1 1 -1 2 -1 1 0 2 0 2 -1 0 -1 1 -1 2 -1 2 0 4 -2 4 -4 0 -1 0 -2 1 -2 1 0 1
-2 1 -5 0 -3 0 -5 1 -5 1 0 1 -4 1 -11 l0 -11 26 0 c25 0 26 0 26 2 0 1 1 2 1
2 1 1 1 1 0 2 -1 0 -1 4 0 4 1 0 1 2 1 5 0 3 0 5 1 5 1 0 1 1 1 2 0 2 2 4 5 4
3 0 5 -2 5 -5 0 -2 0 -3 1 -3 1 0 1 -4 1 -9 l0 -9 27 0 27 0 0 7 c0 4 0 7 1 7
1 0 1 2 1 4 0 2 0 4 1 4 1 0 1 2 1 5 0 3 0 5 1 5 1 0 1 1 1 2 0 2 4 6 6 6 1 0
2 0 2 1 0 1 1 1 2 1 2 0 8 7 8 9 0 2 0 3 1 3 1 0 1 2 1 4 0 2 0 4 1 4 1 0 1 4
1 9 0 5 0 9 1 9 1 0 1 1 1 2 0 1 0 2 1 2 1 0 1 1 1 2 0 1 0 2 1 2 1 0 1 4 1
11 0 7 0 11 -1 11 -1 0 -1 2 -1 4 0 2 0 4 -1 4 -1 0 -1 5 -1 14 0 9 0 14 -1
14 -1 0 -1 2 -1 5 0 3 0 5 -1 5 -1 0 -1 2 -1 4 0 2 0 4 -1 4 -1 0 -1 2 -1 4 0
2 0 4 -1 4 -1 0 -1 1 -1 3 0 2 0 3 -1 3 -1 0 -1 1 -1 3 0 2 0 3 -1 3 -1 0 -1
3 -1 7 0 4 0 7 -1 7 -1 0 -1 4 -1 11 0 7 0 11 -1 11 -1 0 -1 3 -1 6 0 3 0 6
-1 6 -1 0 -1 3 -1 7 0 4 0 7 -1 7 -1 0 -1 2 -1 5 0 3 0 5 -1 5 -1 0 -1 1 -1 3
0 2 0 3 -1 3 -1 0 -1 1 -1 2 0 0 -2 3 -3 5 -2 1 -5 3 -5 3 -1 0 -2 0 -2 1 0 1
-1 1 -2 1 -1 0 -2 0 -2 1 0 1 -1 1 -3 1 -2 0 -3 0 -3 1 0 1 -1 1 -3 1 -2 0 -3
0 -3 1 0 1 -1 1 -2 1 -1 0 -2 0 -2 1 0 1 -1 1 -3 1 -2 0 -3 0 -3 1 0 1 -2 1
-6 1 -4 0 -6 0 -8 2 -2 3 -2 4 -2 11 0 5 0 9 -1 9 -1 0 -1 1 -1 3 0 2 0 3 1 3
1 0 1 2 1 4 0 2 0 4 1 4 1 0 1 1 1 3 0 2 0 3 1 3 1 0 1 1 1 2 0 0 2 3 4 5 2 2
4 5 4 5 0 1 0 2 1 2 1 0 1 1 1 3 0 2 0 3 -1 3 -1 0 -1 1 -1 2 0 1 -1 2 -2 3
-1 1 -2 2 -2 3 0 1 0 2 -1 2 -1 0 -1 2 -1 4 0 2 0 4 -1 4 -1 0 -1 1 -1 3 0 2
-4 7 -6 7 -1 0 -2 0 -2 1 0 1 -3 1 -7 1 -4 0 -7 0 -7 -1z"/>
</g>
</svg>
