<?xml version="1.0" standalone="no"?>
<!DOCTYPE svg PUBLIC "-//W3C//DTD SVG 20010904//EN"
 "http://www.w3.org/TR/2001/REC-SVG-20010904/DTD/svg10.dtd">
<svg version="1.0" xmlns="http://www.w3.org/2000/svg"
 width="640.000000pt" height="480.000000pt" viewBox="0 0 640.000000 480.000000"
 preserveAspectRatio="xMidYMid meet">
<metadata>
Created by potrace 1.14, written by Peter Selinger 2001-2017
</metadata>
<g transform="translate(0.000000,480.000000) scale(1.000000,-1.000000)"
fill="#000000" stroke="none">
<path d="M304 331 c0 -1 -1 -1 -3 -1 -2 0 -3 0 -3 -1 0 -1 -2 -1 -4 -1 -2 0
-4 0 -4 -1 0 -1 -1 -1 -2 -1 -1 0 -2 0 -2 -1 0 -1 -1 -1 -2 -1 -2 0 -6 -4 -6
-6 0 -1 0 -2 -1 -2 -1 0 -1 -1 -1 -2 0 -1 0 -2 -1 -2 -1 0 -1 -1 -1 -2 0 -1 0
-2 -1 -2 -1 0 -1 -2 -1 -4 0 -2 0 -4 -1 -4 -1 0 -1 -1 -1 -2 0 -1 0 -2 -1 -2
-1 0 -1 -3 -1 -8 0 -5 0 -8 1 -8 1 0 1 -1 1 -3 0 -2 0 -3 1 -3 1 0 1 -2 1 -4
0 -2 0 -4 1 -4 1 0 1 -3 1 -7 0 -6 0 -7 -2 -7 -1 0 -2 0 -2 -1 0 -1 -2 -1 -4
-1 -2 0 -4 -1 -8 -4 -2 -3 -4 -6 -4 -6 0 -1 -1 -2 -2 -2 -1 0 -2 0 -2 -1 0 -1
-6 -1 -16 -1 -10 0 -16 0 -16 -1 0 -1 -1 -1 -3 -1 -2 0 -13 -10 -13 -12 0 -1
0 -2 -1 -2 -1 0 -1 -1 -1 -3 0 -2 0 -3 -1 -3 -1 0 -1 -1 -1 -2 0 -1 0 -2 -1
-2 -1 0 -1 -1 -1 -2 0 -1 0 -2 -1 -2 -1 0 -1 -1 -1 -2 0 -1 0 -2 -1 -2 -1 0
-1 -1 -1 -2 0 -1 0 -2 -1 -2 -1 0 -1 -1 -1 -3 0 -2 0 -3 -1 -3 -1 0 -1 -1 -1
-2 0 -1 0 -2 -1 -2 -1 0 -1 -1 -1 -2 0 0 -4 -5 -8 -9 -4 -4 -8 -8 -8 -9 0 -1
-2 -3 -4 -5 -2 -2 -4 -4 -4 -5 0 -2 -5 -6 -6 -6 -1 0 -2 -1 -2 -1 -1 -1 -1 -1
-2 0 0 0 -1 1 -2 1 -1 0 -2 1 -4 3 -2 2 -3 3 -4 3 -2 0 -6 5 -6 6 0 1 -1 2 -2
3 -1 1 -2 3 -2 4 0 2 0 3 -1 3 -1 0 -1 1 -1 3 0 2 0 3 -1 3 -1 0 -1 1 -1 2 0
1 0 2 -1 2 -1 0 -1 1 -1 2 0 2 -8 10 -10 10 -1 0 -2 0 -2 -1 0 -1 -1 -1 -2 -1
-1 0 -4 -2 -4 -4 0 -2 -7 -8 -9 -8 -2 0 -3 -1 -3 -1 -1 -1 -1 -1 -2 0 -2 2 -3
7 -1 7 1 0 1 1 1 2 0 1 0 2 -1 2 -1 0 -1 2 -1 4 0 2 0 4 -1 4 -1 0 -1 1 -1 3
0 1 -1 3 -2 4 -1 1 -1 1 -2 0 -1 -1 -2 -3 -2 -3 0 -1 0 -2 -1 -2 -1 0 -1 -3
-1 -7 0 -4 0 -7 1 -7 1 0 1 -3 1 -6 0 -3 0 -6 1 -6 1 0 1 -1 1 -3 0 -2 0 -3 1
-3 1 0 1 -1 1 -2 0 -1 0 -2 1 -2 1 0 1 -1 1 -2 0 -1 0 -2 1 -2 1 0 1 -1 1 -2
0 -1 0 -2 1 -2 1 0 1 -1 1 -2 0 0 3 -4 6 -7 3 -3 6 -7 6 -7 0 -1 0 -2 1 -2 1
0 1 -1 1 -3 0 -2 0 -3 1 -3 1 0 1 -1 1 -2 0 -1 0 -2 1 -2 1 0 1 -1 1 -3 0 -2
0 -3 1 -3 1 0 1 -2 1 -4 0 -2 1 -4 3 -6 2 -2 3 -3 3 -4 0 -1 7 -8 8 -8 1 0 2
-1 4 -3 2 -2 4 -3 4 -3 1 0 2 0 2 -1 0 -1 1 -1 2 -1 1 0 2 0 2 -1 0 -1 3 -1 7
-1 4 0 7 0 7 1 0 1 1 1 3 1 2 0 3 0 3 1 0 1 2 1 4 1 2 0 4 0 4 1 0 1 1 1 3 1
1 0 3 1 4 2 1 1 2 2 3 2 1 0 14 13 14 14 0 2 3 4 5 4 4 0 7 -4 7 -9 0 -3 0 -5
1 -5 1 0 1 -3 1 -6 0 -3 0 -6 1 -6 1 0 1 -7 1 -20 0 -13 0 -20 -1 -20 -1 0 -1
-1 -1 -2 0 -1 0 -2 -1 -2 -1 0 -1 -1 -1 -3 0 -2 0 -3 -1 -3 -1 0 -1 -1 -1 -2
0 -1 0 -2 -1 -2 -1 0 -1 -1 -1 -3 0 -2 0 -3 -1 -3 -1 0 -1 -2 -1 -4 0 -2 0 -4
-1 -4 -1 0 -1 -3 -1 -7 0 -4 0 -7 -1 -7 -1 0 -1 -2 -1 -4 0 -2 0 -4 -1 -4 -1
0 -1 -1 -1 -2 0 -2 1 -2 80 -2 78 0 80 0 80 2 0 1 -1 2 -1 2 -1 1 -1 1 0 2 0
0 1 1 1 2 0 1 0 2 1 2 1 0 1 1 1 2 0 1 0 2 1 2 1 0 1 1 1 3 0 2 0 3 1 3 1 0 1
2 1 4 0 2 0 4 -1 4 -1 0 -1 1 -1 3 0 2 0 3 -1 3 -1 0 -1 1 -1 3 0 2 0 3 -1 3
-1 0 -1 2 -1 4 0 2 0 4 -1 4 -1 0 -1 1 -1 3 0 2 0 3 -1 3 -1 0 -1 3 -1 6 0 3
0 6 -1 6 -1 0 -1 5 -1 14 0 9 0 14 -1 14 -1 0 -1 5 -1 12 0 7 0 12 1 12 1 0 1
1 1 2 0 2 5 6 7 6 1 0 6 -4 14 -12 7 -7 12 -12 13 -12 1 0 3 -2 6 -5 3 -3 6
-5 6 -5 1 0 2 0 2 -1 0 -1 1 -1 2 -1 1 0 2 0 2 -1 0 -1 1 -1 2 -1 1 0 2 0 2
-1 0 -1 2 -1 4 -1 2 0 4 0 4 -1 0 -1 1 -1 3 -1 2 0 3 0 3 -1 0 -1 2 -1 4 -1 2
0 4 0 4 -1 0 -1 3 -1 6 -1 3 0 6 0 6 1 0 1 3 1 8 1 5 0 8 0 8 1 0 1 2 1 4 1 2
0 4 0 4 1 0 1 1 1 3 1 2 0 3 0 3 1 0 1 2 1 4 1 2 0 4 0 4 1 0 1 1 1 2 1 1 0 2
0 2 1 0 1 1 1 3 1 2 0 3 0 3 1 0 1 1 1 2 1 1 0 2 0 2 1 0 1 1 1 3 1 1 0 3 1 4
2 1 1 2 2 3 2 1 0 2 1 3 2 1 1 2 2 3 2 1 0 2 1 3 2 1 1 3 2 5 2 2 0 4 0 4 1 0
1 3 1 6 1 3 0 6 0 6 1 0 1 1 1 2 1 1 0 2 0 2 1 0 1 1 1 2 1 2 0 12 11 12 13 0
2 0 3 -1 3 -1 0 -1 1 -1 2 0 1 -1 2 -2 2 -1 0 -2 0 -2 1 0 1 -2 1 -4 1 -2 0
-4 0 -4 -1 0 -1 -2 -1 -4 -1 -2 0 -4 0 -4 -1 0 -1 -1 -1 -3 -1 -2 0 -3 0 -3 1
0 1 -1 1 -2 1 -1 0 -2 0 -2 1 0 1 -1 1 -2 1 -1 0 -2 0 -2 1 0 1 -2 1 -4 1 -2
0 -4 -1 -5 -2 -1 -1 -2 -2 -3 -2 -1 0 -2 0 -2 -1 0 -1 -1 -1 -2 -1 -1 0 -2 0
-2 -1 0 -1 -1 -1 -3 -1 -2 0 -3 0 -3 -1 0 -1 -2 -1 -5 -1 -3 0 -5 0 -5 -1 0
-1 -2 -1 -4 -1 -2 0 -4 0 -4 -1 0 -1 -6 -1 -17 -1 -11 0 -17 0 -17 -1 0 -1 -2
-1 -4 -1 -2 0 -4 0 -4 1 0 1 -2 1 -4 1 -2 0 -4 0 -4 1 0 1 -1 1 -2 1 -1 0 -2
1 -3 2 -1 1 -2 2 -3 2 -1 0 -2 1 -3 2 -1 1 -2 2 -3 2 0 0 -5 4 -9 8 -4 4 -8 8
-9 8 -2 0 -10 9 -10 10 0 1 0 2 -1 2 -1 0 -1 1 -1 2 0 1 0 2 -1 2 -1 0 -1 1
-1 2 0 1 0 2 -1 2 -1 0 -1 1 -1 2 0 1 0 2 -1 2 -1 0 -1 1 -1 2 0 1 0 2 -1 2
-1 0 -1 1 -1 2 0 1 -1 2 -2 3 -1 1 -2 2 -2 3 0 1 -1 2 -2 3 -1 1 -2 2 -2 3 0
2 -11 12 -12 12 -1 0 -2 0 -2 1 0 1 -1 1 -2 1 -1 0 -2 0 -2 1 0 1 -1 1 -3 1
-2 0 -3 0 -3 1 0 1 -1 1 -3 1 -2 0 -13 10 -13 12 0 1 -1 2 -2 2 -2 0 -6 5 -6
8 0 2 -1 4 -1 4 -1 1 -1 1 0 2 1 0 1 2 1 5 0 3 0 5 1 5 1 0 1 1 1 2 0 0 2 3 4
5 2 2 4 5 4 5 0 1 0 2 1 2 1 0 1 1 1 3 0 2 0 3 1 3 1 0 1 2 1 5 0 3 0 5 -1 5
-1 0 -1 1 -1 3 0 2 0 3 -1 3 -1 0 -1 1 -1 3 0 2 4 7 6 7 1 0 2 0 2 1 0 1 1 1
2 1 0 0 2 1 4 2 1 2 2 4 2 7 0 3 0 5 -1 5 -1 0 -1 1 -1 2 0 1 -1 2 -2 3 -1 1
-2 2 -2 3 0 1 -1 2 -2 3 -1 1 -2 2 -2 3 0 2 -5 6 -6 6 -1 0 -2 0 -2 1 0 1 -3
1 -8 1 -5 0 -8 0 -8 -1z"/>
</g>
</svg>
