<?xml version="1.0" standalone="no"?>
<!DOCTYPE svg PUBLIC "-//W3C//DTD SVG 20010904//EN"
 "http://www.w3.org/TR/2001/REC-SVG-20010904/DTD/svg10.dtd">
<svg version="1.0" xmlns="http://www.w3.org/2000/svg"
 width="640.000000pt" height="480.000000pt" viewBox="0 0 640.000000 480.000000"
 preserveAspectRatio="xMidYMid meet">
<metadata>
Created by potrace 1.14, written by Peter Selinger 2001-2017
</metadata>
<g transform="translate(0.000000,480.000000) scale(1.000000,-1.000000)"
fill="#000000" stroke="none">
<path d="M296 475 c0 -3 0 -5 -1 -5 -1 0 -1 -1 -1 -3 0 -2 0 -3 1 -3 1 0 1 -2
1 -5 0 -3 0 -5 1 -5 1 0 1 -1 1 -3 0 -2 0 -3 -1 -3 -1 0 -1 -1 -1 -3 0 -2 0
-3 -1 -3 -1 0 -1 -1 -1 -3 0 -2 0 -3 -1 -3 -1 0 -1 -3 -1 -7 0 -4 0 -7 -1 -7
-1 0 -1 -2 -1 -5 0 -3 0 -5 -1 -5 -1 0 -1 -1 -1 -2 0 -1 -1 -2 -2 -2 -1 0 -2
0 -2 -1 0 -1 -1 -1 -2 -1 -1 0 -2 0 -2 -1 0 -1 -2 -1 -4 -1 -2 0 -4 0 -4 -1 0
-1 -2 -1 -4 -1 -2 0 -4 0 -4 -1 0 -1 -1 -1 -2 -1 -1 0 -2 0 -2 -1 0 -1 -1 -1
-3 -1 -3 0 -11 -8 -11 -11 0 -2 0 -3 -1 -3 -1 0 -1 -1 -1 -3 0 -2 0 -3 -1 -3
-1 0 -1 -2 -1 -4 0 -2 0 -4 -1 -4 -1 0 -1 -2 -1 -5 0 -3 0 -5 -1 -5 -1 0 -1
-1 -1 -3 0 -2 0 -3 -1 -3 -1 0 -1 -1 -1 -3 0 -2 0 -3 -1 -3 -1 0 -1 -1 -1 -3
0 -2 0 -3 -1 -3 -1 0 -1 -1 -1 -3 0 -2 0 -3 -1 -3 -1 0 -1 -1 -1 -2 0 -1 0 -2
-1 -2 -1 0 -1 -1 -1 -3 0 -2 0 -3 -1 -3 -1 0 -1 -1 -1 -2 0 -1 0 -2 -1 -2 -1
0 -1 -1 -1 -3 0 -2 0 -3 -1 -3 -1 0 -1 -1 -1 -2 0 -1 -1 -2 -2 -3 -1 -1 -2 -2
-2 -3 0 -1 -1 -2 -2 -3 -1 -1 -2 -2 -2 -3 0 -1 -1 -2 -3 -4 -2 -2 -3 -3 -3 -4
0 -1 -17 -18 -18 -18 -1 0 -2 -1 -3 -2 -1 -1 -2 -2 -3 -2 -1 0 -2 0 -2 -1 0
-1 -1 -1 -2 -1 0 0 -5 -4 -10 -9 -5 -5 -10 -9 -10 -9 -1 0 -2 0 -2 -1 0 -1 -1
-1 -3 -1 -2 0 -3 0 -3 -1 0 -1 -3 -1 -6 -1 -3 0 -6 0 -6 -1 0 -1 -3 -1 -8 -1
l-7 0 -6 -5 c-3 -3 -5 -6 -5 -7 0 -1 -3 -4 -4 -4 -2 0 -4 -3 -4 -4 0 -1 0 -2
-1 -2 -1 0 -1 -1 -1 -2 0 -1 0 -2 -1 -2 -1 0 -1 -2 -1 -5 0 -4 0 -5 4 -9 3 -2
6 -4 6 -4 1 0 2 0 2 -1 0 -1 3 -1 6 -1 4 0 6 0 7 2 1 1 2 2 3 2 1 0 2 1 4 3 2
2 3 3 4 3 1 0 3 2 5 4 2 2 5 4 5 4 1 0 2 0 2 1 0 1 1 1 2 1 1 0 2 0 2 1 0 1 1
1 2 1 1 0 2 0 2 1 0 1 1 1 2 1 0 0 2 1 4 3 2 2 3 3 4 3 1 0 2 1 3 2 1 1 2 2 3
2 1 0 2 0 2 1 0 1 3 1 6 1 3 0 6 0 6 -1 0 -1 3 -1 7 -1 l6 0 8 8 c4 4 8 8 9 8
1 0 16 15 16 16 0 1 1 2 2 3 1 1 2 2 2 3 0 1 1 2 2 3 1 1 2 2 2 3 0 1 1 2 2 3
1 1 2 2 2 3 0 1 1 2 2 3 1 1 2 2 2 3 0 2 5 6 7 6 5 0 5 -2 5 -19 0 -11 0 -17
-1 -17 -1 0 -1 -3 -1 -8 0 -5 0 -8 -1 -8 -1 0 -1 -2 -1 -5 0 -3 0 -5 -1 -5 -1
0 -1 -2 -1 -4 0 -2 0 -4 -1 -4 -1 0 -1 -2 -1 -4 0 -2 0 -4 -1 -4 -1 0 -1 -1
-1 -3 0 -2 0 -3 -1 -3 -1 0 -1 -1 -1 -2 0 -1 0 -2 -1 -2 -1 0 -1 -1 -1 -3 0
-2 0 -3 -1 -3 -1 0 -1 -1 -1 -2 0 -1 0 -2 1 -2 1 0 1 -3 1 -6 0 -3 0 -6 1 -6
1 0 1 -2 1 -4 0 -2 0 -4 1 -4 1 0 1 -3 1 -8 0 -5 0 -8 -1 -8 -1 0 -1 -15 -1
-44 0 -29 0 -44 1 -44 1 0 1 -2 1 -5 0 -3 0 -5 1 -5 1 0 1 -5 1 -13 0 -8 0
-13 -1 -13 -1 0 -1 -2 -1 -4 0 -2 0 -4 -1 -4 -1 0 -1 -2 -1 -5 0 -3 0 -5 -1
-5 -1 0 -1 -2 -1 -5 0 -3 0 -5 2 -6 1 -1 2 -2 2 -3 0 -2 3 -4 4 -4 1 0 2 0 2
-1 0 -1 6 -1 15 -1 8 0 15 0 15 1 0 0 -1 1 -1 1 -1 1 0 2 2 4 2 1 3 4 3 4 0 1
0 2 1 2 1 0 1 3 1 8 0 5 0 8 1 8 1 0 1 2 1 5 0 3 0 5 1 5 1 0 1 1 1 3 0 2 0 3
1 3 1 0 1 3 1 6 0 3 0 6 1 6 1 0 1 3 1 6 0 3 0 6 1 6 1 0 1 3 1 7 0 4 0 7 1 7
1 0 1 2 1 4 0 2 0 4 1 4 1 0 1 3 1 6 0 3 0 6 1 6 1 0 1 1 1 3 0 2 0 3 1 3 1 0
1 1 1 3 0 2 0 3 1 3 1 0 1 1 1 2 0 1 0 2 1 2 1 0 1 1 1 2 0 1 0 2 1 2 1 0 1 2
1 4 0 2 0 4 1 4 1 0 1 2 1 5 0 5 2 7 6 7 3 0 4 0 4 -2 0 -1 0 -2 1 -2 1 0 1
-1 1 -3 0 -2 0 -3 1 -3 1 0 1 -2 1 -4 0 -2 0 -4 1 -4 1 0 1 -2 1 -4 0 -2 0 -4
1 -4 1 0 1 -3 1 -7 0 -4 0 -7 1 -7 1 0 1 -3 1 -8 0 -5 0 -8 1 -8 1 0 1 -3 1
-6 0 -3 0 -6 1 -6 1 0 1 -4 1 -9 0 -5 0 -9 1 -9 1 0 1 -2 1 -4 0 -2 0 -4 1 -4
1 0 1 -2 1 -4 0 -2 0 -4 1 -4 1 0 1 -2 1 -5 0 -3 0 -5 1 -5 1 0 1 -6 1 -15 l0
-15 25 0 25 0 0 3 c0 2 0 3 -1 3 -1 0 -1 1 -1 3 0 2 0 3 -1 3 -1 0 -1 1 -1 2
0 1 0 2 -1 2 -1 0 -1 3 -1 8 0 5 0 8 -1 8 -1 0 -1 2 -1 4 0 2 0 4 -1 4 -1 0
-1 7 -1 18 0 11 0 18 1 18 1 0 1 1 1 2 0 1 0 2 1 2 1 0 1 2 1 5 0 3 0 5 1 5 1
0 1 9 1 25 0 16 0 25 -1 25 -1 0 -1 10 -1 27 0 17 0 27 -1 27 -1 0 -1 5 -1 12
0 7 0 12 -1 12 -1 0 -1 2 -1 5 0 3 0 5 -1 5 -1 0 -1 1 -1 3 0 2 0 3 1 3 1 0 1
1 1 3 0 2 0 3 -1 3 -1 0 -1 3 -1 7 0 4 0 7 -1 7 -1 0 -1 1 -1 3 0 2 0 3 -1 3
-1 0 -1 1 -1 2 0 1 0 2 -1 2 -1 0 -1 1 -1 2 0 1 0 2 -1 2 -1 0 -1 1 -1 3 0 2
0 3 -1 3 -1 0 -1 3 -1 7 0 4 0 7 1 7 1 0 1 1 1 3 0 2 0 3 -1 3 -1 0 -1 3 -1 7
0 4 0 7 1 7 1 0 1 2 1 4 0 4 4 8 7 8 2 0 15 -12 15 -14 0 -1 1 -2 3 -4 2 -2 3
-4 3 -4 0 -1 0 -2 1 -2 1 0 1 -1 1 -2 0 -2 6 -8 8 -8 1 0 2 0 2 -1 0 -1 1 -1
3 -1 2 0 3 0 3 -1 0 -1 1 -1 2 -1 1 0 2 0 2 -1 0 -1 1 -1 2 -1 1 0 2 0 2 -1 0
-1 1 -1 3 -1 2 0 3 0 3 -1 0 -1 1 -1 2 -1 0 0 3 -2 5 -4 2 -2 4 -4 5 -4 1 0 2
-1 3 -2 1 -1 2 -2 3 -2 1 0 2 0 2 -1 0 -1 3 -1 8 -1 5 0 8 0 8 -1 0 -1 3 -1 6
-1 3 0 6 0 6 1 0 1 1 1 2 1 1 0 10 8 10 10 0 2 5 6 6 6 1 0 2 0 2 1 0 1 2 1 4
1 2 0 4 0 4 -1 0 -1 2 -1 4 -1 2 0 4 0 4 -1 0 -1 6 -1 15 -1 9 0 15 0 15 1 0
1 1 1 2 1 1 0 2 0 2 1 0 1 1 1 2 1 1 0 2 0 2 1 0 1 1 1 2 1 1 0 2 0 2 1 0 1 1
1 2 1 1 0 2 0 2 1 0 1 1 1 2 1 0 0 2 1 4 2 1 2 2 4 2 4 0 1 0 2 1 2 1 0 1 1 1
2 0 1 0 2 1 2 2 0 1 5 -2 8 -2 2 -3 3 -3 4 0 1 -1 2 -2 3 -1 1 -2 2 -2 3 0 3
-2 4 -18 4 -10 0 -16 0 -16 -1 0 -1 -1 -1 -3 -1 -2 0 -3 0 -3 -1 0 -1 -1 -1
-3 -1 -2 0 -3 0 -3 -1 0 -1 -1 -1 -2 -1 -1 0 -2 0 -2 -1 0 -1 -3 -1 -7 -1 -4
0 -7 0 -7 -1 0 -1 -1 -1 -3 -1 -2 0 -3 0 -3 1 0 1 -1 1 -3 1 -2 0 -3 0 -3 1 0
1 -3 1 -6 1 -3 0 -6 0 -6 -1 0 -1 -6 -1 -15 -1 -9 0 -15 0 -15 1 0 1 -1 1 -2
1 -1 0 -2 0 -2 1 0 1 -1 1 -2 1 0 0 -2 1 -4 3 -2 2 -3 3 -4 3 -2 0 -8 7 -8 8
0 1 -1 2 -2 3 -1 1 -2 2 -2 3 0 1 0 2 -1 2 -1 0 -1 1 -1 2 0 1 0 2 -1 2 -1 0
-1 1 -1 2 0 1 0 2 -1 2 -1 0 -1 1 -1 2 0 1 0 2 -1 2 -1 0 -1 1 -1 2 0 1 0 2
-1 2 -1 0 -1 1 -1 2 0 1 -1 2 -2 3 -1 1 -2 2 -2 3 0 1 0 2 -1 2 -1 0 -1 1 -1
2 0 1 -1 2 -2 3 -1 1 -2 2 -2 3 0 1 0 2 -1 2 -1 0 -1 1 -1 3 0 2 0 3 -1 3 -1
0 -1 1 -1 2 0 1 0 2 -1 2 -1 0 -1 1 -1 3 0 1 -1 3 -2 4 -1 1 -2 2 -2 3 0 1 -1
2 -2 2 -1 0 -2 1 -3 2 -1 1 -3 2 -5 2 -2 0 -4 0 -4 1 0 1 -2 1 -5 1 -3 0 -5 0
-5 1 0 1 -2 1 -5 1 -3 0 -5 0 -5 1 0 1 -1 1 -2 1 -1 0 -2 0 -2 1 0 1 -1 1 -3
1 -2 0 -3 0 -3 1 0 1 -1 1 -2 1 -1 0 -6 4 -6 6 0 1 -1 2 -2 3 -1 1 -2 3 -2 4
0 2 0 3 -1 3 -1 0 -1 2 -1 5 0 3 0 5 1 5 1 0 1 2 1 4 0 2 0 4 1 4 1 0 1 1 1 2
0 0 2 3 5 6 3 3 5 6 5 7 0 2 1 3 1 3 1 1 1 1 0 2 0 0 -1 1 -1 2 0 0 -1 2 -1 3
-2 1 -9 2 -9 0 0 -1 -2 -1 -5 -1 -3 0 -5 0 -5 1 0 1 -1 1 -2 1 -2 0 -6 5 -6 7
l0 3 -16 0 -16 0 0 -5z"/>
</g>
</svg>
