<?xml version="1.0" standalone="no"?>
<!DOCTYPE svg PUBLIC "-//W3C//DTD SVG 20010904//EN"
 "http://www.w3.org/TR/2001/REC-SVG-20010904/DTD/svg10.dtd">
<svg version="1.0" xmlns="http://www.w3.org/2000/svg"
 width="640.000000pt" height="480.000000pt" viewBox="0 0 640.000000 480.000000"
 preserveAspectRatio="xMidYMid meet">
<metadata>
Created by potrace 1.14, written by Peter Selinger 2001-2017
</metadata>
<g transform="translate(0.000000,480.000000) scale(1.000000,-1.000000)"
fill="#000000" stroke="none">
<path d="M274 371 c0 -1 -1 -1 -3 -1 -2 0 -3 0 -3 -1 0 -1 -2 -1 -4 -1 -2 0
-4 0 -4 -1 0 -1 -1 -1 -2 -1 -1 0 -2 0 -2 -1 0 -1 -1 -1 -2 -1 -2 0 -12 -10
-12 -12 0 -1 0 -2 -1 -2 -1 0 -1 -2 -1 -4 0 -2 0 -4 -1 -4 -1 0 -1 -2 -1 -5 0
-3 0 -5 1 -5 1 0 1 -2 1 -4 0 -2 0 -4 1 -4 1 0 1 -1 1 -2 0 -1 0 -2 1 -2 1 0
1 -1 1 -2 0 -1 0 -2 1 -2 1 0 1 -1 1 -2 0 0 2 -3 4 -5 2 -2 4 -4 4 -5 0 -1 1
-2 2 -3 1 -1 2 -3 2 -4 0 -2 0 -3 1 -3 1 0 1 -2 1 -4 0 -2 0 -4 -1 -4 -1 0 -1
-1 -1 -2 0 -1 -2 -4 -4 -4 -1 0 -2 -1 -4 -3 -2 -2 -4 -3 -4 -3 -1 0 -2 0 -2
-1 0 -1 -2 -1 -5 -1 -3 0 -5 0 -5 -1 0 -1 -3 -1 -6 -1 -3 0 -6 0 -6 -1 0 -1
-2 -1 -4 -1 -2 0 -4 -1 -5 -2 -1 -1 -2 -2 -3 -2 -2 0 -4 -2 -4 -4 0 -1 -1 -2
-2 -3 -1 -1 -2 -2 -2 -3 0 -1 -1 -2 -3 -4 -2 -2 -3 -3 -3 -4 0 -1 -1 -2 -2 -3
-1 -1 -2 -2 -2 -3 0 -1 -1 -2 -2 -3 -1 -1 -2 -2 -2 -3 0 -1 -13 -14 -14 -14
-1 0 -2 -1 -3 -2 -1 -1 -2 -2 -3 -2 -1 0 -2 -1 -4 -3 -2 -2 -4 -3 -4 -3 -1 0
-2 0 -2 -1 0 -1 -2 -1 -4 -1 -2 0 -4 1 -8 4 -2 3 -4 6 -4 6 0 1 0 2 -1 2 -1 0
-1 1 -1 2 0 1 0 2 -1 2 -1 0 -1 1 -1 3 0 2 0 3 -1 3 -1 0 -1 1 -1 2 0 1 0 2
-1 2 -1 0 -1 1 -1 2 0 1 0 2 -1 2 -1 0 -1 1 -1 3 0 2 0 3 -1 3 -1 0 -1 1 -1 2
0 1 0 2 -1 2 -1 0 -1 4 -1 10 0 6 0 10 1 10 1 0 1 4 1 10 0 6 0 10 -1 10 -1 0
-1 1 -1 3 0 1 -1 3 -1 4 -3 2 -5 1 -5 -1 0 -1 0 -2 -1 -2 -1 0 -1 -1 -1 -2 0
-2 -1 -2 -5 -2 -3 0 -5 1 -7 2 -1 2 -2 4 -2 4 0 1 0 2 -1 2 -1 0 -1 1 -1 2 0
1 0 2 -1 2 -1 0 -1 1 -1 2 0 1 0 2 -1 2 -1 0 -1 1 -1 3 0 2 0 3 -1 3 -1 0 -1
1 -1 3 0 2 -5 8 -6 6 0 0 -1 -1 -2 -1 -1 0 -2 0 -2 -1 0 -1 -2 -1 -4 -1 -2 0
-4 0 -4 1 0 1 -1 1 -3 1 -2 0 -7 -4 -7 -6 0 -1 0 -2 -1 -2 -1 0 -1 -2 -1 -4 0
-2 0 -4 -1 -4 -1 0 -1 -3 -1 -6 0 -3 0 -6 1 -6 1 0 1 -1 1 -3 0 -2 0 -3 1 -3
1 0 1 -1 1 -2 0 -1 0 -2 1 -2 1 0 1 -1 1 -2 0 0 2 -3 5 -6 3 -3 5 -5 5 -6 0
-1 2 -3 4 -5 2 -2 4 -5 4 -5 0 -1 0 -2 1 -2 1 0 1 -2 1 -5 0 -3 0 -5 -1 -5 -1
0 -1 -3 -1 -6 0 -3 0 -6 1 -6 1 0 1 -1 1 -2 0 -1 0 -2 1 -2 1 0 1 -1 1 -2 0
-1 0 -2 1 -2 1 0 1 -4 1 -9 0 -5 0 -9 1 -9 1 0 1 -1 1 -3 0 -2 0 -3 1 -3 1 0
1 -1 1 -3 0 -2 0 -3 1 -3 1 0 1 -1 1 -2 0 -1 0 -2 1 -2 1 0 1 -1 1 -2 0 -1 0
-2 1 -2 1 0 1 -1 1 -2 0 0 1 -2 3 -4 2 -2 3 -3 3 -4 0 -1 1 -2 2 -3 1 -1 2 -2
2 -3 0 -2 7 -8 8 -8 1 0 2 0 2 -1 0 -1 1 -1 3 -1 2 0 3 0 3 -1 0 -1 1 -1 3 -1
2 0 3 0 3 -1 0 -1 4 -1 10 -1 6 0 10 0 10 1 0 1 1 1 3 1 2 0 3 0 3 1 0 1 1 1
3 1 2 0 3 0 3 1 0 1 1 1 2 1 1 0 2 0 2 1 0 1 1 1 2 1 1 0 2 0 2 1 0 1 1 1 2 1
0 0 2 1 4 3 2 2 3 3 4 3 1 0 2 1 3 2 1 1 2 2 3 2 1 0 2 1 3 2 1 1 2 2 3 2 2 0
6 -5 6 -6 0 -1 0 -2 1 -2 1 0 1 -3 1 -7 0 -4 0 -7 1 -7 1 0 1 -3 1 -6 0 -3 0
-6 1 -6 1 0 1 -2 1 -5 0 -3 0 -5 1 -5 1 0 1 -2 1 -5 0 -3 0 -5 1 -5 1 0 1 -2
1 -5 0 -3 0 -5 1 -5 1 0 1 -2 1 -4 0 -2 0 -4 1 -4 1 0 1 -10 1 -29 0 -19 0
-29 -1 -29 -1 0 -1 -6 -1 -15 0 -9 0 -15 -1 -15 -1 0 -1 -3 -1 -7 0 -4 0 -7
-1 -7 -1 0 -1 -1 -1 -3 l0 -3 68 0 68 0 0 3 c0 2 0 3 -1 3 -1 0 -1 8 -1 23 0
15 0 23 -1 23 -1 0 -1 3 -1 8 0 5 0 8 1 8 1 0 1 1 1 2 0 1 0 2 1 2 1 0 1 4 1
9 0 5 0 9 -1 9 -1 0 -1 8 -1 22 0 14 0 22 -1 22 -1 0 -1 9 -1 25 l0 24 2 3 c3
2 8 3 8 1 0 -1 1 -1 3 -1 2 0 3 0 3 -1 0 -1 2 -1 4 -1 2 0 4 0 4 -1 0 -1 2 -1
4 -1 2 0 4 0 4 -1 0 -1 1 -1 3 -1 2 0 3 0 3 -1 0 -1 1 -1 3 -1 2 0 3 0 3 -1 0
-1 1 -1 3 -1 2 0 3 0 3 -1 0 -1 2 -1 4 -1 2 0 4 0 4 -1 0 -1 5 -1 12 -1 8 0
12 0 12 -1 1 -1 1 -1 2 0 0 1 2 1 5 1 3 0 5 0 5 1 0 1 2 1 4 1 2 0 4 0 4 1 0
1 2 1 4 1 2 0 4 0 4 1 0 1 1 1 3 1 2 0 3 0 3 1 0 1 2 1 4 1 2 0 4 0 4 1 0 1 1
1 2 1 1 0 2 0 2 1 0 1 1 1 2 1 1 0 2 1 3 2 1 1 3 2 4 2 2 0 3 0 3 1 0 1 4 1
10 1 6 0 10 0 10 1 0 1 1 1 2 1 0 0 3 2 6 4 3 4 4 6 4 8 0 2 0 4 -1 4 -1 0 -1
1 -1 2 0 1 -1 2 -2 2 -1 0 -2 0 -2 1 0 1 -1 1 -3 1 -2 0 -3 0 -3 1 0 1 -2 1
-4 1 -2 0 -4 0 -4 1 0 1 -2 1 -4 1 -2 0 -4 0 -4 -1 0 -1 -1 -1 -3 -1 -1 0 -3
-1 -4 -2 -1 -1 -2 -2 -3 -2 -1 0 -2 0 -2 -1 0 -1 -1 -1 -2 -1 -1 0 -2 0 -2 -1
0 -1 -2 -1 -5 -1 -3 0 -5 0 -5 -1 0 -1 -3 -1 -8 -1 -5 0 -8 0 -8 -1 0 -1 -3
-1 -7 -1 -4 0 -7 0 -7 1 0 1 -4 1 -11 1 -7 0 -11 0 -11 1 0 1 -1 1 -3 1 -2 0
-3 0 -3 1 0 1 -1 1 -2 1 -1 0 -2 0 -2 1 0 1 -1 1 -2 1 -1 0 -2 0 -2 1 0 1 -1
1 -3 1 -2 0 -3 0 -3 1 0 1 -1 1 -3 1 -2 0 -3 0 -3 1 0 1 -1 1 -2 1 -1 0 -2 1
-3 2 -1 1 -2 2 -3 2 -1 0 -2 1 -3 2 -1 1 -2 2 -3 2 0 0 -9 8 -18 17 l-17 17
-7 0 c-5 0 -8 0 -8 1 0 1 -1 1 -3 1 -2 0 -3 0 -3 1 0 1 -1 1 -2 1 -1 0 -2 1
-3 2 -1 1 -2 2 -4 2 -2 0 -5 2 -5 4 0 1 0 2 -1 2 -1 0 -1 2 -1 5 0 3 0 5 2 6
1 1 2 2 2 3 0 1 1 2 2 2 1 0 2 0 2 1 0 1 1 1 2 1 1 0 2 0 2 1 0 1 1 1 2 1 0 0
2 1 4 2 2 3 2 4 2 13 0 8 0 11 1 11 1 1 1 1 0 2 0 0 -1 1 -1 3 0 2 0 3 -1 3
-1 0 -1 1 -1 2 0 1 -1 2 -2 3 -2 1 -2 3 -2 6 0 3 0 5 1 5 1 0 1 1 1 2 0 1 0 2
1 2 1 0 1 2 1 4 0 2 0 4 -1 4 -1 0 -1 1 -1 2 0 1 -2 4 -4 4 -1 0 -2 1 -4 3 -2
2 -4 3 -4 3 -1 0 -2 0 -2 1 0 1 -2 1 -4 1 -2 0 -4 0 -4 1 0 1 -4 1 -10 1 -6 0
-10 0 -10 -1z"/>
</g>
</svg>
