<?xml version="1.0" standalone="no"?>
<!DOCTYPE svg PUBLIC "-//W3C//DTD SVG 20010904//EN"
 "http://www.w3.org/TR/2001/REC-SVG-20010904/DTD/svg10.dtd">
<svg version="1.0" xmlns="http://www.w3.org/2000/svg"
 width="640.000000pt" height="480.000000pt" viewBox="0 0 640.000000 480.000000"
 preserveAspectRatio="xMidYMid meet">
<metadata>
Created by potrace 1.14, written by Peter Selinger 2001-2017
</metadata>
<g transform="translate(0.000000,480.000000) scale(1.000000,-1.000000)"
fill="#000000" stroke="none">
<path d="M178 437 c0 -1 -1 -1 -2 -1 -1 0 -6 -4 -6 -6 0 -1 -2 -3 -5 -6 -3 -3
-5 -5 -5 -6 0 -1 -2 -3 -4 -5 -2 -2 -4 -4 -4 -5 0 -1 -7 -8 -8 -8 -1 0 -4 -3
-9 -7 -5 -6 -7 -9 -7 -10 0 -2 0 -3 -1 -3 -1 0 -1 -1 -1 -3 0 -2 0 -3 -1 -3
-1 0 -1 -1 -1 -2 0 -1 -1 -2 -2 -3 -1 -1 -2 -2 -2 -3 0 -1 -1 -2 -2 -3 -1 -1
-2 -2 -2 -3 0 -1 -1 -2 -2 -3 -1 -1 -2 -2 -2 -3 0 -1 0 -2 -1 -2 -1 0 -1 -1
-1 -2 0 -1 0 -2 -1 -2 -1 0 -1 -1 -1 -2 0 -1 0 -2 -1 -2 -1 0 -1 -1 -1 -2 0
-1 0 -2 -1 -2 -1 0 -1 -1 -1 -2 0 -1 0 -2 -1 -2 -1 0 -1 -1 -1 -2 0 -1 0 -2
-1 -2 -1 0 -1 -1 -1 -2 0 0 -2 -3 -4 -5 -2 -2 -4 -4 -4 -5 0 -1 -1 -2 -2 -3
-1 -1 -2 -2 -2 -3 0 -1 0 -2 -1 -2 -1 0 -1 -2 -1 -5 0 -3 0 -5 -1 -5 -1 0 -1
-2 -1 -4 0 -2 0 -4 1 -4 1 0 1 -2 1 -4 0 -2 1 -4 5 -9 3 -3 7 -5 7 -5 1 0 2 0
2 -1 0 -1 1 -1 2 -1 1 0 2 0 2 -1 0 -1 1 -1 2 -1 1 0 2 0 2 -1 0 -1 1 -1 2 -1
1 0 2 0 2 -1 0 -1 1 -1 2 -1 1 0 2 0 2 -1 0 -1 1 -1 2 -1 1 0 2 0 2 -1 0 -1 1
-1 2 -1 1 0 2 0 2 -1 0 -1 1 -1 2 -1 1 0 2 0 2 -1 0 -1 1 -1 2 -1 1 0 2 -1 3
-2 1 -1 2 -2 3 -2 1 0 2 0 2 -1 0 -1 1 -1 3 -1 2 0 3 0 3 -1 0 -1 1 -1 2 -1 1
0 2 0 2 -1 0 -1 1 -1 2 -1 1 0 2 0 2 -1 0 -1 1 -1 2 -1 1 0 2 0 2 -1 0 -1 1
-1 2 -1 1 0 2 0 2 -1 0 -1 1 -1 2 -1 0 0 2 -1 4 -3 2 -2 4 -3 4 -3 1 0 2 -1 2
-2 0 -1 1 -2 2 -3 1 -1 2 -2 2 -3 0 -1 0 -2 1 -2 1 0 1 -1 1 -2 0 -1 0 -2 1
-2 1 0 1 -1 1 -2 0 -1 0 -2 1 -2 1 0 1 -1 1 -2 0 -1 0 -2 1 -2 1 0 1 -1 1 -2
0 -1 0 -2 1 -2 1 0 1 -1 1 -2 0 -1 1 -2 2 -3 1 -1 2 -2 2 -3 0 -1 0 -2 1 -2 1
0 1 -1 1 -3 0 -2 0 -3 1 -3 1 0 1 -3 1 -7 0 -4 0 -7 1 -7 1 0 1 -3 1 -6 0 -3
0 -6 1 -6 1 0 1 -3 1 -7 0 -4 0 -7 1 -7 1 0 1 -5 1 -13 0 -8 0 -13 -1 -13 -1
0 -1 -4 -1 -10 0 -6 0 -10 -1 -10 -1 0 -1 -3 -1 -6 0 -3 0 -6 -1 -6 -1 0 -1
-4 -1 -10 0 -6 0 -10 1 -10 1 0 1 -1 1 -2 0 -2 2 -4 4 -4 1 0 2 -1 2 -1 1 -1
1 -1 2 0 0 1 2 1 6 1 5 0 5 0 9 -3 2 -3 3 -5 3 -8 0 -3 0 -5 1 -5 1 0 1 -2 1
-5 0 -3 0 -5 1 -5 1 0 1 -1 1 -2 0 0 2 -3 3 -5 l4 -3 9 0 c6 0 10 0 10 -1 0
-1 4 -1 11 -1 7 0 11 0 11 -1 0 -1 3 -1 8 -1 5 0 8 0 8 1 0 1 1 1 3 1 2 0 3 0
3 2 0 1 0 2 1 2 1 0 1 1 1 3 0 2 0 3 1 3 1 0 1 2 1 5 0 3 0 5 1 5 1 0 1 2 1 5
0 4 0 4 5 10 3 3 7 5 7 5 1 0 2 0 2 1 0 1 1 1 2 1 1 0 2 0 2 1 0 1 1 1 2 1 1
0 2 0 2 1 0 1 1 1 2 1 1 0 2 1 3 2 1 1 2 2 3 2 1 0 3 2 6 5 3 3 6 5 6 5 1 0 2
0 2 1 0 1 1 1 2 1 1 0 2 1 3 2 1 1 2 2 3 2 1 0 4 3 7 6 3 3 6 6 7 6 1 0 4 3 8
7 4 4 8 7 8 7 1 0 2 1 3 2 1 1 2 2 3 2 1 0 2 1 3 2 1 1 2 2 3 2 1 0 2 1 3 2 1
1 2 2 3 2 1 0 2 0 2 1 0 1 1 1 2 1 1 0 2 0 2 -1 0 -1 1 -1 2 -1 1 0 6 -4 6 -6
0 -1 1 -2 2 -3 1 -1 2 -2 2 -3 0 -1 1 -2 3 -4 2 -2 3 -3 3 -4 0 -1 1 -2 3 -4
2 -2 3 -3 3 -4 0 -1 1 -2 3 -4 2 -2 3 -3 3 -4 0 -1 2 -3 4 -5 2 -2 4 -4 4 -5
0 -1 2 -3 5 -6 3 -3 5 -5 5 -6 0 -1 2 -3 4 -5 2 -2 4 -4 4 -5 0 -1 1 -2 2 -3
1 -1 2 -2 2 -3 0 -1 1 -2 2 -3 1 -1 2 -2 2 -3 0 -1 3 -4 6 -7 3 -3 6 -7 6 -7
0 -1 0 -2 1 -2 1 0 1 -1 1 -2 0 -1 0 -2 1 -2 1 0 1 -1 1 -2 0 -1 0 -2 1 -2 1
0 1 -1 1 -2 0 -1 17 -18 18 -18 1 0 2 0 2 -1 0 -1 1 -1 2 -1 1 0 2 0 2 -1 0
-1 2 -1 5 -1 3 0 5 0 5 -1 0 -1 4 -1 10 -1 6 0 10 0 10 -1 0 -1 3 -1 7 -1 4 0
7 0 7 -1 0 -1 4 -1 11 -1 7 0 11 0 11 -1 0 -1 4 -1 9 -1 8 0 11 1 11 4 0 1 1
2 2 3 1 1 2 2 2 3 0 1 0 2 1 2 1 0 1 1 1 2 0 1 0 2 1 2 1 0 1 1 1 2 0 0 2 3 4
5 2 2 4 4 4 5 0 1 2 3 5 6 3 3 5 6 5 6 0 1 0 2 1 2 1 0 1 3 1 8 0 5 0 8 -1 8
-1 0 -1 1 -1 3 0 2 0 3 1 3 1 0 1 6 1 16 0 10 0 16 -1 16 -1 0 -1 3 -1 6 0 3
0 6 -1 6 -1 0 -1 1 -1 2 0 2 -5 6 -7 6 -2 0 -3 0 -3 -1 0 -1 -1 -1 -2 -1 -1 0
-2 -1 -2 -2 0 -1 0 -2 -1 -2 -1 0 -1 -1 -1 -2 0 -1 0 -2 -1 -2 -1 0 -1 -1 -1
-3 0 -2 0 -3 -1 -3 -1 0 -1 -3 -1 -6 0 -3 0 -6 -1 -6 -1 0 -1 -1 -1 -2 0 -1 0
-2 -1 -2 -1 0 -1 -1 -1 -3 0 -1 -1 -3 -2 -4 -1 -1 -2 -2 -2 -3 0 -2 -3 -4 -4
-4 -1 0 -2 0 -2 -1 0 -1 -3 -1 -7 -1 -4 0 -7 0 -7 -1 0 -1 -1 -1 -3 -1 -2 0
-3 0 -3 -1 0 -1 -1 -1 -2 -1 -1 0 -2 -1 -3 -2 -1 -1 -2 -2 -3 -2 -1 0 -2 0 -2
-1 0 -1 -1 -1 -2 -1 -1 0 -2 -1 -2 -1 -1 -1 -1 -1 -2 0 0 0 -1 1 -2 1 -2 0 -6
4 -6 6 0 1 0 2 -1 2 -1 0 -1 1 -1 2 0 1 0 2 -1 2 -1 0 -1 1 -1 2 0 0 -2 3 -4
5 -2 2 -4 4 -4 5 0 1 -4 6 -10 11 -5 5 -10 10 -10 11 0 1 -4 5 -8 9 -4 4 -8 8
-8 9 0 1 -4 5 -9 10 -5 5 -9 9 -9 10 0 1 -2 3 -4 5 -2 2 -4 4 -4 5 0 1 -1 2
-2 3 -1 1 -2 2 -2 3 0 1 -1 2 -3 4 -2 2 -3 3 -3 4 0 1 -2 3 -4 5 -2 2 -4 4 -4
5 0 1 -1 2 -2 3 -1 1 -2 2 -2 3 0 2 -21 22 -22 22 -1 0 -2 0 -2 1 0 1 -1 1 -2
1 -1 0 -2 0 -2 1 0 1 -3 1 -7 1 -4 0 -7 0 -7 -1 0 -1 -2 -1 -5 -1 -3 0 -5 0
-5 -1 0 -1 -1 -1 -3 -1 -2 0 -3 0 -3 -1 0 -1 -1 -1 -2 -1 -1 0 -2 0 -2 -1 0
-1 -1 -1 -2 -1 -1 0 -2 0 -2 -1 0 -1 -1 -1 -2 -1 0 0 -3 -2 -6 -5 -3 -3 -5 -5
-6 -5 -1 0 -2 -1 -3 -2 -1 -1 -2 -2 -3 -2 -1 0 -2 -1 -3 -2 -1 -1 -2 -2 -3 -2
-1 0 -2 -1 -3 -2 -1 -1 -2 -2 -3 -2 -1 0 -2 0 -2 -1 0 -1 -1 -1 -2 -1 -1 0 -2
-1 -3 -2 -1 -1 -2 -2 -3 -2 0 0 -4 -3 -8 -7 -4 -4 -8 -7 -8 -7 -1 0 -2 0 -2
-1 0 -1 -2 -1 -4 -1 -3 0 -8 4 -8 6 0 1 0 2 -1 2 -1 0 -1 1 -1 2 0 1 0 2 1 2
1 0 1 1 1 3 0 2 0 3 1 3 1 0 1 4 1 11 0 7 0 11 -1 11 -1 0 -1 5 -1 12 0 10 0
11 2 14 3 2 3 2 15 2 8 0 13 0 13 -1 0 -1 3 -1 8 -1 5 0 8 0 8 1 0 1 1 1 2 1
1 0 10 8 10 10 0 1 2 3 5 6 3 3 5 5 5 6 0 1 2 3 4 5 2 2 4 4 4 5 0 1 1 2 3 4
2 2 3 3 3 4 0 1 1 2 3 4 2 2 3 3 3 4 0 1 1 2 2 3 1 1 2 2 2 3 0 1 10 12 12 12
2 0 8 7 8 8 0 1 0 2 1 2 1 0 1 1 1 3 0 2 1 3 1 3 1 1 1 1 0 2 0 0 -1 1 -1 3 0
1 -1 3 -2 5 -3 2 -4 2 -9 2 -6 0 -6 0 -10 -3 -2 -3 -3 -5 -3 -6 0 -2 0 -3 -1
-3 -1 0 -1 -2 -1 -4 0 -2 0 -4 -1 -4 -1 0 -1 -1 -1 -2 0 -1 0 -2 -1 -2 -1 0
-1 -1 -1 -2 0 -1 -26 -28 -28 -28 -1 0 -2 -1 -3 -2 -1 -1 -2 -2 -3 -2 -1 0 -2
-1 -3 -2 -1 -1 -2 -2 -3 -2 -1 0 -2 0 -2 -1 0 -1 -1 -1 -2 -1 -1 0 -2 0 -2 -1
0 -1 -2 -1 -5 -1 -3 0 -5 0 -5 1 0 1 -1 1 -3 1 -2 0 -3 0 -3 1 0 1 -1 1 -3 1
-2 0 -3 0 -3 1 0 1 -1 1 -2 1 -1 0 -2 1 -3 2 -1 1 -2 2 -3 2 -1 0 -2 0 -2 1 0
1 -1 1 -2 1 0 0 -3 2 -5 4 -2 2 -4 4 -5 4 -1 0 -3 2 -5 4 -2 2 -5 4 -5 4 -1 0
-2 0 -2 1 0 1 -1 1 -3 1 -2 0 -3 0 -3 1 0 1 -2 1 -5 1 -3 0 -5 0 -5 1 0 1 -1
1 -2 1 -1 0 -2 0 -2 1 0 1 -1 1 -2 1 0 0 -3 2 -6 4 l-4 5 0 15 c0 10 0 16 1
16 1 0 1 1 1 2 0 1 0 2 1 2 1 0 1 1 1 2 0 1 0 2 1 2 1 0 1 2 1 4 0 2 0 4 1 4
1 0 1 1 1 2 0 1 0 2 1 2 1 0 1 1 1 2 0 1 1 2 2 3 2 1 2 3 2 7 0 3 0 6 -1 6 -1
0 -1 1 -1 2 0 1 0 2 -1 2 -1 0 -1 1 -1 2 0 1 0 2 -1 2 -1 0 -1 1 -1 2 0 1 0 2
-1 2 -1 0 -1 1 -1 3 0 1 -1 3 -2 4 -1 1 -2 2 -2 3 0 2 -5 6 -6 6 -1 0 -2 0 -2
1 0 1 -1 1 -3 1 -2 0 -3 0 -3 1 0 1 -2 1 -4 1 -2 0 -4 0 -4 1 0 1 -2 1 -5 1
-3 0 -5 0 -5 -1 0 -1 -1 -1 -2 -1 0 0 -4 -3 -8 -7 -4 -4 -7 -7 -8 -7 -2 0 -10
-9 -10 -10 0 -1 0 -2 -1 -2 -1 0 -1 -1 -1 -3 0 -2 0 -3 -1 -3 -1 0 -1 -3 -1
-7 0 -6 0 -6 5 -11 3 -3 5 -6 5 -6 0 -1 0 -2 1 -2 1 0 1 -1 1 -2 0 -1 0 -2 1
-2 1 0 1 -1 1 -2 0 -1 0 -2 1 -2 1 0 1 -1 1 -2 0 -1 1 -2 2 -3 1 -1 2 -2 2 -3
0 -1 0 -2 1 -2 2 0 1 -7 0 -9 -3 -2 -10 -1 -12 1 -1 1 -2 2 -3 2 -1 0 -2 0 -2
1 0 1 -1 1 -3 1 -2 0 -3 0 -3 1 0 1 -3 1 -7 1 -4 0 -7 0 -7 -1 0 -1 -2 -1 -4
-1 -2 0 -4 0 -4 -1 0 -1 -1 -1 -3 -1 -2 0 -3 0 -3 -1 0 -1 -1 -1 -2 -1 -1 0
-2 0 -2 -1 0 -1 -1 -1 -2 -1 -1 0 -2 0 -2 -1 0 -1 -1 -1 -3 -1 -2 0 -3 0 -3
-1 0 -1 -3 -1 -7 -1 -4 0 -7 0 -7 1 0 1 -1 1 -2 1 -1 0 -2 1 -2 2 0 1 0 2 -1
2 -1 0 -1 2 -1 5 0 3 0 5 1 5 1 0 1 2 1 5 0 3 0 5 1 5 1 0 1 1 1 3 0 2 0 3 1
3 1 0 1 1 1 3 0 2 0 3 1 3 1 0 1 1 1 2 0 1 0 2 1 2 1 0 1 1 1 3 0 2 0 3 1 3 1
0 1 1 1 2 0 1 1 2 2 3 1 1 2 2 2 3 0 1 0 2 1 2 1 0 1 1 1 2 0 1 0 2 1 2 1 0 1
1 1 2 0 0 2 3 4 6 4 3 6 4 8 4 2 0 4 0 4 1 0 1 1 1 2 1 1 0 2 0 2 1 0 1 1 1 2
1 0 0 3 2 6 4 4 5 4 5 4 10 0 4 0 6 -1 6 -2 0 -1 6 1 7 1 1 2 2 2 3 0 1 2 4 4
4 2 0 6 5 6 6 0 1 0 2 1 2 2 0 1 7 0 9 -2 1 -23 2 -23 0z"/>
</g>
</svg>
