<?xml version="1.0" standalone="no"?>
<!DOCTYPE svg PUBLIC "-//W3C//DTD SVG 20010904//EN"
 "http://www.w3.org/TR/2001/REC-SVG-20010904/DTD/svg10.dtd">
<svg version="1.0" xmlns="http://www.w3.org/2000/svg"
 width="640.000000pt" height="480.000000pt" viewBox="0 0 640.000000 480.000000"
 preserveAspectRatio="xMidYMid meet">
<metadata>
Created by potrace 1.14, written by Peter Selinger 2001-2017
</metadata>
<g transform="translate(0.000000,480.000000) scale(1.000000,-1.000000)"
fill="#000000" stroke="none">
<path d="M361 476 c-2 -2 -4 -4 -6 -4 -3 0 -11 -8 -11 -11 0 -2 0 -3 1 -3 1 0
1 -4 1 -9 0 -5 0 -9 -1 -9 -1 0 -1 -1 -1 -3 0 -2 0 -3 1 -3 1 0 1 -3 1 -6 0
-3 0 -6 1 -6 1 0 1 -1 1 -3 0 -2 0 -3 1 -3 1 0 1 -2 1 -4 0 -2 0 -4 1 -4 1 0
1 -1 1 -2 0 -1 0 -2 1 -2 1 0 1 -3 1 -7 0 -4 0 -7 1 -7 1 0 1 -1 1 -3 0 -2 0
-3 1 -3 1 0 1 -1 1 -3 0 -2 0 -3 1 -3 1 0 1 -2 1 -4 0 -2 0 -4 -1 -4 -1 0 -1
-1 -1 -2 0 -2 -4 -6 -6 -6 -1 0 -2 0 -2 -1 0 -1 -1 -1 -2 -1 -1 0 -2 0 -2 -1
0 -1 -1 -1 -3 -1 -2 0 -3 0 -3 -1 0 -1 -1 -1 -2 -1 -1 0 -2 0 -2 -1 0 -1 -1
-1 -3 -1 -2 0 -3 0 -3 -1 0 -1 -1 -1 -3 -1 -2 0 -3 0 -3 -1 0 -1 -1 -1 -3 -1
-2 0 -3 0 -3 -1 0 -1 -1 -1 -2 -1 -1 0 -2 0 -2 -1 0 -1 -1 -1 -3 -1 -2 0 -3 0
-3 -1 0 -1 -1 -1 -2 -1 -1 0 -2 0 -2 -1 0 -1 -1 -1 -2 -1 -2 0 -6 -4 -6 -6 0
-1 0 -2 -1 -2 -1 0 -1 -2 -1 -4 0 -2 0 -4 -1 -4 -1 0 -1 -2 -1 -5 0 -3 0 -5
-1 -5 -1 0 -1 -2 -1 -5 0 -3 0 -5 -1 -5 -1 0 -1 -2 -1 -4 0 -2 0 -4 -1 -4 -1
0 -1 -3 -1 -7 0 -4 0 -7 -1 -7 -1 0 -1 -4 -1 -9 0 -5 0 -9 -1 -9 -1 0 -1 -3
-1 -6 0 -3 0 -6 -1 -6 -1 0 -1 -3 -1 -6 0 -3 0 -6 -1 -6 -1 0 -1 -3 -1 -7 0
-4 0 -7 -1 -7 -1 0 -1 -4 -1 -10 0 -6 0 -10 -1 -10 -1 0 -1 -5 -1 -12 0 -7 0
-12 -1 -12 -1 0 -1 -2 -1 -5 0 -3 0 -5 -1 -5 -1 0 -1 -2 -1 -4 0 -2 0 -4 -1
-4 -1 0 -1 -1 -1 -3 0 -2 0 -3 -1 -3 -1 0 -1 -1 -1 -3 0 -2 0 -3 -1 -3 -1 0
-1 -13 -1 -37 0 -24 0 -37 1 -37 1 0 1 -3 1 -7 0 -5 0 -7 -2 -8 -1 -1 -2 -2
-2 -3 0 -1 0 -2 -1 -2 -1 0 -1 -3 -1 -6 0 -3 0 -6 1 -6 1 0 1 -1 1 -2 0 -1 0
-2 1 -2 1 0 1 -3 1 -7 0 -5 0 -7 2 -8 1 -1 2 -2 2 -3 0 -2 3 -4 4 -4 1 0 2 0
2 -1 0 -1 1 -1 2 -1 1 0 2 0 2 -1 0 -1 1 -1 3 -1 2 0 3 0 3 1 0 1 1 1 2 1 1 0
2 0 2 1 0 2 7 1 9 0 1 -1 1 -4 1 -8 0 -4 0 -7 1 -7 1 0 1 -1 1 -3 l0 -3 40 0
c39 0 40 0 40 2 0 1 0 2 1 2 1 0 1 2 1 5 0 3 0 5 1 5 1 0 1 1 1 2 0 2 1 2 4 2
l4 0 0 -6 c0 -3 0 -6 1 -6 1 0 1 -1 1 -3 l0 -3 43 0 43 0 0 3 c0 1 2 4 4 7 4
3 6 4 8 4 2 0 4 0 4 1 0 1 3 1 7 1 6 0 6 0 10 3 2 3 3 5 3 7 0 2 0 4 1 4 1 0
1 3 1 8 0 5 0 8 -1 8 -1 0 -1 2 -1 4 0 2 0 4 -1 4 -1 0 -1 2 -1 6 0 5 0 5 3 9
2 1 4 3 5 3 1 0 3 2 5 3 3 4 3 4 3 11 0 5 0 8 -1 8 -1 0 -1 3 -1 7 0 4 0 7 -1
7 -1 0 -1 4 -1 10 0 6 0 10 -1 10 -1 0 -1 4 -1 10 0 6 0 10 -1 10 -1 0 -1 2
-1 5 0 3 0 5 -1 5 -1 0 -1 1 -1 3 0 2 0 3 -1 3 -1 0 -1 1 -1 3 0 2 0 3 -1 3
-1 0 -1 1 -1 3 0 2 0 3 -1 3 -1 0 -1 2 -1 4 0 2 0 4 -1 4 -1 0 -1 2 -1 4 0 2
0 4 -1 4 -1 0 -1 7 -1 18 0 11 0 18 -1 18 -1 0 -1 3 -1 6 0 3 0 6 -1 6 -1 0
-1 1 -1 3 0 2 0 3 -1 3 -1 0 -1 2 -1 4 0 2 0 4 -1 4 -1 0 -1 1 -1 3 0 2 0 3
-1 3 -1 0 -1 1 -1 3 0 2 0 3 -1 3 -1 0 -1 2 -1 4 0 2 0 4 -1 4 -1 0 -1 2 -1 5
0 3 0 5 -1 5 -1 0 -1 3 -1 7 0 4 0 7 -1 7 -1 0 -1 3 -1 7 0 4 0 7 -1 7 -1 0
-1 2 -1 4 0 2 0 4 -1 4 -1 0 -1 1 -1 3 0 2 0 3 -1 3 -1 0 -1 1 -1 3 0 2 0 3
-1 3 -1 0 -1 1 -1 2 0 1 0 2 -1 2 -1 0 -1 1 -1 2 0 2 -7 8 -9 8 -2 0 -3 0 -3
1 0 1 -1 1 -3 1 -2 0 -3 0 -3 1 0 1 -1 1 -3 1 -2 0 -3 0 -3 1 0 1 -1 1 -3 1
-2 0 -3 0 -3 1 0 1 -2 1 -4 1 -2 0 -4 0 -4 1 0 1 -1 1 -2 1 -1 0 -2 0 -2 1 0
1 -1 1 -3 1 -2 0 -3 0 -3 1 0 1 -1 1 -2 1 -1 0 -2 0 -2 1 0 1 -1 1 -3 1 -2 0
-3 0 -3 1 0 1 -2 1 -5 1 -5 0 -9 3 -9 7 0 2 0 3 -1 3 -1 0 -1 2 -1 5 0 3 0 5
1 5 1 0 1 1 1 2 0 1 1 2 2 3 1 1 2 2 2 3 0 1 1 2 2 3 2 1 2 3 2 9 0 5 0 8 1 8
1 0 1 2 1 4 0 2 0 4 1 4 1 0 1 2 1 4 0 2 0 4 1 4 1 0 1 1 1 2 0 1 0 2 1 2 1 0
1 1 1 2 0 1 1 2 2 3 1 1 2 2 2 3 0 1 0 2 1 2 1 0 1 3 1 6 0 3 0 6 -1 6 -1 0
-1 2 -1 4 0 2 0 4 -1 4 -1 0 -1 4 -1 9 l0 9 -32 0 -31 0 -4 -4z"/>
</g>
</svg>
