<?xml version="1.0" standalone="no"?>
<!DOCTYPE svg PUBLIC "-//W3C//DTD SVG 20010904//EN"
 "http://www.w3.org/TR/2001/REC-SVG-20010904/DTD/svg10.dtd">
<svg version="1.0" xmlns="http://www.w3.org/2000/svg"
 width="640.000000pt" height="480.000000pt" viewBox="0 0 640.000000 480.000000"
 preserveAspectRatio="xMidYMid meet">
<metadata>
Created by potrace 1.14, written by Peter Selinger 2001-2017
</metadata>
<g transform="translate(0.000000,480.000000) scale(1.000000,-1.000000)"
fill="#000000" stroke="none">
<path d="M223 404 c-1 -1 -2 -2 -3 -2 -1 0 -4 -2 -4 -4 0 -1 -1 -2 -3 -4 -2
-2 -3 -4 -3 -7 0 -3 0 -5 1 -5 1 0 1 -1 1 -2 0 -1 0 -2 1 -2 1 0 1 -1 1 -2 0
-1 0 -2 1 -2 1 0 1 -1 1 -3 0 -2 0 -3 1 -3 1 0 1 -1 1 -3 0 -2 0 -3 1 -3 1 0
1 -1 1 -3 0 -2 0 -3 1 -3 1 0 1 -1 1 -3 0 -2 0 -3 1 -3 1 0 1 -1 1 -2 0 -1 0
-2 1 -2 1 0 1 -2 1 -6 0 -5 0 -5 -3 -9 -3 -2 -5 -3 -7 -3 -2 0 -4 0 -4 -1 0
-1 -1 -1 -3 -1 -1 0 -3 -1 -4 -2 -1 -1 -3 -2 -4 -2 -2 0 -3 0 -3 -1 0 -1 -2
-1 -4 -1 -2 0 -4 0 -4 -1 0 -1 -1 -1 -2 -1 -2 0 -8 -7 -8 -9 0 -2 0 -3 -1 -3
-1 0 -1 -1 -1 -3 0 -2 0 -3 -1 -3 -1 0 -1 -1 -1 -3 0 -2 0 -3 -1 -3 -1 0 -1
-2 -1 -4 0 -2 0 -4 -1 -4 -1 0 -1 -2 -1 -4 0 -2 0 -4 -1 -4 -1 0 -1 -1 -1 -3
0 -2 0 -3 -1 -3 -1 0 -1 -1 -1 -3 0 -2 0 -3 -1 -3 -1 0 -1 -1 -1 -2 0 -1 0 -2
-1 -2 -1 0 -1 -1 -1 -3 0 -2 0 -3 -1 -3 -1 0 -1 -1 -1 -2 0 -1 0 -2 -1 -2 -1
0 -1 -1 -1 -3 0 -2 0 -3 -1 -3 -1 0 -1 -1 -1 -2 0 -1 0 -2 -1 -2 -1 0 -1 -1
-1 -2 0 -1 0 -2 -1 -2 -1 0 -1 -1 -1 -2 0 -1 0 -2 -1 -2 -1 0 -1 -1 -1 -2 0
-1 0 -2 -1 -2 -1 0 -1 -1 -1 -2 0 -1 -1 -2 -2 -3 -1 -1 -2 -2 -2 -3 0 -1 0 -2
-1 -2 -1 0 -1 -1 -1 -2 0 -1 0 -2 -1 -2 -1 0 -1 -2 -1 -5 0 -3 0 -5 -1 -5 -1
0 -1 -1 -1 -3 0 -2 0 -3 -1 -3 -1 0 -1 -1 -1 -3 0 -1 -1 -3 -2 -4 -1 -1 -2 -2
-2 -3 0 -1 0 -2 -1 -2 -1 0 -1 -1 -1 -3 0 -2 0 -3 -1 -3 -1 0 -1 -1 -1 -2 0
-1 0 -2 -1 -2 -1 0 -1 -1 -1 -2 0 0 -4 -5 -9 -10 -5 -5 -9 -10 -9 -10 0 -1 -1
-2 -2 -3 -1 -1 -2 -2 -2 -3 0 -1 -1 -2 -1 -2 -1 -1 -1 -1 0 -2 0 0 1 -1 1 -3
0 -4 2 -5 9 -5 4 0 7 0 7 1 0 1 1 1 2 1 2 0 10 9 10 11 0 2 0 3 1 3 1 0 1 1 1
2 0 1 0 2 1 2 1 0 1 1 1 3 0 2 0 3 1 3 1 0 1 1 1 2 0 1 0 2 1 2 1 0 1 1 1 2 0
0 1 2 3 4 2 2 3 3 3 4 0 1 1 2 2 3 1 1 2 2 2 3 0 1 1 2 2 3 1 1 2 2 2 3 0 1 1
2 2 2 0 0 3 2 5 4 2 2 5 4 5 4 1 0 2 1 2 2 0 1 0 2 1 2 1 0 1 1 1 2 0 1 1 2 2
3 1 1 2 2 2 3 0 1 0 2 1 2 1 0 1 1 1 2 0 1 0 2 1 2 1 0 1 1 1 2 0 1 0 2 1 2 1
0 1 1 1 2 0 1 0 2 1 2 1 0 1 1 1 2 0 2 3 4 6 4 l4 0 0 -5 c0 -3 0 -5 -1 -5 -1
0 -1 -1 -1 -3 0 -2 0 -3 -1 -3 -1 0 -1 -2 -1 -5 0 -3 0 -5 -1 -5 -1 0 -1 -2
-1 -5 0 -3 0 -5 -1 -5 -1 0 -1 -4 -1 -9 0 -5 0 -9 -1 -9 -1 0 -1 -12 0 -12 1
-1 1 -1 0 -2 -1 0 -1 -2 -1 -5 0 -3 0 -5 -1 -5 -1 0 -1 -2 -1 -5 0 -3 0 -5 1
-5 1 0 1 -1 1 -3 0 -2 0 -3 1 -3 1 0 1 -2 1 -5 0 -3 0 -5 1 -5 1 0 1 -10 0
-10 -1 -1 -1 -1 0 -2 1 0 1 -3 1 -11 0 -7 0 -11 1 -11 1 0 1 -2 1 -5 0 -3 0
-5 1 -5 1 0 1 -1 1 -3 0 -2 0 -3 1 -3 1 0 1 -2 1 -4 0 -2 0 -4 1 -4 1 0 1 -1
1 -2 0 -2 4 -6 6 -6 1 0 2 0 2 -1 0 -1 3 -1 8 -1 5 0 8 0 8 1 0 1 2 1 4 1 5 0
10 5 10 10 0 2 0 4 1 4 1 0 1 3 1 7 0 4 0 7 1 7 1 0 1 1 1 2 0 1 0 2 1 2 1 0
1 1 1 2 0 1 1 2 3 2 3 0 5 -2 5 -5 0 -2 0 -3 1 -3 1 0 1 -1 1 -3 0 -2 0 -3 1
-3 1 0 1 -1 1 -2 0 -1 0 -2 1 -2 1 0 1 -1 1 -2 0 -1 0 -2 1 -2 1 0 1 -1 1 -2
0 0 2 -3 3 -5 4 -3 4 -3 12 -3 l8 0 4 -4 c2 -2 5 -4 5 -4 1 0 2 0 2 -1 0 -1 1
-1 3 -1 2 0 7 4 7 6 0 1 1 2 2 3 1 1 2 3 2 4 0 2 0 3 1 3 1 0 1 1 1 2 0 1 0 2
-1 2 -1 0 -1 3 -1 7 0 4 0 7 -1 7 -1 0 -1 3 -1 6 0 3 0 6 -1 6 -1 0 -1 3 -1 6
0 3 0 6 -1 6 -1 0 -1 2 -1 5 0 3 0 5 -1 5 -1 0 -1 2 -1 5 0 3 0 5 -1 5 -1 0
-1 3 -1 7 0 4 0 7 -1 7 -1 0 -1 2 -1 4 0 2 0 4 -1 4 -1 0 -1 6 -1 17 0 11 0
17 -1 17 -1 0 -1 2 -1 4 0 2 0 4 -1 4 -1 0 -1 2 -1 5 0 3 0 5 -1 5 -1 0 -1 4
-1 9 0 5 0 9 -1 9 -1 0 -1 2 -1 5 0 3 0 5 1 5 1 0 1 1 1 3 0 2 0 3 1 3 1 0 1
1 1 2 0 1 0 2 1 2 1 0 1 1 1 2 0 2 3 4 6 4 3 0 4 -1 10 -7 4 -4 8 -7 8 -7 1 0
2 0 2 -1 0 -1 1 -1 2 -1 1 0 2 0 2 -1 0 -1 1 -1 2 -1 1 0 2 0 2 -1 0 -1 2 -1
4 -1 2 0 4 0 4 -1 0 -1 1 -1 2 -1 1 0 2 0 2 1 0 1 2 1 4 1 2 0 4 0 4 1 0 1 1
1 2 1 2 0 10 8 10 10 0 1 0 2 1 2 1 0 1 1 1 2 0 1 1 2 2 3 1 1 2 2 2 3 0 0 3
4 7 8 4 4 7 8 7 8 0 1 1 2 2 2 1 0 2 1 3 2 1 1 2 2 3 2 1 0 2 0 2 1 0 1 1 1 2
1 0 0 3 2 5 3 1 2 3 5 3 5 0 1 0 2 1 2 1 0 1 1 1 2 0 1 0 2 1 2 2 0 1 7 -1 10
-3 2 -10 3 -10 1 0 -1 -2 -1 -4 -1 -2 0 -4 0 -4 -1 0 -1 -1 -1 -2 -1 -1 0 -2
-1 -2 -2 0 -1 -1 -2 -2 -3 -1 -1 -2 -2 -2 -3 0 -1 -1 -2 -2 -3 -1 -1 -2 -2 -2
-3 0 0 -5 -6 -10 -12 -8 -7 -12 -10 -13 -10 -2 0 -3 0 -3 -1 0 -1 -2 -1 -5 -1
-3 0 -5 0 -5 1 0 1 -1 1 -2 1 0 0 -3 2 -5 3 -1 2 -3 5 -3 5 0 1 0 2 -1 2 -1 0
-1 1 -1 3 0 2 0 3 -1 3 -1 0 -1 1 -1 2 0 1 0 2 -1 2 -1 0 -1 1 -1 2 0 1 0 2
-1 2 -1 0 -1 1 -1 2 0 1 -1 2 -2 3 -1 1 -2 2 -2 3 0 1 -1 2 -2 3 -1 1 -2 2 -2
3 0 2 -11 12 -13 12 -2 0 -3 0 -3 1 0 1 -2 1 -4 1 -2 0 -4 0 -4 1 0 1 -2 1 -4
1 -2 0 -4 0 -4 1 0 1 -1 1 -2 1 -1 0 -2 0 -2 1 0 1 -1 1 -2 1 -2 0 -8 6 -8 8
0 1 0 2 -1 2 -1 0 -1 2 -1 4 0 2 0 4 1 4 1 0 1 2 1 4 0 2 0 4 1 4 1 0 1 1 1 2
0 1 1 2 2 3 1 1 2 2 2 3 0 1 1 2 2 3 1 1 2 3 2 4 0 2 0 3 1 3 1 0 1 1 1 3 0 2
0 3 1 3 1 0 1 1 1 2 0 1 0 2 1 2 1 0 1 2 1 5 0 3 0 5 -1 5 -1 0 -1 1 -1 2 0 1
-4 6 -6 6 -1 0 -3 2 -6 5 -3 3 -6 5 -6 5 -1 0 -2 0 -2 1 0 1 -5 1 -14 1 -12 0
-14 0 -15 -2z"/>
</g>
</svg>
