<?xml version="1.0" standalone="no"?>
<!DOCTYPE svg PUBLIC "-//W3C//DTD SVG 20010904//EN"
 "http://www.w3.org/TR/2001/REC-SVG-20010904/DTD/svg10.dtd">
<svg version="1.0" xmlns="http://www.w3.org/2000/svg"
 width="640.000000pt" height="480.000000pt" viewBox="0 0 640.000000 480.000000"
 preserveAspectRatio="xMidYMid meet">
<metadata>
Created by potrace 1.14, written by Peter Selinger 2001-2017
</metadata>
<g transform="translate(0.000000,480.000000) scale(1.000000,-1.000000)"
fill="#000000" stroke="none">
<path d="M273 300 c-2 -1 -3 -4 -3 -4 0 -1 0 -2 -1 -2 -1 0 -1 -1 -1 -3 0 -2
0 -3 -1 -3 -1 0 -1 -3 -1 -7 0 -6 0 -6 -5 -11 -3 -3 -5 -6 -5 -6 0 -1 0 -2 -1
-2 -1 0 -1 -1 -1 -2 0 -1 0 -2 -1 -2 -1 0 -1 -2 -1 -4 0 -2 0 -4 -1 -4 -1 0
-1 -2 -1 -4 0 -2 0 -4 -1 -4 -1 0 -1 -1 -1 -2 0 -2 -9 -11 -10 -9 0 1 -4 1 -4
0 0 -1 -1 -1 -3 -1 -1 0 -4 -2 -8 -5 -3 -3 -5 -6 -5 -7 0 -1 -1 -2 -3 -4 -2
-2 -3 -3 -3 -4 0 -1 -1 -2 -3 -4 -2 -2 -3 -4 -3 -4 0 -1 0 -2 -1 -2 -1 0 -1
-1 -1 -2 0 -1 0 -2 -1 -2 -1 0 -1 -1 -1 -2 0 -1 0 -2 -1 -2 -1 0 -1 -1 -1 -2
0 -1 0 -2 -1 -2 -1 0 -1 -1 -1 -2 0 -1 0 -2 -1 -2 -1 0 -1 -1 -1 -2 0 -1 0 -2
-1 -2 -1 0 -1 -1 -1 -2 0 -1 0 -2 -1 -2 -1 0 -1 -1 -1 -2 0 -1 0 -2 -1 -2 -1
0 -1 -1 -1 -2 0 -1 0 -2 -1 -2 -1 0 -1 -1 -1 -2 0 -1 0 -2 -1 -2 -1 0 -1 -1
-1 -2 0 -1 0 -2 -1 -2 -1 0 -1 -2 -1 -4 0 -2 0 -4 -1 -4 -1 0 -1 -3 -1 -7 0
-4 0 -7 -1 -7 -1 0 -1 -4 -1 -11 0 -9 0 -11 2 -12 1 -1 2 -2 2 -3 0 -1 0 -2 1
-2 1 0 1 -1 1 -3 0 -2 4 -7 6 -7 1 0 2 0 2 -1 0 -1 1 -1 3 -1 6 0 10 -10 5
-16 -2 -1 -3 -2 -4 -2 -2 0 -5 -3 -3 -4 1 0 1 -10 0 -10 -1 0 -1 -2 -1 -5 0
-3 0 -5 1 -5 1 0 1 -1 1 -3 0 -1 1 -3 2 -4 1 -1 2 -2 2 -4 0 -2 2 -5 4 -5 1 0
2 0 2 -1 0 -1 1 -1 2 -1 1 0 2 0 2 -1 0 -1 1 -1 3 -1 3 0 9 -6 9 -9 0 -2 0 -3
1 -3 1 0 1 -5 1 -12 l0 -12 53 0 53 0 0 6 c0 3 0 6 1 6 1 0 1 4 1 11 0 7 0 11
1 11 1 0 1 3 1 7 0 4 0 7 1 7 1 0 1 1 1 2 0 1 6 8 8 8 2 0 6 5 6 6 0 1 0 2 1
2 1 0 1 1 1 2 0 1 0 2 -1 2 -1 0 -1 3 -1 8 0 5 0 8 1 8 1 0 1 1 1 2 0 1 0 2 1
2 1 0 1 1 1 2 0 1 1 2 2 3 1 1 2 3 2 4 0 2 0 3 1 3 1 0 1 1 1 2 0 1 0 2 1 2 1
0 1 1 1 3 0 2 0 3 1 3 1 0 1 1 1 2 0 1 0 2 1 2 1 0 1 1 1 3 0 2 0 3 1 3 1 0 1
2 1 5 0 3 0 5 1 5 1 0 1 2 1 5 0 3 0 5 1 5 1 0 1 3 1 6 0 3 0 6 1 6 1 0 1 2 1
5 0 3 0 5 1 5 1 0 1 2 1 4 0 2 0 4 1 4 1 0 1 1 1 2 0 1 0 2 1 2 1 0 1 1 1 2 0
0 2 3 5 6 3 3 5 6 5 6 0 1 0 2 1 2 1 0 1 1 1 2 0 1 0 2 -1 2 -1 0 -1 0 -1 -1
0 -1 -1 -1 -2 -1 -1 0 -2 0 -2 -1 0 -1 -1 -1 -3 -1 -2 0 -3 0 -3 -1 0 -1 -2
-1 -4 -1 -2 0 -4 0 -4 1 0 1 -3 1 -6 1 -3 0 -6 0 -6 1 0 1 -1 1 -2 1 -1 0 -2
1 -3 2 -1 1 -2 2 -3 2 0 0 -7 6 -14 13 -7 7 -14 13 -14 13 -1 0 -2 0 -2 1 0 1
-1 1 -2 1 0 0 -3 2 -6 4 l-4 5 0 18 c0 12 0 19 -1 19 -1 0 -1 3 -1 8 0 5 0 8
-1 8 -1 0 -1 1 -1 3 0 2 -6 9 -8 9 -1 0 -2 0 -2 1 0 1 -1 1 -3 1 -2 0 -3 0 -3
1 0 1 -3 1 -7 1 -6 0 -7 0 -10 -4z m-15 -85 c0 -1 1 -1 2 -1 2 0 2 -1 2 -4 l0
-4 -7 0 c-7 0 -9 1 -9 5 0 3 2 5 7 5 3 0 5 0 5 -1z"/>
<path d="M410 241 c0 -1 0 -1 1 -1 1 0 1 -2 1 -4 0 -2 0 -4 1 -4 1 0 1 2 1 5
0 4 0 5 -2 5 -1 0 -2 0 -2 -1z"/>
<path d="M394 200 c0 -1 0 -2 1 -2 1 0 1 1 1 2 0 1 0 2 -1 2 -1 0 -1 -1 -1 -2z"/>
</g>
</svg>
