<?xml version="1.0" standalone="no"?>
<!DOCTYPE svg PUBLIC "-//W3C//DTD SVG 20010904//EN"
 "http://www.w3.org/TR/2001/REC-SVG-20010904/DTD/svg10.dtd">
<svg version="1.0" xmlns="http://www.w3.org/2000/svg"
 width="640.000000pt" height="480.000000pt" viewBox="0 0 640.000000 480.000000"
 preserveAspectRatio="xMidYMid meet">
<metadata>
Created by potrace 1.14, written by Peter Selinger 2001-2017
</metadata>
<g transform="translate(0.000000,480.000000) scale(1.000000,-1.000000)"
fill="#000000" stroke="none">
<path d="M164 375 c0 -1 -1 -1 -2 -1 -2 0 -10 -8 -10 -10 0 -1 -1 -2 -2 -2 -2
0 -6 -4 -6 -6 0 -1 0 -2 -1 -2 -1 0 -1 -1 -1 -2 0 -1 0 -2 -1 -2 -1 0 -1 -1
-1 -3 0 -2 0 -3 -1 -3 -1 0 -1 -2 -1 -4 0 -2 0 -4 -1 -4 -1 0 -1 -2 -1 -4 0
-2 0 -4 1 -4 1 0 1 -1 1 -2 0 -1 0 -2 -1 -2 -1 0 -1 -4 -1 -10 0 -6 0 -10 -1
-10 -1 0 -1 -6 -1 -15 0 -9 0 -15 -1 -15 -1 0 -1 -4 -1 -10 0 -6 0 -10 1 -10
1 0 1 -3 1 -8 0 -5 0 -8 1 -8 1 0 1 -3 1 -6 0 -3 0 -6 1 -6 1 0 1 -1 1 -2 0 0
3 -4 7 -8 l7 -7 0 -9 c0 -9 0 -9 3 -13 l4 -3 15 0 c10 0 16 0 16 -1 0 -1 5 -1
13 -1 8 0 13 0 13 -1 0 -1 1 -1 2 -1 1 0 2 0 2 -1 0 -1 1 -1 2 -1 1 0 2 -1 2
-2 0 -1 1 -2 2 -3 1 -1 2 -3 2 -5 0 -2 0 -4 1 -4 1 0 1 -7 1 -19 0 -12 0 -19
-1 -19 -1 0 -1 -5 -1 -14 0 -9 0 -14 -1 -14 -1 0 -1 -2 -1 -5 0 -3 0 -5 -1 -5
-1 0 -1 -2 -1 -4 0 -2 0 -4 -1 -4 -1 0 -1 -2 -1 -4 0 -2 0 -4 -1 -4 -1 0 -1
-2 -1 -5 0 -3 0 -5 -1 -5 -1 0 -1 -1 -1 -2 0 0 -2 -3 -4 -5 -2 -2 -4 -4 -4 -5
0 -1 -2 -3 -4 -5 -2 -2 -4 -4 -4 -5 0 -1 -1 -2 -3 -4 -2 -2 -3 -3 -3 -4 0 -1
-1 -2 -3 -4 -2 -2 -3 -3 -3 -4 0 -1 -1 -2 -3 -4 -2 -2 -3 -4 -3 -4 0 -1 0 -2
-1 -2 -1 0 -1 -1 -1 -2 0 -1 0 -2 -1 -2 -1 0 -1 -1 -1 -2 0 -1 -1 -2 -1 -2 -1
-1 -1 -1 0 -2 0 0 1 -1 1 -2 0 -2 2 -2 110 -2 108 0 110 0 110 2 0 1 1 2 1 2
1 1 1 1 0 2 -1 0 -1 3 -1 7 0 4 0 7 -1 7 -1 0 -1 1 -1 3 0 2 0 3 -1 3 -1 0 -1
2 -1 4 0 2 0 4 -1 4 -1 0 -1 4 -1 9 0 5 0 9 -1 9 -1 0 -1 1 -1 3 0 2 0 3 -1 3
-1 0 -1 1 -1 2 0 1 0 2 -1 2 -1 0 -1 1 -1 3 0 2 0 3 -1 3 -1 0 -1 1 -1 3 0 2
0 3 -1 3 -1 0 -1 2 -1 4 0 2 0 4 -1 4 -1 0 -1 2 -1 5 0 3 0 5 -1 5 -1 0 -1 2
-1 6 0 5 0 5 3 9 4 3 4 3 9 3 4 0 6 0 6 -1 0 -1 2 -1 4 -1 2 0 4 0 4 -1 0 -1
3 -1 6 -1 4 0 6 0 7 2 1 1 2 2 3 2 1 0 2 1 2 2 0 1 0 2 1 2 1 0 1 1 1 2 0 1 0
2 1 2 1 0 1 1 1 2 0 1 0 2 1 2 1 0 1 1 1 2 0 1 1 2 2 3 1 1 2 2 2 3 0 1 0 2 1
2 1 0 1 1 1 2 0 1 0 2 1 2 1 0 1 1 1 2 0 1 0 2 1 2 1 0 1 1 1 3 0 2 0 3 1 3 1
0 1 2 1 4 0 2 0 4 1 4 1 0 1 1 1 3 0 2 0 3 1 3 1 0 1 1 1 2 0 1 0 2 1 2 1 0 1
1 1 3 0 2 0 3 1 3 1 0 1 2 1 4 0 2 0 4 1 4 1 0 1 2 1 5 0 3 0 5 1 5 1 0 1 3 1
6 0 3 0 6 1 6 1 0 1 3 1 7 0 4 0 7 -1 7 -1 0 -1 1 -1 3 0 2 0 3 -1 3 -1 0 -1
2 -1 4 0 2 -1 4 -2 5 -1 1 -2 2 -2 3 0 1 0 2 -1 2 -1 0 -1 1 -1 2 0 1 0 2 -1
2 -1 0 -1 1 -1 3 0 6 -10 10 -16 5 -1 -2 -2 -4 -2 -5 0 -2 0 -3 -1 -3 -1 0 -1
-3 -1 -6 0 -3 0 -6 -1 -6 -1 0 -1 -1 -1 -2 0 -1 -1 -2 -2 -3 -3 -2 -3 -6 0 -8
1 -1 2 -2 2 -3 0 -1 1 -2 2 -3 1 -1 2 -2 2 -3 0 -1 1 -2 2 -3 2 -1 2 -3 2 -6
0 -3 0 -5 -1 -5 -1 0 -1 -1 -1 -2 0 -1 0 -2 -1 -2 -1 0 -1 -1 -1 -2 0 -1 0 -2
-1 -2 -1 0 -1 -1 -1 -3 0 -2 0 -3 -1 -3 -1 0 -1 -1 -1 -2 0 -1 -1 -2 -2 -3 -1
-1 -2 -2 -2 -3 0 -2 -1 -2 -5 -2 -4 0 -5 0 -5 2 0 1 0 2 -1 2 -1 0 -1 1 -1 3
0 2 0 3 -1 3 -1 0 -1 1 -1 2 0 1 0 2 -1 2 -1 0 -1 1 -1 2 0 1 0 2 -1 2 -1 0
-1 1 -1 2 0 1 0 2 -1 2 -1 0 -1 1 -1 2 0 1 0 2 -1 2 -1 0 -1 1 -1 2 0 1 0 2
-1 2 -1 0 -1 1 -1 2 0 1 0 2 -1 2 -1 0 -1 1 -1 2 0 1 0 2 -1 2 -1 0 -1 1 -1 2
0 1 0 2 -1 2 -1 0 -1 1 -1 2 0 1 0 2 -1 2 -1 0 -1 1 -1 2 0 2 -10 12 -12 12
-1 0 -2 0 -2 1 0 1 -1 1 -2 1 -1 0 -2 0 -2 1 0 1 -2 1 -4 1 -2 0 -4 0 -4 1 0
1 -1 1 -2 1 -1 0 -2 0 -2 1 0 1 -1 1 -3 1 -2 0 -3 0 -3 1 0 1 -1 1 -2 1 -1 0
-2 0 -2 1 0 1 -1 1 -2 1 -1 0 -2 0 -2 1 0 1 -1 1 -2 1 -2 0 -6 4 -6 6 0 1 0 2
-1 2 -1 0 -1 1 -1 2 0 1 0 2 1 2 1 0 1 1 1 3 0 2 0 3 1 3 1 0 1 1 1 3 0 2 0 3
1 3 1 0 1 1 1 2 0 1 0 2 -1 2 -1 0 -1 2 -1 5 0 3 0 5 -1 5 -1 0 -1 4 -1 9 0 5
0 9 1 9 1 0 1 2 1 4 0 2 0 4 1 4 1 0 1 1 1 3 0 2 0 3 -1 3 -1 0 -1 1 -1 2 0 1
-1 2 -2 3 -1 1 -2 2 -2 3 0 2 -13 14 -14 14 -1 0 -2 0 -2 1 0 1 -3 1 -6 1 -3
0 -6 0 -6 -1 0 -1 -1 -1 -3 -1 -2 0 -3 0 -3 -1 0 -1 -1 -1 -2 -1 -1 0 -2 0 -2
-1 0 -1 -1 -1 -2 -1 -1 0 -2 0 -2 -1 0 -1 -1 -1 -2 -1 -1 0 -2 0 -2 -1 0 -1
-1 -1 -2 -1 -1 0 -2 0 -2 -1 0 -1 -1 -1 -2 -1 -1 0 -2 -1 -3 -2 -1 -1 -2 -2
-3 -2 -1 0 -2 -1 -2 -2 0 -1 0 -2 -1 -2 -1 0 -1 -1 -1 -2 0 -1 0 -2 -1 -2 -1
0 -1 -6 -1 -15 0 -11 0 -15 -1 -15 -1 -1 -1 -1 0 -2 0 0 1 -1 1 -2 0 -1 0 -2
1 -2 1 0 1 -1 1 -2 0 0 2 -3 4 -5 3 -3 4 -5 4 -6 0 -2 0 -3 1 -3 1 0 1 -1 1
-2 0 -1 0 -2 1 -2 1 0 1 -1 1 -3 0 -2 0 -3 -1 -3 -1 0 -1 -1 -1 -2 0 -2 -2 -4
-4 -4 -1 0 -2 0 -2 -1 0 -1 -4 -1 -9 -1 -5 0 -9 0 -9 1 0 1 -2 1 -5 1 -3 0 -5
0 -5 1 0 1 -2 1 -4 1 -2 0 -4 0 -4 -1 0 -1 -3 -1 -7 -1 -4 0 -7 0 -7 -1 0 -1
-7 -1 -19 -1 -12 0 -19 0 -19 1 0 1 -2 1 -5 1 -3 0 -5 1 -8 3 -1 2 -3 5 -3 5
0 1 0 2 -1 2 -1 0 -1 2 -1 5 0 3 0 5 -1 5 -1 0 -1 2 -1 5 0 3 0 5 -1 5 -1 0
-1 3 -1 8 0 5 0 8 -1 8 -1 0 -1 7 -1 19 l0 18 8 8 c4 4 8 8 8 9 0 1 -1 2 -3 4
-2 2 -3 4 -3 4 0 1 0 2 -1 2 -1 0 -1 1 -1 3 0 2 0 3 1 3 1 0 1 2 1 4 0 2 0 4
1 4 1 0 1 1 1 2 0 1 0 2 -1 2 -1 0 -1 1 -1 2 0 0 -1 2 -1 3 -2 1 -7 2 -7 0z"/>
</g>
</svg>
