<?xml version="1.0" standalone="no"?>
<!DOCTYPE svg PUBLIC "-//W3C//DTD SVG 20010904//EN"
 "http://www.w3.org/TR/2001/REC-SVG-20010904/DTD/svg10.dtd">
<svg version="1.0" xmlns="http://www.w3.org/2000/svg"
 width="640.000000pt" height="480.000000pt" viewBox="0 0 640.000000 480.000000"
 preserveAspectRatio="xMidYMid meet">
<metadata>
Created by potrace 1.14, written by Peter Selinger 2001-2017
</metadata>
<g transform="translate(0.000000,480.000000) scale(1.000000,-1.000000)"
fill="#000000" stroke="none">
<path d="M333 418 c-1 -1 -2 -2 -3 -2 -1 0 -2 -1 -2 -2 0 0 -1 -2 -3 -4 -2 -2
-3 -4 -3 -4 0 -1 0 -2 -1 -2 -1 0 -1 -1 -1 -3 0 -2 0 -3 1 -3 1 0 1 -1 1 -2 0
-1 0 -2 1 -2 1 0 1 -1 1 -2 0 -1 0 -2 1 -2 1 0 1 -1 1 -3 0 -2 0 -3 1 -3 1 0
1 -1 1 -2 0 -1 0 -2 -1 -2 -1 0 -1 -1 -1 -3 0 -2 0 -3 -1 -3 -1 0 -1 -1 -1 -2
0 -1 -1 -2 -2 -3 -1 -1 -2 -2 -2 -3 0 -1 -1 -2 -2 -3 -1 -1 -2 -2 -2 -3 0 -1
0 -2 -1 -2 -1 0 -1 -1 -1 -2 0 -1 0 -2 -1 -2 -1 0 -1 -1 -1 -2 0 -1 0 -2 -1
-2 -1 0 -1 -1 -1 -2 0 -1 0 -2 -1 -2 -1 0 -1 -1 -1 -2 0 -1 0 -2 -1 -2 -1 0
-1 -1 -1 -2 0 -1 0 -2 -1 -2 -1 0 -1 -1 -1 -2 0 -1 0 -2 -1 -2 -1 0 -1 -1 -1
-2 0 -1 -1 -2 -2 -3 -1 -1 -2 -2 -2 -3 0 -1 0 -2 -1 -2 -1 0 -1 -1 -1 -2 0 -1
0 -2 -1 -2 -1 0 -1 -1 -1 -3 0 -2 0 -3 -1 -3 -1 0 -1 -1 -1 -2 0 -2 -3 -4 -6
-4 -3 0 -6 2 -6 4 0 2 -9 10 -11 10 -2 0 -3 0 -3 1 0 1 -3 1 -6 1 -4 0 -6 0
-6 1 -1 1 -1 1 -2 0 0 0 -1 -1 -3 -1 -2 0 -3 0 -3 -1 0 -1 -1 -1 -2 -1 -1 0
-2 0 -2 -1 0 -1 -1 -1 -3 -1 -2 0 -3 0 -3 -1 0 -1 -1 -1 -2 -1 0 0 -3 -2 -6
-4 -2 -3 -4 -6 -4 -6 0 -1 0 -2 -1 -2 -1 0 -1 -1 -1 -2 0 -1 -1 -2 -2 -3 -1
-1 -2 -2 -2 -3 0 -1 0 -2 -1 -2 -1 0 -1 -1 -1 -2 0 -1 0 -2 -1 -2 -1 0 -1 -1
-1 -2 0 0 -2 -3 -5 -6 -3 -3 -5 -5 -5 -6 0 -1 -1 -2 -2 -3 -1 -1 -2 -2 -2 -3
0 -2 -7 -8 -8 -8 -1 0 -2 0 -2 -1 0 -1 -3 -1 -8 -1 -5 0 -8 0 -8 1 0 1 -6 1
-16 1 -10 0 -16 0 -16 1 0 1 -3 1 -6 1 -3 0 -6 0 -6 1 0 1 -2 1 -4 1 -2 0 -4
0 -4 1 0 1 -3 1 -6 1 -3 0 -6 0 -6 1 0 1 -3 1 -6 1 -4 0 -6 0 -6 1 -1 1 -1 1
-2 0 0 -1 -6 -1 -6 0 0 1 -1 1 -3 1 -2 0 -3 0 -3 1 0 1 -1 1 -2 1 -1 0 -2 0
-2 1 0 1 -1 1 -2 1 -1 0 -2 0 -2 1 0 1 -3 1 -7 1 -4 0 -7 0 -7 1 0 1 -2 1 -4
1 -2 0 -4 0 -4 -1 0 -1 -1 -1 -3 -1 -3 0 -9 -6 -9 -9 0 -2 0 -3 -1 -3 -1 0 -1
-2 -1 -5 0 -3 1 -5 3 -8 2 -1 5 -3 5 -3 1 0 2 0 2 -1 0 -1 1 -1 3 -1 2 0 3 0
3 -1 0 -1 2 -1 5 -1 3 0 5 0 5 -1 0 -1 1 -1 2 -1 1 0 2 0 2 -1 0 -1 1 -1 2 -1
1 0 2 0 2 -1 0 -1 1 -1 2 -1 1 0 2 -1 3 -2 1 -2 3 -2 6 -2 3 0 5 0 5 -1 0 -1
1 -1 3 -1 2 0 3 0 3 -1 0 -1 1 -1 2 -1 0 0 2 -1 4 -3 2 -2 4 -3 4 -3 1 0 2 0
2 -1 0 -1 1 -1 2 -1 1 0 2 0 2 -1 0 -1 1 -1 2 -1 1 0 2 0 2 -1 0 -1 1 -1 2 -1
1 0 2 0 2 -1 0 -1 1 -1 2 -1 0 0 3 -2 6 -4 4 -5 4 -5 4 -11 0 -4 0 -7 -1 -7
-1 0 -1 -1 -1 -3 0 -2 0 -3 -1 -3 -1 0 -1 -2 -1 -5 0 -3 0 -5 -1 -5 -1 0 -1
-3 -1 -6 0 -3 0 -6 -1 -6 -1 0 -1 -3 -1 -6 0 -3 0 -6 -1 -6 -1 0 -1 -2 -1 -4
0 -2 0 -4 -1 -4 -1 0 -1 -2 -1 -5 0 -3 0 -5 -1 -5 -1 0 -1 -4 -1 -9 0 -5 0 -9
-1 -9 -1 0 -1 -4 -1 -9 0 -5 0 -9 -1 -9 -1 0 -1 -3 -1 -8 0 -5 0 -8 -1 -8 -1
0 -1 -1 -1 -3 0 -2 0 -3 -1 -3 -1 0 -1 -3 -1 -6 0 -3 0 -6 -1 -6 -1 0 -1 -2
-1 -4 0 -2 0 -4 1 -4 1 0 1 -1 1 -3 0 -2 0 -3 1 -3 1 0 1 -3 1 -7 0 -4 0 -7
-1 -7 -1 0 -1 -2 -1 -4 0 -2 0 -4 -1 -4 -1 0 -1 -2 -1 -4 0 -2 0 -4 -1 -4 -1
0 -1 -1 -1 -3 0 -2 0 -3 -1 -3 -1 0 -1 -2 -1 -4 0 -2 0 -4 -1 -4 -1 0 -1 -1
-1 -3 0 -2 0 -3 -1 -3 -1 0 -1 -1 -1 -3 l0 -3 84 0 c82 0 84 0 84 2 0 1 1 2 1
2 1 1 1 1 0 2 0 0 -1 2 -1 5 0 4 0 5 5 9 3 3 5 5 5 6 0 1 1 2 2 3 1 1 2 2 2 3
0 0 3 4 7 8 4 4 7 8 7 8 0 1 0 2 1 2 1 0 1 3 1 6 0 3 0 6 -1 6 -1 0 -1 3 -1 8
0 5 0 8 -1 8 -1 0 -1 7 -1 19 0 12 0 19 1 19 1 0 1 1 1 2 0 1 4 6 6 6 2 0 16
15 16 16 0 1 0 2 1 2 1 0 1 2 1 5 0 3 0 5 -1 5 -1 0 -1 2 -1 4 0 2 0 4 -1 4
-1 0 -1 1 -1 3 0 2 0 3 -1 3 -1 0 -1 5 -1 13 0 8 0 13 -1 13 -1 0 -1 1 -1 2 0
1 0 2 -1 2 -1 0 -1 1 -1 3 0 2 0 3 -1 3 -1 0 -1 1 -1 3 0 2 0 3 -1 3 -1 0 -1
1 -1 3 0 2 0 3 -1 3 -1 0 -1 2 -1 4 0 2 0 4 -1 4 -1 0 -1 1 -1 3 0 2 0 3 -1 3
-1 0 -1 3 -1 7 0 4 0 7 1 7 1 0 1 1 1 3 0 2 0 3 1 3 1 0 1 1 1 2 0 1 0 2 1 2
1 0 1 1 1 3 0 2 0 3 1 3 1 0 1 1 1 3 0 2 0 3 1 3 1 0 1 2 1 4 0 2 0 4 1 4 1 0
1 2 1 4 0 2 0 4 1 4 1 0 1 2 1 4 0 2 0 4 1 4 1 0 1 2 1 5 0 3 0 5 1 5 1 0 1 1
1 3 0 2 0 3 1 3 1 0 1 1 1 3 0 2 0 3 1 3 1 0 1 1 1 3 0 2 0 3 1 3 1 0 1 1 1 3
0 2 0 3 1 3 1 0 1 1 1 3 0 2 0 3 1 3 1 0 1 2 1 4 0 2 0 4 1 4 1 0 1 2 1 5 0 3
0 5 1 5 1 0 1 2 1 5 0 3 0 5 1 5 1 0 1 3 1 7 0 4 0 7 1 7 1 0 1 1 1 3 0 2 0 3
1 3 1 0 1 1 1 2 0 1 0 2 1 2 1 0 1 1 1 3 0 2 0 3 1 3 1 0 1 2 1 4 0 2 0 4 1 4
1 0 1 3 1 8 0 5 0 8 -1 8 -1 0 -1 1 -1 3 0 2 -4 7 -6 7 -1 0 -2 -1 -3 -2z"/>
</g>
</svg>
