<?xml version="1.0" standalone="no"?>
<!DOCTYPE svg PUBLIC "-//W3C//DTD SVG 20010904//EN"
 "http://www.w3.org/TR/2001/REC-SVG-20010904/DTD/svg10.dtd">
<svg version="1.0" xmlns="http://www.w3.org/2000/svg"
 width="640.000000pt" height="480.000000pt" viewBox="0 0 640.000000 480.000000"
 preserveAspectRatio="xMidYMid meet">
<metadata>
Created by potrace 1.14, written by Peter Selinger 2001-2017
</metadata>
<g transform="translate(0.000000,480.000000) scale(1.000000,-1.000000)"
fill="#000000" stroke="none">
<path d="M310 395 c-2 -2 -4 -5 -4 -5 0 -1 0 -2 -1 -2 -1 0 -1 -1 -1 -2 0 -1
-1 -2 -2 -3 -1 -1 -2 -2 -2 -3 0 -1 0 -2 -1 -2 -1 0 -1 -1 -1 -2 0 -1 0 -2 -1
-2 -1 0 -1 -1 -1 -3 0 -2 0 -3 -1 -3 -1 0 -1 -2 -1 -4 0 -2 0 -4 -1 -4 -1 0
-1 -4 -1 -11 0 -7 0 -11 1 -11 1 0 1 -2 1 -4 0 -2 0 -4 1 -4 1 0 1 -2 1 -4 0
-2 -1 -4 -4 -8 -3 -2 -5 -4 -6 -4 -1 0 -5 -4 -9 -8 -7 -7 -8 -8 -11 -8 -2 0
-4 0 -4 -1 0 -1 -2 -1 -5 -1 -3 0 -5 0 -5 -1 0 -1 -1 -1 -2 -1 -1 0 -2 0 -2
-1 0 -1 -1 -1 -2 -1 -1 0 -14 -12 -14 -14 0 -1 -1 -2 -2 -3 -1 -1 -2 -2 -2 -3
0 -1 0 -2 -1 -2 -1 0 -1 -1 -1 -2 0 -1 0 -2 -1 -2 -1 0 -1 -1 -1 -2 0 -1 0 -2
-1 -2 -1 0 -1 -1 -1 -2 0 -1 0 -2 -1 -2 -1 0 -1 -1 -1 -3 0 -2 0 -3 -1 -3 -1
0 -1 -1 -1 -2 0 -1 0 -2 -1 -2 -1 0 -1 -1 -1 -2 0 -1 0 -2 -1 -2 -1 0 -1 -1
-1 -2 0 -1 0 -2 -1 -2 -1 0 -1 -1 -1 -2 0 -1 0 -2 -1 -2 -1 0 -1 -1 -1 -2 0
-1 0 -2 -1 -2 -1 0 -1 -1 -1 -3 0 -1 -1 -3 -2 -4 -1 -1 -2 -2 -2 -3 0 -1 -3
-4 -6 -7 -3 -3 -6 -6 -6 -7 0 -1 -2 -3 -4 -5 -2 -2 -4 -4 -4 -5 0 -1 -1 -2 -3
-4 -2 -2 -3 -3 -3 -4 0 -1 -1 -2 -2 -3 -1 -1 -2 -2 -2 -3 0 -1 -1 -2 -2 -3 -2
-1 -2 -3 -2 -6 0 -3 0 -5 -1 -5 -1 0 -1 -1 -1 -2 0 -1 0 -2 1 -2 1 0 1 -1 1
-3 0 -2 0 -3 -1 -3 -1 0 -1 -1 -1 -2 0 -3 -3 -4 -10 -4 -6 0 -7 0 -10 -2 -1
-2 -2 -3 -2 -4 0 -2 3 -4 4 -4 1 0 2 0 2 -1 0 -1 2 -1 4 -1 2 0 4 0 4 -1 0 -1
1 -1 2 -1 2 0 6 -5 6 -7 0 -2 0 -3 1 -3 1 0 1 -1 1 -2 0 -1 1 -2 2 -3 1 -1 2
-2 2 -3 0 -1 1 -2 2 -2 1 0 2 -1 3 -2 1 -1 2 -2 3 -2 1 0 2 0 2 -1 0 -1 3 -1
6 -1 3 0 6 0 6 1 0 1 3 1 7 1 6 0 6 0 10 3 2 3 3 5 3 8 0 3 0 5 -1 5 -1 0 -1
1 -1 2 0 1 0 2 1 2 1 0 1 3 1 8 0 5 0 8 1 8 1 0 1 1 1 2 0 2 2 4 5 4 1 0 3 -1
5 -2 2 -3 2 -4 2 -10 0 -5 0 -8 1 -8 1 0 1 -4 1 -11 0 -7 0 -11 -1 -11 -1 0
-1 -3 -1 -7 0 -4 0 -7 -1 -7 -1 0 -1 -3 -1 -7 0 -4 0 -7 -1 -7 -1 0 -1 -2 -1
-5 0 -3 0 -5 -1 -5 -1 0 -1 -5 -1 -13 0 -8 0 -13 -1 -13 -1 0 -1 -2 -1 -5 0
-3 0 -5 -1 -5 -1 0 -1 -3 -1 -8 0 -5 0 -8 1 -8 1 0 1 -5 1 -13 l0 -13 84 0
c55 0 84 0 84 1 0 1 0 1 -1 1 -1 0 -1 5 -1 12 0 7 0 12 1 12 1 0 1 2 1 4 0 2
0 4 1 4 1 0 1 3 1 7 0 4 0 7 -1 7 -1 0 -1 1 -1 2 0 1 0 2 -1 2 -1 0 -1 1 -1 3
0 2 0 3 -1 3 -1 0 -1 2 -1 4 0 2 0 4 -1 4 -1 0 -1 2 -1 5 0 3 0 5 -1 5 -1 0
-1 2 -1 5 0 3 0 5 -1 5 -1 0 -1 3 -1 7 0 4 0 7 -1 7 -1 0 -1 1 -1 3 0 2 0 3
-1 3 -1 0 -1 1 -1 3 0 2 0 3 -1 3 -1 0 -1 1 -1 2 0 1 0 2 -1 2 -1 0 -1 2 -1 4
0 3 4 8 6 8 1 0 2 1 2 1 1 1 1 1 2 0 0 0 1 -1 2 -1 1 0 2 0 2 -1 0 -1 1 -1 2
-1 1 0 2 0 2 -1 0 -1 1 -1 2 -1 1 0 2 0 2 -1 0 -1 1 -1 2 -1 1 0 2 0 2 -1 0
-1 1 -1 2 -1 1 0 2 0 2 -1 0 -1 1 -1 2 -1 1 0 2 0 2 -1 0 -1 1 -1 2 -1 1 0 2
0 2 -1 0 -1 1 -1 2 -1 1 0 2 0 2 -1 0 -1 1 -1 2 -1 1 0 2 0 2 -1 0 -1 1 -1 2
-1 1 0 2 0 2 -1 0 -1 1 -1 2 -1 1 0 2 0 2 -1 0 -1 1 -1 3 -1 2 0 3 0 3 -1 0
-1 2 -1 4 -1 2 0 4 0 4 -1 0 -1 3 -1 6 -1 3 0 6 0 6 -1 0 -1 1 -1 3 -1 2 0 3
0 3 -1 0 -1 1 -1 3 -1 2 0 3 0 3 -1 0 -1 1 -1 3 -1 2 0 3 0 3 -1 0 -1 1 -1 2
-1 1 0 2 0 2 -1 0 -1 1 -1 2 -1 1 0 2 0 2 -1 0 -1 1 -1 2 -1 1 0 2 0 2 -1 0
-1 2 -1 4 -1 2 0 4 0 4 -1 0 -1 3 -1 7 -1 4 0 7 0 7 -1 0 -1 3 -1 8 -1 5 0 8
0 8 1 0 1 1 1 2 1 2 0 2 1 2 4 0 3 -2 6 -4 6 -1 0 -2 0 -2 1 0 1 -2 1 -5 1 -3
0 -5 0 -5 1 0 1 -1 1 -2 1 -1 0 -2 0 -2 1 0 1 -1 1 -3 1 -1 0 -4 2 -10 8 -7 7
-8 8 -11 8 -2 0 -4 1 -5 2 -1 1 -2 2 -3 2 -1 0 -2 0 -2 1 0 1 -1 1 -2 1 -1 0
-2 0 -2 1 0 1 -2 1 -4 1 -2 0 -4 0 -4 1 0 1 -1 1 -3 1 -2 0 -3 0 -3 1 0 1 -1
1 -2 1 -1 0 -2 0 -2 1 0 1 -1 1 -2 1 -1 0 -2 1 -3 2 -1 1 -2 2 -3 2 -1 0 -2 0
-2 1 0 1 -1 1 -2 1 -1 0 -2 0 -2 1 0 1 -1 1 -2 1 -1 0 -2 0 -2 1 0 1 -1 1 -2
1 -1 0 -2 0 -2 1 0 1 -1 1 -2 1 -1 0 -2 1 -3 2 -1 1 -2 2 -3 2 0 0 -4 3 -8 7
-4 4 -7 7 -8 7 -2 0 -6 5 -6 6 0 1 0 2 -1 2 -1 0 -1 3 -1 8 0 5 0 8 -1 8 -1 0
-1 2 -1 4 0 2 0 4 -1 4 -1 0 -1 3 -1 7 0 4 0 7 -1 7 -1 0 -1 6 -1 15 0 9 0 15
-1 15 -1 0 -1 2 -1 5 0 3 0 5 -1 5 -1 0 -1 1 -1 3 0 2 0 3 -1 3 -1 0 -1 1 -1
2 0 1 0 2 -1 2 -1 0 -1 1 -1 2 0 0 -4 5 -8 9 -4 4 -8 9 -8 9 0 1 0 2 -1 2 -1
0 -1 1 -1 3 0 2 0 3 1 3 1 0 1 4 1 10 0 6 0 10 -1 10 -1 0 -1 1 -1 3 0 2 0 3
-1 3 -1 0 -1 4 -1 10 0 6 0 10 1 10 1 0 1 4 1 11 0 7 0 11 -1 11 -1 0 -1 2 -1
5 0 3 0 5 -1 5 -1 0 -1 2 -1 4 0 2 0 4 -1 4 -1 0 -1 1 -1 3 0 2 0 3 -1 3 -1 0
-1 3 -1 6 0 3 0 6 -1 6 -1 0 -1 1 -1 2 0 2 -2 4 -4 4 -1 0 -2 0 -2 1 0 1 -2 1
-5 1 -3 0 -5 0 -5 1 0 1 -4 1 -11 1 l-10 0 -5 -5z"/>
</g>
</svg>
