<?xml version="1.0" standalone="no"?>
<!DOCTYPE svg PUBLIC "-//W3C//DTD SVG 20010904//EN"
 "http://www.w3.org/TR/2001/REC-SVG-20010904/DTD/svg10.dtd">
<svg version="1.0" xmlns="http://www.w3.org/2000/svg"
 width="640.000000pt" height="480.000000pt" viewBox="0 0 640.000000 480.000000"
 preserveAspectRatio="xMidYMid meet">
<metadata>
Created by potrace 1.14, written by Peter Selinger 2001-2017
</metadata>
<g transform="translate(0.000000,480.000000) scale(1.000000,-1.000000)"
fill="#000000" stroke="none">
<path d="M0 240 c0 -132 1 -186 1 -120 0 66 0 174 0 240 0 66 -1 12 -1 -120z"/>
<path d="M2 240 c0 -213 0 -240 2 -240 1 0 1 27 1 240 0 213 0 240 -1 240 -2
0 -2 -27 -2 -240z"/>
<path d="M6 240 c0 -213 0 -240 2 -240 1 0 1 27 1 240 0 213 0 240 -1 240 -2
0 -2 -27 -2 -240z"/>
<path d="M10 240 c0 -213 0 -240 2 -240 1 0 1 27 1 240 0 213 0 240 -1 240 -2
0 -2 -27 -2 -240z"/>
<path d="M14 240 c0 -213 0 -240 2 -240 1 0 1 27 1 240 0 213 0 240 -1 240 -2
0 -2 -27 -2 -240z"/>
<path d="M18 240 c0 -213 0 -240 2 -240 1 0 1 27 1 240 0 213 0 240 -1 240 -2
0 -2 -27 -2 -240z"/>
<path d="M22 240 c0 -213 0 -240 2 -240 1 0 1 27 1 240 0 213 0 240 -1 240 -2
0 -2 -27 -2 -240z"/>
<path d="M26 240 c0 -213 0 -240 2 -240 1 0 1 27 1 240 0 213 0 240 -1 240 -2
0 -2 -27 -2 -240z"/>
<path d="M30 240 c0 -213 0 -240 2 -240 1 0 1 27 1 240 0 213 0 240 -1 240 -2
0 -2 -27 -2 -240z"/>
<path d="M34 240 c0 -213 0 -240 2 -240 1 0 1 27 1 240 0 213 0 240 -1 240 -2
0 -2 -27 -2 -240z"/>
<path d="M38 240 c0 -213 0 -240 2 -240 1 0 1 27 1 240 0 213 0 240 -1 240 -2
0 -2 -27 -2 -240z"/>
<path d="M42 240 c0 -213 0 -240 2 -240 1 0 1 27 1 240 0 213 0 240 -1 240 -2
0 -2 -27 -2 -240z"/>
<path d="M46 240 c0 -213 0 -240 2 -240 1 0 1 27 1 240 0 213 0 240 -1 240 -2
0 -2 -27 -2 -240z"/>
<path d="M50 240 c0 -213 0 -240 2 -240 1 0 1 27 1 240 0 213 0 240 -1 240 -2
0 -2 -27 -2 -240z"/>
<path d="M54 240 c0 -213 0 -240 2 -240 1 0 1 27 1 240 0 213 0 240 -1 240 -2
0 -2 -27 -2 -240z"/>
<path d="M58 240 c0 -213 0 -240 2 -240 1 0 1 27 1 240 0 213 0 240 -1 240 -2
0 -2 -27 -2 -240z"/>
<path d="M62 240 c0 -213 0 -240 2 -240 1 0 1 27 1 240 0 213 0 240 -1 240 -2
0 -2 -27 -2 -240z"/>
<path d="M66 240 c0 -213 0 -240 2 -240 1 0 1 27 1 240 0 213 0 240 -1 240 -2
0 -2 -27 -2 -240z"/>
<path d="M70 240 c0 -213 0 -240 2 -240 1 0 1 27 1 240 0 213 0 240 -1 240 -2
0 -2 -27 -2 -240z"/>
<path d="M74 240 c0 -213 0 -240 2 -240 1 0 1 27 1 240 0 213 0 240 -1 240 -2
0 -2 -27 -2 -240z"/>
<path d="M78 240 c0 -213 0 -240 2 -240 1 0 1 27 1 240 0 213 0 240 -1 240 -2
0 -2 -27 -2 -240z"/>
<path d="M82 240 c0 -213 0 -240 2 -240 1 0 1 27 1 240 0 213 0 240 -1 240 -2
0 -2 -27 -2 -240z"/>
<path d="M86 240 c0 -213 0 -240 2 -240 1 0 1 27 1 240 0 213 0 240 -1 240 -2
0 -2 -27 -2 -240z"/>
<path d="M90 240 c0 -213 0 -240 2 -240 1 0 1 27 1 240 0 213 0 240 -1 240 -2
0 -2 -27 -2 -240z"/>
<path d="M94 240 c0 -213 0 -240 2 -240 1 0 1 27 1 240 0 213 0 240 -1 240 -2
0 -2 -27 -2 -240z"/>
<path d="M98 240 c0 -213 0 -240 2 -240 1 0 1 27 1 240 0 213 0 240 -1 240 -2
0 -2 -27 -2 -240z"/>
<path d="M102 240 c0 -213 0 -240 2 -240 1 0 1 27 1 240 0 213 0 240 -1 240
-2 0 -2 -27 -2 -240z"/>
<path d="M106 240 c0 -213 0 -240 2 -240 1 0 1 27 1 240 0 213 0 240 -1 240
-2 0 -2 -27 -2 -240z"/>
<path d="M110 240 c0 -213 0 -240 2 -240 1 0 1 27 1 240 0 213 0 240 -1 240
-2 0 -2 -27 -2 -240z"/>
<path d="M114 240 c0 -213 0 -240 2 -240 1 0 1 27 1 240 0 213 0 240 -1 240
-2 0 -2 -27 -2 -240z"/>
<path d="M118 240 c0 -213 0 -240 2 -240 1 0 1 27 1 240 0 213 0 240 -1 240
-2 0 -2 -27 -2 -240z"/>
<path d="M122 240 c0 -213 0 -240 2 -240 1 0 1 27 1 240 0 213 0 240 -1 240
-2 0 -2 -27 -2 -240z"/>
<path d="M126 240 c0 -213 0 -240 2 -240 1 0 1 27 1 240 0 213 0 240 -1 240
-2 0 -2 -27 -2 -240z"/>
<path d="M130 240 c0 -213 0 -240 2 -240 1 0 1 27 1 240 0 213 0 240 -1 240
-2 0 -2 -27 -2 -240z"/>
<path d="M134 240 c0 -213 0 -240 2 -240 1 0 1 27 1 240 0 213 0 240 -1 240
-2 0 -2 -27 -2 -240z"/>
<path d="M138 240 c0 -213 0 -240 2 -240 1 0 1 27 1 240 0 213 0 240 -1 240
-2 0 -2 -27 -2 -240z"/>
<path d="M142 240 c0 -213 0 -240 2 -240 1 0 1 27 1 240 0 213 0 240 -1 240
-2 0 -2 -27 -2 -240z"/>
<path d="M146 240 c0 -213 0 -240 2 -240 1 0 1 27 1 240 0 213 0 240 -1 240
-2 0 -2 -27 -2 -240z"/>
<path d="M150 240 c0 -213 0 -240 2 -240 1 0 1 27 1 240 0 213 0 240 -1 240
-2 0 -2 -27 -2 -240z"/>
<path d="M154 240 c0 -213 0 -240 2 -240 1 0 1 27 1 240 0 213 0 240 -1 240
-2 0 -2 -27 -2 -240z"/>
<path d="M158 240 c0 -213 0 -240 2 -240 1 0 1 27 1 240 0 213 0 240 -1 240
-2 0 -2 -27 -2 -240z"/>
<path d="M162 240 c0 -213 0 -240 2 -240 1 0 1 27 1 240 0 213 0 240 -1 240
-2 0 -2 -27 -2 -240z"/>
<path d="M166 240 c0 -213 0 -240 2 -240 1 0 1 27 1 240 0 213 0 240 -1 240
-2 0 -2 -27 -2 -240z"/>
<path d="M170 240 c0 -213 0 -240 2 -240 1 0 1 27 1 240 0 213 0 240 -1 240
-2 0 -2 -27 -2 -240z"/>
<path d="M174 240 c0 -213 0 -240 2 -240 1 0 1 27 1 240 0 213 0 240 -1 240
-2 0 -2 -27 -2 -240z"/>
<path d="M178 240 c0 -213 0 -240 2 -240 1 0 1 27 1 240 0 213 0 240 -1 240
-2 0 -2 -27 -2 -240z"/>
<path d="M182 240 c0 -213 0 -240 2 -240 1 0 1 27 1 240 0 213 0 240 -1 240
-2 0 -2 -27 -2 -240z"/>
<path d="M186 240 c0 -213 0 -240 2 -240 1 0 1 27 1 240 0 213 0 240 -1 240
-2 0 -2 -27 -2 -240z"/>
<path d="M190 240 c0 -213 0 -240 2 -240 1 0 1 27 1 240 0 213 0 240 -1 240
-2 0 -2 -27 -2 -240z"/>
<path d="M194 240 c0 -213 0 -240 2 -240 1 0 1 27 1 240 0 213 0 240 -1 240
-2 0 -2 -27 -2 -240z"/>
<path d="M198 240 c0 -213 0 -240 2 -240 1 0 1 27 1 240 0 213 0 240 -1 240
-2 0 -2 -27 -2 -240z"/>
<path d="M202 240 c0 -213 0 -240 2 -240 1 0 1 27 1 240 0 213 0 240 -1 240
-2 0 -2 -27 -2 -240z"/>
<path d="M206 240 c0 -213 0 -240 2 -240 1 0 1 27 1 240 0 213 0 240 -1 240
-2 0 -2 -27 -2 -240z"/>
<path d="M210 240 c0 -213 0 -240 2 -240 1 0 1 27 1 240 0 213 0 240 -1 240
-2 0 -2 -27 -2 -240z"/>
<path d="M214 240 c0 -213 0 -240 2 -240 1 0 1 27 1 240 0 213 0 240 -1 240
-2 0 -2 -27 -2 -240z"/>
<path d="M218 240 c0 -213 0 -240 2 -240 1 0 1 27 1 240 0 213 0 240 -1 240
-2 0 -2 -27 -2 -240z"/>
<path d="M222 240 c0 -213 0 -240 2 -240 1 0 1 27 1 240 0 213 0 240 -1 240
-2 0 -2 -27 -2 -240z"/>
<path d="M226 240 c0 -213 0 -240 2 -240 1 0 1 27 1 240 0 213 0 240 -1 240
-2 0 -2 -27 -2 -240z"/>
<path d="M230 240 c0 -213 0 -240 2 -240 1 0 1 27 1 240 0 213 0 240 -1 240
-2 0 -2 -27 -2 -240z"/>
<path d="M234 240 c0 -213 0 -240 2 -240 1 0 1 27 1 240 0 213 0 240 -1 240
-2 0 -2 -27 -2 -240z"/>
<path d="M238 240 c0 -213 0 -240 2 -240 1 0 1 27 1 240 0 213 0 240 -1 240
-2 0 -2 -27 -2 -240z"/>
<path d="M242 240 c0 -213 0 -240 2 -240 1 0 1 27 1 240 0 213 0 240 -1 240
-2 0 -2 -27 -2 -240z"/>
<path d="M246 240 c0 -213 0 -240 2 -240 1 0 1 27 1 240 0 213 0 240 -1 240
-2 0 -2 -27 -2 -240z"/>
<path d="M250 240 c0 -213 0 -240 2 -240 1 0 1 27 1 240 0 213 0 240 -1 240
-2 0 -2 -27 -2 -240z"/>
<path d="M254 240 c0 -213 0 -240 2 -240 1 0 1 27 1 240 0 213 0 240 -1 240
-2 0 -2 -27 -2 -240z"/>
<path d="M258 240 c0 -213 0 -240 2 -240 1 0 1 27 1 240 0 213 0 240 -1 240
-2 0 -2 -27 -2 -240z"/>
<path d="M262 240 c0 -213 0 -240 2 -240 1 0 1 27 1 240 0 213 0 240 -1 240
-2 0 -2 -27 -2 -240z"/>
<path d="M266 240 c0 -213 0 -240 2 -240 1 0 1 27 1 240 0 213 0 240 -1 240
-2 0 -2 -27 -2 -240z"/>
<path d="M270 240 c0 -213 0 -240 2 -240 1 0 1 27 1 240 0 213 0 240 -1 240
-2 0 -2 -27 -2 -240z"/>
<path d="M274 240 c0 -213 0 -240 2 -240 1 0 1 27 1 240 0 213 0 240 -1 240
-2 0 -2 -27 -2 -240z"/>
<path d="M278 240 c0 -213 0 -240 2 -240 1 0 1 27 1 240 0 213 0 240 -1 240
-2 0 -2 -27 -2 -240z"/>
<path d="M282 240 c0 -213 0 -240 2 -240 1 0 1 27 1 240 0 213 0 240 -1 240
-2 0 -2 -27 -2 -240z"/>
<path d="M286 240 c0 -213 0 -240 2 -240 1 0 1 27 1 240 0 213 0 240 -1 240
-2 0 -2 -27 -2 -240z"/>
<path d="M290 240 c0 -213 0 -240 2 -240 1 0 1 27 1 240 0 213 0 240 -1 240
-2 0 -2 -27 -2 -240z"/>
<path d="M294 240 c0 -213 0 -240 2 -240 1 0 1 27 1 240 0 213 0 240 -1 240
-2 0 -2 -27 -2 -240z"/>
<path d="M298 240 c0 -213 0 -240 2 -240 1 0 1 27 1 240 0 213 0 240 -1 240
-2 0 -2 -27 -2 -240z"/>
<path d="M302 240 c0 -213 0 -240 2 -240 1 0 1 27 1 240 0 213 0 240 -1 240
-2 0 -2 -27 -2 -240z"/>
<path d="M306 240 c0 -213 0 -240 2 -240 1 0 1 27 1 240 0 213 0 240 -1 240
-2 0 -2 -27 -2 -240z"/>
<path d="M310 240 c0 -213 0 -240 2 -240 1 0 1 27 1 240 0 213 0 240 -1 240
-2 0 -2 -27 -2 -240z"/>
<path d="M314 240 c0 -213 0 -240 2 -240 1 0 1 27 1 240 0 213 0 240 -1 240
-2 0 -2 -27 -2 -240z"/>
<path d="M318 240 c0 -213 0 -240 2 -240 1 0 1 27 1 240 0 213 0 240 -1 240
-2 0 -2 -27 -2 -240z"/>
<path d="M322 240 c0 -213 0 -240 2 -240 1 0 1 27 1 240 0 213 0 240 -1 240
-2 0 -2 -27 -2 -240z"/>
<path d="M326 240 c0 -213 0 -240 2 -240 1 0 1 27 1 240 0 213 0 240 -1 240
-2 0 -2 -27 -2 -240z"/>
<path d="M330 240 c0 -213 0 -240 2 -240 1 0 1 27 1 240 0 213 0 240 -1 240
-2 0 -2 -27 -2 -240z"/>
<path d="M334 240 c0 -213 0 -240 2 -240 1 0 1 27 1 240 0 213 0 240 -1 240
-2 0 -2 -27 -2 -240z"/>
<path d="M338 240 c0 -213 0 -240 2 -240 1 0 1 27 1 240 0 213 0 240 -1 240
-2 0 -2 -27 -2 -240z"/>
<path d="M342 240 c0 -213 0 -240 2 -240 1 0 1 27 1 240 0 213 0 240 -1 240
-2 0 -2 -27 -2 -240z"/>
<path d="M346 240 c0 -213 0 -240 2 -240 1 0 1 27 1 240 0 213 0 240 -1 240
-2 0 -2 -27 -2 -240z"/>
<path d="M350 240 c0 -213 0 -240 2 -240 1 0 1 27 1 240 0 213 0 240 -1 240
-2 0 -2 -27 -2 -240z"/>
<path d="M354 240 c0 -213 0 -240 2 -240 1 0 1 27 1 240 0 213 0 240 -1 240
-2 0 -2 -27 -2 -240z"/>
<path d="M358 240 c0 -213 0 -240 2 -240 1 0 1 27 1 240 0 213 0 240 -1 240
-2 0 -2 -27 -2 -240z"/>
<path d="M362 240 c0 -213 0 -240 2 -240 1 0 1 27 1 240 0 213 0 240 -1 240
-2 0 -2 -27 -2 -240z"/>
<path d="M366 240 c0 -213 0 -240 2 -240 1 0 1 27 1 240 0 213 0 240 -1 240
-2 0 -2 -27 -2 -240z"/>
<path d="M370 240 c0 -213 0 -240 2 -240 1 0 1 27 1 240 0 213 0 240 -1 240
-2 0 -2 -27 -2 -240z"/>
<path d="M374 240 c0 -213 0 -240 2 -240 1 0 1 27 1 240 0 213 0 240 -1 240
-2 0 -2 -27 -2 -240z"/>
<path d="M378 240 c0 -213 0 -240 2 -240 1 0 1 27 1 240 0 213 0 240 -1 240
-2 0 -2 -27 -2 -240z"/>
<path d="M382 240 c0 -213 0 -240 2 -240 1 0 1 27 1 240 0 213 0 240 -1 240
-2 0 -2 -27 -2 -240z"/>
<path d="M386 240 c0 -213 0 -240 2 -240 1 0 1 27 1 240 0 213 0 240 -1 240
-2 0 -2 -27 -2 -240z"/>
<path d="M390 240 c0 -213 0 -240 2 -240 1 0 1 27 1 240 0 213 0 240 -1 240
-2 0 -2 -27 -2 -240z"/>
<path d="M394 240 c0 -213 0 -240 2 -240 1 0 1 27 1 240 0 213 0 240 -1 240
-2 0 -2 -27 -2 -240z"/>
<path d="M398 240 c0 -213 0 -240 2 -240 1 0 1 27 1 240 0 213 0 240 -1 240
-2 0 -2 -27 -2 -240z"/>
<path d="M402 240 c0 -213 0 -240 2 -240 1 0 1 27 1 240 0 213 0 240 -1 240
-2 0 -2 -27 -2 -240z"/>
<path d="M406 240 c0 -213 0 -240 2 -240 1 0 1 27 1 240 0 213 0 240 -1 240
-2 0 -2 -27 -2 -240z"/>
<path d="M410 240 c0 -213 0 -240 2 -240 1 0 1 27 1 240 0 213 0 240 -1 240
-2 0 -2 -27 -2 -240z"/>
<path d="M414 240 c0 -213 0 -240 2 -240 1 0 1 27 1 240 0 213 0 240 -1 240
-2 0 -2 -27 -2 -240z"/>
<path d="M418 240 c0 -213 0 -240 2 -240 1 0 1 27 1 240 0 213 0 240 -1 240
-2 0 -2 -27 -2 -240z"/>
<path d="M422 240 c0 -213 0 -240 2 -240 1 0 1 27 1 240 0 213 0 240 -1 240
-2 0 -2 -27 -2 -240z"/>
<path d="M426 240 c0 -213 0 -240 2 -240 1 0 1 27 1 240 0 213 0 240 -1 240
-2 0 -2 -27 -2 -240z"/>
<path d="M430 240 c0 -213 0 -240 2 -240 1 0 1 27 1 240 0 213 0 240 -1 240
-2 0 -2 -27 -2 -240z"/>
<path d="M434 240 c0 -213 0 -240 2 -240 1 0 1 27 1 240 0 213 0 240 -1 240
-2 0 -2 -27 -2 -240z"/>
<path d="M438 240 c0 -213 0 -240 2 -240 1 0 1 27 1 240 0 213 0 240 -1 240
-2 0 -2 -27 -2 -240z"/>
<path d="M442 240 c0 -213 0 -240 2 -240 1 0 1 27 1 240 0 213 0 240 -1 240
-2 0 -2 -27 -2 -240z"/>
<path d="M446 240 c0 -213 0 -240 2 -240 1 0 1 27 1 240 0 213 0 240 -1 240
-2 0 -2 -27 -2 -240z"/>
<path d="M450 240 c0 -213 0 -240 2 -240 1 0 1 27 1 240 0 213 0 240 -1 240
-2 0 -2 -27 -2 -240z"/>
<path d="M454 240 c0 -213 0 -240 2 -240 1 0 1 27 1 240 0 213 0 240 -1 240
-2 0 -2 -27 -2 -240z"/>
<path d="M458 240 c0 -213 0 -240 2 -240 1 0 1 27 1 240 0 213 0 240 -1 240
-2 0 -2 -27 -2 -240z"/>
<path d="M462 240 c0 -213 0 -240 2 -240 1 0 1 27 1 240 0 213 0 240 -1 240
-2 0 -2 -27 -2 -240z"/>
<path d="M466 240 c0 -213 0 -240 2 -240 1 0 1 27 1 240 0 213 0 240 -1 240
-2 0 -2 -27 -2 -240z"/>
<path d="M470 240 c0 -213 0 -240 2 -240 1 0 1 27 1 240 0 213 0 240 -1 240
-2 0 -2 -27 -2 -240z"/>
<path d="M474 240 c0 -213 0 -240 2 -240 1 0 1 27 1 240 0 213 0 240 -1 240
-2 0 -2 -27 -2 -240z"/>
<path d="M478 240 c0 -213 0 -240 2 -240 1 0 1 27 1 240 0 213 0 240 -1 240
-2 0 -2 -27 -2 -240z"/>
<path d="M482 240 c0 -213 0 -240 2 -240 1 0 1 27 1 240 0 213 0 240 -1 240
-2 0 -2 -27 -2 -240z"/>
<path d="M486 240 c0 -213 0 -240 2 -240 1 0 1 27 1 240 0 213 0 240 -1 240
-2 0 -2 -27 -2 -240z"/>
<path d="M490 240 c0 -213 0 -240 2 -240 1 0 1 27 1 240 0 213 0 240 -1 240
-2 0 -2 -27 -2 -240z"/>
<path d="M494 240 c0 -213 0 -240 2 -240 1 0 1 27 1 240 0 213 0 240 -1 240
-2 0 -2 -27 -2 -240z"/>
<path d="M498 240 c0 -213 0 -240 2 -240 1 0 1 27 1 240 0 213 0 240 -1 240
-2 0 -2 -27 -2 -240z"/>
<path d="M502 240 c0 -213 0 -240 2 -240 1 0 1 27 1 240 0 213 0 240 -1 240
-2 0 -2 -27 -2 -240z"/>
<path d="M506 240 c0 -213 0 -240 2 -240 1 0 1 27 1 240 0 213 0 240 -1 240
-2 0 -2 -27 -2 -240z"/>
<path d="M510 240 c0 -213 0 -240 2 -240 1 0 1 27 1 240 0 213 0 240 -1 240
-2 0 -2 -27 -2 -240z"/>
<path d="M514 240 c0 -213 0 -240 2 -240 1 0 1 27 1 240 0 213 0 240 -1 240
-2 0 -2 -27 -2 -240z"/>
<path d="M518 240 c0 -213 0 -240 2 -240 1 0 1 27 1 240 0 213 0 240 -1 240
-2 0 -2 -27 -2 -240z"/>
<path d="M522 240 c0 -213 0 -240 2 -240 1 0 1 27 1 240 0 213 0 240 -1 240
-2 0 -2 -27 -2 -240z"/>
<path d="M526 240 c0 -213 0 -240 2 -240 1 0 1 27 1 240 0 213 0 240 -1 240
-2 0 -2 -27 -2 -240z"/>
<path d="M530 240 c0 -213 0 -240 2 -240 1 0 1 27 1 240 0 213 0 240 -1 240
-2 0 -2 -27 -2 -240z"/>
<path d="M534 240 c0 -213 0 -240 2 -240 1 0 1 27 1 240 0 213 0 240 -1 240
-2 0 -2 -27 -2 -240z"/>
<path d="M538 240 c0 -213 0 -240 2 -240 1 0 1 27 1 240 0 213 0 240 -1 240
-2 0 -2 -27 -2 -240z"/>
<path d="M542 240 c0 -213 0 -240 2 -240 1 0 1 27 1 240 0 213 0 240 -1 240
-2 0 -2 -27 -2 -240z"/>
<path d="M546 240 c0 -213 0 -240 2 -240 1 0 1 27 1 240 0 213 0 240 -1 240
-2 0 -2 -27 -2 -240z"/>
<path d="M550 240 c0 -213 0 -240 2 -240 1 0 1 27 1 240 0 213 0 240 -1 240
-2 0 -2 -27 -2 -240z"/>
<path d="M554 240 c0 -213 0 -240 2 -240 1 0 1 27 1 240 0 213 0 240 -1 240
-2 0 -2 -27 -2 -240z"/>
<path d="M558 240 c0 -213 0 -240 2 -240 1 0 1 27 1 240 0 213 0 240 -1 240
-2 0 -2 -27 -2 -240z"/>
<path d="M562 240 c0 -213 0 -240 2 -240 1 0 1 27 1 240 0 213 0 240 -1 240
-2 0 -2 -27 -2 -240z"/>
<path d="M566 240 c0 -213 0 -240 2 -240 1 0 1 27 1 240 0 213 0 240 -1 240
-2 0 -2 -27 -2 -240z"/>
<path d="M570 240 c0 -213 0 -240 2 -240 1 0 1 27 1 240 0 213 0 240 -1 240
-2 0 -2 -27 -2 -240z"/>
<path d="M574 240 c0 -213 0 -240 2 -240 1 0 1 27 1 240 0 213 0 240 -1 240
-2 0 -2 -27 -2 -240z"/>
<path d="M578 240 c0 -213 0 -240 2 -240 1 0 1 27 1 240 0 213 0 240 -1 240
-2 0 -2 -27 -2 -240z"/>
<path d="M582 240 c0 -213 0 -240 2 -240 1 0 1 27 1 240 0 213 0 240 -1 240
-2 0 -2 -27 -2 -240z"/>
<path d="M586 240 c0 -213 0 -240 2 -240 1 0 1 27 1 240 0 213 0 240 -1 240
-2 0 -2 -27 -2 -240z"/>
<path d="M590 240 c0 -213 0 -240 2 -240 1 0 1 27 1 240 0 213 0 240 -1 240
-2 0 -2 -27 -2 -240z"/>
<path d="M594 240 c0 -213 0 -240 2 -240 1 0 1 27 1 240 0 213 0 240 -1 240
-2 0 -2 -27 -2 -240z"/>
<path d="M598 240 c0 -213 0 -240 2 -240 1 0 1 27 1 240 0 213 0 240 -1 240
-2 0 -2 -27 -2 -240z"/>
<path d="M602 240 c0 -213 0 -240 2 -240 1 0 1 27 1 240 0 213 0 240 -1 240
-2 0 -2 -27 -2 -240z"/>
<path d="M606 240 c0 -213 0 -240 2 -240 1 0 1 27 1 240 0 213 0 240 -1 240
-2 0 -2 -27 -2 -240z"/>
<path d="M610 240 c0 -213 0 -240 2 -240 1 0 1 27 1 240 0 213 0 240 -1 240
-2 0 -2 -27 -2 -240z"/>
<path d="M614 240 c0 -213 0 -240 2 -240 1 0 1 27 1 240 0 213 0 240 -1 240
-2 0 -2 -27 -2 -240z"/>
<path d="M618 240 c0 -213 0 -240 2 -240 1 0 1 27 1 240 0 213 0 240 -1 240
-2 0 -2 -27 -2 -240z"/>
<path d="M622 240 c0 -213 0 -240 2 -240 1 0 1 27 1 240 0 213 0 240 -1 240
-2 0 -2 -27 -2 -240z"/>
<path d="M626 240 c0 -213 0 -240 2 -240 1 0 1 27 1 240 0 213 0 240 -1 240
-2 0 -2 -27 -2 -240z"/>
<path d="M630 240 c0 -213 0 -240 2 -240 1 0 1 27 1 240 0 213 0 240 -1 240
-2 0 -2 -27 -2 -240z"/>
<path d="M634 240 c0 -213 0 -240 2 -240 1 0 1 27 1 240 0 213 0 240 -1 240
-2 0 -2 -27 -2 -240z"/>
<path d="M638 240 c0 -137 0 -240 1 -240 0 0 1 103 1 240 0 132 -1 240 -1 240
-1 0 -1 -108 -1 -240z"/>
</g>
</svg>
